<svg xmlns="http://www.w3.org/2000/svg" viewBox="0 0 122 26"><defs><style>.cls-1{fill:#1c1b17;}.cls-2{fill:#ef7f1a;}</style></defs><title>Ресурс 1</title><g id="Слой_2" data-name="Слой 2"><g id="Слой_1-2" data-name="Слой 1"><g id="Слой_1-3" data-name="Слой_1"><path class="cls-1" d="M35.22,6.76c1.8,0,2.68,1.15,2.89,2.8V22.95A2.74,2.74,0,0,1,36,25.82,2.44,2.44,0,0,1,35,26H2.39A2.1,2.1,0,0,1,0,23.87L.06,19c0-1.82,1.36-2.59,2.9-2.59H29.35a3.21,3.21,0,0,0,3.29-2.55c.18-1.72-.39-3.53-2.41-3.73l-.88-.09H2.08c-1,0-1.9-.34-2-1.18C-.11,7.49.5,6.94,1.92,6.76h33.3Zm-27.74,16h23c1.2,0,1.92-.37,2.17-1.09a1.66,1.66,0,0,0-1.85-2h-23c-1.2,0-1.93.37-2.17,1.1-.24,1.22.68,1.95,1.85,1.95ZM85.75,6.93H119c2.12,0,3,1.61,3,3.55V23.3c0,3.5-5.93,3.51-5.93.5V12.25c0-1.39-1.59-2-2.68-2h-5.59A2.68,2.68,0,0,0,105,12.74V23.55c0,3.18-5.58,3.22-5.58.25V12.25c0-1.39-1.6-2-2.68-2H91.19a2.67,2.67,0,0,0-2.77,2.53V23.55c0,3.08-5.59,3.24-5.59.25V9.71a2.62,2.62,0,0,1,2.92-2.78Z"/><path class="cls-2" d="M76,0h2.3c1.1,0,1.64.51,1.64,1.53V23.19q0,2.46-2.88,2.8H43.63q-2.88-.34-2.88-2.8V17.42c0-2.62.09-5.27.09-7.9q0-2.48,2.87-2.82H53.87a1.05,1.05,0,0,1,1,1.06V9a1.05,1.05,0,0,1-1,1.06H49.3a2.85,2.85,0,0,0-2.71,1.78,6.5,6.5,0,0,0-.25,1.78v6.29q0,2.46,2.89,2.8H71.45q2.89-.34,2.89-2.8v-7q0-2.89-4.19-2.89H66.77a1.05,1.05,0,0,1-1-1.06V7.76a1.05,1.05,0,0,1,1-1.06h4.68q2.89-.32,2.89-2.8V1.53C74.33.51,74.88,0,76,0Z"/><path class="cls-2" d="M58.55,2.25H62A1.45,1.45,0,0,1,63.47,3.7v9.75A1.45,1.45,0,0,1,62,14.9H58.55a1.45,1.45,0,0,1-1.43-1.45V3.7A1.45,1.45,0,0,1,58.55,2.25Z"/></g></g></g></svg>