<?xml version="1.0" encoding="UTF-8"?>
<!DOCTYPE svg PUBLIC "-//W3C//DTD SVG 1.1//EN" "http://www.w3.org/Graphics/SVG/1.1/DTD/svg11.dtd">
<!-- Creator: CorelDRAW 2019 (64-Bit) -->
<svg xmlns="http://www.w3.org/2000/svg" xml:space="preserve" width="61mm" height="57mm" version="1.1" style="shape-rendering:geometricPrecision; text-rendering:geometricPrecision; image-rendering:optimizeQuality; fill-rule:evenodd; clip-rule:evenodd"
viewBox="0 0 6100 5700"
 xmlns:xlink="http://www.w3.org/1999/xlink">
 <defs>
  <style type="text/css">
   <![CDATA[
    .fil2 {fill:#FEFEFE}
    .fil1 {fill:#EF7F1A}
    .fil0 {fill:#2B2A29;fill-rule:nonzero}
    .fil3 {fill:#EF7F1A;fill-rule:nonzero}
   ]]>
  </style>
 </defs>
 <g id="Слой_x0020_1">
  <metadata id="CorelCorpID_0Corel-Layer"/>
  <path class="fil0" d="M661.06 11.12l4733.13 0 0 5160.14 -4783.12 0c-0.24,-1224.54 -0.31,-2449.09 -0.21,-3673.63l14.99 10.23 85.21 -24.64 0 3588.04 4583.13 0 0 -4960.14 -4583.13 0 0 711.51 -100.11 -67.57 0.12 -743.94 49.99 0z"/>
  <polygon class="fil0" points="1156.84,4095.62 2827.02,4085.13 2827.42,4184.73 1157.24,4195.22 "/>
  <polygon class="fil0" points="1156.65,3780.84 2377.05,3770.92 2377.83,3870.52 1157.43,3880.44 "/>
  <polygon class="fil0" points="1156.65,4409.83 2377.05,4399.91 2377.83,4499.51 1157.43,4509.43 "/>
  <circle class="fil1" cx="2083.24" cy="2052.07" r="238.12"/>
  <path class="fil0" d="M2083.24 1763.94c79.38,0 151.39,32.29 203.63,84.5l0.1 -0.1c52.13,52.13 84.39,124.17 84.39,203.73 0,79.41 -32.26,151.4 -84.39,203.54l-0.19 0.19c-52.14,52.13 -124.13,84.39 -203.54,84.39 -79.56,0 -151.6,-32.26 -203.73,-84.39l0.1 -0.1c-52.21,-52.24 -84.5,-124.25 -84.5,-203.63 0,-79.43 32.26,-151.41 84.39,-203.55l0.19 -0.19c52.14,-52.13 124.12,-84.39 203.55,-84.39zm133.03 154.91c-33.91,-33.92 -80.95,-54.91 -133.03,-54.91 -52.03,0 -99.1,21.02 -133.13,55 -33.98,34.03 -55,81.1 -55,133.13 0,52.08 20.99,99.12 54.91,133.03l0.19 0c34.03,34.03 81.07,55.09 133.03,55.09 52.02,0 99.09,-21.02 133.12,-55 33.98,-34.03 55,-81.1 55,-133.12 0,-51.96 -21.06,-99 -55.09,-133.03l0 -0.19z"/>
  <path class="fil0" d="M2083.23 1459.66c163.56,0 311.7,66.32 418.89,173.52 107.2,107.19 173.52,255.31 173.52,418.89 0,163.58 -66.32,311.7 -173.51,418.9 -107.2,107.19 -255.32,173.51 -418.9,173.51 -163.58,0 -311.7,-66.32 -418.9,-173.51 -107.19,-107.2 -173.51,-255.32 -173.51,-418.9 0,-163.58 66.32,-311.7 173.51,-418.9 107.2,-107.19 255.32,-173.51 418.9,-173.51zm348.19 244.22c-89.09,-89.1 -212.21,-144.22 -348.19,-144.22 -135.98,0 -259.1,55.12 -348.2,144.21 -89.09,89.1 -144.21,212.22 -144.21,348.2 0,135.98 55.12,259.1 144.21,348.2 89.1,89.09 212.22,144.21 348.2,144.21 135.98,0 259.1,-55.12 348.2,-144.21 89.09,-89.1 144.21,-212.22 144.21,-348.2 0,-135.98 -55.12,-259.1 -144.22,-348.19z"/>
  <path class="fil0" d="M2083.23 1228.15c227.52,0 433.5,92.22 582.6,241.32 149.1,149.1 241.32,355.08 241.32,582.6 0,227.52 -92.22,433.5 -241.32,582.6 -149.1,149.1 -355.08,241.32 -582.6,241.32 -227.52,0 -433.5,-92.22 -582.6,-241.32 -149.1,-149.1 -241.32,-355.08 -241.32,-582.6 0,-227.52 92.22,-433.5 241.32,-582.6 149.1,-149.1 355.08,-241.32 582.6,-241.32zm511.9 312.02c-130.99,-130.99 -311.98,-212.02 -511.9,-212.02 -199.92,0 -380.91,81.03 -511.9,212.02 -130.99,130.99 -212.02,311.98 -212.02,511.9 0,199.92 81.03,380.91 212.02,511.9 130.99,130.99 311.98,212.02 511.9,212.02 199.92,0 380.91,-81.03 511.9,-212.02 130.99,-130.99 212.02,-311.98 212.02,-511.9 0,-199.92 -81.03,-380.91 -212.02,-511.9z"/>
  <path class="fil0" d="M2083.23 956.97c302.38,0 576.19,122.58 774.35,320.75 198.17,198.16 320.75,471.94 320.75,774.35 0,302.39 -122.58,576.2 -320.75,774.36 -198.16,198.17 -471.96,320.75 -774.35,320.75 -302.39,0 -576.2,-122.58 -774.36,-320.75 -198.17,-198.16 -320.75,-471.97 -320.75,-774.36 0,-302.41 122.58,-576.19 320.75,-774.35 198.16,-198.17 471.97,-320.75 774.36,-320.75zm703.65 391.45c-180.06,-180.07 -428.85,-291.45 -703.65,-291.45 -274.81,0 -523.6,111.38 -703.66,291.45 -180.07,180.06 -291.45,428.85 -291.45,703.65 0,274.81 111.38,523.6 291.45,703.66 180.06,180.07 428.85,291.45 703.66,291.45 274.81,0 523.59,-111.38 703.65,-291.45 180.07,-180.06 291.45,-428.85 291.45,-703.66 0,-274.8 -111.38,-523.59 -291.45,-703.65z"/>
  <path class="fil0" d="M3548.39 1694.43c62.19,0 118.54,25.23 159.3,65.99 40.76,40.76 65.99,97.09 65.99,159.3 0,62.19 -25.23,118.54 -65.99,159.3 -40.76,40.76 -97.11,65.99 -159.3,65.99 -62.21,0 -118.54,-25.23 -159.3,-65.99 -40.76,-40.76 -65.99,-97.11 -65.99,-159.3 0,-62.21 25.23,-118.54 65.99,-159.3 40.76,-40.76 97.09,-65.99 159.3,-65.99zm88.6 136.69c-22.66,-22.66 -54.01,-36.69 -88.6,-36.69 -34.6,0 -65.94,14.03 -88.6,36.69 -22.66,22.66 -36.69,54 -36.69,88.6 0,34.59 14.03,65.94 36.69,88.6 22.66,22.66 54,36.69 88.6,36.69 34.59,0 65.94,-14.03 88.6,-36.69 22.66,-22.66 36.69,-54.01 36.69,-88.6 0,-34.6 -14.03,-65.94 -36.69,-88.6z"/>
  <path class="fil0" d="M3998.18 933.76c62.19,0 118.54,25.23 159.3,65.99 40.76,40.76 65.99,97.09 65.99,159.3 0,62.19 -25.23,118.54 -65.99,159.3 -40.76,40.76 -97.11,65.99 -159.3,65.99 -62.21,0 -118.54,-25.23 -159.3,-65.99 -40.76,-40.76 -65.99,-97.11 -65.99,-159.3 0,-62.21 25.23,-118.54 65.99,-159.3 40.76,-40.76 97.09,-65.99 159.3,-65.99zm88.6 136.69c-22.66,-22.66 -54.01,-36.69 -88.6,-36.69 -34.6,0 -65.94,14.03 -88.6,36.69 -22.66,22.66 -36.69,54 -36.69,88.6 0,34.59 14.03,65.94 36.69,88.6 22.66,22.66 54,36.69 88.6,36.69 34.59,0 65.94,-14.03 88.6,-36.69 22.66,-22.66 36.69,-54.01 36.69,-88.6 0,-34.6 -14.03,-65.94 -36.69,-88.6z"/>
  <path class="fil0" d="M4454.59 1403.39c62.19,0 118.54,25.23 159.3,65.99 40.76,40.76 65.99,97.09 65.99,159.3 0,62.19 -25.23,118.54 -65.99,159.3 -40.76,40.76 -97.11,65.99 -159.3,65.99 -62.21,0 -118.54,-25.23 -159.3,-65.99 -40.76,-40.76 -65.99,-97.11 -65.99,-159.3 0,-62.21 25.23,-118.54 65.99,-159.3 40.76,-40.76 97.09,-65.99 159.3,-65.99zm88.6 136.69c-22.66,-22.66 -54.01,-36.69 -88.6,-36.69 -34.6,0 -65.94,14.03 -88.6,36.69 -22.66,22.66 -36.69,54 -36.69,88.6 0,34.59 14.03,65.94 36.69,88.6 22.66,22.66 54,36.69 88.6,36.69 34.59,0 65.94,-14.03 88.6,-36.69 22.66,-22.66 36.69,-54.01 36.69,-88.6 0,-34.6 -14.03,-65.94 -36.69,-88.6z"/>
  <path class="fil0" d="M4897.76 675.79c62.19,0 118.54,25.23 159.3,65.99 40.76,40.76 65.99,97.09 65.99,159.3 0,62.19 -25.23,118.54 -65.99,159.3 -40.76,40.76 -97.11,65.99 -159.3,65.99 -62.21,0 -118.54,-25.23 -159.3,-65.99 -40.76,-40.76 -65.99,-97.11 -65.99,-159.3 0,-62.21 25.23,-118.54 65.99,-159.3 40.76,-40.76 97.09,-65.99 159.3,-65.99zm88.6 136.69c-22.66,-22.66 -54.01,-36.69 -88.6,-36.69 -34.6,0 -65.94,14.03 -88.6,36.69 -22.66,22.66 -36.69,54 -36.69,88.6 0,34.59 14.03,65.94 36.69,88.6 22.66,22.66 54,36.69 88.6,36.69 34.59,0 65.94,-14.03 88.6,-36.69 22.66,-22.66 36.69,-54.01 36.69,-88.6 0,-34.6 -14.03,-65.94 -36.69,-88.6z"/>
  <path class="fil0" d="M3611.19 1742.8c68.47,-77.14 290.33,-441.7 290.97,-442.74l85.16 51.96c-0.65,1.06 -226.25,371.99 -301.53,456.8l-74.6 -66.02z"/>
  <polygon class="fil0" points="4143.75,1258.79 4363.13,1470.91 4293.99,1542.79 4074.61,1330.67 "/>
  <polygon class="fil0" points="4516.61,1463.64 4767.26,1028.3 4853.58,1077.9 4602.93,1513.24 "/>
  <circle class="fil2" cx="4631.38" cy="4258.56" r="1435.27"/>
  <path class="fil3" d="M4623.69 2809.87c-106.69,0 -210.09,12.04 -310.12,34.16l0 1397.47c0,171.17 139.76,310.77 310.93,310.77 171.33,0 310.82,-139.6 310.82,-310.77 0,-164.36 -128.57,-299.47 -290.18,-310.28l0 -248.77c298.66,10.8 538.84,257.8 538.84,559.05 0,308.18 -251.37,559.59 -559.48,559.59 -308.18,0 -559.55,-251.41 -559.55,-559.59l0 -1318.36c-35.4,15.03 -69.82,31.68 -103.71,49.57l0 1268.79c0.16,365.18 298.11,662.99 663.26,662.99 365.19,0 663.15,-297.81 663.15,-662.99 0,-358.22 -286.77,-651.69 -642.51,-662.72l0 -248.93c492.79,11.19 891.01,416.42 891.01,911.65 0,502.2 -409.56,911.76 -911.65,911.76 -502.2,0 -911.88,-409.56 -911.88,-911.76l0 -1103.89c-317.09,262.33 -519.43,658.92 -519.43,1102.8 0,789.9 640.6,1430.62 1430.65,1430.62 790.17,0 1430.39,-640.72 1430.39,-1430.62 0,-790.09 -640.22,-1430.54 -1430.54,-1430.54z"/>
  <path class="fil0" d="M2058.24 2095.23l-1155.72 -667.39 -276.67 80.02 -643.64 -439.05 512.22 -19.7 -185.77 -498.05 689.65 465.42 3.3 267.44 1108.97 726.35 -52.34 84.96zm-1162.97 -769.01l7.23 -2.09 -3.15 -253.92 -388.53 -262.2 125.11 335.4 -347.68 13.36 355.17 242.28 251.85 -72.83z"/>
 </g>
</svg>
