<?xml version="1.0" encoding="UTF-8"?>
<!DOCTYPE svg PUBLIC "-//W3C//DTD SVG 1.1//EN" "http://www.w3.org/Graphics/SVG/1.1/DTD/svg11.dtd">
<!-- Creator: CorelDRAW 2019 (64-Bit) -->
<svg xmlns="http://www.w3.org/2000/svg" xml:space="preserve" width="49mm" height="53mm" version="1.1" style="shape-rendering:geometricPrecision; text-rendering:geometricPrecision; image-rendering:optimizeQuality; fill-rule:evenodd; clip-rule:evenodd"
viewBox="0 0 4900 5300"
 xmlns:xlink="http://www.w3.org/1999/xlink">
 <defs>
  <style type="text/css">
   <![CDATA[
    .fil0 {fill:#EF7F1A}
    .fil1 {fill:#2B2A29;fill-rule:nonzero}
   ]]>
  </style>
 </defs>
 <g id="Слой_x0020_1">
  <metadata id="CorelCorpID_0Corel-Layer"/>
  <rect class="fil0" x="1189.17" y="2352.89" width="781.09" height="2779.39"/>
  <rect class="fil0" x="2743.04" y="1740.21" width="781.09" height="3391.74"/>
  <polygon class="fil1" points="345.88,3753.02 345.88,1367.29 1226.96,1367.29 1226.96,5182.29 345.88,5182.29 345.88,4308.65 445.88,4308.65 445.88,5082.29 1126.96,5082.29 1126.96,1467.29 445.88,1467.29 445.88,3753.02 "/>
  <path class="fil1" d="M1961.65 878.4l831.1 0c-0.29,1434.52 -0.29,2869.04 0,4303.56l-881.1 0 0 -4303.56 50 0zm731.09 100l-681.09 0 0 4103.56 681.09 0 0 -4103.56z"/>
  <polygon class="fil1" points="4349.08,3198.13 4349.08,5181.96 3467.99,5181.96 3467.99,28.74 4349.08,28.74 4349.08,2642.5 4249.08,2642.5 4249.08,128.74 3567.99,128.74 3567.99,5081.96 4249.08,5081.96 4249.08,3198.13 "/>
  <polygon class="fil1" points="129.61,5088.79 4587.84,5088.79 4587.84,5188.79 129.61,5188.79 "/>
  <polygon class="fil1" points="54.71,3972.02 948.61,3983.48 1208.62,3510.74 1799.18,3497.6 2036.32,3888.92 2566.76,3888.92 3147.32,3249.12 3803.14,3260.82 4016.15,2870.31 4862.88,2870.31 4862.88,2970.31 4075.1,2970.31 3861.73,3361.49 3190.98,3349.53 2610.8,3988.92 1980.52,3988.92 1743.9,3598.48 1268.47,3609.06 1007.33,4083.84 53.53,4071.62 "/>
 </g>
</svg>
