<?xml version="1.0" encoding="UTF-8"?>
<!DOCTYPE svg PUBLIC "-//W3C//DTD SVG 1.1//EN" "http://www.w3.org/Graphics/SVG/1.1/DTD/svg11.dtd">
<!-- Creator: CorelDRAW 2019 (64-Bit) -->
<svg xmlns="http://www.w3.org/2000/svg" xml:space="preserve" width="56mm" height="57mm" version="1.1" style="shape-rendering:geometricPrecision; text-rendering:geometricPrecision; image-rendering:optimizeQuality; fill-rule:evenodd; clip-rule:evenodd"
viewBox="0 0 5600 5700"
 xmlns:xlink="http://www.w3.org/1999/xlink">
 <defs>
  <style type="text/css">
   <![CDATA[
    .fil1 {fill:#2B2A29;fill-rule:nonzero}
    .fil2 {fill:#2B2A29;fill-rule:nonzero}
    .fil0 {fill:#EF7F1A;fill-rule:nonzero}
   ]]>
  </style>
 </defs>
 <g id="Слой_x0020_1">
  <metadata id="CorelCorpID_0Corel-Layer"/>
  <path class="fil0" d="M2030.41 5248.44c-486.48,-258.89 -1002.67,-903.59 -1383.39,-1722.31 -335.95,-722.44 -574.96,-1592.55 -600.54,-2459.26l-9.08 -307.23 307.91 0.2c382.97,0.24 782.77,-23.69 1141.52,-106.97 329.78,-76.56 620.67,-203.23 818.58,-409.16l212.9 -221.53 216.01 219.18c170.35,172.85 419.85,292 699.62,372.55 388.26,111.79 824.48,147.43 1202.21,147.43l316.47 -0.01 -17.64 315.25c-8.56,152.94 -21.77,299.64 -39.2,439.74 -17.87,143.68 -40.72,287.5 -69.87,440.41l-593.38 -90.19c24.66,-129.32 50.2,-280.33 67.93,-422.88 3.88,-31.17 7.51,-62.07 10.9,-92.69 -342.27,-17.18 -706.46,-64.04 -1041.48,-160.5 -272.79,-78.55 -529.21,-190.24 -745.85,-345.55 -256.87,190.11 -567.91,313.61 -903.6,391.55 -305.6,70.94 -633.49,103.82 -957.87,115.62 62.22,678.34 261.66,1350.03 528.22,1923.26 304.9,655.68 662.59,925.64 851.58,1174.87l-11.95 798.22z"/>
  <path class="fil1" d="M1992.36 1856.73l3554.37 0 0 3811.64 -3604.37 0 0 -3811.64 50 0zm3454.37 100l-3404.37 0 0 2492.59 0 66.15 0 1052.9 3404.37 0 0 -3611.64z"/>
  <polygon class="fil2" points="4092.68,4629.06 4426.48,4955.79 4836.37,4108.68 4926.21,4152.04 4455.87,5124.1 4022.76,4700.16 "/>
  <polygon class="fil1" points="2463.85,2924.76 4746.75,2913.12 4747.15,3012.72 2464.25,3024.36 "/>
  <polygon class="fil1" points="2463.85,2575.68 4131.97,2564.68 4132.37,2664.28 2464.25,2675.28 "/>
  <polygon class="fil1" points="2463.85,3273.2 4131.97,3262.2 4132.37,3361.8 2464.25,3372.8 "/>
  <polygon class="fil1" points="2463.85,3650.61 4131.97,3639.61 4132.37,3739.21 2464.25,3750.21 "/>
 </g>
</svg>
