<?xml version="1.0" encoding="UTF-8"?>
<!DOCTYPE svg PUBLIC "-//W3C//DTD SVG 1.1//EN" "http://www.w3.org/Graphics/SVG/1.1/DTD/svg11.dtd">
<!-- Creator: CorelDRAW 2017 -->
<svg xmlns="http://www.w3.org/2000/svg" xml:space="preserve" width="82mm" height="70mm" version="1.1" style="shape-rendering:geometricPrecision; text-rendering:geometricPrecision; image-rendering:optimizeQuality; fill-rule:evenodd; clip-rule:evenodd"
viewBox="0 0 8200 7000"
 xmlns:xlink="http://www.w3.org/1999/xlink">
 <defs>
  <style type="text/css">
   <![CDATA[
    .fil0 {fill:#EF7F1A;fill-rule:nonzero}
   ]]>
  </style>
 </defs>
 <g id="Слой_x0020_1">
  <metadata id="CorelCorpID_0Corel-Layer"/>
  <path class="fil0" d="M1037.3 6398.75c19.87,124.95 -12.67,246.01 -81.32,340.63 -68.7,94.7 -173.73,163.25 -298.75,183.14 -124.94,19.87 -245.99,-12.66 -340.63,-81.32 -94.7,-68.71 -163.24,-173.75 -183.13,-298.75 -19.87,-124.95 12.66,-246 81.32,-340.63 68.69,-94.69 173.73,-163.25 298.75,-183.14 124.94,-19.87 245.99,12.66 340.63,81.32 94.7,68.71 163.24,173.75 183.13,298.75zm-283.46 194.15c31.43,-43.31 46.36,-98.46 37.36,-155.09 -9,-56.57 -40.27,-104.3 -83.51,-135.67 -43.32,-31.43 -98.46,-46.36 -155.09,-37.36 -56.58,9 -104.3,40.28 -135.67,83.52 -31.43,43.31 -46.36,98.46 -37.36,155.09 9,56.57 40.27,104.3 83.51,135.67 43.32,31.43 98.46,46.36 155.09,37.36 56.58,-9 104.3,-40.28 135.67,-83.52z"/>
  <path class="fil0" d="M3038.12 3610.31c15.51,120.11 -17.1,235.85 -83.27,327.05 -68.71,94.7 -173.75,163.25 -298.75,183.13 -124.96,19.88 -246,-12.66 -340.63,-81.32 -94.69,-68.71 -163.25,-173.75 -183.13,-298.75 -19.87,-124.95 12.66,-246 81.32,-340.63 68.7,-94.7 173.73,-163.24 298.74,-183.13l12.26 -1.95 1.35 0c120.1,-15.5 235.84,17.1 327.03,83.27 94.7,68.7 163.23,173.72 183.13,298.72l1.95 12.24 0 1.37zm-285.41 180.57c31.43,-43.32 46.37,-98.47 37.36,-155.1l-0.07 -0.44c-9.08,-56.38 -40.31,-103.93 -83.44,-135.22 -43.31,-31.43 -98.45,-46.36 -155.08,-37.36l-0.44 0.07c-56.38,9.08 -103.95,40.31 -135.24,83.44 -31.43,43.31 -46.36,98.46 -37.36,155.09 8.99,56.57 40.27,104.3 83.51,135.67 43.31,31.43 98.46,46.37 155.09,37.36 56.57,-8.99 104.3,-40.27 135.67,-83.51z"/>
  <path class="fil0" d="M4577.67 3645.54c19.87,124.94 -12.67,246 -81.32,340.63 -68.7,94.7 -173.74,163.24 -298.75,183.13 -124.96,19.88 -246,-12.66 -340.63,-81.32 -94.69,-68.71 -163.25,-173.75 -183.13,-298.75 -19.88,-124.96 12.66,-246 81.32,-340.63 68.71,-94.69 173.75,-163.25 298.75,-183.13 124.94,-19.87 245.99,12.66 340.63,81.32 94.7,68.7 163.24,173.74 183.13,298.75zm-283.46 194.15c31.43,-43.32 46.36,-98.46 37.36,-155.09 -9,-56.57 -40.27,-104.3 -83.51,-135.67 -43.32,-31.43 -98.46,-46.36 -155.09,-37.36 -56.57,8.99 -104.3,40.27 -135.67,83.51 -31.43,43.31 -46.37,98.45 -37.36,155.09 8.99,56.57 40.27,104.3 83.51,135.67 43.31,31.43 98.46,46.37 155.09,37.36 56.57,-9 104.3,-40.27 135.67,-83.51z"/>
  <path class="fil0" d="M6777.2 2164.58c-85.26,92.95 -200.35,142.57 -317.47,147.63 -117.1,5.06 -236.14,-34.53 -329.29,-119.97 -92.95,-85.26 -142.57,-200.35 -147.63,-317.47 -5.06,-117.11 34.53,-236.15 119.97,-329.3 85.26,-92.95 200.36,-142.59 317.47,-147.63 117.11,-5.06 236.15,34.54 329.3,119.98 92.95,85.26 142.59,200.35 147.63,317.47 5.06,117.1 -34.54,236.14 -119.98,329.29zm-328.21 -101.39c53.17,-2.29 105.59,-25 144.61,-67.55 38.85,-42.36 56.85,-96.44 54.56,-149.61 -2.29,-53.17 -25,-105.59 -67.55,-144.61 -42.36,-38.85 -96.44,-56.85 -149.62,-54.56 -53.16,2.29 -105.58,25 -144.61,67.55 -38.84,42.35 -56.84,96.44 -54.55,149.62 2.29,53.17 25,105.59 67.55,144.61 42.35,38.84 96.44,56.84 149.61,54.55z"/>
  <path class="fil0" d="M728.09 6147.74l408.48 -572.24 203.12 144.54 -408.48 572.24 -203.12 -144.54zm1215.72 -1767.74l349.26 -507.81 205.08 141.6 -349.26 507.81 -205.08 -141.6z"/>
  <polygon class="fil0" points="2950.72,3497.11 3897.56,3796.08 3822.36,4034.36 2875.52,3735.39 "/>
  <path class="fil0" d="M4366.43 3404.5l535.42 -525.31 174.8 177.74 -535.42 525.31 -174.8 -177.74zm1051.6 -1026.78l638.9 -629.5 174.8 177.74 -638.9 629.5 -174.8 -177.74z"/>
  <polygon class="fil0" points="6764.68,1712.74 7962.82,1634.8 7978.44,1883.82 6780.3,1961.76 "/>
  <polygon class="fil0" points="7660.11,1317.73 8145.69,1751.97 7679.07,2253.69 7496.45,2083.77 7790.12,1768.01 7494.09,1503.27 "/>
  <path class="fil0" d="M172.56 3357.41l0 -812.64 830.28 0 195.26 -364.87 -620.41 -642.75 1037.01 -1019.77 629.12 584.2 335.44 -165.18 0 -846.74 1493.9 0 7.78 845.08 272.71 194.84 669.07 -566.2 960.7 969.47 -548.42 548.41 162.09 413.09 891.62 0 0 1721.59 -891.62 0 -162.09 413.09 548.42 548.4 -960.7 969.46 -669.07 -566.18 -272.71 194.84 -7.78 845.08 -1493.9 0 0 -846.75 -335.44 -165.17 -629.12 584.18 -1037.01 -1019.77 620.41 -642.74 -195.26 -364.86 -830.28 0 0 -808.11zm250 -562.64l0 1120.75 728.92 0 351.92 657.58 -574.79 595.48 690.91 679.43 580.38 -538.92 629.36 309.91 0 751.63 997.16 0 6.68 -724.39 533.62 -381.26 641.24 542.65 623.22 -628.9 -488.32 -488.32 284.27 -724.47 811.58 0 0 -1221.59 -811.58 0 -284.27 -724.48 488.32 -488.31 -623.22 -628.91 -641.24 542.65 -533.62 -381.26 -6.68 -724.38 -997.16 0 0 751.61 -629.36 309.92 -580.38 -538.92 -690.91 679.43 574.79 595.47 -351.91 657.6 -728.93 0z"/>
  <path class="fil0" d="M5158.63 3354.17l0 1.86c-0.51,504.07 -205.01,960.37 -535.41,1290.78 -330.81,330.8 -787.83,535.41 -1292.63,535.41 -504.8,0 -961.82,-204.61 -1292.63,-535.41 -330.39,-330.4 -534.9,-786.71 -535.4,-1290.78l-0.01 -1.86c0.51,-504.07 205.01,-960.37 535.41,-1290.78 330.81,-330.8 787.83,-535.41 1292.63,-535.41 504.8,0 961.82,204.61 1292.63,535.41 330.4,330.41 534.9,786.71 535.41,1290.78zm-712.17 1115.88c285.35,-285.36 461.91,-679.52 462.16,-1114.95 -0.25,-435.43 -176.81,-829.59 -462.16,-1114.95 -285.56,-285.55 -680.08,-462.17 -1115.87,-462.17 -435.79,0 -830.31,176.62 -1115.87,462.17 -285.35,285.36 -461.91,679.52 -462.16,1114.95 0.25,435.43 176.81,829.59 462.16,1114.95 285.56,285.55 680.08,462.17 1115.87,462.17 435.79,0 830.31,-176.62 1115.87,-462.17z"/>
 </g>
</svg>
