<svg width="45" height="60" viewBox="0 0 45 60" fill="none" xmlns="http://www.w3.org/2000/svg">
<path d="M24.0247 0L23.9541 0.290912C23.8689 0.570368 24.0828 0.965514 24.2813 0.965514C24.302 0.965514 24.3225 0.961225 24.3424 0.952082C24.5307 0.863913 24.4719 0.41434 24.2483 0.193936L24.0247 0ZM28.5438 1.56647C28.4996 1.56647 28.3592 1.63213 28.1904 1.71905C27.9669 1.84246 27.8727 1.9659 27.8727 2.15984C27.8727 2.31374 27.877 2.37819 27.9343 2.37819C27.9722 2.37819 28.0333 2.35001 28.1316 2.30089C28.3552 2.18628 28.6611 1.64852 28.5552 1.56918C28.5528 1.56734 28.5489 1.56647 28.5438 1.56647ZM21.4452 1.83521C21.3902 1.83521 21.3281 1.89817 21.2358 2.03642C21.1181 2.21273 21.0711 2.40667 21.1181 2.53892C21.1574 2.66136 21.1784 2.71578 21.2257 2.71578C21.2636 2.71578 21.3182 2.68094 21.4123 2.61824C21.6477 2.45956 21.7065 2.09813 21.53 1.88655C21.5015 1.85293 21.4743 1.83521 21.4452 1.83521ZM16.317 2.14221C16.2581 2.14221 16.2228 2.21275 16.2228 2.3009C16.2228 2.53894 16.5641 2.84747 16.823 2.84747C17.0113 2.84747 17.0466 2.81221 16.9877 2.64472C16.9054 2.45958 16.4935 2.15104 16.317 2.14221ZM18.9561 3.15001C18.9119 3.15001 18.8324 3.20271 18.6705 3.31469C18.3244 3.55874 18.2248 3.93473 18.4481 3.93473C18.4829 3.93473 18.5255 3.92559 18.5763 3.90536C18.8705 3.79072 19.0706 3.50863 19.0235 3.2706C19.0069 3.19174 18.9955 3.15001 18.9561 3.15001ZM28.8141 3.92298C28.6494 3.92298 28.5905 3.94061 28.6729 3.96706C28.7082 3.97587 28.7612 3.98028 28.8156 3.98028C28.87 3.98028 28.9259 3.97587 28.9671 3.96706C29.0377 3.94061 28.9789 3.92298 28.8141 3.92298ZM17.3378 3.89043C17.3177 3.89043 17.3055 3.9608 17.3055 4.08167C17.3055 4.19981 17.3172 4.26971 17.3364 4.26971C17.3445 4.26971 17.3539 4.25751 17.3643 4.23154C17.3878 4.15219 17.3878 4.01115 17.3643 3.92299C17.3545 3.90091 17.3456 3.89043 17.3378 3.89043ZM7.32824 4.29252C7.29755 4.29252 7.2795 4.30617 7.2795 4.33734C7.2795 4.58418 7.63252 5.03376 7.85611 5.07785C7.91522 5.08949 7.96119 5.09623 7.99616 5.09623C8.09343 5.09623 8.10568 5.04419 8.0797 4.90153C8.04981 4.70755 7.4973 4.29252 7.32824 4.29252ZM12.9879 4.70807C12.8914 4.70807 12.7932 4.73874 12.6573 4.79574C12.3395 4.93679 12.622 5.13956 13.1162 5.13956C13.6104 5.13956 13.7164 5.01613 13.3751 4.83983C13.2105 4.74969 13.1003 4.70807 12.9879 4.70807ZM8.61434 5.08531C8.58614 5.08531 8.5889 5.1188 8.60924 5.18365C8.64454 5.28061 8.70338 5.48338 8.75045 5.63324C8.79752 5.80956 8.9152 5.93297 9.05641 5.95942C9.08607 5.96548 9.11289 5.96835 9.13698 5.96835C9.42836 5.96835 9.31736 5.54797 8.91519 5.26298C8.7416 5.14292 8.65134 5.08531 8.61434 5.08531ZM31.45 5.44811L31.3088 5.73902C31.1676 6.03875 31.2853 6.46189 31.5206 6.46189C31.7207 6.46189 31.7795 6.05637 31.603 5.74783L31.45 5.44811ZM36.0858 5.85288C36.0124 5.85288 35.8815 5.92364 35.6981 6.06519C35.3804 6.2944 35.3098 6.63821 35.5687 6.63821C35.7805 6.63821 35.9805 6.45309 36.11 6.11808C36.1783 5.94127 36.1679 5.85288 36.0858 5.85288ZM26.6932 7.25952C26.6033 7.25952 26.5769 7.33906 26.6254 7.49333C26.7077 7.73134 27.0843 8.04873 27.2961 8.04873C27.5079 8.04873 27.3902 7.67846 27.1078 7.4757C26.9194 7.33024 26.778 7.25952 26.6932 7.25952ZM42.1311 7.26465C42.0605 7.26465 41.9434 7.32913 41.782 7.4581C41.5348 7.66085 41.4289 8.04875 41.6172 8.04875C41.8408 8.04875 42.1114 7.81071 42.182 7.53743C42.2332 7.35559 42.2149 7.26465 42.1311 7.26465ZM23.398 8.23792C23.3281 8.23896 23.3433 8.32733 23.4128 8.50714C23.4716 8.66582 23.6364 8.86859 23.7894 8.94792C23.897 9.01318 23.9599 9.04835 23.9997 9.04835C24.0512 9.04835 24.0636 8.9892 24.0836 8.85977C24.1189 8.68346 24.0365 8.57767 23.7894 8.4278C23.5851 8.30294 23.4618 8.23879 23.4006 8.23792H23.398ZM25.0546 9.29472C25.0359 9.29653 25.0913 9.34461 25.2133 9.45041C25.359 9.57053 25.4416 9.6264 25.4833 9.6264C25.509 9.6264 25.5192 9.60529 25.5192 9.56502C25.5192 9.52976 25.4015 9.45041 25.2603 9.37989C25.1431 9.32646 25.0767 9.29617 25.0571 9.29472H25.0546ZM0.857166 10.4034C0.701131 10.4034 0.510201 10.4321 0.348404 10.4907C-0.145841 10.6758 -0.110546 10.7816 0.430783 10.7816C0.842637 10.7816 1.16036 10.6582 1.16036 10.5083C1.16036 10.4388 1.03019 10.4034 0.857166 10.4034ZM38.1799 10.8698C38.0738 10.8703 37.8864 10.9495 37.7574 11.0461C37.4986 11.24 37.4397 11.575 37.6751 11.575C38.0982 11.5662 38.6035 10.8714 38.1826 10.8698H38.1799ZM15.0579 10.9667L15.1873 11.2312C15.2905 11.4631 15.6921 11.7424 15.8847 11.7424C15.9118 11.7424 15.9348 11.7368 15.9522 11.7249C16.1169 11.5926 15.8463 11.2488 15.4697 11.1078L15.0579 10.9667ZM17.9345 10.7336C17.8805 10.7336 17.8703 10.8105 17.8703 11.002C17.8703 11.1871 17.9645 11.4163 18.0939 11.5398L18.3175 11.7513L18.3763 11.5133C18.4469 11.2312 18.3175 10.9579 18.0586 10.7904C18.0023 10.7543 17.9625 10.7336 17.9345 10.7336ZM40.2888 11.8814C40.2437 11.8814 40.2286 11.908 40.2286 11.9629C40.2286 12.2097 40.4875 12.5271 40.7699 12.6241C40.8677 12.6571 40.933 12.6748 40.9759 12.6748C41.0363 12.6748 41.0524 12.6397 41.0524 12.5624C41.0524 12.3684 40.7582 12.0422 40.4522 11.9276C40.3756 11.897 40.3234 11.8814 40.2888 11.8814ZM41.9994 12.9054C41.9362 12.9054 41.8281 12.9502 41.6643 13.0384C41.5231 13.1089 41.4054 13.25 41.4054 13.3382C41.4054 13.4263 41.3583 13.5145 41.2877 13.5321C41.2289 13.5497 41.2171 13.6115 41.276 13.6732C41.2978 13.7014 41.3314 13.7141 41.3726 13.7141C41.5754 13.7141 41.9626 13.4065 42.0408 13.1354C42.0874 12.981 42.0813 12.9054 41.9994 12.9054ZM1.80678 13.4429C1.7388 13.4429 1.63643 13.4589 1.48985 13.488C1.27805 13.5233 1.10151 13.8583 1.18389 14.0434C1.19322 14.0658 1.21557 14.0757 1.24691 14.0757C1.41318 14.0757 1.83241 13.7955 1.90171 13.6026C1.939 13.4909 1.92431 13.4429 1.80678 13.4429ZM28.9401 13.6862C28.7211 13.6862 28.407 13.7434 28.2964 13.8318C28.0139 14.0346 28.0728 14.1316 28.4376 14.1316C28.7435 14.1316 29.1671 13.9112 29.1671 13.7525C29.1671 13.7064 29.0705 13.6862 28.9401 13.6862ZM31.8813 13.258C31.8025 13.258 31.756 13.3376 31.756 13.4968C31.756 13.7453 32.1521 14.236 32.3011 14.236C32.3319 14.236 32.3521 14.2151 32.3561 14.1668C32.3797 13.8495 32.3208 13.6467 32.1561 13.4439C32.0458 13.3199 31.951 13.258 31.8813 13.258ZM39.2872 14.0434C38.9342 14.0434 38.9342 14.0434 39.1225 14.2638C39.2833 14.4477 39.4989 14.5495 39.7081 14.5495C39.7896 14.5495 39.8703 14.534 39.9462 14.5018C40.1227 14.4313 40.1227 14.4049 39.8874 14.2285C39.7462 14.1228 39.4873 14.0434 39.2872 14.0434ZM0.277802 14.828L0.607278 15.0484C0.821721 15.1975 0.991282 15.2758 1.08356 15.2758C1.1331 15.2758 1.16036 15.2533 1.16036 15.2071C1.1486 15.0572 0.960308 14.9338 0.630812 14.8809L0.277802 14.828ZM5.87435 14.9424C5.7685 14.9424 5.66554 14.9953 5.3967 15.1277L4.98483 15.3217L5.43199 15.3481C5.48356 15.351 5.53232 15.3525 5.57855 15.3525C5.81723 15.3525 5.98827 15.3133 6.1263 15.2247C6.33811 15.0748 6.33811 15.0572 6.13805 15.0043C6.01604 14.9657 5.94457 14.9424 5.87435 14.9424ZM37.7934 15.0395C37.7637 15.0395 37.7137 15.0814 37.6162 15.163C37.3926 15.3481 37.3338 15.6302 37.5103 15.6302C37.6986 15.6302 37.8987 15.3746 37.8516 15.1806C37.8335 15.0858 37.8247 15.0395 37.7934 15.0395ZM17.5665 16.4576C17.5356 16.4576 17.5173 16.4688 17.5173 16.4942C17.5173 16.741 17.7997 17.1201 18.0468 17.1994C18.153 17.2373 18.2222 17.2572 18.2666 17.2572C18.3257 17.2572 18.341 17.222 18.341 17.1465C18.341 17.0584 18.2586 16.8997 18.1527 16.7939C17.9937 16.6258 17.6861 16.4576 17.5665 16.4576ZM2.79535 16.7763C2.7491 16.7775 2.76103 16.9092 2.8196 17.0584C2.92976 17.3531 3.20312 17.5612 3.37208 17.5612C3.45579 17.5612 3.51388 17.5102 3.51388 17.3933C3.51388 17.2175 2.99886 16.7786 2.79765 16.7763H2.79535ZM14.34 16.2385V16.6C14.34 16.8027 14.4224 17.0936 14.5165 17.2435C14.7253 17.5646 15.3549 17.901 15.7152 17.901C15.7407 17.901 15.7649 17.8994 15.7874 17.8959C16.0463 17.8606 16.0463 17.8606 15.7874 17.843C15.5521 17.8342 15.5168 17.7812 15.5168 17.4727C15.5168 17.0672 15.2344 16.7145 14.6931 16.4236L14.34 16.2385ZM10.9944 17.1683C10.938 17.1683 10.8788 17.2106 10.8215 17.2964C10.645 17.5344 10.6568 17.7901 10.8568 17.9135C10.8972 17.9377 10.9373 17.9487 10.9753 17.9487C11.1592 17.9487 11.2976 17.693 11.2099 17.4374C11.1539 17.2592 11.0771 17.1683 10.9944 17.1683ZM43.3 18.0105C43.2529 18.0105 43.0646 18.1251 42.8764 18.2661C42.5939 18.4953 42.5586 18.5835 42.6175 18.892C42.6528 19.0948 42.7116 19.2799 42.7351 19.3064C42.7535 19.3189 42.7772 19.3246 42.8049 19.3246C42.9727 19.3246 43.2847 19.1127 43.4059 18.9008C43.5471 18.6276 43.4765 18.0105 43.3 18.0105ZM42.1601 19.9654C42.1339 19.9654 42.1139 20.0145 42.1232 20.091C42.1232 20.1507 42.1366 20.1837 42.1552 20.1837C42.1667 20.1837 42.1803 20.1709 42.1938 20.1439C42.2291 20.0821 42.2174 20.0028 42.182 19.9764C42.1746 19.9689 42.1671 19.9654 42.1601 19.9654ZM6.19596 19.9588C6.16876 19.9602 5.98248 20.0213 5.77326 20.091C5.3967 20.2144 5.04367 20.6023 5.20843 20.7169C5.23129 20.734 5.26283 20.7419 5.30049 20.7419C5.5148 20.7419 5.92733 20.487 6.06745 20.232C6.14451 20.0919 6.20096 19.9671 6.1983 19.9588H6.19596ZM44.7591 21.0078C44.5944 21.0078 44.3591 21.0871 44.2296 21.1841C43.9237 21.4133 43.9354 21.5367 44.2649 21.5367C44.5944 21.5367 44.7474 21.4574 44.9239 21.2017C45.0533 21.0254 45.0298 21.0078 44.7591 21.0078ZM5.43081 23.3829C5.23638 23.3829 4.95773 23.455 4.72595 23.6084L4.39645 23.82L4.87893 23.8288C5.19665 23.8288 5.42023 23.7759 5.54968 23.6701C5.7729 23.4838 5.66084 23.3829 5.43081 23.3829ZM31.9913 24.0845V24.4018C31.9913 24.5781 32.0619 24.8338 32.1561 24.966C32.3217 25.1894 33.0365 25.6689 33.2018 25.6689C33.2126 25.6689 33.2211 25.6668 33.2269 25.6625C33.2622 25.6449 33.2387 25.4244 33.1799 25.1688C33.0739 24.6839 32.8386 24.4195 32.3208 24.2167L31.9913 24.0845ZM33.0254 26.1242C32.8615 26.1242 32.7019 26.1491 32.5915 26.2002C32.462 26.2619 32.5091 26.3148 32.7915 26.4206C32.9546 26.4842 33.0671 26.5152 33.1771 26.5152C33.2654 26.5152 33.3522 26.4952 33.4623 26.4559C33.7565 26.3589 33.7682 26.3413 33.5682 26.2355C33.438 26.1623 33.2284 26.1242 33.0254 26.1242ZM21.2109 26.1631C21.3194 26.1797 21.4026 26.1957 21.4605 26.211C21.5364 26.2344 21.6139 26.2576 21.6931 26.2808H21.6906C21.7547 26.3231 21.8081 26.3526 21.8297 26.3526C21.8298 26.3526 21.8299 26.3526 21.8299 26.3526C21.83 26.3526 21.83 26.3526 21.8301 26.3526C21.9728 26.3526 22.8686 28.2234 23.6956 30.2353C23.8032 30.5007 23.8536 30.8248 23.9264 31.7397C24.0634 33.4435 24.0573 33.4678 23.6014 34.0725C23.3924 34.3505 23.1891 34.5751 23.1503 34.5754C23.1497 34.5754 23.1492 34.5754 23.1486 34.5754C22.9869 34.5754 22.7329 34.3702 22.659 34.1778C22.5374 33.8495 22.6098 33.5194 22.8885 33.1585C23.0216 32.9878 23.2063 32.8118 23.3026 32.7673C23.5081 32.6783 23.7077 32.2163 23.6333 32.0135C23.6063 31.9411 23.5633 31.6751 23.5332 31.4138C23.4369 30.6445 23.0421 30.2072 22.2172 29.9724C21.9636 29.9024 21.7293 29.8667 21.5005 29.8667C21.2078 29.8667 20.9242 29.9251 20.6213 30.0447C19.8374 30.352 19.5152 30.8296 19.4777 31.7261C19.4608 32.293 19.5502 32.6264 19.7789 32.7745C19.8639 32.8367 20.0086 32.9904 20.1012 33.1252C20.1938 33.2552 20.3261 33.4429 20.3923 33.5343C20.4648 33.6257 20.5252 33.7657 20.5265 33.848C20.525 34.158 20.1247 34.6024 19.8338 34.605C19.8337 34.605 19.8336 34.605 19.8336 34.605C19.7687 34.605 19.5848 34.4179 19.3542 34.1249L18.9715 33.6439L18.9645 33.1983C18.967 32.9513 18.9871 32.5926 19.0166 32.4083C19.0523 32.2191 19.0964 31.7392 19.1224 31.3417C19.1809 30.542 19.2116 30.4448 20.0866 28.1362C20.6205 26.7364 20.7711 26.4541 21.1039 26.2331C21.1399 26.2083 21.1755 26.1845 21.2084 26.1631H21.2109ZM20.1943 44.7395C20.3846 44.7395 20.7082 44.8015 20.8505 44.8746C21.0069 44.9556 21.0269 44.9942 21.031 45.2509L21.0356 45.5366L20.8217 45.5094C20.7925 45.5062 20.756 45.5048 20.7148 45.5048C20.5823 45.5048 20.4008 45.5201 20.2533 45.5436C20.0995 45.568 19.9272 45.5807 19.7007 45.5807C19.5472 45.5807 19.3688 45.5749 19.1544 45.5631C18.7467 45.5377 18.1578 45.509 17.8409 45.4973C17.5302 45.4807 17.297 45.4537 17.3225 45.4293C17.3545 45.4096 17.6443 45.3344 17.9599 45.2588C18.72 45.0777 20.0019 44.7757 20.0856 44.7507C20.1115 44.743 20.1492 44.7395 20.1943 44.7395ZM25.507 1.256C25.3408 1.256 25.0478 1.3467 24.8249 1.48985C24.4837 1.70142 24.4601 1.75431 24.4601 2.36259C24.4601 2.88991 24.3918 3.23812 24.3185 3.23812C24.2864 3.23812 24.2534 3.1714 24.2248 3.02377C24.1777 2.80338 24.06 2.66232 23.7658 2.52128C23.5767 2.42682 23.4341 2.37959 23.3381 2.37959C23.1652 2.37959 23.143 2.53261 23.2716 2.83864C23.3893 3.15601 23.7776 3.48218 24.1306 3.57035C24.2483 3.60561 23.6129 4.63704 23.2481 4.99849C23.1968 5.04871 23.1601 5.07913 23.129 5.07913C23.0674 5.07913 23.0282 4.95941 22.9421 4.63704C22.8009 4.09928 22.3302 3.46456 21.8477 3.14719L21.5888 2.97969L21.7889 3.20009C22.31 3.76247 22.5394 4.07161 22.4473 4.07161C22.4167 4.07161 22.3506 4.03745 22.2478 3.96706C22.1106 3.86939 21.9373 3.81967 21.7654 3.81967C21.6425 3.81967 21.5203 3.84509 21.4123 3.89652C21.1699 4.01211 21.7014 4.24366 22.1565 4.24366C22.1874 4.24366 22.2179 4.24258 22.2478 4.24034C22.3002 4.23744 22.3458 4.23573 22.3858 4.23573C22.5888 4.23573 22.6478 4.27967 22.7068 4.4343C22.8715 4.87508 22.8127 5.49218 22.5773 5.8448C21.8595 6.90268 21.836 8.23387 22.5067 9.71489C22.7421 10.2262 22.9068 10.6494 22.895 10.667C22.8934 10.6682 22.8907 10.6688 22.887 10.6688C22.8361 10.6688 22.5933 10.5592 22.3302 10.4113C22.0478 10.2526 21.4006 9.94411 20.8828 9.72371C20.012 9.35344 19.9649 9.30935 19.9296 9.0008C19.9061 8.6658 19.6001 8.22502 19.4001 8.22502C19.3295 8.22502 19.2824 8.42778 19.2824 8.67462C19.2824 8.98984 19.2759 9.08002 19.1704 9.08002C19.1343 9.08002 19.0865 9.06944 19.0235 9.0537C18.0115 8.82452 17.4584 8.26913 17.0348 7.03493C16.6582 5.97706 16.7877 5.06904 17.3643 4.59299C17.482 4.49601 17.4937 4.43431 17.4231 4.43431C17.3408 4.43431 17.2113 4.30206 17.1172 4.14338C17.0348 3.99351 16.7877 3.74667 16.5876 3.60563L16.2228 3.34115V3.72023C16.2228 4.04641 16.2934 4.15219 16.6229 4.39023L17.0348 4.67233L16.7995 5.22772C16.6818 5.52744 16.5759 5.87126 16.5759 5.99469C16.5759 6.06968 16.5688 6.11305 16.5289 6.11305C16.4656 6.11305 16.3195 6.00397 15.9875 5.73903C15.5286 5.36876 15.4109 5.21009 15.3991 4.96324C15.3991 4.79574 15.2932 4.55773 15.1638 4.43431C15.0503 4.32567 14.9909 4.2727 14.9583 4.2727C14.9301 4.2727 14.9221 4.31247 14.9166 4.39023C14.8712 4.7394 14.8696 5.09682 14.912 5.09682C14.9135 5.09682 14.9151 5.09638 14.9166 5.09548C14.9198 5.09279 14.9243 5.0915 14.93 5.0915C15.0752 5.0915 16.024 5.92331 16.3523 6.34731C16.5406 6.59416 16.7995 7.0702 16.9171 7.40519C17.0348 7.73137 17.2231 8.15454 17.329 8.34848C17.471 8.58001 17.5122 8.65164 17.4484 8.65164C17.4223 8.65164 17.3787 8.63967 17.3172 8.62176C17.1996 8.57768 16.3641 8.53362 15.458 8.51598C13.2104 8.4719 13.2692 8.48953 13.3516 8.00466C13.4104 7.68729 13.3751 7.54624 13.128 7.22889C12.9632 7.01731 12.7397 6.7969 12.6455 6.7352C12.5954 6.70345 12.558 6.68588 12.5277 6.68588C12.4656 6.68588 12.4341 6.76006 12.3866 6.93796C12.2807 7.38756 12.4219 7.82836 12.7514 8.06636C13.0232 8.25302 13.0964 8.34169 12.9586 8.34169C12.8816 8.34169 12.7387 8.31403 12.5278 8.26031C11.8453 8.08401 11.1275 7.60795 10.3979 6.83218C10.0802 6.49718 9.70362 6.16217 9.57418 6.10047C9.5439 6.08723 9.52281 6.08048 9.51071 6.08006H9.50832C9.4692 6.08162 9.54574 6.16456 9.72716 6.32086C9.92721 6.49718 10.1037 6.65585 10.1037 6.67349C10.1037 6.67651 10.0978 6.67797 10.0869 6.67797C10.034 6.67797 9.86327 6.64375 9.66831 6.58533C9.3872 6.51355 9.09916 6.47553 8.84185 6.47553C8.62522 6.47553 8.43035 6.50248 8.27975 6.55889C8.16257 6.6002 8.1221 6.61731 8.16308 6.61731C8.19207 6.61731 8.26177 6.60876 8.37388 6.59416C8.42852 6.58596 8.47983 6.582 8.52454 6.582C8.62433 6.582 8.69162 6.60172 8.69162 6.63822C8.69162 6.68231 8.62099 6.72638 8.52686 6.72638C8.26797 6.72638 7.82081 7.03493 7.52662 7.43163L7.24421 7.81071L7.62075 7.75782C8.3974 7.64321 8.83283 7.41401 9.06817 7.0173C9.18586 6.80572 9.32707 6.63822 9.36235 6.63822C9.39767 6.63822 9.65656 6.7352 9.93896 6.85861C10.492 7.10546 11.3981 7.96058 11.0922 7.96058C10.8451 7.96058 10.2214 8.21624 10.2214 8.3132C10.2214 8.37879 10.3459 8.40789 10.5123 8.40789C10.7707 8.40789 11.1301 8.33767 11.2805 8.22505C11.3928 8.14091 11.4515 8.09694 11.527 8.09694C11.6096 8.09694 11.7124 8.14971 11.9277 8.26031C12.163 8.38373 12.5043 8.49833 12.6926 8.53361C13.0809 8.5953 13.175 8.754 12.822 8.754C12.316 8.754 10.9392 9.37992 10.292 9.90886C9.92721 10.1998 9.63302 10.4731 9.63302 10.5171C9.63302 10.5406 9.5441 10.5563 9.4116 10.5563C9.34535 10.5563 9.26821 10.5524 9.18586 10.5436C9.09686 10.5341 9.01988 10.529 8.9526 10.529C8.7708 10.529 8.65983 10.5657 8.57393 10.6494C8.43272 10.7728 8.43273 10.8081 8.58571 10.8786C8.65301 10.9131 8.75658 10.9284 8.87234 10.9284C9.14106 10.9284 9.47548 10.8458 9.57418 10.7287C10.4803 9.63556 11.657 9.08017 13.7752 8.71874L14.0929 8.66583L13.8105 8.89504C13.6457 9.02728 13.5163 9.15952 13.5163 9.2036C13.5163 9.23886 13.481 9.32702 13.4457 9.40636C13.3869 9.51215 13.4457 9.54741 13.6928 9.54741C14.1635 9.54741 14.6813 9.28293 14.8343 8.95676C14.9637 8.68348 15.0108 8.66583 15.5168 8.66583C16.3052 8.66583 17.6467 8.9744 19.0823 9.47685C20.3062 9.91763 20.4709 10.0058 20.2238 10.1204C20.0708 10.1909 20.0708 10.4818 20.2356 10.711C20.2981 10.8005 20.3332 10.8468 20.37 10.8468C20.4094 10.8468 20.4507 10.7939 20.5298 10.6846C20.6121 10.57 20.6827 10.4025 20.6945 10.3143C20.6945 10.2292 20.7078 10.1812 20.7705 10.1812C20.8637 10.1812 21.0657 10.2871 21.4947 10.5347C22.2949 11.002 23.2481 11.8395 23.5658 12.3684C23.9306 12.9855 23.9777 14.7134 23.6482 15.736C23.4246 16.4589 22.7538 17.6578 22.5773 17.6578C22.542 17.6578 22.189 17.314 21.8006 16.8909C21.1299 16.1415 21.1064 16.0974 21.0711 15.4539C21.024 14.6164 21.1299 14.3784 21.5888 14.3431C21.9066 14.3167 22.542 13.9024 22.4126 13.8054C22.4067 13.801 22.3883 13.7988 22.3602 13.7988C22.2758 13.7988 22.1037 13.8186 21.9183 13.8583C21.7585 13.8925 21.6567 13.9101 21.6065 13.9101C21.5532 13.9101 21.5578 13.8903 21.6124 13.8494C21.6947 13.7877 21.7536 13.5497 21.7536 13.3205C21.7536 12.9326 21.7065 12.8445 21.2123 12.4566C20.9086 12.2116 20.6281 12.0186 20.5779 12.0158H20.5754C20.4599 12.0211 20.5539 12.6871 20.718 13.0119C20.7886 13.1442 21.0122 13.3381 21.2123 13.4439C21.4123 13.5497 21.6006 13.6467 21.6242 13.6555C21.6477 13.6731 21.5535 13.7966 21.4123 13.9464C21.0593 14.3079 20.6945 14.9514 20.6004 15.3569L20.518 15.7007L19.7531 15.3569C19.3295 15.163 18.7411 14.9338 18.4351 14.8545C17.7762 14.6781 17.6938 14.4754 18.2233 14.3079C18.5646 14.2021 18.8117 13.8406 18.647 13.7084C18.6357 13.7 18.6159 13.6961 18.5896 13.6961C18.5054 13.6961 18.355 13.7361 18.2116 13.7966L17.8703 13.9464V13.6203C17.8703 13.3205 17.9762 12.7211 18.1527 12.0599C18.1884 11.9395 18.2031 11.8778 18.1966 11.8724H18.1942C18.185 11.8771 18.1594 11.9255 18.1174 12.0158C18.0468 12.1392 17.9409 12.4125 17.8703 12.6329L17.7291 13.0296L17.5173 12.7211C17.3996 12.5536 17.1289 12.2891 16.9171 12.148L16.5288 11.8836L16.8701 12.1921C17.4467 12.7299 17.6349 13.1354 17.6349 13.9288C17.6349 14.3343 17.5879 14.6605 17.5408 14.6605C17.329 14.6605 15.4344 14.1492 14.9872 13.9729C14.1517 13.6467 14.1282 13.6203 14.493 13.5233C14.846 13.4175 15.0814 13.0737 15.0226 12.7387L14.9872 12.5271L14.5754 12.7387C14.2694 12.8886 14.1517 13.0296 14.1047 13.25L14.0458 13.5497L13.6811 13.2236C13.481 13.0384 13.2456 12.7211 13.175 12.5271C13.0809 12.2979 12.7985 11.9982 12.3984 11.6984C12.0571 11.4428 11.7512 11.1342 11.7041 11.0108C11.6408 10.829 11.1992 10.5126 11.0406 10.5126C11.0223 10.5126 11.0078 10.5168 10.9981 10.526C10.9745 10.5436 11.0098 10.6846 11.0569 10.8345C11.1275 11.0284 11.3276 11.1871 11.7394 11.3811C12.1395 11.5662 12.4337 11.7954 12.6808 12.1216C12.9841 12.5084 13.0932 12.7242 13.0043 12.7242C12.9656 12.7242 12.8892 12.6833 12.7749 12.5976C12.5403 12.4218 11.9589 12.3037 11.4909 12.3037C11.3252 12.3037 11.1738 12.3185 11.0569 12.3508C10.7745 12.4213 10.7862 12.4302 11.3511 12.7563C11.7936 13.0125 11.9439 13.0691 12.3309 13.0691C12.3967 13.0691 12.4693 13.0674 12.5514 13.0649C12.6714 13.0595 12.769 13.0559 12.85 13.0559C13.1658 13.0559 13.2301 13.11 13.3986 13.3205C13.6693 13.6467 14.2812 13.9993 15.1402 14.3079C15.4697 14.4313 15.7404 14.5635 15.7521 14.5988C15.7521 14.6249 15.4679 14.636 15.0304 14.636C13.696 14.636 10.9353 14.533 10.4568 14.4401C9.91543 14.3343 9.91543 14.3343 9.88014 13.8054C9.86838 13.603 9.11801 12.9 8.91631 12.8974H8.91394C8.69207 12.8999 8.80983 13.5856 9.0917 13.8935L9.38591 14.2109L8.77398 14.0258C8.43273 13.9288 7.83259 13.7701 7.42071 13.6732C6.85587 13.5409 6.52637 13.3999 6.09098 13.0825C5.44377 12.6153 5.38492 12.5007 5.7968 12.4213C6.22043 12.342 6.57346 11.8571 6.57346 11.3634V10.9491L6.1969 11.099C5.59675 11.3194 5.3967 11.4957 5.3967 11.7601C5.3967 11.9489 5.35177 12.0439 5.27703 12.0439C5.2086 12.0439 5.11521 11.9643 5.00838 11.8042C4.91422 11.6367 4.65536 11.3634 4.44352 11.1871C4.11405 10.905 4.09049 10.8345 4.19641 10.6494C4.29053 10.4995 4.29054 10.3584 4.21994 10.2086C4.14581 10.0648 4.06196 9.99857 3.98582 9.99857C3.85645 9.99857 3.74922 10.1897 3.74922 10.5171V10.764L3.21967 10.6141C2.79604 10.4907 2.6313 10.3849 2.4195 10.0763C2.1895 9.73174 1.70873 9.38017 1.50528 9.38017C1.47972 9.38017 1.45854 9.38572 1.44279 9.39752C1.28981 9.51213 1.54867 9.9441 1.93702 10.2262C2.29005 10.473 2.31357 10.5171 2.11353 10.5171C1.98407 10.5171 1.72522 10.6141 1.54868 10.7375L1.2192 10.9491L1.67813 10.9579C1.99586 10.9579 2.23121 10.8962 2.40772 10.7728C2.53674 10.6836 2.69457 10.6403 2.87182 10.6403C3.32512 10.6403 3.9054 10.9231 4.4553 11.4428C4.72594 11.6984 4.77301 11.7954 4.66711 11.8571C4.61627 11.8809 4.52163 11.8919 4.40134 11.8919C4.07615 11.8919 3.56326 11.8119 3.21967 11.6896C3.06407 11.6355 2.98195 11.6069 2.96092 11.6058H2.95862C2.94145 11.607 2.9944 11.6401 3.102 11.7072C3.38444 11.8747 4.03167 12.0158 4.54944 12.0158C4.90247 12.0158 4.94953 12.0511 5.23194 12.5183C5.3967 12.8004 5.6556 13.1354 5.82033 13.2588L6.11452 13.4968L5.7262 13.5497C5.50261 13.5762 5.13779 13.6732 4.90247 13.7701L4.47883 13.9288L3.70215 13.6555C3.19614 13.4792 2.92549 13.3293 2.92549 13.2323C2.92549 13.153 2.78428 12.9767 2.60777 12.8533C2.39759 12.7098 2.25044 12.6386 2.17 12.6379H2.16769C2.04818 12.6389 2.08081 12.8008 2.27827 13.1178C2.41949 13.3293 2.58423 13.4263 2.94902 13.5056C3.44325 13.6202 4.10227 13.9376 4.10227 14.061C4.10227 14.1844 2.83135 14.8456 2.25474 15.022C1.98388 15.1078 1.85138 15.166 1.93881 15.166C1.95014 15.166 1.96519 15.165 1.98409 15.163L2.29005 15.1365L2.06647 15.4627C1.94878 15.639 1.81934 15.9299 1.78404 16.1063L1.71344 16.4324L2.12529 16.2561C2.78428 15.9652 3.06672 15.6743 3.12554 15.2511C3.18439 14.8897 3.24321 14.828 3.92573 14.4489C4.86715 13.9376 5.36139 13.7789 6.07921 13.7789C6.67935 13.7789 7.97378 13.9993 8.1503 14.1316C8.30328 14.2462 7.69138 14.731 7.22068 14.8897C7.03239 14.9514 6.93825 15.0043 7.02063 15.0131C7.26775 15.0131 7.65606 14.8368 8.11501 14.5195C8.36905 14.3349 8.47705 14.2673 8.62019 14.2673C8.69586 14.2673 8.78133 14.2862 8.90343 14.3167C9.33883 14.4313 9.3859 14.5283 9.04463 14.5988C8.90344 14.6253 8.80929 14.7222 8.80929 14.828C8.80929 14.9502 8.87519 15.009 8.9691 15.009C9.08517 15.009 9.24403 14.9192 9.37413 14.7487C9.482 14.6017 9.58987 14.5283 9.69091 14.5283C9.71114 14.5283 9.73107 14.5312 9.75069 14.5371C10.2449 14.6958 11.2099 14.8456 12.0807 14.8985L13.0456 14.9514L12.4102 15.1454C11.3982 15.4539 9.57418 16.3179 9.33884 16.6C9.32427 16.6163 9.30065 16.6243 9.26909 16.6243C9.19868 16.6243 9.08862 16.5848 8.9505 16.5118C8.78162 16.4214 8.65672 16.3805 8.51193 16.3805C8.44485 16.3805 8.37352 16.3892 8.29152 16.406L7.95025 16.4765L8.27975 16.6705C8.45627 16.7763 8.67985 16.8644 8.77398 16.8644C9.17408 16.8644 8.621 17.2523 7.78551 17.5521C7.0677 17.8077 6.71467 17.8694 5.97331 17.9047C5.79282 17.9139 5.62522 17.9178 5.48342 17.9178C5.21845 17.9178 5.04367 17.9043 5.04367 17.887C5.04367 17.8518 5.10251 17.7372 5.17312 17.6402C5.31432 17.4374 5.05544 16.7851 4.74949 16.5999C4.71356 16.5779 4.68308 16.5654 4.65553 16.5654C4.58377 16.5654 4.53183 16.6503 4.4553 16.8732C4.20818 17.552 4.5965 18.0104 5.43199 18.0105H5.92625L5.5379 18.2397C5.16134 18.4601 4.62004 19.13 4.73771 19.2182C4.74822 19.2272 4.77123 19.2313 4.80387 19.2313C5.02674 19.2313 5.69892 19.0393 5.91447 18.9008C6.03214 18.8215 6.23219 18.5923 6.36164 18.3807C6.49108 18.1603 6.6676 18.0105 6.78527 18.0105C6.89118 18.0017 7.26774 17.9311 7.59724 17.843C7.89906 17.765 8.15484 17.7077 8.20994 17.7077C8.21714 17.7077 8.2209 17.7087 8.2209 17.7107C8.2209 17.7284 8.11501 17.8782 7.98556 18.0545C6.9971 19.3681 6.8088 19.8353 7.09123 20.1439L7.25597 20.3202L7.38541 20.1439C7.56193 19.897 7.55016 19.6854 7.3501 19.5179C7.19714 19.3857 7.26775 19.2623 8.0091 18.3631C8.99757 17.1553 9.24468 16.9261 9.99781 16.4942C10.6227 16.1448 11.706 15.7345 11.9233 15.733H11.9257C11.9801 15.7334 11.9766 15.7611 11.8924 15.8242C11.6335 16.0181 11.81 17.1289 12.0924 17.1289C12.4219 17.1289 12.5749 16.1415 12.2807 15.8418C12.1277 15.6655 12.1395 15.6479 12.4337 15.5421C12.6796 15.4631 13.7062 15.2009 13.8322 15.1896H13.8346C13.8429 15.1944 13.7731 15.3159 13.6693 15.4627C13.5751 15.6038 13.5281 15.7536 13.5634 15.7801C13.5857 15.7982 13.618 15.8064 13.6571 15.8064C13.8654 15.8064 14.2663 15.5736 14.3753 15.3658C14.4812 15.1454 14.5872 15.1013 15.0226 15.0484C15.188 15.0278 15.4827 15.0192 15.8048 15.0192C16.0326 15.0192 16.2742 15.0235 16.4935 15.0308C17.8468 15.0837 18.5881 15.3658 19.8119 16.2826C20.8357 17.0495 21.3417 17.7019 21.683 18.6893C21.9066 19.324 21.9183 19.6061 21.7418 20.2056L21.6124 20.6552L21.1064 20.1439C20.8239 19.8705 20.3179 19.4827 19.9884 19.2887C19.3295 18.9096 18.7528 18.3542 18.6234 17.9752C18.5747 17.8291 18.5359 17.7643 18.5135 17.7619H18.511C18.4768 17.7657 18.4857 17.931 18.5646 18.178C18.6349 18.419 18.6366 18.512 18.5769 18.512C18.5667 18.512 18.5548 18.5093 18.5411 18.5042C17.6703 18.222 16.8701 18.0017 16.5523 17.9664C16.4188 17.9502 16.3342 17.9412 16.3018 17.941H16.2994C16.249 17.9414 16.3511 17.9675 16.6229 18.0281L17.0819 18.1427L16.6465 18.2926C16.4111 18.3807 16.2228 18.4865 16.2228 18.5394C16.2228 18.602 16.3417 18.6303 16.5023 18.6303C16.7491 18.6303 17.0944 18.5634 17.2584 18.4513C17.3594 18.3786 17.4313 18.3329 17.5328 18.3329C17.7265 18.3329 18.0281 18.4996 18.847 18.9625C19.4537 19.3071 19.6291 19.4566 19.407 19.4566C19.3621 19.4566 19.3008 19.4504 19.2235 19.4386C19.1937 19.4348 19.163 19.4331 19.1319 19.4331C18.8682 19.4331 18.5763 19.5593 18.5763 19.6854C18.5763 19.7704 18.777 19.8186 19.0022 19.8186C19.174 19.8186 19.3602 19.7905 19.4824 19.7295C19.5891 19.6779 19.6727 19.646 19.7546 19.646C19.9526 19.646 20.141 19.833 20.6239 20.3819C21.3417 21.1841 21.3653 21.3163 20.9887 22.1009L20.671 22.7533L20.2591 22.4095C19.8237 22.048 18.6705 21.4662 17.988 21.2723C17.7644 21.2106 17.4231 21.0695 17.2231 20.9637C16.5876 20.6111 16.1758 20.5053 14.9872 20.3466C13.7517 20.1879 13.0456 20.0557 13.0456 19.9764C13.0456 19.9499 13.175 19.8177 13.3398 19.6678C13.5869 19.4474 13.634 19.3152 13.634 18.848C13.634 18.5394 13.5869 18.2661 13.5281 18.2397C13.5205 18.236 13.5119 18.2343 13.5024 18.2343C13.3033 18.2343 12.6926 18.9927 12.6926 19.2535C12.6926 19.3857 12.7396 19.5973 12.8103 19.7295C12.8776 19.8556 12.9064 19.9095 12.8548 19.9095C12.8163 19.9095 12.7327 19.8793 12.5867 19.8265C12.269 19.7031 11.9041 19.4122 11.5394 19.0155C11.4889 18.9549 11.4579 18.922 11.4482 18.9188H11.4459C11.4398 18.9227 11.4659 18.9713 11.5276 19.0683C11.61 19.1918 11.7747 19.3945 11.8924 19.5268C12.116 19.7736 12.116 19.7736 11.8689 19.7736C11.7394 19.7736 11.457 19.8353 11.2569 19.9147C10.9745 20.0204 10.9275 20.0733 11.0569 20.135C11.1645 20.1841 11.2889 20.2081 11.4182 20.2081C11.614 20.2081 11.8211 20.1531 11.9983 20.0469C12.1395 19.9632 12.2131 19.9213 12.2954 19.9213C12.3778 19.9213 12.469 19.9632 12.6455 20.0469C12.8455 20.1351 13.5281 20.3114 14.1753 20.4436C15.6109 20.7257 15.8698 20.8227 15.1991 20.8315C14.34 20.8315 13.0221 21.0871 12.4572 21.3604C12.1513 21.5015 11.5629 21.9158 11.1275 22.2773C10.7039 22.6299 10.1625 23.009 9.92721 23.1059C9.72855 23.1952 9.61372 23.2469 9.56595 23.2469C9.50051 23.2469 9.56082 23.1501 9.70363 22.9208C9.86836 22.6651 9.86836 22.5506 9.75069 22.1274C9.68009 21.8541 9.57418 21.6073 9.51533 21.5808C9.51002 21.5783 9.50413 21.5771 9.49775 21.5771C9.34894 21.5771 8.92696 22.2437 8.92696 22.4888C8.92696 22.6035 9.00935 22.8326 9.10348 23.009C9.24469 23.2646 9.25645 23.344 9.13879 23.3969C9.11584 23.4072 9.09515 23.4125 9.07632 23.4125C8.9986 23.4125 8.95308 23.3223 8.91519 23.1236C8.86811 22.8856 8.71513 22.6651 8.45626 22.4624C8.23268 22.2949 8.02085 22.1538 7.98556 22.1538C7.9385 22.1538 7.95025 22.3566 7.98556 22.6123C8.04439 22.9561 8.13855 23.1059 8.37388 23.2558C8.78576 23.4938 8.77398 23.5644 8.33859 23.5644C8.10324 23.5644 7.83258 23.4586 7.51486 23.247C7.27196 23.0848 7.12383 23.0043 7.07369 23.003H7.07134C7.01435 23.0045 7.10146 23.1225 7.33835 23.3528L7.63253 23.6437L7.25597 23.679C7.12171 23.6957 7.17658 23.7019 7.36964 23.7019C7.48114 23.7019 7.63873 23.6998 7.83258 23.6966C8.0855 23.6896 8.27215 23.6844 8.40789 23.6844C8.78372 23.6844 8.76941 23.7239 8.69162 23.8729C8.63277 23.9875 8.63277 24.1903 8.67985 24.3225L8.76223 24.5605L9.03288 24.3049C9.20939 24.1374 9.27999 23.9699 9.25646 23.8112C9.20939 23.5996 9.25646 23.5555 9.58596 23.4762C9.79776 23.4233 10.1861 23.2646 10.445 23.1148L10.9275 22.8591L10.8568 23.2294C10.8215 23.4409 10.7392 23.7407 10.6803 23.9082C10.6215 24.0757 10.6097 24.2344 10.6333 24.2608C10.6394 24.2639 10.6452 24.2653 10.6506 24.2653C10.676 24.2653 10.6921 24.2324 10.6921 24.1815C10.6921 24.1673 10.6997 24.1606 10.7138 24.1606C10.7697 24.1606 10.9277 24.2663 11.1157 24.4283C11.3828 24.6684 11.5514 24.7836 11.6472 24.7836C11.7203 24.7836 11.7512 24.7166 11.7512 24.587C11.7512 24.2343 11.5158 23.8553 11.2099 23.7319C10.951 23.6349 10.9157 23.5732 10.9863 23.3087C11.2334 22.3213 12.3631 21.5015 13.7517 21.3164C13.9012 21.2972 13.9964 21.2849 14.0452 21.2847H14.0477C14.1299 21.2851 14.0723 21.322 13.9164 21.4221C13.7752 21.5191 13.6104 21.669 13.5281 21.7748C13.3869 21.9863 13.3516 22.9473 13.4928 22.9473C13.6811 22.9473 14.4342 22.2861 14.5048 22.0569C14.5401 21.9334 14.5165 21.7042 14.4577 21.5544L14.3518 21.2723H15.0814C15.9169 21.2723 16.7642 21.4221 17.482 21.6954C17.9644 21.8806 18.2233 22.0657 18.0115 22.0657C17.8232 22.0657 16.8112 22.7798 16.6229 23.0442C16.4935 23.2294 16.3641 23.2999 16.1287 23.2999C15.7522 23.2999 15.2108 23.5467 15.5168 23.5732C15.704 23.5928 15.8555 23.6026 15.9769 23.6026C16.2371 23.6026 16.3592 23.5575 16.3994 23.4674C16.4346 23.388 16.5994 23.2294 16.7642 23.1148L17.0701 22.9032L16.9877 23.1059C16.8986 23.3211 17.1428 23.686 17.3206 23.686C17.3541 23.686 17.3852 23.6731 17.4114 23.6437C17.5526 23.4762 17.5408 22.9737 17.3996 22.9032C17.329 22.8679 17.3054 22.8062 17.3525 22.7621C17.4584 22.6299 18.3057 22.3302 18.5646 22.3302H18.5646C18.8823 22.3302 19.4471 22.8943 19.9531 23.7142C20.2389 24.173 20.3378 24.3516 20.399 24.8422H20.3965C20.3521 24.9706 20.3088 25.1335 20.2744 25.3057C20.1301 25.9851 20.0297 26.1797 19.0206 27.7824C17.8855 29.5847 17.7418 29.9009 17.6392 30.7737C17.6047 31.0404 17.5111 31.6612 17.4284 32.1561C17.334 32.7236 17.2738 33.412 17.2577 34.0225C17.2339 34.9673 17.2345 35.006 17.4176 35.5421C17.6143 36.1167 17.7144 36.3193 17.9712 36.6124C18.0701 36.7326 18.1443 36.9257 18.1874 37.1918C18.2793 37.685 18.4693 38.2549 18.7774 38.9255C19.012 39.4465 19.1995 40.2586 19.2359 40.9267L19.2546 41.2899L18.9674 41.5201C18.6226 41.7945 17.7775 42.3203 17.5973 42.3752C17.52 42.3953 17.3018 42.494 17.1093 42.5926C16.9169 42.6912 16.7113 42.7706 16.6531 42.7711C16.4074 42.7733 14.6698 43.2877 13.12 43.8198C11.8723 44.2427 10.6392 44.7623 10.5186 44.9039C10.4997 44.9331 10.3842 44.9874 10.2749 45.0271C10.159 45.0621 9.97318 45.1654 9.85818 45.2536C9.23209 45.7291 9.31168 46.2612 10.0466 46.5308C10.4619 46.6817 10.9687 46.7552 11.9063 46.7552C12.7013 46.7552 13.806 46.7024 15.4272 46.599C17.1572 46.4859 18.2043 46.4342 18.8317 46.4342C19.0756 46.4342 19.2561 46.442 19.3885 46.4571C19.7059 46.4979 20.1567 46.7893 20.3489 47.0831C20.4285 47.2132 20.5694 47.5316 20.6641 47.7972C20.7524 48.0628 20.8994 48.3618 20.9914 48.4579C21.11 48.5924 21.1505 48.7035 21.1538 48.9069C21.1574 49.136 21.1705 49.1722 21.2823 49.1722C21.284 49.1722 21.2856 49.1721 21.2873 49.1721C21.2879 49.1721 21.2884 49.1721 21.289 49.1721C21.449 49.1721 21.4647 49.385 21.3229 49.787C21.2737 49.9425 21.2212 50.3013 21.2192 50.5871C21.2108 50.873 21.1585 51.2416 21.1095 51.4116C20.6785 52.7717 20.6441 53.0481 20.8136 53.9475C21.0321 55.0839 21.0381 55.4617 20.8493 56.1996C20.7581 56.5589 20.6544 56.9522 20.6305 57.0735C20.6001 57.1949 20.568 57.6166 20.5549 58.0139C20.5395 58.6728 20.5471 58.7454 20.6658 58.8896C20.7383 58.9762 20.7982 59.0871 20.799 59.1355C20.7999 59.1887 20.8466 59.2804 20.9057 59.338C20.9712 59.4098 21.036 59.4348 21.1595 59.4348C21.1849 59.4348 21.2127 59.4338 21.2434 59.4319C21.4501 59.4155 21.4821 59.4007 21.4677 59.3039C21.4543 59.2369 21.4635 59.2029 21.4954 59.2029C21.5303 59.2029 21.5923 59.2436 21.6814 59.3262C21.7587 59.3962 21.7947 59.4284 21.8408 59.4284C21.877 59.4284 21.9193 59.4087 21.9925 59.3719C22.065 59.3321 22.1294 59.3082 22.1515 59.3082C22.1568 59.3082 22.1596 59.3095 22.1597 59.3123C22.1599 59.325 22.1679 59.3306 22.1817 59.3306C22.2625 59.3306 22.5413 59.1362 22.5949 59.0323C22.6761 58.8572 22.6031 58.7319 22.2024 58.3431C21.8609 58.0119 21.8006 57.8768 21.7994 57.3973C21.7915 56.8985 21.8708 56.5974 22.2882 55.6007C22.4562 55.1875 22.6548 54.6674 22.7288 54.4391C23.1233 53.2246 23.1059 53.3459 23.1302 51.626L23.1562 50.0031L23.374 49.4684C23.4986 49.1718 23.6599 48.7489 23.7339 48.5206C23.9006 48.0202 24.0751 47.6117 24.4189 46.8676C25.0131 45.6029 25.2121 44.7001 25.1131 43.7613C25.0359 42.9724 24.9754 42.8228 24.4061 41.9899C23.9096 41.2629 23.8762 41.1954 23.8716 40.9048C23.8632 40.3769 24.03 39.4793 24.1987 39.1096C24.4425 38.5892 24.7751 37.5448 24.8396 37.1228C24.8801 36.8318 24.9424 36.681 25.1198 36.4518C25.3795 36.1104 25.6272 35.4204 25.7203 34.7705C25.8723 33.7519 25.5048 30.9748 25.0749 29.9614C24.8598 29.4451 24.6471 29.0837 23.9119 27.981C23.0045 26.6231 22.5522 25.8279 22.4953 25.499C22.4414 25.1826 22.281 24.7377 22.1648 24.5458H22.1624C22.0917 23.3525 22.6168 22.3733 23.9306 21.1048C24.6342 20.4166 24.8752 20.2391 25.2738 20.2391C25.3551 20.2391 25.443 20.2465 25.5427 20.2584C26.1664 20.3378 27.6021 20.7786 27.9669 21.0078C28.1669 21.1312 28.2375 21.2546 28.2022 21.4662C28.1669 21.7219 28.1316 21.7571 27.8139 21.7571C27.6138 21.7571 27.2961 21.8365 27.1078 21.9334L26.7548 22.1097L27.1902 22.1362C27.2319 22.1393 27.2758 22.1408 27.3206 22.1408C27.5287 22.1408 27.7565 22.1092 27.8727 22.0657C27.9518 22.0343 28.0051 22.0167 28.0407 22.0167C28.0952 22.0167 28.1081 22.0579 28.1081 22.1538C28.1081 22.4271 27.6844 23.1941 27.3432 23.5291C27.0607 23.8112 26.2841 24.1814 25.9899 24.1814C25.9193 24.1814 25.7781 24.2343 25.6957 24.3049C25.5192 24.4371 25.3309 24.8867 25.4486 24.8867C25.6957 24.8867 26.2135 24.5958 26.2723 24.4283C26.3076 24.3048 26.5665 24.1285 26.9195 23.9875C27.6844 23.6701 28.214 23.0883 28.5199 22.2067L28.767 21.5103L29.0495 21.8365C29.2495 22.0921 29.3437 22.383 29.426 23.0266C29.4731 23.4938 29.5672 23.9787 29.6261 24.1109C29.732 24.3225 29.7084 24.3489 29.3554 24.393C28.8965 24.4547 28.6611 24.6399 28.4023 25.0983L28.214 25.4333L28.6023 25.3716C29.1554 25.2922 29.5672 25.0366 29.6143 24.7721C29.6378 24.6399 29.6967 24.5341 29.7555 24.5341C30.0379 24.5341 30.0732 25.4509 29.8026 25.7683L29.6143 25.9887L29.8614 25.7771C30.0026 25.6625 30.1085 25.4509 30.1085 25.301V25.0277L30.6145 25.4068C30.8852 25.6184 31.2147 25.83 31.3441 25.8741C31.3667 25.8833 31.3817 25.8877 31.3897 25.8877C31.4276 25.8877 31.3067 25.7889 31.0735 25.636C30.8028 25.4597 30.4498 25.1512 30.2968 24.9484C29.9909 24.5693 29.7555 23.723 29.7555 23.053C29.7555 22.7918 29.7684 22.7096 29.8755 22.7096C29.9131 22.7096 29.9621 22.7197 30.0262 22.7357C30.5086 22.8415 30.9087 23.0266 31.2971 23.3175C31.4367 23.4221 31.5355 23.4808 31.5663 23.4808C31.5822 23.4808 31.58 23.4651 31.5559 23.4321C31.3559 23.1588 30.8028 22.7974 30.2262 22.5682C29.5754 22.3087 29.4677 22.1193 29.9447 22.119H29.9473C30.0045 22.119 30.0699 22.1217 30.1438 22.1274C30.2385 22.1356 30.3276 22.1395 30.4069 22.1395C30.5836 22.1395 30.7115 22.1198 30.744 22.0833C30.8504 21.9558 30.4566 21.8139 30.0583 21.8139C30.0161 21.8139 29.9738 21.8154 29.932 21.8188C29.872 21.8238 29.8196 21.8266 29.773 21.8266C29.573 21.8266 29.4817 21.7751 29.3672 21.6249C28.8847 21.0254 27.4726 20.2761 26.2959 20.0028C25.9311 19.9146 25.6369 19.8088 25.6369 19.7736C25.6369 19.6063 27.8429 18.6303 28.2241 18.6275H28.2267C28.2963 18.6284 28.2841 18.7253 28.1669 18.892C28.0728 19.0331 27.9904 19.2094 27.9904 19.2887C27.9904 19.341 28.02 19.3636 28.0677 19.3636C28.2452 19.3636 28.6743 19.0503 28.767 18.7862L28.8847 18.5041L29.0848 18.9097C29.2612 19.2535 29.3907 19.3504 29.932 19.562C30.2287 19.6805 30.5004 19.7555 30.6145 19.7555C30.6362 19.7555 30.6522 19.7528 30.6616 19.7471C30.8264 19.6149 30.1909 18.8568 29.7908 18.7157C29.579 18.6452 29.4025 18.5482 29.4025 18.5041C29.4025 18.473 29.5322 18.4587 29.7544 18.4587C30.4124 18.4587 31.8809 18.5841 33.1916 18.7686C34.5214 18.9625 34.8862 19.0419 35.2863 19.2623L35.7687 19.5356L35.3333 19.7207C34.8644 19.9167 34.83 20.0674 35.2395 20.0674C35.2719 20.0674 35.3071 20.0664 35.3451 20.0645C35.4045 20.0615 35.4539 20.0593 35.4948 20.0593C35.6971 20.0593 35.6922 20.1135 35.6628 20.3995C35.6157 20.7433 35.9217 21.5367 36.0982 21.5367C36.1453 21.5367 36.2865 21.3163 36.4159 21.0519C36.5924 20.6552 36.6042 20.5141 36.4983 20.3025C36.4286 20.1546 36.3933 20.0411 36.4263 20.0381H36.429C36.5222 20.0461 37.7574 20.8671 37.7574 20.9285C37.7574 20.9637 37.6515 21.0078 37.5221 21.0343C37.275 21.0783 36.9572 21.5015 37.0985 21.5984C37.1196 21.6156 37.1504 21.6232 37.1876 21.6232C37.3998 21.6232 37.8216 21.3742 37.8516 21.2017C37.8745 21.0815 37.8975 21.0198 37.9694 21.0198C38.0451 21.0198 38.1751 21.0881 38.4164 21.2282C38.9695 21.5456 39.1107 21.9423 38.9224 22.6475C38.8283 23.0002 38.7106 23.2117 38.6165 23.2117C38.4047 23.2117 37.9928 23.5291 37.9928 23.6966C37.9928 23.7671 38.0869 23.8288 38.2046 23.8288C38.5106 23.8288 38.9342 23.4586 38.9342 23.1941C38.9342 23.0707 39.0048 22.8062 39.099 22.6123C39.2049 22.3919 39.2402 22.1186 39.2049 21.9246C39.1574 21.7183 39.1635 21.6383 39.2358 21.6383C39.253 21.6383 39.274 21.6428 39.299 21.6514C39.3931 21.6778 39.7462 21.7748 40.0874 21.8541C40.6523 21.9952 40.6993 22.0304 40.6993 22.2949C40.6993 22.5065 40.8052 22.6475 41.1112 22.8503C41.3466 23.0002 41.5819 23.1236 41.6407 23.1236C41.829 23.1236 41.7702 22.4712 41.5701 22.2596C41.3936 22.0745 41.4054 22.0657 41.7937 22.0657C42.182 22.0657 43.4647 21.8189 43.3823 21.7571C43.3793 21.7548 43.3712 21.7537 43.3586 21.7537C43.2748 21.7537 42.9905 21.8027 42.6527 21.8717C42.3383 21.9369 42.1189 21.9679 41.88 21.9679C41.6987 21.9679 41.5062 21.95 41.2524 21.9158C40.8523 21.8629 40.3699 21.7748 40.1816 21.7219L39.8521 21.6249L40.5346 21.3604C41.2759 21.0871 42.1114 20.567 42.1114 20.3907C42.1114 20.3488 42.1016 20.3266 42.0733 20.3266C42.048 20.3266 42.0079 20.3444 41.9467 20.3819C41.8993 20.411 41.8676 20.427 41.8484 20.427C41.815 20.427 41.8184 20.379 41.8408 20.2673C41.9114 20.0028 41.6525 19.6326 41.123 19.2535L40.6993 18.9449V19.4562C40.6993 19.9323 40.7347 19.994 41.1583 20.3114C41.5701 20.6199 41.5937 20.664 41.4172 20.7786C41.1936 20.9285 39.7226 21.4486 39.5108 21.4486C39.1931 21.4486 37.7339 20.6023 36.7219 19.8353L35.6157 19.0066L36.1923 18.9449C36.8984 18.8744 37.6633 18.6099 38.8636 18.0281C39.3696 17.7724 39.8285 17.5697 39.8756 17.5697C39.9227 17.5697 40.0521 17.6667 40.158 17.7901C40.2757 17.9311 40.464 18.0105 40.6405 18.0105C41.0171 18.0105 41.0171 17.8871 40.6287 17.5961C40.3228 17.3757 40.3228 17.3581 40.5346 17.2347C40.8994 17.0319 42.3821 16.5118 42.6057 16.5118C42.7234 16.5118 42.8175 16.5559 42.8175 16.6C42.8175 16.7234 43.3588 17.1289 43.5235 17.1289C43.7354 17.1289 43.653 16.8644 43.3588 16.644L43.0764 16.4325L43.5353 16.4501C43.5594 16.4507 43.5826 16.451 43.605 16.451C43.9128 16.451 44.0841 16.3922 44.3473 16.2032C44.7709 15.8947 44.7827 15.8418 44.4179 15.7713C44.3458 15.7586 44.2733 15.7524 44.2018 15.7524C43.8766 15.7524 43.572 15.8791 43.4177 16.0886C43.3 16.2561 43.1117 16.3267 42.6057 16.406C42.2409 16.4501 41.8408 16.5206 41.7349 16.5559C41.7082 16.5637 41.6855 16.5674 41.6665 16.5674C41.4502 16.5674 41.7103 16.0909 42.0997 15.8154C42.2997 15.6743 42.4645 15.5156 42.4645 15.4539C42.4645 15.4056 42.5627 15.3646 42.6963 15.3646C42.7089 15.3646 42.7219 15.365 42.7351 15.3658C42.835 15.372 42.9701 15.3782 43.0781 15.3782C43.1229 15.3782 43.163 15.3771 43.1941 15.3746C43.4647 15.3658 43.959 15.0131 44.0531 14.7663C44.1237 14.59 44.0884 14.5724 43.653 14.5724C43.2882 14.5724 43.1352 14.6253 42.947 14.8016L42.7116 15.022L42.6645 14.687C42.6421 14.5276 42.6304 14.4461 42.623 14.4461C42.6148 14.4461 42.6118 14.5453 42.6057 14.7487C42.5821 15.1277 42.2291 15.7184 42.0055 15.7184C41.9585 15.7184 41.8761 15.4275 41.8526 15.0837C41.8173 14.731 41.6996 14.2991 41.5937 14.1316C41.5267 14.0257 41.4833 13.9621 41.4723 13.9541H41.4696C41.4689 13.9577 41.4747 13.9724 41.4878 13.9993C41.5231 14.0963 41.5819 14.4842 41.6172 14.8633C41.6761 15.7536 41.4878 16.265 40.9347 16.6793C40.3934 17.0848 38.2988 18.0634 37.3573 18.3455C36.7786 18.5246 35.9925 18.6205 35.2378 18.6205C34.8415 18.6205 34.4539 18.594 34.1095 18.5394C33.4387 18.4336 33.1445 18.2749 33.6153 18.2749C33.7329 18.2749 34.133 18.1339 34.5096 17.9664L35.1921 17.6666L35.5098 17.8429C35.6681 17.9306 35.766 17.97 35.8882 17.97C35.975 17.97 36.0742 17.9501 36.2159 17.9135L36.616 17.8077L36.2983 17.5961C36.1217 17.4903 35.8982 17.3933 35.7923 17.3933C35.6863 17.3933 35.8393 17.1994 36.2394 16.838C36.5255 16.5951 36.688 16.4332 36.6704 16.4275H36.6677C36.6617 16.4286 36.6485 16.436 36.6278 16.4501C36.5121 16.5202 36.4506 16.5575 36.4227 16.5575C36.3909 16.5575 36.4026 16.5092 36.4277 16.406C36.4512 16.2826 36.3571 16.1062 36.1923 15.9476L35.9099 15.6831L35.757 16.0181C35.6275 16.3266 35.6393 16.3795 35.8746 16.6264L36.1453 16.8909L35.6275 17.2258C35.3451 17.411 34.9685 17.6226 34.792 17.7019L34.4743 17.8429L34.639 17.5344C34.7332 17.3581 34.8156 17.0936 34.8156 16.9349V16.644L34.3801 16.9702C34.0271 17.2347 33.9448 17.3669 33.9212 17.6755C33.9095 18.0281 33.8742 18.0633 33.4505 18.1779C33.2538 18.2255 33.0775 18.25 32.8295 18.25C32.6177 18.25 32.3536 18.2321 31.9796 18.1956C31.4147 18.1427 30.4851 18.0986 29.885 18.0986C28.8259 18.0986 28.6494 18.0457 28.9906 17.8341C29.0848 17.7724 29.1671 17.6578 29.1671 17.5785C29.1671 17.5188 29.1608 17.4902 29.143 17.4902C29.1267 17.4902 29.1007 17.5144 29.0612 17.5608C29.0269 17.6012 29.0008 17.6217 28.9777 17.6217C28.9454 17.6217 28.9191 17.5815 28.8847 17.4991C28.8045 17.3264 28.297 16.9999 28.1487 16.9999C28.123 16.9999 28.1081 17.0098 28.1081 17.0319C28.1081 17.2347 28.3669 17.6226 28.5905 17.7548C28.8377 17.887 28.8377 17.887 28.5552 18.0281C28.414 18.0986 28.1316 18.1868 27.9315 18.222C26.5783 18.4689 24.8014 19.2182 23.6129 20.0292L22.9421 20.4877L23.0127 19.9764C23.0951 19.3328 23.8835 17.9664 24.3189 17.7107C24.4954 17.6137 24.8485 17.3845 25.1073 17.1994C25.5075 16.9349 25.7781 16.838 26.6371 16.6881C28.7788 16.309 29.1671 16.2209 29.8379 15.9828C30.2144 15.8506 30.7793 15.5949 31.0852 15.4186C31.4052 15.2342 31.5707 15.157 31.6895 15.157C31.7411 15.157 31.7838 15.1716 31.8266 15.1983C31.8896 15.2369 31.9582 15.2567 32.0568 15.2567C32.1608 15.2567 32.2981 15.2347 32.4973 15.1894L32.9798 15.0837L32.6503 14.9514C32.5091 14.895 32.3152 14.8555 32.183 14.8555C32.15 14.8555 32.1208 14.858 32.0972 14.8633C32.0284 14.8767 31.9771 14.885 31.9429 14.885C31.8426 14.885 31.8894 14.8135 32.0737 14.59C32.1025 14.5576 32.1109 14.5416 32.1016 14.5404H32.099C32.0625 14.544 31.8683 14.6803 31.5912 14.9073C30.6145 15.6831 29.273 16.1503 27.402 16.3443C26.9195 16.3884 26.4135 16.4589 26.2841 16.4853C26.2706 16.4877 26.2591 16.4888 26.2496 16.4888C26.1518 16.4888 26.2692 16.3642 26.6018 16.1151C26.9078 15.8859 27.3432 15.4186 27.5785 15.0837C27.9904 14.5018 28.0021 14.4666 27.7903 14.352C27.6515 14.2677 27.4345 14.2225 27.2711 14.2225C27.1438 14.2225 27.049 14.25 27.049 14.3079C27.049 14.3608 27.1902 14.4489 27.3785 14.5018C27.555 14.5635 27.7197 14.6164 27.7433 14.6252C27.9551 14.7398 26.2606 16.0974 25.225 16.644C24.842 16.8439 24.6299 16.9395 24.5379 16.9395C24.4717 16.9395 24.4678 16.8899 24.5072 16.7939C24.5425 16.7145 24.6484 16.2826 24.7543 15.8506C25.0014 14.7575 25.6251 13.8142 26.6018 13.0825C28.1669 11.9012 29.6967 11.3105 31.2147 11.3105C32.2385 11.3105 32.4973 11.3811 32.4032 11.6103C32.2267 12.0246 32.2149 12.2802 32.3444 12.58C32.4082 12.7393 32.5104 12.8482 32.5816 12.8482C32.5892 12.8482 32.5964 12.847 32.6032 12.8445C32.8386 12.7299 33.1563 12.0687 33.0857 11.813L33.0151 11.5574L33.5329 11.7601C33.8153 11.8659 34.1683 12.0158 34.3213 12.0863L34.592 12.2186L34.286 12.4037C34.0742 12.5271 33.9801 12.6593 34.0154 12.7916C34.036 12.8895 34.0526 12.9332 34.117 12.9332C34.1627 12.9332 34.2325 12.9112 34.3448 12.8709C34.4978 12.8092 34.6979 12.677 34.7685 12.5624C34.8164 12.4905 34.8483 12.4464 34.9161 12.4464C35.0312 12.4464 35.2499 12.5733 35.8276 12.9062C36.3335 13.2059 36.8631 13.4968 36.9808 13.5674C37.0985 13.6291 37.2397 13.8318 37.2867 14.017C37.3358 14.1917 37.3593 14.2753 37.3722 14.2753C37.3841 14.2753 37.387 14.2049 37.3926 14.0699L37.4044 13.7878L37.8869 13.9112C38.1997 13.9964 38.3885 14.0373 38.4531 14.0373C38.5489 14.0373 38.372 13.9474 37.9222 13.7789C37.5456 13.6379 36.9455 13.3382 36.616 13.1266L35.9923 12.7387L36.4748 12.5447C36.7154 12.4546 36.8436 12.413 36.9381 12.413C37.0193 12.413 37.0758 12.4437 37.1573 12.5007C37.2863 12.5871 37.5642 12.6355 37.7988 12.6355C37.9708 12.6355 38.1195 12.6095 38.1693 12.5536C38.2635 12.439 37.8516 12.2803 37.4632 12.2803C37.275 12.2803 37.1808 12.245 37.2279 12.1833C37.2414 12.1707 37.2375 12.1645 37.2191 12.1645C37.1736 12.1645 37.0393 12.2023 36.8631 12.2715C36.5669 12.3896 36.3211 12.4525 36.0706 12.4525C35.7042 12.4525 35.3277 12.3178 34.7685 12.0246C33.3093 11.2753 32.2738 10.9226 31.3794 10.8874C30.9323 10.8697 30.5792 10.8257 30.5792 10.7904C30.5792 10.6494 32.4738 10.1998 33.4034 10.1204L34.0507 10.0587L34.2507 10.4025C34.3919 10.6229 34.639 10.8169 34.9921 10.9755C35.3265 11.1266 35.5468 11.2068 35.6627 11.2068C35.8444 11.2068 35.7691 11.0095 35.4745 10.5788L35.2039 10.1645H36.3457C36.9694 10.1645 37.7575 10.1292 38.0987 10.0763C38.2728 10.0531 38.4305 10.0408 38.5756 10.0408C38.9799 10.0408 39.287 10.1356 39.5814 10.3496C39.7922 10.4967 40.0839 10.5764 40.3426 10.5764C40.5027 10.5764 40.6502 10.5459 40.7582 10.4819C40.9582 10.3585 40.97 10.332 40.817 10.2527C40.7015 10.1964 40.5209 10.1678 40.3473 10.1678C40.1672 10.1678 39.9948 10.1986 39.9109 10.2615C39.8752 10.2882 39.8368 10.302 39.7912 10.302C39.7016 10.302 39.5843 10.249 39.4049 10.1381L39.0401 9.90886L39.5344 9.72373C40.0521 9.52097 40.9935 8.91267 41.1818 8.65702C41.1928 8.64063 41.1935 8.63247 41.1853 8.63175H41.1826C41.1397 8.63483 40.9332 8.77273 40.6523 8.98321C40.2372 9.28879 39.944 9.45744 39.852 9.45744C39.7928 9.45744 39.8171 9.38742 39.9462 9.23886C40.1698 8.98322 40.1227 8.35729 39.8638 7.92532L39.7109 7.6873L39.452 8.06636C39.1343 8.50715 39.1107 8.87741 39.3461 9.19478C39.4402 9.31819 39.5108 9.45925 39.5226 9.52097C39.5226 9.66201 38.5341 9.90003 37.6515 9.96175L36.8984 10.0146L37.0867 9.80307C37.1926 9.68847 37.2867 9.45925 37.2867 9.28293L37.275 8.97439L36.9808 9.23004C36.7572 9.41515 36.6866 9.5562 36.7337 9.75015L36.7807 10.0146L35.8276 9.95291C35.298 9.91765 34.592 9.87358 34.2507 9.83832L33.6388 9.78541L34.0977 9.41515C34.3448 9.2124 34.6155 8.95673 34.6861 8.85094C34.7802 8.72753 34.9332 8.66582 35.1568 8.66582C35.3451 8.66582 35.5922 8.57766 35.757 8.44543L36.0276 8.22504H35.7099C35.5334 8.22504 35.298 8.26029 35.1803 8.31319C35.1405 8.329 35.1076 8.33922 35.0802 8.33922C34.97 8.33922 34.9474 8.17443 34.9097 7.54622C34.8626 6.75282 34.8391 6.69111 34.5331 6.49716C34.3577 6.38325 34.1706 6.28676 34.1221 6.2856H34.1195C33.9108 6.28811 34.1574 6.74453 34.4743 6.93794C34.7802 7.1319 34.8156 7.21123 34.8156 7.69609C34.8156 8.22504 34.5567 8.84214 34.3331 8.84214C34.2742 8.84214 34.2625 8.78043 34.2978 8.7099C34.4272 8.47189 34.0977 7.97821 33.6035 7.63439L33.1093 7.29939L33.0739 7.53741C32.9916 8.09281 33.4858 8.75399 34.133 8.95674C34.2389 8.99201 34.1448 9.09781 33.8742 9.28292C33.3093 9.662 32.7092 9.88239 31.6618 10.0851C30.6381 10.2879 30.1203 10.473 29.3554 10.9138C29.0495 11.0901 28.6729 11.2664 28.5199 11.3105L28.2375 11.3899L28.5788 10.8521C28.767 10.5612 28.9553 10.094 28.9906 9.82067C29.1319 8.85096 29.1554 8.77162 29.4495 8.71872C29.732 8.66581 30.1556 8.27793 30.085 8.12806C30.0783 8.11542 30.056 8.1093 30.0221 8.1093C29.938 8.1093 29.7821 8.14708 29.6143 8.21623L29.1671 8.38371L29.2377 8.14569C29.426 7.5815 29.6967 7.2553 30.2733 6.92031C30.46 6.81536 30.5658 6.72777 30.51 6.72638H30.5074C30.4465 6.72801 30.201 6.85079 29.9556 6.99966L29.5201 7.26413V7.03492C29.5201 6.90269 29.4378 6.6823 29.3201 6.55006C29.1436 6.32084 29.1436 6.29441 29.3201 6.15336C29.4495 6.0652 29.5201 5.87123 29.5201 5.64203L29.5084 5.27177L29.2848 5.48335C29.1554 5.59796 29.0377 5.76546 29.0377 5.85363C29.0259 5.94176 29.0142 6.07401 29.0024 6.12689C28.9906 6.18862 29.073 6.38256 29.1907 6.55006C29.4613 6.93795 29.4495 7.03491 29.1671 7.8636C29.0495 8.23387 28.9083 8.64819 28.8729 8.78925L28.8023 9.0449L28.5905 8.78925C28.4729 8.64819 28.2257 8.4366 28.0375 8.31319L27.6962 8.09282L28.0022 8.35727C28.1787 8.50714 28.3787 8.71873 28.4611 8.83333C28.6847 9.1595 28.6376 9.97936 28.3669 10.429C28.1551 10.7992 27.1549 11.8659 26.9313 11.9717C26.9282 11.9731 26.9247 11.9738 26.9209 11.9738C26.7771 11.9738 26.1076 11.0407 26.1076 10.8433C26.1076 10.7728 26.2135 10.6582 26.3429 10.5965C26.6484 10.4293 26.7896 9.98974 26.5326 9.98819H26.53C26.4355 9.98885 26.2483 10.0679 26.1311 10.1645L25.9075 10.3496L25.8252 10.1469C25.7899 10.0322 25.7546 9.76778 25.7428 9.54739C25.7363 9.34414 25.7334 9.24981 25.7165 9.24981C25.7026 9.24981 25.6793 9.31349 25.6369 9.43278C25.5427 9.75015 25.8958 10.905 26.3194 11.6103C26.4606 11.8483 26.5665 12.0863 26.5665 12.1392C26.5548 12.1921 26.1429 12.5271 25.6369 12.8797L24.719 13.5233L24.519 12.8533C24.4131 12.4742 24.06 11.6103 23.7305 10.9226C22.8362 9.02727 22.5891 8.41899 22.5067 7.77543C22.4126 7.04374 22.5538 6.79688 23.5658 5.96823L24.3189 5.35994L24.5778 5.59796C24.7385 5.75497 24.9572 5.84363 25.1085 5.84363C25.212 5.84363 25.2838 5.80211 25.2838 5.71257C25.2838 5.63323 25.1544 5.47455 24.9897 5.35994L24.6837 5.15716L25.0132 4.98086C25.5192 4.71638 26.0017 4.5489 26.9431 4.31087C27.4255 4.18743 27.6962 4.08165 27.555 4.08165H27.2843L27.5197 3.79074C27.6492 3.64088 27.755 3.44693 27.7433 3.3764C27.7433 3.35221 27.7363 3.34045 27.7249 3.34045C27.7029 3.34045 27.6642 3.3835 27.6256 3.46457C27.4726 3.75549 27.0725 4.06404 26.6607 4.23152C26.5033 4.29047 26.3979 4.32265 26.336 4.32265C26.2313 4.32265 26.2512 4.23051 26.3547 4.01995C26.4488 3.79073 26.4371 3.66732 26.2252 3.29705C26.0069 2.92006 25.8038 2.70375 25.6717 2.70375C25.6401 2.70375 25.6125 2.71613 25.5898 2.74167C25.5545 2.78576 25.4957 3.04141 25.4486 3.29705C25.3898 3.7114 25.4133 3.81718 25.6839 4.09928L25.9781 4.42547L25.2838 4.70758C24.9073 4.85743 24.2365 5.21007 23.7894 5.49218C23.3703 5.76368 23.0058 5.97803 22.958 5.97803C22.9561 5.97803 22.9547 5.9777 22.9539 5.97704C22.9421 5.96824 23.1422 5.65967 23.401 5.28942C24.2601 4.1081 24.4719 3.5968 24.5425 2.64471C24.6013 1.83366 24.6249 1.78959 24.872 1.78959C25.1073 1.78959 25.6369 1.4634 25.6369 1.32234C25.6369 1.27673 25.5864 1.256 25.507 1.256Z" fill="#51D102"/>
</svg>
