<svg width="25" height="25" viewBox="0 0 25 25" fill="none" xmlns="http://www.w3.org/2000/svg">
<g clip-path="url(#clip0_49_20)">
<path d="M23.3247 6.22553C22.2068 4.31049 20.6906 2.79423 18.7755 1.67646C16.8604 0.558743 14.769 0 12.501 0C10.2331 0 8.14157 0.558743 6.22653 1.67646C4.31121 2.79406 2.79494 4.31032 1.67723 6.22553C0.559231 8.14085 0.000488281 10.2322 0.000488281 12.5001C0.000488281 15.0285 0.689439 17.3237 2.06751 19.3849C3.44553 21.447 5.25219 22.9715 7.48751 23.9588C7.44407 22.7979 7.51464 21.8376 7.69895 21.0781L9.31042 14.2742C9.03906 13.7424 8.90343 13.081 8.90343 12.2885C8.90343 11.3664 9.13654 10.596 9.60322 9.97733C10.0699 9.35879 10.6395 9.04957 11.3123 9.04957C11.8547 9.04957 12.2724 9.22858 12.5654 9.5866C12.8586 9.94478 13.0047 10.395 13.0047 10.9377C13.0047 11.2738 12.942 11.6836 12.8172 12.1665C12.6925 12.6494 12.5298 13.2082 12.3291 13.843C12.1284 14.4777 11.9845 14.9853 11.8978 15.3647C11.7459 16.0265 11.8706 16.5934 12.2721 17.0657C12.6736 17.5377 13.2055 17.774 13.8674 17.774C15.0284 17.774 15.9804 17.1284 16.724 15.8373C17.4672 14.5457 17.8387 12.9778 17.8387 11.1332C17.8387 9.71156 17.3802 8.55588 16.4631 7.66637C15.5462 6.77652 14.2685 6.33139 12.6299 6.33139C10.7965 6.33139 9.31247 6.92012 8.17857 8.09741C7.04461 9.27487 6.47765 10.6829 6.47765 12.3212C6.47765 13.2979 6.75437 14.1173 7.3077 14.779C7.49212 14.996 7.55187 15.2293 7.48671 15.479C7.46499 15.5442 7.42166 15.7069 7.3565 15.9671C7.29163 16.2274 7.24801 16.396 7.22646 16.4717C7.13975 16.819 6.93344 16.9274 6.60792 16.7971C5.77251 16.4502 5.13761 15.8478 4.70371 14.9906C4.26965 14.1333 4.05256 13.1403 4.05256 12.0121C4.05256 11.2851 4.16925 10.5581 4.40259 9.83116C4.6357 9.10396 4.99936 8.4015 5.49294 7.72326C5.98681 7.04486 6.57816 6.4453 7.26722 5.92469C7.956 5.40392 8.79432 4.98622 9.78177 4.67153C10.7692 4.35684 11.8325 4.19949 12.9719 4.19949C14.513 4.19949 15.8962 4.54126 17.1222 5.22485C18.3485 5.9085 19.2842 6.79271 19.93 7.87787C20.5757 8.96309 20.8984 10.1242 20.8984 11.3612C20.8984 12.9887 20.6163 14.4535 20.0522 15.7557C19.4881 17.0578 18.6905 18.0804 17.6594 18.8236C16.6285 19.5671 15.4568 19.9387 14.1434 19.9387C13.4817 19.9387 12.8632 19.784 12.2879 19.4749C11.7129 19.1656 11.3168 18.7996 11.0999 18.3762C10.6115 20.2965 10.3185 21.4416 10.2208 21.8104C10.0146 22.5805 9.59153 23.4705 8.95121 24.4795C10.1123 24.8267 11.295 25 12.4994 25C14.7673 25 16.8589 24.4413 18.7739 23.3234C20.6891 22.2059 22.2054 20.6896 23.3229 18.7746C24.4406 16.8591 24.9993 14.7676 24.9993 12.4999C24.9999 10.2322 24.442 8.14057 23.3247 6.22553Z" fill="white"/>
</g>
<defs>
<clipPath id="clip0_49_20">
<rect width="25" height="25" fill="white"/>
</clipPath>
</defs>
</svg>
