<?xml version="1.0" encoding="UTF-8"?>
<!DOCTYPE svg PUBLIC "-//W3C//DTD SVG 1.1//EN" "http://www.w3.org/Graphics/SVG/1.1/DTD/svg11.dtd">
<!-- Creator: CorelDRAW 2017 -->
<svg xmlns="http://www.w3.org/2000/svg" xml:space="preserve" width="80mm" height="80mm" version="1.1" style="shape-rendering:geometricPrecision; text-rendering:geometricPrecision; image-rendering:optimizeQuality; fill-rule:evenodd; clip-rule:evenodd"
viewBox="0 0 8000 8000"
 xmlns:xlink="http://www.w3.org/1999/xlink">
 <defs>
  <style type="text/css">
   <![CDATA[
    .str0 {stroke:#EF7F1A;stroke-width:200;stroke-miterlimit:22.9256}
    .str1 {stroke:#EF7F1A;stroke-width:250;stroke-miterlimit:22.9256}
    .fil0 {fill:none}
   ]]>
  </style>
 </defs>
 <g id="Слой_x0020_1">
  <metadata id="CorelCorpID_0Corel-Layer"/>
  <g id="_1169640096">
   <path class="fil0 str0" d="M2012.41 6226.08c619.75,-181.38 940.32,8.23 1656.93,-340.93 547.29,-393.46 508.12,-932.88 143.18,-1199.13 -339.71,-247.86 -866.18,-264.9 -1044.21,191.62 -106.52,475.41 -221.67,803.96 -755.9,1348.44z"/>
   <path class="fil0 str0" d="M3814.75 3960.84l697.26 565.77c814.61,-695.7 1135.51,-1130.18 1580.31,-1806.1 668.95,-978.08 1352.7,-1960.49 1065.2,-2254.59 -303.99,-273.29 -1134.42,746.97 -1920.75,1574.11 -512.6,515.02 -1077.53,1068.39 -1422.02,1920.81z"/>
   <line class="fil0 str0" x1="4081.9" y1="5077.32" x2="4481.7" y2= "4554.31" />
   <line class="fil0 str0" x1="3420.18" y1="4503.07" x2="3817.71" y2= "3956.73" />
   <path class="fil0 str1" d="M5613.3 3403.4l0 3328.6c0,559.07 -457.41,1016.48 -1016.48,1016.48l-3238.34 0c-559.07,0 -1016.48,-457.41 -1016.48,-1016.48l0 -4475.49c0,-559.07 457.41,-1016.48 1016.48,-1016.48l3238.34 0c383.47,0 719.12,215.21 892.13,530.8"/>
   <line class="fil0 str0" x1="367.47" y1="6837.92" x2="5700.36" y2= "6837.92" />
   <line class="fil0 str0" x1="2504.75" y1="7227.92" x2="3563.07" y2= "7227.92" />
  </g>
 </g>
</svg>
