<?xml version="1.0" encoding="UTF-8"?>
<!DOCTYPE svg PUBLIC "-//W3C//DTD SVG 1.1//EN" "http://www.w3.org/Graphics/SVG/1.1/DTD/svg11.dtd">
<!-- Creator: CorelDRAW 2019 (64-Bit) -->
<svg xmlns="http://www.w3.org/2000/svg" xml:space="preserve" width="34mm" height="33mm" version="1.1" style="shape-rendering:geometricPrecision; text-rendering:geometricPrecision; image-rendering:optimizeQuality; fill-rule:evenodd; clip-rule:evenodd"
viewBox="0 0 3400 3300"
 xmlns:xlink="http://www.w3.org/1999/xlink">
 <defs>
  <style type="text/css">
   <![CDATA[
    .fil0 {fill:#1F1B20;fill-rule:nonzero}
    .fil1 {fill:#053452;fill-rule:nonzero}
   ]]>
  </style>
 </defs>
 <g id="Слой_x0020_1">
  <metadata id="CorelCorpID_0Corel-Layer"/>
  <path class="fil0" d="M1083.93 4l1241.88 0c114.33,0 218.26,46.76 293.59,122.09 75.32,75.32 122.08,179.25 122.08,293.59l0 2457.47c0,114.34 -46.76,218.27 -122.08,293.59 -75.33,75.33 -179.26,122.09 -293.59,122.09l-1241.88 0c-114.34,0 -218.27,-46.76 -293.59,-122.09 -75.33,-75.32 -122.09,-179.25 -122.09,-293.59l0 -2457.47c0,-114.33 46.76,-218.27 122.09,-293.59 75.32,-75.33 179.26,-122.09 293.59,-122.09zm1241.88 51.73l-1241.88 0c-100.06,0 -191.05,40.96 -257.01,106.93 -65.98,65.97 -106.94,156.96 -106.94,257.02l0 2457.47c0,100.06 40.96,191.05 106.94,257.02 65.96,65.97 156.95,106.93 257.01,106.93l1241.88 0c100.05,0 191.04,-40.96 257.02,-106.93 65.97,-65.97 106.92,-156.97 106.92,-257.02l0 -2457.47c0,-100.06 -40.95,-191.05 -106.92,-257.02 -65.98,-65.97 -156.96,-106.93 -257.02,-106.93z"/>
  <path class="fil0" d="M937.43 426.11l1522.74 0 0 416.24 -1548.61 0 0 -416.24 25.87 0zm1471.01 51.74l-1445.14 0 0 312.77 1445.14 0 0 -312.77z"/>
  <path class="fil0" d="M937.43 968.43l1522.74 0 0 416.24 -1548.61 0 0 -416.24 25.87 0zm1471.01 51.73l-1445.14 0 0 312.78 1445.14 0 0 -312.78z"/>
  <polygon class="fil1" points="937.43,1510.74 2460.17,1510.74 2460.17,1926.98 911.56,1926.98 911.56,1510.74 "/>
  <polygon class="fil0" points="38.81,2538.24 685.39,2538.24 685.39,2589.97 38.81,2589.97 "/>
  <polygon class="fil0" points="2701.61,2538.24 3348.19,2538.24 3348.19,2589.97 2701.61,2589.97 "/>
 </g>
</svg>
