<?xml version="1.0" encoding="UTF-8"?>
<!DOCTYPE svg PUBLIC "-//W3C//DTD SVG 1.1//EN" "http://www.w3.org/Graphics/SVG/1.1/DTD/svg11.dtd">
<!-- Creator: CorelDRAW 2019 (64-Bit) -->
<svg xmlns="http://www.w3.org/2000/svg" xml:space="preserve" width="26mm" height="31mm" version="1.1" style="shape-rendering:geometricPrecision; text-rendering:geometricPrecision; image-rendering:optimizeQuality; fill-rule:evenodd; clip-rule:evenodd"
viewBox="0 0 2600 3100"
 xmlns:xlink="http://www.w3.org/1999/xlink">
 <defs>
  <style type="text/css">
   <![CDATA[
    .fil1 {fill:#053452}
    .fil0 {fill:#2B2A29;fill-rule:nonzero}
   ]]>
  </style>
 </defs>
 <g id="Слой_x0020_1">
  <metadata id="CorelCorpID_0Corel-Layer"/>
  <path class="fil0" d="M67.88 50.42l2507.87 0 0 3008.23 -2533.73 0 0 -3008.23 25.86 0zm2456.14 51.73l-2430.27 0 0 2904.77 2430.27 0 0 -2904.77z"/>
  <path class="fil1" d="M1308.88 724.16c458.6,0 830.37,371.77 830.37,830.37 0,245.28 -106.37,465.7 -275.48,617.7l-370.11 -346.23 212.33 457.96c-117.97,64.36 -253.26,100.95 -397.11,100.95 -458.6,0 -830.37,-371.78 -830.37,-830.38 0,-458.6 371.77,-830.37 830.37,-830.37zm0 593.12c131.03,0 237.25,106.23 237.25,237.25 0,131.03 -106.22,237.25 -237.25,237.25 -131.03,0 -237.25,-106.22 -237.25,-237.25 0,-131.02 106.22,-237.25 237.25,-237.25z"/>
  <path class="fil0" d="M2048.95 2310.22c16.84,15.75 30.46,34.91 39.78,56.35 9.02,20.79 14.03,43.57 14.03,67.31 0,46.77 -18.97,89.14 -49.63,119.79 -30.65,30.66 -73.02,49.63 -119.8,49.63 -31.16,0 -60.47,-8.52 -85.71,-23.37 -26.03,-15.33 -47.63,-37.42 -62.35,-63.85 -2.35,-4.23 -4.23,-7.88 -5.65,-10.93l0 -0.1c-1.53,-3.3 -2.99,-6.74 -4.36,-10.31l-360.7 -777.97 634.39 593.45zm-7.51 76.77c-6.47,-14.91 -15.95,-28.24 -27.64,-39.18l-441.04 -412.58 249.69 538.56 0.71 1.72c0.96,2.55 2.07,5.18 3.3,7.83 1.54,3.22 2.83,5.81 3.87,7.68 10.26,18.42 25.28,33.8 43.37,44.45 17.38,10.22 37.76,16.1 59.63,16.1 32.51,0 61.94,-13.18 83.22,-34.47 21.3,-21.29 34.47,-50.72 34.47,-83.22 0,-16.84 -3.42,-32.7 -9.58,-46.89z"/>
  <path class="fil0" d="M371.12 2633.64c27.23,0 51.91,11.08 69.81,28.96l0.1 0c17.89,17.9 28.96,42.62 28.96,69.91 0,27.3 -11.07,52.01 -28.96,69.9 -17.9,17.9 -42.61,28.96 -69.91,28.96 -27.29,0 -52.01,-11.06 -69.9,-28.96l0 -0.09c-17.89,-17.9 -28.96,-42.58 -28.96,-69.81 0,-27.22 11.07,-51.91 28.96,-69.81l0.09 -0.1c17.9,-17.88 42.59,-28.96 69.81,-28.96zm33.38 65.49c-8.53,-8.49 -20.32,-13.75 -33.38,-13.75 -13.05,0 -24.85,5.26 -33.38,13.75 -8.49,8.53 -13.75,20.33 -13.75,33.38 0,13.06 5.26,24.85 13.75,33.38l0.05 -0.05c8.53,8.53 20.32,13.8 33.33,13.8 13.02,0 24.81,-5.27 33.33,-13.8 8.53,-8.53 13.8,-20.32 13.8,-33.33 0,-13.02 -5.27,-24.81 -13.8,-33.33l0.05 -0.05z"/>
  <path class="fil0" d="M371.12 252.03c27.23,0 51.91,11.07 69.81,28.96l0.1 0c17.89,17.89 28.96,42.61 28.96,69.9 0,27.3 -11.07,52.01 -28.96,69.91 -17.9,17.89 -42.61,28.96 -69.91,28.96 -27.29,0 -52.01,-11.07 -69.9,-28.96l0 -0.1c-17.89,-17.89 -28.96,-42.58 -28.96,-69.81 0,-27.22 11.07,-51.91 28.96,-69.81l0.09 -0.09c17.9,-17.89 42.59,-28.96 69.81,-28.96zm33.38 65.48c-8.53,-8.49 -20.32,-13.75 -33.38,-13.75 -13.05,0 -24.85,5.26 -33.38,13.75 -8.49,8.53 -13.75,20.33 -13.75,33.38 0,13.06 5.26,24.85 13.75,33.38l0.05 -0.05c8.53,8.53 20.32,13.81 33.33,13.81 13.02,0 24.81,-5.28 33.33,-13.81 8.53,-8.52 13.8,-20.31 13.8,-33.33 0,-13.01 -5.27,-24.8 -13.8,-33.33l0.05 -0.05z"/>
  <path class="fil0" d="M2269.12 252.03c27.23,0 51.91,11.07 69.81,28.96l0.1 0c17.89,17.89 28.96,42.61 28.96,69.9 0,27.3 -11.07,52.01 -28.96,69.91 -17.9,17.89 -42.61,28.96 -69.91,28.96 -27.29,0 -52.01,-11.07 -69.9,-28.96l0 -0.1c-17.89,-17.89 -28.96,-42.58 -28.96,-69.81 0,-27.22 11.07,-51.91 28.96,-69.81l0.09 -0.09c17.9,-17.89 42.59,-28.96 69.81,-28.96zm33.38 65.48c-8.53,-8.49 -20.32,-13.75 -33.38,-13.75 -13.05,0 -24.85,5.26 -33.38,13.75 -8.49,8.53 -13.75,20.33 -13.75,33.38 0,13.06 5.26,24.85 13.75,33.38l0.05 -0.05c8.53,8.53 20.32,13.81 33.33,13.81 13.02,0 24.81,-5.28 33.33,-13.81 8.53,-8.52 13.8,-20.31 13.8,-33.33 0,-13.01 -5.27,-24.8 -13.8,-33.33l0.05 -0.05z"/>
  <path class="fil0" d="M2269.12 2633.64c27.23,0 51.91,11.08 69.81,28.96l0.1 0c17.89,17.9 28.96,42.62 28.96,69.91 0,27.3 -11.07,52.01 -28.96,69.9 -17.9,17.9 -42.61,28.96 -69.91,28.96 -27.29,0 -52.01,-11.06 -69.9,-28.96l0 -0.09c-17.89,-17.9 -28.96,-42.58 -28.96,-69.81 0,-27.22 11.07,-51.91 28.96,-69.81l0.09 -0.1c17.9,-17.88 42.59,-28.96 69.81,-28.96zm33.38 65.49c-8.53,-8.49 -20.32,-13.75 -33.38,-13.75 -13.05,0 -24.85,5.26 -33.38,13.75 -8.49,8.53 -13.75,20.33 -13.75,33.38 0,13.06 5.26,24.85 13.75,33.38l0.05 -0.05c8.53,8.53 20.32,13.8 33.33,13.8 13.02,0 24.81,-5.27 33.33,-13.8 8.53,-8.53 13.8,-20.32 13.8,-33.33 0,-13.02 -5.27,-24.81 -13.8,-33.33l0.05 -0.05z"/>
  <polygon class="fil0" points="845.62,329.59 1881.31,329.59 1881.31,381.32 845.62,381.32 "/>
 </g>
</svg>
