<?xml version="1.0" encoding="UTF-8"?>
<!DOCTYPE svg PUBLIC "-//W3C//DTD SVG 1.1//EN" "http://www.w3.org/Graphics/SVG/1.1/DTD/svg11.dtd">
<!-- Creator: CorelDRAW 2019 (64-Bit) -->
<svg xmlns="http://www.w3.org/2000/svg" xml:space="preserve" width="42mm" height="34mm" version="1.1" style="shape-rendering:geometricPrecision; text-rendering:geometricPrecision; image-rendering:optimizeQuality; fill-rule:evenodd; clip-rule:evenodd"
viewBox="0 0 4200 3400"
 xmlns:xlink="http://www.w3.org/1999/xlink">
 <defs>
  <style type="text/css">
   <![CDATA[
    .fil0 {fill:#053452}
    .fil1 {fill:#2B2A29;fill-rule:nonzero}
   ]]>
  </style>
 </defs>
 <g id="Слой_x0020_1">
  <metadata id="CorelCorpID_0Corel-Layer"/>
  <path class="fil0" d="M672.47 700.03c211.46,-98.46 330.99,-76.24 517.16,32.18 -50.56,150.17 -101.13,300.33 -151.7,450.51 -147.1,-83.13 -310.42,-105.24 -517.16,-32.19l151.7 -450.5z"/>
  <path class="fil0" d="M486.6 1278.63c211.46,-98.45 330.98,-76.23 517.16,32.18 -50.56,150.17 -101.13,300.34 -151.7,450.51 -147.1,-83.13 -310.43,-105.23 -517.16,-32.18l151.7 -450.51z"/>
  <path class="fil0" d="M1463.46 1889.28c-211.46,98.45 -330.98,76.23 -517.16,-32.18 50.57,-150.17 101.13,-300.34 151.7,-450.51 147.1,83.13 310.43,105.23 517.16,32.18l-151.7 450.51z"/>
  <path class="fil0" d="M1649.34 1310.67c-211.47,98.45 -330.99,76.23 -517.17,-32.18 50.57,-150.17 101.13,-300.34 151.7,-450.51 147.11,83.13 310.43,105.24 517.17,32.18l-151.7 450.51z"/>
  <path class="fil0" d="M3097.78 985.09c-9.13,9.14 -29.41,16.05 -40.34,21.99 -12.63,6.87 -26.41,18.13 -39.22,22.9 -1.84,3.47 -14.82,8.62 -19.17,10.46 -24.58,10.35 -53.44,9.4 -70.97,-6.82 -9.14,-8.45 -19.41,-22.32 -30.03,-29.91 -11.46,-8.19 -27.16,-16.31 -27.84,-32.89 8.69,-8.37 20.24,-16.66 30.02,-25.46 20.29,-18.26 45.6,-38.2 77.2,-32.23 9.43,1.79 35.66,8.6 40.79,13.48 5.8,1.57 35.66,13.8 41.16,19.47 15.36,0.66 31.63,8.51 45.61,11.87 -0.31,9.02 -0.06,22.16 -7.21,27.14zm-36.12 -173.38c-3.32,4.69 -1.29,2.87 -6.18,4.95 -11.32,18.21 -12.62,10.78 -17.12,44.02l-32.28 -11.53c-2.29,-36.42 3.86,-71.81 18.17,-100.01 40.93,-80.67 95.14,-32.77 111.38,43.3 9.41,44.03 1.98,63.92 -7,102.85l-26.65 -9.88c4.32,-21.15 7.74,-32.51 -2.05,-53.62 -9.02,-19.45 -16.03,-20.25 -38.27,-20.08zm-117.55 -73.6l3.37 3.51c16.09,18.43 25.08,71.68 23.24,101.96l-34.55 3.73c-17.97,-64.16 -72.7,-41.22 -64.04,32.48 -3.9,3.88 -18.54,16.86 -22.5,18.51 -8.79,-12.97 -13.18,-54.41 -12.87,-72.81 0.43,-25.01 7.55,-50.61 16.01,-69.89 36.92,-84.13 88.02,-35.28 91.34,-17.49zm-177.55 285.64c1.86,20.58 -21.69,48.26 -30.62,60.79 -22.86,32.12 -49.47,79.96 -67.41,116.12 -4.28,8.63 -26.48,58.44 -29.05,61.24 -1.87,6.77 -11.98,35.05 -17.22,40.98l-23.3 72.28 -12.16 42.17c0.89,11.7 -6.76,36.67 -9.13,50.13 -3.1,17.56 -5.94,36.79 -7.38,55.1 52.02,-4.4 71.45,4.06 110.25,41.41 66.47,63.96 130.51,203.98 191.57,279.26 25.76,-3.84 67.48,-35.22 65.54,-81.18 -3.36,-79.52 -99.56,-81.24 -150.99,-141.27 -19.35,-22.58 -47.56,-55.46 -50.99,-96.95 -5.63,-68.08 41.26,-177.64 64.32,-229.29 25.26,-56.58 92.44,-158.3 99.52,-194.57 21.66,7.71 25.08,12.14 53.12,13.6 50.03,2.61 66.33,-2.88 106.42,-28.25 8.45,-5.35 35.34,-21.97 43.44,-24.23l6.85 13.15c1.92,1.55 1.37,0.99 3.22,3.19l51.66 75.82c5.75,2.51 13.57,18.19 18.11,25.04 5.93,8.92 10.96,16.79 16.53,26.58 5.49,9.64 27.53,47.46 28.33,57.3 6.19,5.47 15.7,30.28 18.45,40.46 3.93,4.44 23.6,60.99 23.05,69.33 0.33,0.41 0.68,1 0.87,1.32l3.53 8.39c0.9,3.17 1.84,7.05 2.71,10.19 2.11,7.58 3.97,14.2 5.32,22.06 8.96,23.33 18.35,91.6 21.11,120.54 7.81,1.16 51.97,-32.17 150.03,-7.88 22.92,5.68 44.74,13.27 62.49,25.46 6.83,4.69 21.41,19.02 24.78,20.04 4.76,1.45 13.24,1.34 19.5,2.96 7.11,1.83 10.93,4.11 17.42,5.61 0.53,-29.41 2.96,-58.17 0.61,-87.41 -2.16,-26.83 -13.56,-70.95 -13.12,-77.9 -3.12,-3.76 -2.56,-3.58 -4.38,-9.48 -1.14,-3.7 -1.74,-6.36 -2.82,-10.1 -2.14,-7.45 -4.42,-13.84 -6.35,-21.47l-27.47 -71.64c-6.67,-5.75 -15.13,-28.86 -19.99,-38.51 -6.88,-13.65 -15.43,-26.26 -20.34,-39.7 -3.33,-1.74 -22.93,-36.31 -26.96,-42.22 -9.83,-14.43 -18.59,-26.36 -28.67,-40.62 -38.65,-54.63 -82.29,-110.69 -104.11,-176.77 -6.55,-19.84 -28.31,-92.81 -26.75,-111.63 -6.03,-8.45 -5.7,-28.78 -6.74,-40.6 -8.76,-51.59 -19.43,-111.67 -35.71,-158.71 -8.63,-24.94 -19.62,-46.62 -33.11,-64.17 -7.53,-9.79 -14.25,-18.4 -22.99,-26.02l-25.76 -20.83c-12.3,-4.69 -23.3,-12.38 -37.07,-17.53 -13.11,-4.9 -25.99,-7.85 -40.07,-11.88l-35.89 -5.92c-65.46,-4.53 -123.74,-3.35 -173.26,27.91 -93.99,59.35 -113.75,182.37 -116.2,288.15 -0.57,24.52 3.11,191.58 -2.74,200.15z"/>
  <path class="fil0" d="M2370 1898.74c-2.39,17.33 -5.17,21.11 -1.18,39.49 1.91,3.2 4.22,6.94 6.38,9.75 2,2.58 2.34,2.68 4.32,4.99l2.81 3.61c11.44,4.51 22.64,11.87 37.34,16.27 8.43,2.52 35.99,8.86 41.09,12.46 13.89,-2.21 137.95,29.71 145.38,36.82 10.01,2.57 75.34,26.56 79.9,31.03l33.19 6.03 38.16 -0.38c52.06,-7.91 75.69,-39.47 78.65,-94.75 3.48,-65.23 -23.28,-85.76 -49.69,-123.8 -17.86,-25.72 -48.1,-78.41 -66.13,-108.07 -15,-24.66 -52.44,-81.21 -70.2,-102.12 -32.09,-37.78 -59.81,-62.92 -106.07,-16.42 -14.28,14.35 -26.89,32.75 -42.15,45.9 -21.97,18.93 -27.07,27.51 -55.15,30.91 -59.73,7.23 -101.18,9.36 -70.13,80.1 37.54,85.52 7.25,90.01 -6.52,128.18z"/>
  <path class="fil0" d="M3276.35 1673.98l-2.7 114.71c-6.94,105.25 -45.39,134.96 -27.97,210.35 7.67,33.17 20.58,37.07 32.68,48.94 5.71,2.32 4.32,1.4 7.71,5.04 7.02,-0.09 14.87,3.34 23,4.65 24.73,3.97 54.55,3.47 77.84,-3.7 32.84,-10.12 48.67,-30.89 67.4,-46.94 19.18,-16.44 44.64,-32.6 66.51,-47.7 36.31,-25.06 121.52,-71.5 141.64,-88.79 10.42,-8.96 19.35,-18.77 16.49,-38.71 -4.78,-33.34 -55.33,-22.08 -93.01,-79.41 -13.9,-21.14 -11.81,-77.37 -24.14,-90.85 -5.82,6.45 -14.27,13.92 -19.65,21.24 -12.52,17.04 -46.05,57.67 -68.51,57.98 -1.57,1.52 -1.14,1.26 -3.6,2.76l-2.62 1.4c-24.43,11.57 -94.43,13.6 -112.41,-2.25 -18.98,-0.36 -50.68,-32.97 -59.62,-57.35l-8.06 -21.92c-0.24,-0.44 -1.84,-3.01 -2.32,-3.61 -2.44,-3.02 -0.32,-0.92 -3.27,-3.17l-5.39 17.33z"/>
  <path class="fil0" d="M3174.66 1937.6l7.56 -37.09 7.15 -27.17c-7.9,4.05 -9.55,8.06 -16.32,9.33 -8.24,13.42 -58.67,32.84 -79.91,36.3 -8.22,3.12 -22.59,5.89 -31.45,3.69l-6.06 1.89c-8.35,1.46 -34.72,1.78 -41.41,-1.93 -29.98,6.39 -102.04,-27.15 -124.61,-49.19 2.91,16.95 11.08,30.27 13.4,54.4 2.23,23.23 -0.42,42.23 -2.38,64.84l275.68 0.02c-1.41,-21.01 -3.11,-33.54 -1.65,-55.09z"/>
  <path class="fil0" d="M3395.07 1686.05c15.38,1.57 24.03,0.79 38.95,-1.12 21.47,-10.61 25.15,-4.17 48.96,-35.07 9.23,-11.98 14.55,-11.77 8.46,-25.77 -16.99,-39.05 -136.5,-51.68 -163.48,-21.3 43.32,61.33 19.12,71.28 67.11,83.26z"/>
  <path class="fil1" d="M68.72 62.45l4086.48 0 0 2670.59c-1370.78,0.28 -2741.57,0.28 -4112.34,0l0 -2670.59 25.86 0zm4034.75 51.73l-4008.88 0 0 2567.14 4008.88 0 0 -2567.14z"/>
  <path class="fil1" d="M3110.67 3380.93l-2080.82 0 467.38 -448.67 1229.44 0 446.09 448.67 -62.09 0zm-1952.42 -51.73l1890.33 0 -343.22 -345.21 -1187.52 0 -359.59 345.21z"/>
 </g>
</svg>
