<?xml version="1.0" encoding="UTF-8"?>
<!DOCTYPE svg PUBLIC "-//W3C//DTD SVG 1.1//EN" "http://www.w3.org/Graphics/SVG/1.1/DTD/svg11.dtd">
<!-- Creator: CorelDRAW 2019 (64-Bit) -->
<svg xmlns="http://www.w3.org/2000/svg" xml:space="preserve" width="27.5mm" height="21mm" version="1.1" style="shape-rendering:geometricPrecision; text-rendering:geometricPrecision; image-rendering:optimizeQuality; fill-rule:evenodd; clip-rule:evenodd"
viewBox="0 0 2750 2100"
 xmlns:xlink="http://www.w3.org/1999/xlink">
 <defs>
  <style type="text/css">
   <![CDATA[
    .fil0 {fill:#053452}
    .fil1 {fill:white;fill-rule:nonzero}
   ]]>
  </style>
 </defs>
 <g id="Слой_x0020_1">
  <metadata id="CorelCorpID_0Corel-Layer"/>
  <path class="fil0" d="M342.11 16.91l2063.83 0c175.54,0 319.15,143.62 319.15,319.15l0 1433.34c0,175.53 -143.61,319.15 -319.15,319.15l-2063.83 0c-175.53,0 -319.15,-143.62 -319.15,-319.15l0 -1433.34c0,-175.53 143.62,-319.15 319.15,-319.15z"/>
  <path class="fil1" d="M769.53 951.06c70.34,-58.47 353.08,-108.31 636.43,-106.83 218.7,1.15 439.77,32.23 567.04,112.47l1.16 0.73 1.37 1.14c60.8,50.67 91.07,123.65 102.24,207.55 10.76,80.77 3.69,171.83 -10.52,262.35l-3.19 20.29 -339.83 0 -101.38 45.23c-168.64,2.58 -337.29,4.96 -505.92,7.29l-92.67 -52.52 -348.31 0 0 -23.93c0,-35.45 -2.63,-72.99 -5.28,-111 -10.1,-144.32 -20.64,-295.3 98.86,-362.77zm636.24 -59.15c-275.99,-1.44 -547.15,43.85 -606.58,96.66l-1.99 1.77 -2.4 1.32c-95.12,52.13 -85.57,188.6 -76.45,318.99 2.15,30.79 4.28,61.26 5.11,90.24l313.15 0 92.68 52.53 483.01 -6.96 102.12 -45.57 308.77 0c11.49,-79.75 16.57,-158.81 7.27,-228.61 -9.58,-71.95 -34.57,-133.93 -84.07,-175.91 -119.16,-74.45 -330.3,-103.36 -540.62,-104.46z"/>
  <path class="fil1" d="M1072.13 1434.89l0 114.78c0,18.99 -7.76,36.26 -20.25,48.75 -12.49,12.49 -29.76,20.25 -48.75,20.25l-207.97 0c-18.92,0 -36.17,-7.77 -48.71,-20.3 -12.53,-12.44 -20.29,-29.71 -20.29,-48.7l0 -124.84 47.87 0 0 124.84c0,5.78 2.39,11.07 6.22,14.91l0 0.09c3.78,3.77 9.06,6.13 14.91,6.13l207.97 0c5.79,0 11.07,-2.39 14.91,-6.22 3.83,-3.84 6.22,-9.13 6.22,-14.91l0 -114.78 47.87 0z"/>
  <path class="fil1" d="M2019.75 1424.83l0 124.84c0,18.99 -7.77,36.26 -20.26,48.75 -12.49,12.49 -29.75,20.25 -48.75,20.25l-207.97 0c-18.91,0 -36.17,-7.77 -48.7,-20.3 -12.54,-12.44 -20.3,-29.71 -20.3,-48.7l0 -115.19 47.87 0 0 115.19c0,5.78 2.39,11.07 6.22,14.91l0 0.09c3.78,3.77 9.06,6.13 14.91,6.13l207.97 0c5.79,0 11.07,-2.39 14.91,-6.22 3.84,-3.84 6.22,-9.13 6.22,-14.91l0 -124.84 47.88 0z"/>
  <path class="fil1" d="M792.89 942.16l81.68 -208.47c2.98,-7.6 32.08,-70.47 63.35,-117.77 18.71,-28.31 39.25,-52.18 58.5,-59.78 119.19,-47.09 249.04,-68.57 373.25,-69.23 135.01,-0.72 263.55,23.2 364.73,65.55 50.7,21.22 115.82,162.62 121.62,175.22 1.5,1.36 94.57,205.64 104.21,226.6l-43.38 19.82c-9.37,-20.36 -104.18,-225.35 -104.18,-226.52 -4.97,-10.82 -62.98,-136.92 -96.6,-150.99 -95.71,-40.06 -217.72,-62.69 -346.21,-62 -118.35,0.63 -242.14,21.12 -355.86,66.05 -8.85,3.5 -22.32,20.55 -36.25,41.64 -29.17,44.12 -55.96,101.86 -58.67,108.8l-81.69 208.47 -44.5 -17.39z"/>
  <path class="fil1" d="M680.06 1098.85c3.78,-2.63 7.96,-4.7 12.36,-6.07 4.38,-1.38 8.96,-2.12 13.6,-2.12 10.32,0 26.03,-0.6 46.43,-1.37 28.79,-1.08 66.41,-2.52 106.75,-3.26l-0.01 -0.06c-0.1,-0.02 -0.13,-0.03 -0.01,-0.04 9.28,-1.04 31.03,-3.47 55.43,19.18l153.71 142.73c9.12,8.47 14.2,24.89 14.2,39.15 0,5.01 -0.61,10.25 -1.89,15.22 -1.7,6.48 -4.58,12.34 -8.77,16.88l-0.1 0.09c-5.81,6.24 -13.18,9.88 -22.32,9.88l-343.42 0c-4.5,0 -9.03,-0.74 -13.43,-2.09 -4.45,-1.38 -8.61,-3.39 -12.3,-5.91 4.48,-6.56 25.73,-34.58 25.73,-39.88l328.02 0 -151.97 -141.11c-8.28,-7.69 -14.86,-6.95 -17.65,-6.64 -1.15,0.13 -1.9,0.25 -4.3,0.27 -38.58,0.71 -76.78,2.17 -105.98,3.27 -23.25,0.88 -41.16,1.57 -48.12,1.57l0 -2.1 -25.96 -37.59zm25.96 37.6l0.61 1.94 0.54 -0.29 -1.15 -1.65zm0 0l0 2.08 0.61 -0.14 -0.61 -1.94zm153.18 -50.42l0.26 -0.01c1.1,0 0.05,-0.02 -0.27,-0.05l0.01 0.06zm-153.18 197.32l0.59 -1.99 -0.59 -0.18 0 2.17zm-0.03 0.06l1.21 -1.79 -0.59 -0.26 -0.62 2.05z"/>
  <path class="fil1" d="M2039.65 1138.46c-0.23,-0.03 -0.05,0 0.09,0.03l0.09 -1.12 -0.18 1.09zm0.09 0.03c0.09,0.02 0.16,0.04 -0.01,0.03l0.14 0.02 0 -1.45 -0.13 1.4zm3.92 -47.65l3.66 0.5 -7.45 45.75 0 1.45c-6.97,0 -24.88,-0.69 -48.13,-1.57 -29.2,-1.1 -67.41,-2.56 -105.97,-3.27 -2.36,-0.02 -3.15,-0.14 -4.3,-0.27 -2.8,-0.31 -9.37,-1.05 -17.65,6.64l-151.96 141.11 328.01 0 0 1.98 37.66 26.01c-4.2,6.08 -9.83,11.12 -16.38,14.58 -6.42,3.38 -13.68,5.31 -21.28,5.31l-343.43 0c-9.12,0 -16.58,-3.66 -22.41,-9.98 -4.22,-4.58 -7.12,-10.49 -8.78,-16.97 -1.27,-4.96 -1.89,-10.17 -1.89,-15.11 0,-14.27 5.09,-30.7 14.21,-39.16l153.71 -142.73c24.4,-22.65 46.15,-20.22 55.42,-19.18 0.13,0.01 0.1,0.02 0,0.04l-0.01 0.06c40.34,0.74 77.95,2.18 106.73,3.26 20.41,0.77 36.13,1.37 46.45,1.37l3.79 0.18zm-157.14 -4.82l0.18 -0.05c-0.32,0.03 -1.34,0.05 -0.28,0.05l0.1 0zm153.35 195.2l-0.96 0.3 0.82 1.55 0.14 0.09 0 -1.94zm-0.96 0.3l-0.61 0.55 1.43 1 -0.82 -1.55z"/>
  <path class="fil1" d="M1075.49 1095.06l614.22 0c11.87,0 26.42,6.3 35.35,14.58 3.13,2.92 5.88,6.27 7.98,9.95 2.92,5.01 4.56,10.53 4.56,16.37 0,7.53 -2.61,14.72 -8.52,21.1l0 0.1c-4.59,4.94 -12.77,14.18 -23.76,26.55 -46.5,52.38 -136.58,153.84 -155.4,153.84l-358.58 0c-23.42,0 -101.44,-106.72 -139.44,-158.72 -8.21,-11.23 -14.43,-19.73 -17.28,-23.45 -4.64,-6.05 -6.71,-12.64 -6.71,-19.42 0,-6.72 2.17,-13.04 5.91,-18.72 2.73,-4.14 6.28,-7.84 10.22,-10.86l0.08 -0.1c8.63,-6.62 20.81,-11.22 31.37,-11.22zm602.26 47.87l-592.92 0 5.6 7.66c33.29,45.57 100.19,139.09 100.91,139.09l358.58 0c2.47,0 78.1,-90.74 119.68,-137.58l8.15 -9.17z"/>
 </g>
</svg>
