<svg width="21" height="21" viewBox="0 0 21 21" fill="none" xmlns="http://www.w3.org/2000/svg">
<path fill-rule="evenodd" clip-rule="evenodd" d="M18.157 19.1972H11.8106C11.4484 19.1972 11.1544 18.9032 11.1544 18.541C11.1544 18.1787 11.4484 17.8847 11.8106 17.8847H18.157C18.5192 17.8847 18.8132 18.1787 18.8132 18.541C18.8132 18.9032 18.5192 19.1972 18.157 19.1972Z" fill="#828282"/>
<mask id="mask0" mask-type="alpha" maskUnits="userSpaceOnUse" x="1" y="2" width="16" height="18">
<path fill-rule="evenodd" clip-rule="evenodd" d="M1.75031 2.62512H16.7833V19.1972H1.75031V2.62512Z" fill="white"/>
</mask>
<g mask="url(#mask0)">
<path fill-rule="evenodd" clip-rule="evenodd" d="M11.4718 4.38968L3.23368 14.6928C3.08406 14.8801 3.02893 15.1216 3.08406 15.3534L3.67993 17.8778L6.33906 17.8446C6.59193 17.8419 6.82556 17.7291 6.98043 17.5366C9.79531 14.0147 15.1617 7.29993 15.3139 7.10306C15.4574 6.87031 15.5134 6.54131 15.4382 6.22456C15.3612 5.89993 15.1591 5.62431 14.8677 5.44843C14.8056 5.40556 13.3312 4.26106 13.2857 4.22518C12.7309 3.78068 11.9216 3.85768 11.4718 4.38968ZM3.16192 19.1973C2.8583 19.1973 2.59405 18.9891 2.52317 18.6924L1.80655 15.6553C1.65867 15.0262 1.80567 14.3769 2.20905 13.8729L10.4515 3.56368C10.455 3.56018 10.4577 3.55581 10.4612 3.55231C11.365 2.47168 12.9995 2.31243 14.102 3.19706C14.1458 3.23118 15.6097 4.36868 15.6097 4.36868C16.1417 4.68543 16.5573 5.25156 16.7148 5.92181C16.8714 6.58506 16.7577 7.26931 16.3928 7.84769C16.3657 7.89056 16.342 7.92731 8.00505 18.3573C7.60342 18.8578 7.00142 19.1492 6.35479 19.1571L3.17067 19.1973H3.16192Z" fill="#828282"/>
</g>
<path fill-rule="evenodd" clip-rule="evenodd" d="M14.1955 10.2242C14.0555 10.2242 13.9155 10.1796 13.7956 10.0886L9.02512 6.42407C8.73812 6.20357 8.68387 5.79232 8.90437 5.50357C9.12574 5.21657 9.53699 5.1632 9.82487 5.3837L14.5962 9.04732C14.8832 9.26782 14.9375 9.67995 14.7161 9.96782C14.5875 10.1358 14.3924 10.2242 14.1955 10.2242Z" fill="#828282"/>
</svg>
