<svg width="50" height="50" viewBox="0 0 50 50" fill="none" xmlns="http://www.w3.org/2000/svg">
<rect width="50" height="50" rx="15" fill="#F2C94C"/>
<path d="M39.224 16.5861C39.436 15.7805 39.224 15.1875 38.2042 15.1875H34.8297C33.9704 15.1875 33.575 15.6967 33.3631 16.2639C33.3631 16.2639 31.6443 20.9754 29.2152 24.0305C28.4303 24.9135 28.0693 25.1971 27.6396 25.1971C27.4277 25.1971 27.1011 24.9135 27.1011 24.1078V16.5861C27.1011 15.6193 26.8605 15.1875 26.15 15.1875H20.8448C20.3063 15.1875 19.9855 15.6387 19.9855 16.0576C19.9855 16.9729 21.2 17.1855 21.3261 19.7637V25.3582C21.3261 26.5828 21.1313 26.8084 20.7016 26.8084C19.5558 26.8084 16.7714 22.0775 15.1214 16.6635C14.7891 15.6129 14.4625 15.1875 13.5974 15.1875H10.223C9.26047 15.1875 9.06567 15.6967 9.06567 16.2639C9.06567 17.2693 10.2115 22.2645 14.3995 28.8645C17.1896 33.3697 21.1198 35.8125 24.6948 35.8125C26.8433 35.8125 27.1068 35.2711 27.1068 34.3365C27.1068 30.0311 26.912 29.625 27.9891 29.625C28.4875 29.625 29.3469 29.9086 31.3521 32.0807C33.6438 34.6588 34.0219 35.8125 35.3053 35.8125H38.6797C39.6422 35.8125 40.1292 35.2711 39.8485 34.2012C39.2068 31.9518 34.8698 27.324 34.675 27.0146C34.1766 26.2928 34.3198 25.9705 34.675 25.326C34.6808 25.3195 38.8 18.7969 39.224 16.5861Z" fill="white"/>
</svg>
