<svg width="50" height="50" viewBox="0 0 50 50" fill="none" xmlns="http://www.w3.org/2000/svg">
<rect width="50" height="50" rx="15" fill="#F2C94C"/>
<g clip-path="url(#clip0)">
<path d="M25.0067 17.3634C20.7478 17.3634 17.3125 20.7701 17.3125 24.9935C17.3125 29.2169 20.7478 32.6236 25.0067 32.6236C29.2656 32.6236 32.7009 29.2169 32.7009 24.9935C32.7009 20.7701 29.2656 17.3634 25.0067 17.3634ZM25.0067 29.9541C22.2545 29.9541 20.0045 27.7294 20.0045 24.9935C20.0045 22.2576 22.2478 20.033 25.0067 20.033C27.7656 20.033 30.0089 22.2576 30.0089 24.9935C30.0089 27.7294 27.7589 29.9541 25.0067 29.9541ZM34.8103 17.0513C34.8103 18.0408 34.0067 18.831 33.0156 18.831C32.0178 18.831 31.221 18.0341 31.221 17.0513C31.221 16.0685 32.0245 15.2716 33.0156 15.2716C34.0067 15.2716 34.8103 16.0685 34.8103 17.0513ZM39.9062 18.8576C39.7924 16.4736 39.2433 14.3619 37.4821 12.622C35.7277 10.8822 33.5982 10.3376 31.1942 10.2181C28.7165 10.0787 21.2902 10.0787 18.8125 10.2181C16.4152 10.331 14.2857 10.8755 12.5246 12.6154C10.7634 14.3552 10.221 16.4669 10.1005 18.8509C9.95984 21.308 9.95984 28.6724 10.1005 31.1294C10.2143 33.5134 10.7634 35.6251 12.5246 37.365C14.2857 39.1048 16.4085 39.6494 18.8125 39.7689C21.2902 39.9083 28.7165 39.9083 31.1942 39.7689C33.5982 39.656 35.7277 39.1115 37.4821 37.365C39.2366 35.6251 39.7857 33.5134 39.9062 31.1294C40.0469 28.6724 40.0469 21.3146 39.9062 18.8576ZM36.7053 33.7658C36.183 35.0673 35.1719 36.0701 33.8527 36.5947C31.8772 37.3716 27.1897 37.1923 25.0067 37.1923C22.8237 37.1923 18.1295 37.365 16.1607 36.5947C14.8482 36.0767 13.8371 35.074 13.308 33.7658C12.5246 31.8068 12.7054 27.1583 12.7054 24.9935C12.7054 22.8287 12.5313 18.1736 13.308 16.2212C13.8304 14.9197 14.8415 13.9169 16.1607 13.3923C18.1362 12.6154 22.8237 12.7947 25.0067 12.7947C27.1897 12.7947 31.8839 12.622 33.8527 13.3923C35.1652 13.9103 36.1763 14.913 36.7053 16.2212C37.4888 18.1802 37.308 22.8287 37.308 24.9935C37.308 27.1583 37.4888 31.8134 36.7053 33.7658Z" fill="white"/>
</g>
<defs>
<clipPath id="clip0">
<rect width="30" height="34" fill="white" transform="translate(10 8)"/>
</clipPath>
</defs>
</svg>
