<svg width="260" height="92" viewBox="0 0 260 92" fill="none" xmlns="http://www.w3.org/2000/svg">
<g clip-path="url(#clip0)">
<path d="M51.7705 32.3199C51.7754 27.2142 56.0001 23.013 61.1028 23.0276C66.2151 23.047 70.3817 27.3066 70.372 32.5145C70.3623 37.5618 66.0599 41.8214 60.9864 41.802C55.8206 41.7874 51.7608 37.6104 51.7705 32.3199ZM61.0688 25.7992C57.528 25.7992 54.5692 28.746 54.5692 32.281C54.5644 36.069 57.4116 39.0157 61.0834 39.0303C64.7697 39.0449 67.7576 36.1517 67.777 32.5388C67.7964 28.887 64.726 25.7992 61.0688 25.7992Z" fill="#FCD304"/>
<path d="M67.8061 43.6547C68.2912 43.6838 68.6889 43.9464 68.9314 44.3986C69.7269 45.8574 70.5224 47.321 71.2791 48.7993C71.6234 49.4703 71.3615 50.2677 70.7164 50.5887C70.0422 50.9242 69.3292 50.8415 68.9508 50.1948C68.0535 48.6582 67.1998 47.0876 66.448 45.4733C66.0406 44.6272 66.8215 43.6644 67.8061 43.6547Z" fill="#FCD304"/>
<path d="M50.1991 25.1574C50.1845 26.1542 49.1029 26.869 48.2152 26.3925C46.697 25.5756 45.2322 24.6614 43.7868 23.7181C43.1611 23.3096 43.0641 22.41 43.4763 21.8508C43.9323 21.2333 44.5628 21.0339 45.2322 21.4229C46.697 22.269 48.1425 23.1589 49.5782 24.0536C49.9953 24.3064 50.1845 24.7246 50.1991 25.1574Z" fill="#FCD304"/>
<path d="M44.2474 42.9058C43.8157 42.8863 43.3646 42.6772 43.1124 42.1569C42.865 41.6464 42.9281 41.1601 43.3064 40.7225C43.5489 40.4404 43.8448 40.2362 44.1698 40.066C45.4018 39.4193 46.6192 38.7434 47.8658 38.1356C48.7146 37.7223 49.6071 37.9946 49.9175 38.6656C50.2474 39.3755 49.9224 40.1584 49.0736 40.6204C47.827 41.3011 46.561 41.9527 45.3048 42.614C45.0186 42.7745 44.713 42.9106 44.2474 42.9058Z" fill="#FCD304"/>
<path d="M51.7657 14.4694C52.2265 14.4937 52.6485 14.7514 52.925 15.228C53.6671 16.5068 54.4238 17.7857 55.1319 19.084C55.6315 20.003 55.4569 20.8151 54.7439 21.2333C54.0697 21.632 53.2257 21.3159 52.7115 20.4358C51.9937 19.2104 51.2807 17.9802 50.6016 16.7354C49.9904 15.6073 50.5531 14.45 51.7657 14.4694Z" fill="#FCD304"/>
<path d="M54.9281 44.2333C54.933 44.7487 54.8311 45.0599 54.6516 45.3517C53.895 46.5965 53.1577 47.8462 52.3768 49.0764C51.8384 49.9225 51.0235 50.2143 50.3929 49.8642C49.7236 49.4946 49.5441 48.5902 50.0534 47.6857C50.7955 46.368 51.591 45.0745 52.3865 43.7859C52.7794 43.149 53.3857 42.8961 54.1084 43.1198C54.7098 43.3046 54.9039 43.8151 54.9281 44.2333Z" fill="#FCD304"/>
<path d="M62.3833 15.6948C62.3833 16.4534 62.393 17.2119 62.3833 17.9705C62.3687 18.768 62.0292 19.3174 61.1755 19.405C60.4188 19.4828 59.7834 18.9916 59.7058 18.1164C59.5603 16.4825 59.5652 14.839 59.701 13.2052C59.7737 12.3202 60.3849 11.8339 61.1513 11.902C62.0001 11.9798 62.359 12.5195 62.3784 13.3219C62.3978 14.1145 62.3833 14.9071 62.3833 15.6948Z" fill="#FCD304"/>
<path d="M73.0444 16.5361C72.9862 16.7063 72.9426 16.9883 72.8019 17.212C71.9385 18.5638 71.0751 19.9156 70.1584 21.2285C69.654 21.9481 68.9264 22.06 68.257 21.6418C67.5925 21.2236 67.3985 20.5769 67.8593 19.8426C68.7178 18.4519 69.6297 17.1001 70.5416 15.7435C70.9054 15.2037 71.4535 15.0627 72.0646 15.2523C72.6321 15.4274 72.9668 15.8261 73.0444 16.5361Z" fill="#FCD304"/>
<path d="M59.2643 49.2514C59.2643 48.4637 59.2304 47.676 59.274 46.8882C59.3322 45.8671 59.9434 45.2204 60.7486 45.2544C61.5247 45.2884 62.0291 45.9206 62.0097 46.932C61.9855 48.4151 62.0582 49.8982 61.8593 51.3764C61.7332 52.3149 61.2433 52.8595 60.4624 52.8352C59.7057 52.8157 59.2449 52.2273 59.2304 51.2402C59.2207 50.5741 59.2304 49.9079 59.2304 49.2417C59.2401 49.2514 59.2546 49.2514 59.2643 49.2514Z" fill="#FCD304"/>
<path d="M44.3687 33.4189C43.583 33.4189 42.7923 33.4529 42.0066 33.4092C41.1092 33.3605 40.6872 32.9035 40.6969 32.1109C40.7066 31.3037 41.2111 30.7202 42.0405 30.6861C43.7333 30.6229 45.431 30.691 47.1141 30.8709C47.8562 30.9536 48.2151 31.469 48.1957 32.2081C48.1812 32.9375 47.6234 33.4578 46.8134 33.4967C46.3914 33.5161 45.9694 33.4675 45.5425 33.4578C45.1497 33.4481 44.7568 33.4578 44.3639 33.4578C44.3687 33.4432 44.3687 33.4335 44.3687 33.4189Z" fill="#FCD304"/>
<path d="M150.64 61.7201L150.24 63.0001H140.44L139.96 61.6401L140.84 61.4001C141.56 61.2134 142.093 61.0001 142.44 60.7601C142.787 60.5201 143.027 60.1734 143.16 59.7201C143.32 59.2401 143.4 58.5601 143.4 57.6801V42.5201L129.92 57.2001V57.9601C129.92 59.1067 130.08 59.9067 130.4 60.3601C130.72 60.8134 131.36 61.1867 132.32 61.4801L133.16 61.7201L132.76 63.0001H122.92L122.44 61.6401L123.4 61.4001C124.12 61.1867 124.653 60.9601 125 60.7201C125.347 60.4801 125.587 60.1334 125.72 59.6801C125.88 59.2001 125.96 58.5334 125.96 57.6801V39.6001C125.96 38.3734 125.787 37.5201 125.44 37.0401C125.093 36.5601 124.413 36.1734 123.4 35.8801L122.44 35.6401L122.92 34.2801H131.72L132.24 34.9201L131.72 35.6401C131.053 36.5201 130.587 37.4534 130.32 38.4401C130.053 39.4267 129.92 40.7201 129.92 42.3201V53.9201L143.4 39.2801C143.373 38.1867 143.187 37.4134 142.84 36.9601C142.493 36.4801 141.827 36.1201 140.84 35.8801L139.96 35.6401L140.44 34.2801H149.16L149.76 34.9201L149.16 35.6401C148.467 36.4934 147.987 37.4134 147.72 38.4001C147.453 39.3867 147.32 40.6934 147.32 42.3201V57.9601C147.32 59.1334 147.493 59.9467 147.84 60.4001C148.187 60.8534 148.853 61.2134 149.84 61.4801L150.64 61.7201ZM160.298 54.9601C160.298 56.5867 160.431 57.8934 160.698 58.8801C160.964 59.8401 161.431 60.7601 162.098 61.6401L162.618 62.3601L162.098 63.0001H153.338L152.858 61.6401L153.778 61.4001C154.791 61.1334 155.471 60.7467 155.818 60.2401C156.164 59.7334 156.338 58.8801 156.338 57.6801V37.9201C156.338 37.5734 156.271 37.3334 156.138 37.2001C156.004 37.0401 155.778 36.9601 155.458 36.9601H153.138L152.658 35.4801C153.804 35.0267 155.311 34.6267 157.178 34.2801C159.071 33.9067 160.884 33.7201 162.618 33.7201C166.564 33.7201 169.498 34.6134 171.418 36.4001C173.338 38.1601 174.298 40.4401 174.298 43.2401C174.298 44.9734 173.951 46.5467 173.258 47.9601C172.564 49.3467 171.498 50.4667 170.058 51.3201C168.618 52.1467 166.831 52.5601 164.698 52.5601C163.711 52.5601 162.871 52.4401 162.178 52.2001C161.511 51.9601 161.178 51.6134 161.178 51.1601C161.178 50.8934 161.231 50.6667 161.338 50.4801C161.444 50.2934 161.604 50.2001 161.818 50.2001C161.924 50.2001 162.138 50.2534 162.458 50.3601C162.804 50.4401 163.244 50.4801 163.778 50.4801C165.778 50.4801 167.338 49.8401 168.458 48.5601C169.578 47.2801 170.138 45.5467 170.138 43.3601C170.138 41.2001 169.538 39.4267 168.338 38.0401C167.164 36.6534 165.498 35.9601 163.338 35.9601C161.311 35.9601 160.298 36.5734 160.298 37.8001V54.9601ZM203.726 61.7201L203.326 63.0001H193.526L193.046 61.6401L193.926 61.4001C194.646 61.2134 195.179 61.0001 195.526 60.7601C195.873 60.5201 196.113 60.1734 196.246 59.7201C196.406 59.2401 196.486 58.5601 196.486 57.6801V42.5201L183.006 57.2001V57.9601C183.006 59.1067 183.166 59.9067 183.486 60.3601C183.806 60.8134 184.446 61.1867 185.406 61.4801L186.246 61.7201L185.846 63.0001H176.006L175.526 61.6401L176.486 61.4001C177.206 61.1867 177.739 60.9601 178.086 60.7201C178.433 60.4801 178.673 60.1334 178.806 59.6801C178.966 59.2001 179.046 58.5334 179.046 57.6801V39.6001C179.046 38.3734 178.873 37.5201 178.526 37.0401C178.179 36.5601 177.499 36.1734 176.486 35.8801L175.526 35.6401L176.006 34.2801H184.806L185.326 34.9201L184.806 35.6401C184.139 36.5201 183.673 37.4534 183.406 38.4401C183.139 39.4267 183.006 40.7201 183.006 42.3201V53.9201L196.486 39.2801C196.459 38.1867 196.273 37.4134 195.926 36.9601C195.579 36.4801 194.913 36.1201 193.926 35.8801L193.046 35.6401L193.526 34.2801H202.246L202.846 34.9201L202.246 35.6401C201.553 36.4934 201.073 37.4134 200.806 38.4001C200.539 39.3867 200.406 40.6934 200.406 42.3201V57.9601C200.406 59.1334 200.579 59.9467 200.926 60.4001C201.273 60.8534 201.939 61.2134 202.926 61.4801L203.726 61.7201ZM232.984 61.7201L232.584 63.0001H222.784L222.304 61.6401L223.184 61.4001C223.904 61.2134 224.437 61.0001 224.784 60.7601C225.13 60.5201 225.37 60.1734 225.504 59.7201C225.664 59.2401 225.744 58.5601 225.744 57.6801V42.5201L212.264 57.2001V57.9601C212.264 59.1067 212.424 59.9067 212.744 60.3601C213.064 60.8134 213.704 61.1867 214.664 61.4801L215.504 61.7201L215.104 63.0001H205.264L204.784 61.6401L205.744 61.4001C206.464 61.1867 206.997 60.9601 207.344 60.7201C207.69 60.4801 207.93 60.1334 208.064 59.6801C208.224 59.2001 208.304 58.5334 208.304 57.6801V39.6001C208.304 38.3734 208.13 37.5201 207.784 37.0401C207.437 36.5601 206.757 36.1734 205.744 35.8801L204.784 35.6401L205.264 34.2801H214.064L214.584 34.9201L214.064 35.6401C213.397 36.5201 212.93 37.4534 212.664 38.4401C212.397 39.4267 212.264 40.7201 212.264 42.3201V53.9201L225.744 39.2801C225.717 38.1867 225.53 37.4134 225.184 36.9601C224.837 36.4801 224.17 36.1201 223.184 35.8801L222.304 35.6401L222.784 34.2801H231.504L232.104 34.9201L231.504 35.6401C230.81 36.4934 230.33 37.4134 230.064 38.4001C229.797 39.3867 229.664 40.6934 229.664 42.3201V57.9601C229.664 59.1334 229.837 59.9467 230.184 60.4001C230.53 60.8534 231.197 61.2134 232.184 61.4801L232.984 61.7201ZM211.904 27.2001C211.904 26.3467 212.224 25.6667 212.864 25.1601C213.53 24.6267 214.29 24.3601 215.144 24.3601C215.384 24.3601 215.584 24.4267 215.744 24.5601C215.904 24.6667 215.984 24.7867 215.984 24.9201C215.984 25.0001 215.877 25.2267 215.664 25.6001C215.45 25.9467 215.344 26.4267 215.344 27.0401C215.344 28.5067 216.53 29.2401 218.904 29.2401C220.157 29.2401 221.077 29.0534 221.664 28.6801C222.25 28.2801 222.544 27.7601 222.544 27.1201C222.544 26.4801 222.424 25.9734 222.184 25.6001C221.97 25.2267 221.864 25.0001 221.864 24.9201C221.864 24.7601 221.944 24.6267 222.104 24.5201C222.264 24.4134 222.477 24.3601 222.744 24.3601C223.597 24.3601 224.33 24.6267 224.944 25.1601C225.557 25.6667 225.864 26.3467 225.864 27.2001C225.864 28.4001 225.237 29.3201 223.984 29.9601C222.757 30.6001 221.064 30.9201 218.904 30.9201C216.744 30.9201 215.037 30.6001 213.784 29.9601C212.53 29.3201 211.904 28.4001 211.904 27.2001Z" fill="#2EB34A"/>
<path d="M69.2029 77.2551C70.2554 73.3067 72.3993 70.0342 75.4066 67.3257C78.0113 64.9771 81.038 63.3821 84.4333 62.4972C84.7098 62.4242 85.0638 62.4145 84.8795 61.9234C83.8561 59.2295 84.4478 56.5843 85.1608 53.9439C85.6895 51.994 86.2085 50.0392 86.3153 48.0115C86.5141 44.2965 84.8504 41.3449 82.4397 38.724C81.5764 37.7855 80.6305 36.9151 79.7283 36.0107C79.5974 35.8794 79.3112 35.7676 79.4567 35.5341C79.5731 35.3445 79.8351 35.4369 80.0242 35.4758C82.8181 36.0544 85.3064 37.1972 87.1786 39.4437C87.3241 39.6187 87.4939 39.7792 87.6588 39.9396C87.7073 39.9883 87.7849 40.0077 87.9159 40.0758C88.0469 39.7014 88.1633 39.3464 88.2845 38.9963C88.4106 38.8164 88.4737 38.617 88.4834 38.3933C88.5465 38.2912 88.6095 38.194 88.6677 38.0919C88.8569 37.9168 88.9393 37.6834 89.0169 37.4451C89.6281 36.3802 90.2296 35.3105 90.8504 34.2504C90.9668 34.0511 91.059 33.6669 91.3694 33.8225C91.6168 33.9441 91.384 34.2456 91.3258 34.4401C90.6419 36.6623 90.0646 38.9136 89.5893 41.1942C89.4826 41.7096 89.599 42.0062 90.0113 42.2883C90.7534 42.7988 91.4907 43.2948 92.388 43.4796C92.7178 43.5477 92.8342 43.679 92.5966 43.995C90.5982 46.6792 90.4139 49.7621 90.6855 52.9325C90.9668 56.2098 92.2231 59.1663 93.7267 62.0352C94.1342 62.8084 94.1439 62.8035 93.2853 62.8084C92.8003 62.8084 92.3055 62.8667 91.8302 62.7986C88.8326 62.3805 86.485 63.7177 84.3169 65.5411C80.8051 68.4976 78.7243 72.3244 77.565 76.7056C77.5117 76.905 77.4486 77.0946 77.3953 77.294C77.4001 77.3086 71.9337 77.4642 69.2029 77.2551Z" fill="url(#paint0_linear)"/>
<path d="M85.5488 30.9925C85.5682 29.2225 86.3831 28.0457 87.4842 27.0246C88.1972 26.3633 88.949 25.7506 89.6571 25.0844C90.0064 24.7586 90.1955 24.8413 90.4187 25.2157C91.1899 26.5189 91.3402 27.9096 90.9959 29.3538C90.4866 31.5128 89.2788 33.3216 88.0662 35.1257C87.7752 35.5633 87.5036 35.3153 87.2707 35.0527C86.1939 33.8419 85.6895 32.3929 85.5488 30.9925Z" fill="#2EB34A"/>
<path d="M102.647 34.4206C101.764 35.1938 101.211 35.9864 100.624 36.7498C99.4357 38.2912 97.8011 38.8553 95.9531 39.0012C95.3662 39.0498 94.7841 39.0936 94.2021 39.1762C93.4648 39.2881 92.747 39.4631 92.2183 40.0563C92.1116 40.173 91.9903 40.2752 91.8205 40.2265C91.6556 40.1779 91.6799 40.0272 91.709 39.9105C92.1989 38.0967 92.6742 36.2441 94.5028 35.2716C95.6427 34.6686 96.928 34.479 98.1989 34.4255C99.6006 34.372 101.002 34.4206 102.647 34.4206Z" fill="#2EB34A"/>
<path d="M82.7987 45.1183C82.9491 47.1362 81.9353 48.6631 80.0873 49.6988C79.287 50.1462 78.4721 50.5643 77.6621 50.9923C77.5311 51.0603 77.3856 51.1916 77.2401 51.0895C77.08 50.9825 77.1867 50.8172 77.2061 50.6713C77.3225 49.7377 77.4341 48.7992 77.5457 47.8607C77.696 46.6062 78.3751 45.6969 79.3888 44.9967C80.2959 44.3694 81.3145 43.961 82.2991 43.4796C82.6532 43.3045 82.8181 43.3823 82.8036 43.7908C82.789 44.1749 82.7987 44.5591 82.7987 45.1183Z" fill="#2EB34A"/>
<path d="M75.9595 43.6449C74.6354 43.6644 73.6022 43.1052 72.8068 42.0597C72.0501 41.0677 71.6766 39.891 71.211 38.758C71.0266 38.3107 71.3468 38.2718 71.5699 38.3982C73.7283 39.6236 76.2506 39.7986 78.4672 40.8489C79.0687 41.1358 79.6216 41.4956 80.1163 41.9479C80.3055 42.1181 80.4801 42.2737 80.1067 42.4341C78.7728 43.0128 77.4583 43.64 75.9595 43.6449Z" fill="#2EB34A"/>
<path d="M77.7203 30.3166C77.764 30.8077 77.536 30.8758 77.1043 30.7834C75.8965 30.5305 74.747 30.1415 73.6702 29.524C71.4535 28.2451 70.5416 26.2515 70.4931 23.7764C70.4883 23.6062 70.4058 23.402 70.6241 23.2999C70.8327 23.2075 70.9636 23.3582 71.0752 23.4992C72.0695 24.7246 73.4374 25.4394 74.7518 26.2271C76.1488 27.0635 77.3662 28.036 77.6379 29.7914C77.6718 29.9616 77.6961 30.1415 77.7203 30.3166Z" fill="#2EB34A"/>
<path d="M95.2742 46.363C96.8651 46.3096 98.0584 46.9952 99.2419 47.7197C100.532 48.5074 100.537 48.5026 99.2516 49.266C98.4852 49.7182 97.7625 50.2677 96.8457 50.3844C95.3421 50.574 94.2411 49.8252 93.2855 48.8041C91.8449 47.2675 91.9031 47.0778 93.8967 46.5624C94.3914 46.4311 94.8959 46.3485 95.2742 46.363Z" fill="#2EB34A"/>
<path d="M87.4163 23.9806C87.3338 25.916 86.354 27.399 85.025 28.7022C84.6806 29.0426 84.5351 28.7897 84.3411 28.498C83.1915 26.7864 83.4244 25.0845 84.2926 23.3582C84.6855 22.5754 85.1705 21.8654 85.738 21.2041C86.0533 20.8346 86.291 20.854 86.5723 21.2527C87.1592 22.0745 87.4454 22.9741 87.4163 23.9806Z" fill="#2EB34A"/>
<path d="M72.865 31.1578C74.7809 31.1481 75.8771 31.8532 76.5901 33.6183C76.8569 34.2796 77.0364 34.9749 77.2692 35.646C77.4195 36.069 77.3128 36.2149 76.8569 36.1322C76.1584 36.0009 75.4454 35.9329 74.7518 35.7724C73.8011 35.5585 73.1269 34.9652 72.7049 34.0851C72.3072 33.2633 72.0307 32.3735 71.3904 31.683C71.1722 31.4447 71.3225 31.3523 71.5748 31.2842C71.9967 31.1627 72.4284 31.1578 72.865 31.1578Z" fill="#2EB34A"/>
<path d="M85.4083 48.6485C85.4131 50.8464 83.7979 52.7671 81.7122 53.1415C81.4115 53.195 81.1253 53.2339 81.232 52.7574C81.785 50.3747 82.367 48.0066 84.4915 46.4409C84.671 46.3096 84.8456 46.0616 85.0784 46.1491C85.35 46.2513 85.1997 46.5527 85.2239 46.7667C85.2918 47.4231 85.35 48.0844 85.4083 48.6485Z" fill="#2EB34A"/>
<path d="M82.0276 28.4347C82.0082 28.7265 82.0179 29.0523 81.8967 29.3781C81.5086 30.4089 81.3049 30.3944 80.3299 29.9908C77.992 29.0183 77.9047 26.9176 77.6282 24.8948C77.5749 24.5204 77.8514 24.4669 78.1327 24.6517C78.6759 25.0066 79.3016 25.1476 79.908 25.3324C81.3582 25.7603 82.0082 26.7134 82.0276 28.4347Z" fill="#2EB34A"/>
<path d="M97.9952 29.0863C97.1706 29.8352 96.4527 30.5208 95.7057 31.1627C94.4883 32.2081 93.0089 31.8872 91.6023 31.9115C91.3258 31.9164 91.3306 31.717 91.4374 31.5419C92.3056 30.161 93.2078 28.7897 95.0218 28.6098C95.9919 28.5126 96.9329 28.8189 97.9952 29.0863Z" fill="#2EB34A"/>
<path d="M82.3039 32.1838C82.2699 31.4058 82.5173 30.7153 83.0314 30.1415C83.5601 29.5483 84.0888 29.6212 84.4817 30.3117C85.2869 31.717 85.5246 33.1271 84.5254 34.5616C84.1422 35.1159 83.759 35.1548 83.2837 34.6832C82.5803 33.9927 82.2942 33.1466 82.3039 32.1838Z" fill="#2EB34A"/>
<path d="M103.132 45.624C101.788 47.3648 100.129 47.5885 98.5044 46.2658C98.1891 46.0081 97.9175 45.6969 97.5925 45.4538C97.156 45.1328 97.122 44.9383 97.6604 44.6855C98.4656 44.3159 99.3047 44.1555 100.173 44.1263C100.721 44.1068 101.23 44.2868 101.589 44.7487C101.982 45.2447 102.438 45.624 103.132 45.624Z" fill="#2EB34A"/>
<path d="M78.1568 31.1578C78.5546 31.2016 79.1657 31.2405 79.7623 31.3474C80.844 31.5419 81.8674 33.1612 81.6977 34.3136C81.654 34.6005 81.5036 34.6151 81.2854 34.6345C79.4665 34.7999 77.5748 33.4578 77.0412 31.6489C76.92 31.2356 77.0412 31.1432 77.4099 31.1578C77.5845 31.1675 77.764 31.1578 78.1568 31.1578Z" fill="#2EB34A"/>
<path d="M100.26 41.5297C99.1738 42.6773 98.0243 43.3629 96.637 43.6011C95.8076 43.747 94.9733 43.6887 94.1439 43.5039C93.5909 43.3775 93.5909 43.2024 93.9159 42.8134C94.8084 41.7582 95.9871 41.3838 97.3064 41.3206C98.2231 41.272 99.135 41.413 100.26 41.5297Z" fill="#2EB34A"/>
<path d="M78.6322 39.8813C77.2353 39.7451 76.3816 38.792 75.5376 37.8147C75.3775 37.6299 75.5327 37.5618 75.6637 37.4791C77.0218 36.6136 79.3986 37.2409 80.2037 38.6608C80.3929 38.9914 80.2911 39.1713 80.0485 39.3707C79.6411 39.7062 79.1463 39.8181 78.6322 39.8813Z" fill="#2EB34A"/>
<path d="M93.7266 53.4771C92.8293 53.5014 91.7671 51.9988 92.1503 51.1576C92.2327 50.9777 92.3831 50.9874 92.5286 50.9971C93.9546 51.0993 95.0653 51.8043 95.9869 52.8498C96.2537 53.1513 96.016 53.2388 95.7541 53.268C95.0993 53.3409 94.4445 53.4041 93.7266 53.4771Z" fill="#2EB34A"/>
<path d="M52.7356 77.3085L60.4042 77.3231C60.4042 77.3231 64.3573 63.9753 82.498 61.9671C82.498 61.9719 60.9038 59.9394 52.7356 77.3085Z" fill="#2EB34A"/>
<path d="M37.156 77.2599L44.8246 77.2745C44.8246 77.2745 53.3177 64.199 71.8949 61.8455C71.8997 61.8455 44.7276 62.5506 37.156 77.2599Z" fill="#2EB34A"/>
<path d="M23.4778 77.2599L31.1463 77.2745C31.1463 77.2745 39.9644 64.1698 65.3226 61.6413C65.3274 61.6413 35.8707 61.2815 23.4778 77.2599Z" fill="#2EB34A"/>
<path d="M69.2029 77.2551C70.2554 73.3067 72.3993 70.0342 75.4066 67.3257C78.0113 64.9771 81.038 63.3822 84.4333 62.4972C84.7098 62.4242 85.0638 62.4145 84.8795 61.9234C83.8561 59.2295 84.4478 56.5843 85.1608 53.9439C85.6895 51.994 86.2085 50.0392 86.3153 48.0115C86.5141 44.2965 84.8504 41.3449 82.4397 38.724C81.5764 37.7855 80.6305 36.9151 79.7283 36.0107C79.5974 35.8794 79.3112 35.7676 79.4567 35.5342C79.5731 35.3445 79.8351 35.4369 80.0242 35.4758C82.8181 36.0544 85.3064 37.1972 87.1786 39.4437C87.3241 39.6187 87.4939 39.7792 87.6588 39.9397C87.7073 39.9883 87.7849 40.0077 87.9159 40.0758C88.0469 39.7014 88.1633 39.3464 88.2845 38.9963C88.4106 38.8164 88.4737 38.617 88.4834 38.3934C88.5465 38.2912 88.6095 38.194 88.6677 38.0919C88.8569 37.9168 88.9393 37.6834 89.0169 37.4451C89.6281 36.3802 90.2296 35.3105 90.8504 34.2504C90.9668 34.0511 91.059 33.6669 91.3694 33.8225C91.6168 33.9441 91.384 34.2456 91.3258 34.4401C90.6419 36.6623 90.0646 38.9136 89.5893 41.1942C89.4826 41.7096 89.599 42.0062 90.0113 42.2883C90.7534 42.7988 91.4907 43.2948 92.388 43.4796C92.7178 43.5477 92.8342 43.679 92.5966 43.995C90.5982 46.6792 90.4139 49.7621 90.6855 52.9325C90.9668 56.2098 92.2231 59.1663 93.7267 62.0352C94.1342 62.8084 94.1439 62.8035 93.2853 62.8084C92.8003 62.8084 92.3055 62.8667 91.8302 62.7986C88.8326 62.3805 86.485 63.7177 84.3169 65.5411C80.8051 68.4976 78.7243 72.3244 77.565 76.7056C77.5117 76.905 77.4486 77.0946 77.3953 77.294L69.2029 77.2551Z" fill="#2EB34A"/>
</g>
<defs>
<linearGradient id="paint0_linear" x1="69.2017" y1="55.581" x2="94.0021" y2="55.581" gradientUnits="userSpaceOnUse">
<stop stop-color="#8DC63F"/>
<stop offset="1" stop-color="#00A651"/>
</linearGradient>
<clipPath id="clip0">
<rect width="260" height="92" fill="white"/>
</clipPath>
</defs>
</svg>
