<svg width="125" height="25" viewBox="0 0 125 25" fill="none" xmlns="http://www.w3.org/2000/svg">
<path d="M11.5488 2.92677C11.8482 2.00546 13.1516 2.00547 13.4509 2.92678L15.0818 7.94603C15.2157 8.35805 15.5996 8.63701 16.0328 8.63701H21.3104C22.2791 8.63701 22.6819 9.87663 21.8982 10.446L17.6286 13.5481C17.2781 13.8027 17.1314 14.2541 17.2653 14.6661L18.8961 19.6854C19.1955 20.6067 18.141 21.3728 17.3573 20.8034L13.0877 17.7014C12.7372 17.4467 12.2626 17.4467 11.9121 17.7014L7.64246 20.8034C6.85875 21.3728 5.80427 20.6067 6.10362 19.6854L7.73447 14.6661C7.86835 14.2541 7.72169 13.8027 7.3712 13.5481L3.10157 10.446C2.31785 9.87663 2.72063 8.63701 3.68936 8.63701H8.96691C9.40014 8.63701 9.78409 8.35805 9.91797 7.94603L11.5488 2.92677Z" fill="#FCD304"/>
<path d="M36.5488 2.92677C36.8482 2.00546 38.1516 2.00547 38.4509 2.92678L40.0818 7.94603C40.2157 8.35805 40.5996 8.63701 41.0328 8.63701H46.3104C47.2791 8.63701 47.6819 9.87663 46.8982 10.446L42.6286 13.5481C42.2781 13.8027 42.1314 14.2541 42.2653 14.6661L43.8961 19.6854C44.1955 20.6067 43.141 21.3728 42.3573 20.8034L38.0877 17.7014C37.7372 17.4467 37.2626 17.4467 36.9121 17.7014L32.6425 20.8034C31.8587 21.3728 30.8043 20.6067 31.1036 19.6854L32.7345 14.6661C32.8683 14.2541 32.7217 13.8027 32.3712 13.5481L28.1016 10.446C27.3179 9.87663 27.7206 8.63701 28.6894 8.63701H33.9669C34.4001 8.63701 34.7841 8.35805 34.918 7.94603L36.5488 2.92677Z" fill="#FCD304"/>
<path d="M61.5488 2.92677C61.8482 2.00546 63.1516 2.00547 63.4509 2.92678L65.0818 7.94603C65.2157 8.35805 65.5996 8.63701 66.0328 8.63701H71.3104C72.2791 8.63701 72.6819 9.87663 71.8982 10.446L67.6286 13.5481C67.2781 13.8027 67.1314 14.2541 67.2653 14.6661L68.8961 19.6854C69.1955 20.6067 68.141 21.3728 67.3573 20.8034L63.0877 17.7014C62.7372 17.4467 62.2626 17.4467 61.9121 17.7014L57.6425 20.8034C56.8587 21.3728 55.8043 20.6067 56.1036 19.6854L57.7345 14.6661C57.8683 14.2541 57.7217 13.8027 57.3712 13.5481L53.1016 10.446C52.3179 9.87663 52.7206 8.63701 53.6894 8.63701H58.9669C59.4001 8.63701 59.7841 8.35805 59.918 7.94603L61.5488 2.92677Z" fill="#FCD304"/>
<path d="M86.5488 2.92677C86.8482 2.00546 88.1516 2.00547 88.4509 2.92678L90.0818 7.94603C90.2157 8.35805 90.5996 8.63701 91.0328 8.63701H96.3104C97.2791 8.63701 97.6819 9.87663 96.8982 10.446L92.6286 13.5481C92.2781 13.8027 92.1314 14.2541 92.2653 14.6661L93.8961 19.6854C94.1955 20.6067 93.141 21.3728 92.3573 20.8034L88.0877 17.7014C87.7372 17.4467 87.2626 17.4467 86.9121 17.7014L82.6425 20.8034C81.8587 21.3728 80.8043 20.6067 81.1036 19.6854L82.7345 14.6661C82.8683 14.2541 82.7217 13.8027 82.3712 13.5481L78.1016 10.446C77.3179 9.87663 77.7206 8.63701 78.6894 8.63701H83.9669C84.4001 8.63701 84.7841 8.35805 84.918 7.94603L86.5488 2.92677Z" fill="#FCD304"/>
<path d="M111.549 2.92677C111.848 2.00546 113.152 2.00547 113.451 2.92678L115.082 7.94603C115.216 8.35805 115.6 8.63701 116.033 8.63701H121.31C122.279 8.63701 122.682 9.87663 121.898 10.446L117.629 13.5481C117.278 13.8027 117.131 14.2541 117.265 14.6661L118.896 19.6854C119.195 20.6067 118.141 21.3728 117.357 20.8034L113.088 17.7014C112.737 17.4467 112.263 17.4467 111.912 17.7014L107.642 20.8034C106.859 21.3728 105.804 20.6067 106.104 19.6854L107.734 14.6661C107.868 14.2541 107.722 13.8027 107.371 13.5481L103.102 10.446C102.318 9.87663 102.721 8.63701 103.689 8.63701H108.967C109.4 8.63701 109.784 8.35805 109.918 7.94603L111.549 2.92677Z" fill="#FCD304"/>
</svg>
