<svg width="426" height="426" viewBox="0 0 426 426" fill="none" xmlns="http://www.w3.org/2000/svg">
<rect width="426" height="426" fill="white"/>
<path fill-rule="evenodd" clip-rule="evenodd" d="M39.1287 328.273C38.2601 324.278 37.3076 320.3 36.4759 316.297C36.0736 314.361 35.8437 312.388 35.5701 310.427C35.06 306.77 34.5558 303.112 34.0898 299.449C33.9259 298.16 33.8085 296.858 33.7937 295.56C33.6741 285.049 33.3883 274.533 33.5719 264.026C33.6569 259.161 34.6658 254.31 35.2707 249.455C36.0664 243.068 37.7378 236.884 39.6664 230.765C42.4419 221.958 45.2522 213.163 48.0533 204.364C49.5581 199.638 51.1742 194.943 52.5419 190.177C53.173 187.978 53.4281 185.653 53.6721 183.365C53.9039 181.191 54.1518 178.967 53.9433 176.809C53.5532 172.77 52.8822 168.755 52.2448 164.744C51.7006 161.32 51.0645 157.909 50.4247 154.501C49.431 149.208 49.1375 143.866 49.2443 138.495C49.3285 134.258 49.1979 129.998 49.5961 125.79C50.1717 119.706 51.0473 113.611 53.4489 107.934C55.2865 103.59 57.323 99.2983 59.6647 95.2087C61.9779 91.1686 64.7245 87.3689 67.3985 83.5459C69.0296 81.214 70.7578 78.9244 72.6648 76.8172C75.6027 73.5707 78.6399 70.4015 81.8005 67.3722C86.7365 62.6414 92.2659 58.6535 98.1424 55.1757C103.688 51.8936 109.558 49.2922 115.721 47.3876C119.94 46.0839 124.196 44.8943 128.394 43.5297C131.398 42.5534 134.278 41.1576 137.317 40.336C141.089 39.3163 144.945 38.5333 148.809 37.9485C152.776 37.3483 156.794 37.0759 160.796 36.7256C163.731 36.4687 166.673 36.2557 169.616 36.1348C173.536 35.9738 177.46 35.8779 181.383 35.8338C185.825 35.7838 190.271 35.7474 194.712 35.8466C198.101 35.9223 201.488 36.1699 204.87 36.4288C209.416 36.7769 213.959 37.171 218.497 37.6187C221.856 37.9503 225.219 38.3041 228.555 38.8183C233.096 39.5184 237.624 40.3177 242.136 41.1886C248.5 42.4171 254.891 43.5581 261.185 45.0908C267.834 46.7099 274.483 48.4562 280.727 51.3544C286.34 53.9604 291.964 56.5685 297.423 59.4748C302.398 62.1226 307.15 65.186 312.016 68.0378C313.884 69.1323 315.828 70.099 317.681 71.217C318.923 71.9666 320.175 72.7629 321.236 73.7399C326.06 78.1783 330.84 82.6652 335.59 87.1823C337.881 89.3608 340.071 91.6445 342.307 93.8806C344.818 96.3909 347.448 98.7945 349.808 101.438C352.805 104.795 355.554 108.371 358.464 111.807C362.377 116.427 365.003 121.816 367.841 127.096C369.768 130.68 370.967 134.527 372.375 138.3C373.337 140.879 374.438 143.476 374.877 146.163C375.547 150.264 377.976 153.522 379.433 157.225C380.926 161.02 382.119 164.935 383.386 168.816C384.471 172.136 385.597 175.45 386.479 178.826C387.292 181.934 387.812 185.118 388.447 188.272C388.935 190.698 389.446 193.121 389.862 195.56C390.157 197.289 390.308 199.044 390.531 200.786C390.924 203.842 391.347 206.895 391.711 209.955C391.954 211.998 392.173 214.047 392.3 216.1C392.459 218.681 392.517 221.269 392.61 223.854C392.714 226.735 393.001 229.626 392.87 232.498C392.561 239.265 381.422 266.469 376.924 273.144C374.316 277.014 371.803 280.95 369.128 284.772C365.622 289.78 362.036 294.734 358.414 299.658C354.078 305.555 349.72 311.438 345.264 317.244C343.159 319.987 340.851 322.581 338.547 325.164C336.621 327.324 334.688 329.503 332.545 331.437C328.36 335.212 324.045 338.845 319.747 342.495C314.082 347.304 307.868 351.372 301.446 355.031C296.205 358.018 290.657 360.532 285.071 362.833C276.648 366.303 268.089 369.445 259.559 372.648C253.04 375.097 246.52 377.555 239.919 379.768C234.337 381.639 228.681 383.329 222.979 384.79C218.152 386.027 213.224 386.896 208.316 387.789C204.878 388.414 201.407 388.877 197.935 389.28C194.551 389.672 191.15 389.914 187.753 390.184C185.965 390.327 184.171 390.442 182.378 390.48C176.424 390.604 170.471 390.734 164.516 390.767C161.585 390.783 158.646 390.684 155.723 390.466C151.62 390.161 147.51 389.828 143.437 389.265C138.79 388.623 134.184 387.692 129.553 386.929C125.742 386.3 121.904 385.825 118.109 385.118C111.594 383.904 105.071 382.698 98.6102 381.23C93.439 380.056 88.2902 378.698 83.2466 377.066C75.2228 374.468 67.7045 370.75 60.9159 365.701C58.64 364.008 56.3891 362.197 54.4745 360.12C49.9125 355.17 46.2443 349.586 43.5928 343.22C41.5635 338.302 40.2269 333.325 39.1287 328.273Z" fill="#27AE60"/>
<path d="M231.183 339.058C230.588 342.18 230.351 345.287 229.308 348.094C227.954 351.736 224.821 353.938 221.203 355.057C217.229 356.287 213.136 357.15 209.069 358.053C207.718 358.353 206.285 358.296 204.889 358.38C199.86 358.683 194.83 358.965 189.802 359.279C187.059 359.45 184.321 359.706 181.576 359.858C178.945 360.004 176.307 360.172 173.675 360.132C173.091 360.123 169.44 360.651 164.332 361.01C163.34 361.08 164.884 366.439 163.1 367.001C159.126 368.253 149.393 367.901 147.695 365.244C145.997 362.586 146.599 361.467 144.716 360.699C135.51 356.941 126.027 356.064 123.248 348.094C121.399 342.79 124.919 330.223 123.896 320.575C121.27 295.837 116.049 268.233 115.879 268.091C115.896 268.073 110.319 268.549 109.904 266.505C104.751 241.142 102.401 207.714 115.879 199.285C123.995 194.21 139.455 188.996 156.594 184.738C159.085 184.119 160.555 180.459 163.1 179.884C163.669 179.756 165.41 176.449 166.904 173.127C168.408 169.782 169.673 166.421 172.76 166.274C179.107 165.972 190.056 157.843 197.484 160.38C204.285 162.703 207.733 175.778 210.36 174.195C213.007 172.599 215.35 175.37 218.976 175.37C244.929 175.37 264.476 224.673 267.193 236.804C262.651 243.359 249.198 243.359 236.486 247.243C234.382 244.649 230.156 236.868 228.791 232.49C227.386 227.986 226.901 238.2 226.803 241.82C226.676 246.502 227.095 251.201 227.327 255.89C227.479 258.981 227.732 262.066 227.909 265.156C228.22 270.58 228.548 276.005 228.791 281.432C228.962 285.252 228.888 289.085 229.134 292.899C229.386 296.806 229.907 300.696 230.286 304.596C230.51 306.889 230.714 309.185 230.878 311.483C231.016 313.421 231.21 315.367 231.156 317.303C231.05 321.056 230.657 324.803 230.641 328.553C230.633 330.512 231.289 332.465 231.424 334.435C231.526 335.914 231.276 337.417 231.183 339.058Z" fill="white"/>
<path d="M272.682 105.116C271.008 103.531 269.985 101.551 268.669 99.7881C268.63 99.7361 268.593 99.6816 268.566 99.6235C267.536 97.3893 266.53 95.1557 266.041 92.7134C265.755 91.2873 265.768 89.8974 265.984 88.4829C266.092 87.7794 266.137 87.0648 266.277 86.3686C266.706 84.2316 267.748 82.3706 268.971 80.6007C269.339 80.0684 269.761 79.5729 270.119 79.0339C271.461 77.0156 273.353 75.7162 275.557 74.8108C276.992 74.2216 278.464 73.7249 279.867 73.0586C280.04 72.9766 280.23 72.9032 280.418 72.8855C282.74 72.6659 285.061 72.4377 287.385 72.2523C289.652 72.0712 291.923 72.1214 294.191 72.2676C295.421 72.3465 296.655 72.3808 297.879 72.505C300.535 72.7748 303.103 73.3743 305.568 74.4523C307.291 75.2054 309.027 75.9095 310.678 76.8205C312.575 77.8672 314.185 79.2572 315.709 80.7671C316.406 81.4584 316.94 82.2684 317.417 83.12C317.702 83.6284 317.954 84.1607 318.288 84.6354C320.227 87.3964 320.646 90.4706 320.175 93.721C320.065 94.4876 319.818 95.2352 319.883 96.0244C319.5 97.5991 319.128 99.18 318.189 100.544C317.453 101.613 316.655 102.632 315.662 103.484C315.318 103.78 314.971 104.077 314.66 104.406C313.986 105.12 313.164 105.632 312.385 106.211C310.706 107.459 308.836 108.34 306.986 109.267C306.757 109.382 306.513 109.474 306.267 109.548C305.276 109.85 304.282 110.141 303.288 110.434C302.17 110.764 301.056 111.114 299.929 111.414C298.165 111.884 296.335 111.89 294.537 112.129C294.284 112.163 294.015 112.144 293.762 112.101C291.843 111.775 289.9 111.676 287.972 111.436C287.652 111.396 287.338 111.313 287.021 111.247C284.863 110.798 282.692 110.399 280.598 109.685C280.074 109.506 279.6 109.547 279.112 109.834C278.554 110.161 277.961 110.429 277.378 110.712C276.145 111.31 275.073 112.152 273.963 112.937C273.648 113.16 273.317 113.362 272.981 113.553C272.722 113.701 272.277 113.479 272.209 113.171C272.126 112.794 272.043 112.42 272.154 112.023C272.778 109.809 272.756 107.544 272.682 105.116Z" fill="white"/>
<path fill-rule="evenodd" clip-rule="evenodd" d="M163.944 178.044C163.944 178.044 166.769 174.175 167.744 172.159C168.72 170.143 169.637 166.274 169.637 166.274C169.637 166.274 189.797 194.819 186.607 195.19C180.23 195.933 163.944 178.044 163.944 178.044Z" fill="#E7EAEE"/>
<path d="M250.878 269.418C247.687 264.343 240.905 252.515 237.781 247.518C237.709 247.403 252.253 234.029 265.199 237.415C266.484 237.751 268.956 242.762 270.167 243.359C272.424 244.471 272.021 239.036 276.339 231.379C283.137 219.323 295.66 201.316 300.577 190.567C302.575 186.199 301.162 182.793 300.951 181.839C300.171 178.311 298.341 175.432 295.697 173.014C293.982 171.446 293.914 167.946 295.866 166.981C297.308 166.269 298.933 166.044 300.577 166.865C302.454 167.803 304.323 168.69 305.615 170.439C305.789 170.675 306.095 170.813 306.341 170.997C306.459 170.699 306.589 170.406 306.693 170.103C307.734 167.066 308.691 163.998 309.831 160.999C310.839 158.349 311.955 155.728 313.223 153.195C313.641 152.36 314.695 151.284 315.435 151.301C316.525 151.326 317.236 152.503 317.399 153.736C317.486 154.391 317.578 155.045 317.702 155.693C317.756 155.977 317.894 156.246 317.994 156.522C318.191 156.286 318.374 156.035 318.589 155.816C319.236 155.153 319.81 154.371 320.571 153.878C321.615 153.202 322.804 153.954 322.72 155.254C322.604 157.049 322.464 158.875 322.031 160.612C321.252 163.735 320.244 166.802 319.344 169.895C319.29 170.079 319.342 170.294 319.345 170.495C319.547 170.386 319.85 170.329 319.937 170.16C320.503 169.061 321.11 167.969 321.539 166.814C322.234 164.947 323.284 163.348 324.804 162.086C325.158 161.792 325.731 161.763 326.204 161.613C326.34 162.051 326.681 162.546 326.58 162.92C325.848 165.63 325.216 168.39 324.198 170.995C321.631 177.559 318.891 184.054 316.196 190.567C314.638 194.331 312.83 198.005 311.508 201.848C310.161 205.767 309.376 209.875 308.152 213.841C306.855 218.046 305.361 222.191 303.902 226.345C301.684 232.658 299.689 239.067 297.096 245.223C295.07 250.035 292.432 254.614 289.779 259.127C287.79 262.509 285.514 265.759 283.039 268.802C281.585 270.589 279.521 271.893 277.68 273.349C274.732 275.68 271.385 277.167 267.721 278.007C263.503 278.974 259.76 278.222 256.613 275.145C254.706 273.281 252.838 271.378 250.878 269.418Z" fill="white"/>
<path fill-rule="evenodd" clip-rule="evenodd" d="M151.663 144.303C151.257 145.125 151.283 145.844 151.813 146.542C152.05 146.855 152.307 147.153 152.563 147.451C152.839 147.771 153.114 148.091 153.366 148.429C153.746 148.94 154.138 149.444 154.531 149.948L154.531 149.949C155.561 151.272 156.593 152.598 157.402 154.046C158.545 156.092 159.869 157.602 162.272 158.035C163.247 158.211 163.615 158.99 163.732 160.017C163.894 161.445 164.16 162.892 164.634 164.243C164.974 165.209 165.871 165.85 167.014 165.726C167.549 165.668 168.083 165.578 168.616 165.487L168.616 165.487L168.616 165.487C169.437 165.348 170.256 165.209 171.08 165.189C171.869 165.17 172.893 165.377 173.423 165.885C174.841 167.245 176.146 168.724 177.45 170.201L177.45 170.201C177.72 170.507 177.989 170.812 178.26 171.116C178.359 171.228 178.457 171.342 178.555 171.454C179.507 172.554 180.392 173.577 182.284 172.92C184.531 172.141 186.894 171.792 189.332 171.95C191.567 172.096 192.44 171.338 193.128 169.149C193.199 168.925 193.259 168.696 193.318 168.466L193.318 168.466C193.434 168.023 193.549 167.581 193.742 167.175C193.815 167.021 193.887 166.865 193.96 166.709C194.357 165.851 194.763 164.975 195.376 164.302C196.484 163.085 197.919 163.272 199.391 163.794C201.047 164.381 201.905 164.021 202.62 162.515C202.922 161.878 203.022 161.886 203.575 162.294C204.023 162.624 204.727 162.777 205.298 162.734C206.709 162.63 208.122 162.432 209.505 162.137C210.005 162.03 210.667 161.635 210.838 161.205C211.047 160.679 211.258 160.154 211.468 159.628L211.468 159.628C212.654 156.665 213.843 153.699 214.793 150.659C216.339 145.715 217.49 140.653 217.488 135.431C217.486 131.933 217.383 128.434 217.28 124.936L217.28 124.935C217.254 124.048 217.228 123.162 217.204 122.276C217.192 121.855 217.182 121.433 217.172 121.012V121.012C217.127 119.093 217.081 117.172 216.888 115.267C216.54 111.83 216.093 108.402 215.645 104.976L215.644 104.967C215.569 104.394 215.494 103.821 215.42 103.248C215.201 101.56 214.945 99.8772 214.69 98.1941L214.69 98.1935L214.69 98.1917C214.605 97.6354 214.521 97.0791 214.438 96.5226L214.258 95.3165C213.859 92.6401 213.46 89.9637 213.038 87.2908C213.022 87.1863 213.007 87.0782 212.992 86.9687C212.915 86.4124 212.832 85.8165 212.518 85.4405C212.238 85.1051 211.959 84.7688 211.68 84.4323L211.678 84.4305C209.887 82.2733 208.091 80.1101 206.094 78.1581C204.526 76.6266 202.637 75.3969 200.782 74.1892L200.541 74.0321C195.472 70.7295 189.795 69.2427 183.827 68.8504C182.191 68.7429 180.548 68.7677 178.903 68.7925C177.919 68.8073 176.935 68.8221 175.951 68.8086C175.054 68.7963 174.568 69.0821 173.986 69.865C173.213 70.9037 172.058 71.7396 170.918 72.4076C168.07 74.076 165.564 76.0358 163.64 78.7907C161.112 82.4093 158.796 86.1325 157.282 90.2833C156.114 93.4847 155.306 96.7728 155.028 100.217C154.938 101.329 154.714 102.426 154.489 103.524C154.055 105.648 153.621 107.775 154.157 110.015C154.388 110.98 154.523 111.971 154.657 112.96C154.814 114.12 154.972 115.278 155.284 116.395C155.342 116.6 155.399 116.805 155.457 117.009L155.457 117.011C156.455 120.558 157.434 124.039 157.239 127.856C157.03 131.959 155.574 135.544 153.887 139.428C153.672 139.904 153.46 140.383 153.248 140.861L153.248 140.861L153.248 140.861C152.735 142.017 152.223 143.172 151.663 144.303ZM218.399 117.287C218.401 117.322 218.397 117.361 218.393 117.398C218.385 117.466 218.378 117.533 218.406 117.579C218.493 117.723 218.597 117.857 218.701 117.99C218.742 118.043 218.783 118.096 218.823 118.149C218.867 118.109 218.913 118.072 218.959 118.034C219.059 117.952 219.158 117.87 219.239 117.773C219.467 117.496 219.697 117.22 219.927 116.944L219.927 116.943C220.582 116.158 221.237 115.373 221.851 114.557C223.206 112.758 224.531 110.935 225.828 109.094C226.593 108.009 225.833 107.559 224.925 107.495C223.036 107.361 221.436 108.159 219.813 109.092C218.653 109.759 217.799 110.317 218.102 112.077L218.145 112.831C218.23 114.316 218.315 115.802 218.399 117.287ZM153.702 118.122C153.661 118.189 153.62 118.256 153.59 118.32C152.782 117.935 152.033 117.475 151.291 117.02C150.642 116.621 149.998 116.226 149.326 115.887C147.807 115.123 147.272 113.734 146.786 112.353C146.226 110.765 147.472 109.247 149.161 109.259C149.237 109.259 149.312 109.26 149.388 109.26C149.99 109.262 150.601 109.264 151.18 109.391C152.318 109.64 152.431 110.522 152.539 111.372C152.573 111.635 152.607 111.896 152.67 112.133C153.076 113.654 153.373 115.204 153.669 116.752C153.731 117.073 153.792 117.393 153.854 117.713C153.878 117.835 153.79 117.979 153.702 118.122Z" fill="white"/>
<circle cx="207.888" cy="135.752" r="3.97601" fill="#FFB61D"/>
<ellipse cx="166.424" cy="132.344" rx="3.97601" ry="3.976" fill="#FFB61D"/>
<path fill-rule="evenodd" clip-rule="evenodd" d="M185.221 84.4356C187.486 84.9223 189.943 85.5129 192.233 84.2696C193.008 83.8485 193.737 83.3301 194.444 82.7982C194.875 82.4739 195.263 82.0712 195.601 81.6488C198.291 78.2962 200.275 78.7968 203.979 80.9858C208.716 83.7863 214.203 91.9438 199.514 91.9438C192.115 91.9438 162.564 87.915 166.69 83.9103C168.376 82.2735 170.585 81.178 172.543 79.8162C173.28 79.3034 174.03 78.79 174.681 78.1772C175.623 77.2896 176.195 77.7583 176.784 78.5743C177.557 79.6469 178.364 80.695 179.231 81.8279C181.271 82.7772 183.163 83.9936 185.221 84.4356Z" fill="#E7EAEE"/>
<path fill-rule="evenodd" clip-rule="evenodd" d="M264.391 237.804C263.623 238.266 262.857 238.728 262.032 239.04C260.037 239.797 258.015 240.481 255.972 241.172C254.678 241.61 253.376 242.05 252.068 242.514C251.673 242.667 251.326 242.768 250.991 242.866L250.99 242.866L250.904 242.891C250.855 242.906 250.805 242.92 250.755 242.935C249.587 243.283 248.419 243.634 247.252 243.985C244.321 244.867 241.39 245.749 238.443 246.576C237.251 246.91 236.265 246.535 235.617 245.246C234.006 242.042 232.282 238.893 230.548 235.753C230.428 235.535 230.131 235.415 229.834 235.294C229.696 235.239 229.558 235.183 229.438 235.117C229.393 235.269 229.321 235.435 229.249 235.601C229.094 235.957 228.94 236.314 229.053 236.532C230.986 240.246 232.971 243.936 235.048 247.572C235.305 248.022 236.234 248.434 236.748 248.333C239.474 247.796 242.18 247.138 244.867 246.426C245.906 246.151 246.933 245.829 247.961 245.507C249.441 245.043 250.921 244.58 252.432 244.256C257.618 243.146 262.58 241.542 267.031 238.577C268.63 237.512 269.069 235.883 268.291 234.196C268.02 233.607 267.743 233.019 267.467 232.432C266.513 230.405 265.558 228.377 264.811 226.276C262.52 219.835 259.943 213.52 256.908 207.402C254.987 203.53 252.947 199.709 250.779 195.971C247.883 190.975 244.85 185.985 240.193 182.43C236.959 179.962 233.496 177.637 229.813 175.95C224.431 173.484 218.52 172.944 212.638 172.534C211.436 172.45 210.173 171.999 209.111 171.407C206.983 170.219 206.118 168.116 205.247 165.997L205.247 165.996L205.246 165.995L205.246 165.994L205.245 165.993L205.245 165.992C205.15 165.762 205.056 165.532 204.959 165.302C204.53 164.281 205.221 164.089 205.656 163.999C206.777 163.767 207.961 163.584 209.087 163.697C210.842 163.875 211.808 163.058 212.452 161.602C214.033 158.032 215.416 154.402 216.461 150.624C217.907 145.393 219.142 140.163 219.01 134.681C218.953 132.306 218.967 129.928 218.98 127.551V127.55C218.987 126.31 218.994 125.071 218.99 123.831C218.99 123.493 218.949 123.139 218.908 122.786C218.825 122.077 218.744 121.372 218.99 120.807C219.597 119.418 220.594 118.171 221.562 116.972C222.327 116.024 223.126 115.103 223.926 114.183C224.894 113.067 225.863 111.952 226.77 110.788C227.501 109.851 228.045 108.657 227.31 107.413C226.591 106.197 225.438 105.704 224.1 106.006C223.87 106.058 223.639 106.107 223.408 106.156L223.407 106.156C221.724 106.512 220.023 106.872 218.835 108.364C218.264 109.081 217.933 109.083 217.786 108.044C217.676 107.271 217.519 106.506 217.363 105.74L217.363 105.74C217.201 104.947 217.04 104.154 216.929 103.354C216.794 102.369 216.702 101.377 216.611 100.385L216.611 100.385L216.611 100.384L216.611 100.384L216.611 100.384L216.611 100.384L216.611 100.384L216.611 100.384L216.611 100.384L216.611 100.384L216.611 100.383L216.611 100.383L216.611 100.383L216.611 100.383L216.611 100.383L216.611 100.383C216.522 99.4235 216.434 98.4644 216.306 97.5106C216.125 96.1709 215.921 94.834 215.717 93.4972C215.409 91.4736 215.1 89.4503 214.873 87.4177C214.737 86.2106 214.403 85.2439 213.593 84.3641C213.172 83.9077 212.746 83.4556 212.319 83.0033C211.01 81.6171 209.7 80.2291 208.571 78.7083C205.457 74.5119 201.034 72.311 196.444 70.315C193.487 69.0288 190.429 68.1088 187.177 67.9231C185.745 67.8414 184.315 67.7395 182.885 67.6375C181.425 67.5334 179.965 67.4293 178.503 67.3468C177.301 67.2789 176.079 67.2304 174.891 67.38C174.301 67.4544 173.71 67.9264 173.223 68.3402C172.742 68.7488 172.285 69.1858 171.827 69.6226L171.827 69.6227L171.827 69.6228C171.238 70.1855 170.649 70.7479 170.011 71.2487C169.339 71.7767 168.626 72.2615 167.915 72.7457C166.747 73.5406 165.581 74.3338 164.598 75.3139C163.468 76.4407 162.566 77.7985 161.665 79.1537L161.665 79.1539L161.665 79.154L161.665 79.1541C161.333 79.6528 161.002 80.1512 160.659 80.6376C158.118 84.2489 156.165 88.1517 155.09 92.448C154.424 95.1073 153.861 97.7931 153.301 100.477L153.213 100.902C152.802 102.867 152.391 104.837 152.133 106.824L152.121 106.912C151.917 108.486 151.902 108.606 150.391 108.047C148.832 107.471 147.488 107.86 146.39 108.918C145.311 109.958 145.193 111.36 145.568 112.773C146.666 116.913 149.83 118.647 153.612 119.679C153.943 119.769 154.307 120.091 154.465 120.402C156.095 123.628 156.166 127.059 155.134 130.386C154.183 133.449 153.057 136.458 151.932 139.468C151.435 140.795 150.938 142.123 150.456 143.456C149.96 144.828 149.688 146.086 150.825 147.415C153.269 150.273 155.603 153.232 157.366 156.585C158.065 157.914 159.138 158.872 160.578 159.16C161.949 159.436 162.135 160.114 162.296 161.4C162.509 163.095 163.073 164.877 163.989 166.298C164.28 166.749 165.064 166.87 165.867 166.995C166.292 167.061 166.722 167.128 167.087 167.245C167.385 167.341 167.858 167.738 167.821 167.899C167.756 168.187 167.692 168.475 167.629 168.764C167.325 170.149 167.019 171.54 166.505 172.847C165.38 175.709 162.986 177.499 160.663 179.237C160.346 179.474 160.03 179.711 159.718 179.949C155.662 183.05 150.838 184.753 145.99 186.222C143.712 186.913 141.401 187.494 139.09 188.075L139.089 188.075C137.59 188.452 136.09 188.829 134.6 189.236C133.671 189.49 132.753 189.79 131.836 190.09L131.836 190.09L131.836 190.09L131.836 190.09L131.836 190.09L131.836 190.09L131.836 190.09L131.835 190.09L131.835 190.09L131.835 190.09L131.835 190.09L131.835 190.09L131.835 190.09C130.474 190.535 129.115 190.979 127.722 191.271C122.372 192.394 117.652 194.702 113.507 198.239C110.72 200.615 109.225 203.811 107.721 207.025C107.648 207.181 107.575 207.337 107.501 207.494C105.469 211.826 103.687 216.445 103.436 221.133C103.365 222.447 103.466 223.77 103.566 225.094C103.617 225.764 103.668 226.433 103.696 227.102C103.761 228.605 103.816 230.109 103.872 231.613C103.992 234.884 104.112 238.155 104.328 241.42C104.448 243.24 104.772 245.049 105.095 246.855L105.095 246.856C105.188 247.374 105.281 247.892 105.369 248.411C105.608 249.822 105.875 251.228 106.142 252.634C106.321 253.572 106.499 254.51 106.669 255.45C106.78 256.063 106.899 256.675 107.017 257.287L107.018 257.287C107.338 258.934 107.658 260.582 107.82 262.244C107.97 263.772 107.926 265.32 107.883 266.865C107.87 267.323 107.857 267.78 107.849 268.237C107.836 269.041 107.976 269.692 108.943 269.474C109.898 269.258 110.836 268.968 111.774 268.678C112.069 268.587 112.364 268.496 112.659 268.407C113.655 268.107 114.265 268.458 114.394 269.482C114.521 270.495 114.633 271.51 114.744 272.524C114.914 274.064 115.084 275.604 115.307 277.136C115.848 280.862 116.443 284.58 117.085 288.289C118.264 295.098 119.962 301.786 122.194 308.32C124.179 314.129 126.325 319.884 128.492 325.628C129.74 328.936 131.075 332.212 132.41 335.487C132.751 336.324 133.092 337.162 133.432 337.999C134.808 341.393 136.214 344.774 137.622 348.155C137.948 348.938 138.27 349.723 138.593 350.508L138.593 350.509L138.594 350.511L138.594 350.512C139.541 352.818 140.488 355.124 141.533 357.384C142.44 359.346 143.471 361.252 144.502 363.156L144.502 363.157C144.806 363.719 145.111 364.281 145.411 364.844C145.505 365.019 145.693 365.144 145.88 365.269C145.968 365.327 146.055 365.384 146.133 365.447C146.17 365.344 146.214 365.242 146.257 365.139C146.359 364.899 146.462 364.659 146.485 364.412C146.503 364.218 146.393 364.007 146.288 363.804C146.276 363.781 146.264 363.758 146.253 363.736L146.233 363.696C146.224 363.679 146.216 363.663 146.209 363.646C145.858 362.912 145.496 362.183 145.133 361.454L145.133 361.452C144.372 359.922 143.612 358.392 142.963 356.816C140.714 351.355 138.557 345.857 136.408 340.356C135.443 337.887 134.5 335.41 133.557 332.932L133.556 332.932L133.556 332.931L133.556 332.931L133.556 332.93L133.555 332.93L133.555 332.929L133.555 332.929L133.555 332.928L133.555 332.927L133.554 332.927L133.554 332.926L133.554 332.926L133.554 332.925L133.554 332.925C132.624 330.483 131.695 328.042 130.744 325.608C130.154 324.095 129.529 322.594 128.905 321.093L128.905 321.093C127.787 318.406 126.669 315.719 125.746 312.967C123.787 307.124 122.033 301.203 120.446 295.248C119.551 291.893 118.936 288.459 118.322 285.031C118.212 284.415 118.102 283.799 117.99 283.183C117.68 281.481 117.483 279.758 117.286 278.035C117.219 277.448 117.152 276.86 117.08 276.273C116.768 273.722 116.475 271.169 116.189 268.616C116.094 267.764 116.471 267.361 117.339 267.086C120.665 266.034 123.976 264.931 127.286 263.827C128.461 263.436 129.635 263.044 130.811 262.655C131.683 262.366 132.612 262.089 133.567 261.805L133.57 261.804L133.571 261.803L133.573 261.803C137.116 260.747 141.016 259.584 143.712 257.315C143.868 257.184 144.277 257.109 144.375 257.205C144.551 257.377 144.676 257.707 144.657 257.958C144.564 259.217 144.451 260.475 144.338 261.733L144.338 261.733L144.338 261.733L144.338 261.734L144.338 261.734L144.338 261.734L144.338 261.734L144.338 261.734L144.338 261.734L144.338 261.734L144.338 261.735L144.338 261.735L144.338 261.735L144.338 261.735L144.338 261.735C144.115 264.217 143.892 266.699 143.823 269.185C143.734 272.339 143.885 275.502 144.036 278.66L144.037 278.663L144.063 279.217C144.074 279.449 144.085 279.68 144.096 279.91C144.189 281.914 144.338 283.934 144.698 285.903C145.612 290.915 147.51 295.604 149.738 300.159C150.062 300.821 150.447 301.458 150.832 302.095C151.407 303.046 151.981 303.996 152.346 305.022C152.905 306.592 153.495 308.151 154.085 309.711C155.705 313.993 157.326 318.276 158.288 322.781C158.591 324.198 158.944 325.605 159.298 327.011C159.69 328.572 160.082 330.132 160.405 331.707C160.903 334.136 161.29 336.588 161.678 339.039L161.678 339.039C161.767 339.604 161.857 340.169 161.947 340.733C162.058 341.423 162.181 342.112 162.305 342.802L162.305 342.803C162.641 344.675 162.976 346.549 163.057 348.433C163.218 352.181 163.269 355.934 163.32 359.688V359.688C163.348 361.692 163.375 363.695 163.419 365.698C163.425 365.997 163.552 366.293 163.679 366.589C163.738 366.726 163.797 366.864 163.844 367.001C163.923 366.862 164.02 366.724 164.118 366.586C164.329 366.287 164.541 365.989 164.559 365.679C164.657 363.989 164.714 362.297 164.772 360.605L164.772 360.605L164.772 360.604L164.772 360.604L164.772 360.604L164.772 360.604L164.772 360.603L164.772 360.603L164.772 360.603L164.772 360.603L164.772 360.602L164.772 360.602L164.772 360.602L164.772 360.601L164.772 360.601C164.809 359.511 164.846 358.421 164.894 357.331C164.917 356.812 164.971 356.292 165.026 355.773C165.107 354.994 165.188 354.217 165.163 353.442C165.137 352.629 165.114 351.816 165.091 351.003C164.985 347.286 164.88 343.565 164.53 339.869C164.296 337.391 163.709 334.939 163.125 332.498C163.012 332.029 162.9 331.561 162.791 331.093C162.529 329.975 162.273 328.854 162.018 327.733L162.018 327.732L162.018 327.732L162.018 327.731L162.017 327.731L162.017 327.73L162.017 327.73L162.017 327.729L162.017 327.729L162.017 327.729L162.017 327.728L162.017 327.728L162.017 327.727L162.017 327.727L162.016 327.726C161.109 323.743 160.2 319.758 159.007 315.861C157.048 309.461 154.388 303.319 151.333 297.34C149.944 294.622 148.78 291.721 148 288.775C146.468 282.989 146.336 277.009 146.204 271.062L146.191 270.502C146.13 267.766 146.242 265.025 146.355 262.284C146.393 261.349 146.432 260.414 146.463 259.479C146.505 258.251 146.599 257.025 146.693 255.799L146.693 255.799L146.693 255.796L146.73 255.315L146.755 254.994C146.846 253.773 146.957 252.553 147.069 251.333L147.069 251.333L147.069 251.332L147.069 251.332L147.069 251.332L147.069 251.332L147.069 251.332L147.069 251.332L147.069 251.331L147.069 251.331L147.069 251.331L147.069 251.331L147.069 251.331L147.069 251.33L147.069 251.33L147.069 251.33C147.313 248.662 147.557 245.994 147.59 243.323C147.617 241.174 147.477 239.025 147.338 236.874L147.338 236.874C147.222 235.093 147.107 233.311 147.085 231.529C147.056 229.014 146.33 226.69 145.604 224.365C145.373 223.627 145.143 222.889 144.935 222.145C144.855 221.859 144.559 221.634 144.263 221.408C144.126 221.304 143.989 221.2 143.874 221.089C143.828 221.251 143.763 221.416 143.698 221.581C143.556 221.942 143.415 222.303 143.479 222.622C143.609 223.262 143.803 223.892 143.997 224.521C144.267 225.402 144.538 226.28 144.631 227.179C145.049 231.205 145.445 235.249 145.51 239.292C145.537 240.984 145.405 242.68 145.273 244.375C145.125 246.266 144.978 248.157 145.052 250.04C145.158 252.727 143.788 254.155 141.952 255.519C139.538 257.312 136.09 258.348 132.994 259.278C132.174 259.525 131.379 259.764 130.634 260.008C126.007 261.521 121.408 263.119 116.808 264.717C114.909 265.377 113.01 266.037 111.109 266.691L111.077 266.702C110.441 266.921 109.917 267.102 109.918 266.017C109.919 264.695 109.782 263.369 109.645 262.05L109.638 261.979C109.56 261.229 109.484 260.478 109.408 259.728L109.408 259.727L109.408 259.725C109.114 256.822 108.82 253.919 108.437 251.028C108.203 249.262 107.919 247.502 107.635 245.743C107.296 243.64 106.957 241.537 106.703 239.424C106.346 236.453 106.135 233.449 106.111 230.458C106.086 227.428 106.179 224.397 106.273 221.367C106.309 220.177 106.346 218.988 106.375 217.798C106.455 214.607 108.022 211.679 109.55 208.823C110.122 207.755 110.688 206.697 111.169 205.639C113.608 200.273 118.201 197.314 123.371 195.224C125.856 194.219 128.448 193.477 131.038 192.735L131.039 192.735L131.039 192.735L131.04 192.735L131.04 192.735L131.04 192.735L131.041 192.735L131.041 192.735L131.042 192.734L131.042 192.734L131.042 192.734L131.043 192.734L131.043 192.734L131.044 192.734L131.044 192.734C131.994 192.462 132.943 192.19 133.887 191.905C136.007 191.266 138.131 190.643 140.256 190.02L140.256 190.02C144.447 188.792 148.638 187.563 152.787 186.207C156.488 184.998 160.012 183.265 162.927 180.583C163.726 179.849 164.118 179.979 164.823 180.652C167.122 182.85 169.475 184.99 171.829 187.13L171.829 187.13L172.234 187.499C176.247 191.149 180.713 194.133 185.678 196.309C186.414 196.632 187.619 196.587 188.303 196.189C189.845 195.292 191.287 194.22 192.726 193.149C193.022 192.929 193.319 192.708 193.616 192.489C194.213 192.049 194.811 191.611 195.41 191.172L195.41 191.172L195.41 191.172L195.41 191.171L195.411 191.171L195.411 191.171L195.411 191.171L195.411 191.171L195.412 191.17L195.412 191.17L195.412 191.17L195.412 191.17L195.413 191.17L195.413 191.17L195.413 191.169C197.899 189.347 200.385 187.523 202.802 185.614C205.372 183.584 207.21 180.91 209.042 178.246C209.335 177.819 209.628 177.393 209.924 176.97C210.04 176.804 209.63 175.948 209.367 175.895C208.338 175.686 207.865 176.357 207.369 177.061C207.275 177.194 207.18 177.329 207.08 177.46C206.669 177.996 206.268 178.547 205.866 179.099L205.865 179.099C204.62 180.809 203.367 182.527 201.793 183.855C199.281 185.972 196.643 187.939 194.003 189.907C192.127 191.305 190.25 192.704 188.418 194.158C187.278 195.063 186.438 194.997 185.336 194.375C185.095 194.238 184.853 194.103 184.612 193.967L184.612 193.967L184.611 193.967C182.041 192.523 179.491 191.091 177.268 189.047C174.409 186.421 171.409 183.947 168.41 181.475L168.409 181.474C167.552 180.767 166.695 180.061 165.841 179.35C165.049 178.691 165.191 178.284 165.872 177.661C168.155 175.573 169.379 172.991 169.711 169.874C169.731 169.684 169.738 169.475 169.745 169.258C169.777 168.275 169.814 167.127 171.128 166.821C172.392 166.526 173.334 167.352 174.088 168.267C174.572 168.854 175.034 169.461 175.496 170.067L175.497 170.067C176.071 170.821 176.646 171.575 177.263 172.293L177.379 172.428C178.558 173.804 179.857 175.319 181.907 174.61C184.774 173.619 187.667 173.434 190.646 173.399C191.493 173.389 192.669 172.756 193.103 172.047C193.821 170.874 194.351 169.587 194.881 168.3L194.881 168.3C195.086 167.802 195.291 167.304 195.507 166.813C196.267 165.084 197.058 164.437 198.962 165.131C199.789 165.432 200.884 165.672 201.632 165.374C203.114 164.785 203.395 165.499 203.81 166.559L203.862 166.69C204.833 169.149 205.82 171.614 208.163 173.218C209.707 174.275 211.455 174.567 213.205 174.86L213.207 174.861L213.209 174.861C213.37 174.888 213.531 174.915 213.693 174.943C215.215 175.203 216.741 175.437 218.268 175.671L218.268 175.671L218.268 175.671L218.269 175.671L218.269 175.671L218.269 175.671L218.269 175.671L218.269 175.671L218.269 175.671L218.269 175.671L218.269 175.671L218.269 175.671L218.27 175.671L218.27 175.671L218.27 175.671C220.465 176.007 222.659 176.343 224.839 176.759C230.518 177.843 235.385 180.76 239.556 184.534C242.47 187.171 244.823 190.491 247.118 193.728L247.184 193.821C248.851 196.172 250.206 198.755 251.553 201.323C251.708 201.619 251.864 201.915 252.019 202.21C252.438 203.005 252.86 203.799 253.283 204.593C255.211 208.221 257.143 211.853 258.778 215.611C260.672 219.96 262.397 224.382 264.123 228.804L264.124 228.805C264.961 230.952 265.799 233.099 266.657 235.237C266.943 235.953 267.035 236.407 266.165 236.817C265.555 237.104 264.973 237.454 264.391 237.804ZM153.248 140.861C153.46 140.383 153.672 139.905 153.887 139.428C155.574 135.544 157.03 131.959 157.239 127.856C157.434 124.039 156.455 120.558 155.457 117.011C155.4 116.806 155.342 116.601 155.284 116.395C154.972 115.279 154.814 114.12 154.657 112.96V112.96C154.523 111.971 154.388 110.981 154.157 110.015C153.621 107.775 154.055 105.648 154.489 103.524C154.714 102.426 154.938 101.329 155.028 100.217C155.306 96.7729 156.114 93.4848 157.282 90.2834C158.796 86.1326 161.112 82.4095 163.64 78.7908C165.565 76.0359 168.07 74.0762 170.918 72.4077C172.058 71.7397 173.213 70.9038 173.986 69.8651C174.568 69.0822 175.054 68.7964 175.952 68.8087C176.935 68.8223 177.919 68.8074 178.903 68.7926C180.548 68.7678 182.191 68.743 183.827 68.8505C189.795 69.2428 195.472 70.7296 200.541 74.0323L200.782 74.1893L200.782 74.1893C202.637 75.397 204.526 76.6268 206.094 78.1582C208.091 80.1102 209.887 82.2734 211.678 84.4306L211.68 84.4329L211.681 84.4342L211.681 84.4342C211.96 84.7701 212.239 85.1059 212.518 85.4406C212.832 85.8167 212.915 86.4126 212.992 86.9688V86.9689C213.007 87.0784 213.022 87.1864 213.039 87.2909C213.46 89.9638 213.859 92.6403 214.258 95.3168L214.438 96.5227C214.521 97.0798 214.606 97.6367 214.69 98.1936C214.945 99.8769 215.201 101.56 215.42 103.248C215.494 103.821 215.569 104.394 215.644 104.967L215.645 104.976C216.093 108.403 216.54 111.83 216.888 115.267C217.081 117.172 217.127 119.093 217.172 121.011V121.011V121.011V121.011V121.011V121.011V121.011V121.011V121.012V121.012V121.012V121.012V121.012V121.012V121.012C217.182 121.433 217.192 121.855 217.204 122.276C217.228 123.161 217.254 124.046 217.28 124.932L217.28 124.933L217.28 124.935L217.28 124.936C217.383 128.434 217.486 131.933 217.488 135.431C217.49 140.653 216.339 145.715 214.793 150.659C213.843 153.699 212.655 156.666 211.468 159.628L211.468 159.628L211.467 159.63L211.467 159.632L211.466 159.633L211.465 159.635C211.256 160.158 211.046 160.682 210.838 161.205C210.667 161.635 210.005 162.03 209.505 162.137C208.122 162.433 206.709 162.63 205.298 162.734C204.727 162.777 204.023 162.624 203.575 162.294C203.022 161.887 202.922 161.878 202.62 162.516C201.906 164.021 201.047 164.381 199.391 163.794C197.919 163.272 196.484 163.085 195.376 164.302C194.763 164.975 194.357 165.852 193.96 166.709L193.96 166.709L193.96 166.709L193.96 166.709C193.887 166.866 193.815 167.021 193.742 167.175C193.549 167.581 193.434 168.023 193.319 168.465L193.319 168.465L193.319 168.466L193.319 168.466L193.319 168.466L193.319 168.466L193.319 168.466L193.319 168.466L193.319 168.466L193.319 168.466L193.319 168.466L193.318 168.466L193.318 168.466L193.318 168.466L193.318 168.466C193.259 168.696 193.199 168.925 193.128 169.15C192.441 171.339 191.567 172.096 189.332 171.95C186.894 171.792 184.531 172.141 182.285 172.92C180.392 173.577 179.507 172.554 178.555 171.454C178.458 171.342 178.36 171.229 178.26 171.116C177.989 170.812 177.72 170.507 177.45 170.201C176.146 168.724 174.841 167.246 173.423 165.886C172.893 165.377 171.869 165.17 171.08 165.189C170.256 165.209 169.437 165.348 168.616 165.487L168.616 165.487C168.083 165.578 167.549 165.668 167.014 165.726C165.871 165.85 164.974 165.209 164.635 164.243C164.16 162.892 163.894 161.445 163.732 160.017C163.615 158.99 163.247 158.211 162.272 158.035C159.869 157.602 158.545 156.093 157.402 154.046C156.593 152.598 155.561 151.273 154.531 149.949L154.531 149.949C154.138 149.444 153.746 148.94 153.366 148.43C153.114 148.091 152.839 147.771 152.563 147.451C152.307 147.153 152.05 146.855 151.813 146.542C151.283 145.844 151.257 145.125 151.663 144.304C152.223 143.172 152.735 142.016 153.248 140.861ZM218.146 112.846L218.102 112.077C217.799 110.317 218.653 109.759 219.813 109.092C221.436 108.159 223.036 107.361 224.925 107.495C225.833 107.559 226.593 108.009 225.828 109.094C224.531 110.936 223.206 112.758 221.851 114.558C221.237 115.373 220.582 116.159 219.927 116.944L219.926 116.945L219.926 116.946L219.925 116.946C219.696 117.221 219.466 117.497 219.239 117.773C219.158 117.871 219.059 117.952 218.959 118.034C218.94 118.05 218.92 118.066 218.901 118.082L218.866 118.111L218.851 118.124L218.836 118.137L218.823 118.149C218.79 118.106 218.757 118.063 218.724 118.021L218.701 117.99C218.597 117.857 218.493 117.723 218.406 117.579C218.378 117.533 218.385 117.466 218.393 117.399C218.397 117.361 218.401 117.323 218.399 117.287C218.316 115.832 218.233 114.377 218.15 112.921L218.15 112.918L218.15 112.915L218.15 112.912L218.15 112.909L218.149 112.905L218.149 112.902L218.149 112.899L218.149 112.896L218.149 112.893L218.148 112.889L218.148 112.886L218.146 112.846ZM153.702 118.123C153.661 118.189 153.62 118.256 153.59 118.32C152.782 117.935 152.033 117.475 151.291 117.02L151.291 117.02C150.642 116.621 149.998 116.226 149.326 115.888C147.807 115.123 147.272 113.734 146.786 112.353C146.226 110.765 147.472 109.247 149.161 109.259L149.275 109.26L149.388 109.26H149.388C149.99 109.262 150.601 109.264 151.18 109.391C152.318 109.641 152.431 110.522 152.539 111.372L152.539 111.372L152.54 111.372L152.54 111.372L152.54 111.372L152.54 111.372L152.54 111.372L152.54 111.372L152.54 111.372L152.54 111.372V111.372C152.573 111.636 152.607 111.896 152.67 112.133C153.076 113.654 153.373 115.203 153.669 116.752L153.669 116.752L153.669 116.752L153.669 116.752L153.669 116.752L153.669 116.752L153.669 116.752L153.669 116.752L153.669 116.752L153.669 116.752L153.669 116.752L153.669 116.752L153.669 116.752L153.669 116.752L153.669 116.752C153.731 117.073 153.792 117.393 153.854 117.713C153.878 117.835 153.79 117.979 153.702 118.123ZM243.773 258.07L243.78 258.081L243.787 258.092C246.132 261.845 248.484 265.611 250.878 269.418C251.491 270.03 252.094 270.637 252.693 271.239L252.694 271.24L252.695 271.242C254.011 272.565 255.303 273.864 256.613 275.145C259.76 278.222 263.503 278.975 267.721 278.007C271.385 277.167 274.732 275.68 277.68 273.349C278.146 272.98 278.627 272.621 279.108 272.261L279.11 272.26L279.111 272.26C280.529 271.2 281.954 270.136 283.039 268.802C285.514 265.759 287.79 262.509 289.779 259.127C292.432 254.614 295.07 250.035 297.096 245.224C298.985 240.739 300.557 236.12 302.128 231.501C302.714 229.78 303.3 228.059 303.902 226.345C304.121 225.72 304.342 225.095 304.562 224.469L304.563 224.467L304.564 224.466L304.565 224.463L304.565 224.462L304.565 224.461L304.565 224.461L304.565 224.46L304.566 224.459L304.566 224.459L304.566 224.458L304.566 224.457L304.567 224.457L304.567 224.456L304.567 224.455L304.567 224.455L304.568 224.454C305.81 220.932 307.052 217.408 308.152 213.841C308.687 212.108 309.138 210.347 309.589 208.586C310.169 206.32 310.75 204.054 311.508 201.849C312.378 199.318 313.46 196.861 314.542 194.403L314.542 194.403L314.542 194.402L314.542 194.402L314.542 194.402L314.542 194.401L314.542 194.401L314.543 194.401L314.543 194.4L314.543 194.4L314.543 194.4L314.543 194.399L314.543 194.399L314.543 194.399L314.544 194.398L314.544 194.398C315.104 193.125 315.665 191.851 316.196 190.567C316.752 189.222 317.311 187.878 317.869 186.534L317.872 186.529L317.876 186.517L317.878 186.513C320.021 181.355 322.164 176.197 324.198 170.995C325.004 168.933 325.568 166.774 326.131 164.619C326.279 164.052 326.428 163.485 326.58 162.92C326.649 162.664 326.512 162.352 326.374 162.04C326.31 161.896 326.247 161.752 326.204 161.613C326.055 161.66 325.896 161.696 325.737 161.731C325.391 161.808 325.046 161.885 324.804 162.086C323.284 163.349 322.234 164.947 321.539 166.814C321.184 167.771 320.707 168.683 320.232 169.593L320.231 169.593C320.133 169.782 320.034 169.971 319.937 170.16C319.877 170.276 319.717 170.339 319.557 170.402C319.483 170.431 319.409 170.46 319.345 170.495C319.344 170.431 319.338 170.366 319.332 170.301V170.301C319.32 170.161 319.307 170.021 319.344 169.895C319.631 168.909 319.928 167.926 320.226 166.944L320.227 166.943L320.227 166.942L320.227 166.941L320.227 166.94L320.228 166.939L320.228 166.938L320.228 166.937L320.228 166.936L320.229 166.935L320.229 166.934L320.229 166.933L320.23 166.931L320.23 166.93C320.866 164.833 321.501 162.736 322.031 160.612C322.464 158.875 322.604 157.05 322.72 155.254C322.804 153.954 321.615 153.202 320.571 153.878C320.029 154.229 319.582 154.727 319.135 155.224C318.955 155.425 318.775 155.625 318.589 155.816C318.442 155.966 318.309 156.132 318.177 156.297C318.116 156.373 318.056 156.448 317.994 156.522C317.977 156.475 317.959 156.429 317.94 156.382C317.925 156.343 317.909 156.304 317.893 156.265C317.816 156.077 317.739 155.889 317.702 155.693C317.579 155.045 317.486 154.391 317.399 153.737C317.236 152.503 316.525 151.326 315.435 151.301C314.695 151.285 313.641 152.36 313.223 153.195C311.955 155.729 310.839 158.349 309.831 160.999C309.048 163.059 308.351 165.152 307.654 167.245L307.653 167.246C307.336 168.2 307.018 169.153 306.693 170.103C306.622 170.31 306.539 170.512 306.455 170.715L306.427 170.785L306.398 170.854C306.379 170.902 306.36 170.95 306.341 170.997C306.263 170.939 306.179 170.886 306.096 170.832C305.915 170.716 305.734 170.6 305.615 170.439C304.373 168.758 302.599 167.873 300.796 166.974L300.577 166.865C298.933 166.044 297.308 166.269 295.866 166.981C293.914 167.946 293.982 171.446 295.697 173.014C298.341 175.432 300.171 178.311 300.951 181.839C302.011 186.632 301.008 190.963 298.175 194.93L297.754 195.519L297.753 195.52L297.753 195.52L297.752 195.52L297.752 195.521L297.752 195.521L297.752 195.521L297.752 195.521L297.752 195.521L297.752 195.521L297.751 195.522L297.751 195.522L297.751 195.522L297.751 195.522L297.751 195.522C296.34 197.496 294.927 199.472 293.629 201.52C290.301 206.769 287.006 212.041 283.786 217.357L283.595 217.673C280.618 222.588 277.638 227.507 274.886 232.548C273.642 234.828 272.633 237.237 271.625 239.645L271.625 239.645L271.624 239.646L271.624 239.646L271.624 239.647L271.624 239.647L271.624 239.648L271.624 239.648L271.623 239.648L271.623 239.649L271.623 239.649L271.623 239.65L271.623 239.65L271.622 239.65L271.622 239.651C271.267 240.499 270.912 241.347 270.547 242.189C270.22 242.943 269.989 243.208 269.365 242.441C268.899 241.867 268.366 241.329 267.783 240.878C267.603 240.74 267.332 240.721 267.06 240.702C266.937 240.694 266.813 240.685 266.699 240.666C266.695 240.712 266.687 240.762 266.678 240.814C266.67 240.856 266.661 240.899 266.653 240.942C266.611 241.15 266.569 241.357 266.653 241.452C266.764 241.576 266.874 241.702 266.985 241.828L266.985 241.828C267.559 242.482 268.141 243.144 268.838 243.636C271.011 245.171 271.269 244.993 272.229 242.461C272.309 242.25 272.389 242.038 272.468 241.827L272.589 241.506L272.589 241.506C273.42 239.292 274.257 237.064 275.393 235.01C278.476 229.432 281.73 223.947 285.006 218.479C288.245 213.072 291.541 207.697 294.917 202.374C295.68 201.173 296.528 200.021 297.375 198.869C298.561 197.258 299.746 195.648 300.693 193.906C304.213 187.431 303.698 180.989 299.599 174.891C299.192 174.286 298.665 173.76 298.138 173.235C297.557 172.656 296.978 172.078 296.563 171.397C296.116 170.664 296.066 169.334 296.444 168.575C296.699 168.062 298.129 167.7 298.832 167.919C302.209 168.971 305.419 170.339 306.129 174.452C306.162 174.645 306.386 174.804 306.611 174.964C306.715 175.038 306.819 175.113 306.904 175.19C306.92 175.167 306.935 175.145 306.952 175.122C306.979 175.084 307.008 175.046 307.037 175.009C307.137 174.879 307.236 174.75 307.28 174.604C307.697 173.237 308.098 171.865 308.498 170.493L308.499 170.492L308.499 170.491L308.499 170.49L308.5 170.489L308.5 170.488L308.5 170.487L308.501 170.486L308.501 170.484L308.501 170.483L308.501 170.482L308.502 170.481L308.502 170.48L308.502 170.479L308.503 170.478L308.69 169.837C308.995 168.794 309.29 167.748 309.585 166.702C310.277 164.246 310.969 161.789 311.791 159.377C312.305 157.864 313.054 156.43 313.801 154.998L313.801 154.998L313.802 154.997L313.802 154.997L313.802 154.996L313.802 154.996L313.803 154.995L313.803 154.995L313.803 154.994L313.804 154.993L313.804 154.993L313.804 154.992L313.804 154.992L313.805 154.991L313.805 154.991C314.036 154.549 314.266 154.107 314.49 153.663C314.644 153.357 315.048 153.144 315.383 152.984C315.47 152.943 315.867 153.246 315.888 153.42C315.926 153.722 315.979 154.028 316.032 154.336C316.18 155.194 316.329 156.06 316.151 156.848C315.789 158.447 315.294 160.015 314.799 161.584L314.799 161.584L314.799 161.585C314.518 162.474 314.237 163.364 313.981 164.26C313.396 166.302 312.857 168.359 312.38 170.428C312.339 170.605 312.533 170.838 312.728 171.07L312.728 171.07C312.818 171.177 312.908 171.285 312.974 171.387C313.064 171.308 313.17 171.235 313.275 171.162C313.503 171.004 313.731 170.846 313.804 170.634C314.284 169.247 314.721 167.845 315.159 166.443C315.31 165.959 315.461 165.475 315.613 164.991C316.636 161.755 317.722 158.549 320.142 156.022C320.293 155.865 320.495 155.756 320.698 155.648C320.792 155.598 320.886 155.547 320.975 155.492C321.005 155.605 321.05 155.722 321.096 155.838C321.193 156.089 321.29 156.341 321.239 156.557C320.39 160.162 319.504 163.758 318.601 167.35C318.468 167.881 318.311 168.407 318.155 168.933L318.155 168.933C317.903 169.779 317.651 170.625 317.497 171.488C317.428 171.872 317.597 172.297 317.765 172.723C317.842 172.917 317.918 173.11 317.973 173.3C318.123 173.247 318.292 173.208 318.461 173.169C318.829 173.085 319.197 173 319.374 172.769C320.277 171.588 321.112 170.341 321.837 169.042C322.263 168.279 322.633 167.485 323.004 166.691L323.004 166.69C323.312 166.03 323.621 165.369 323.961 164.726C324.083 164.495 324.344 164.337 324.605 164.179L324.605 164.179C324.725 164.107 324.845 164.034 324.951 163.954C324.938 164.073 324.933 164.195 324.928 164.317C324.917 164.58 324.905 164.842 324.817 165.076C324.686 165.422 324.555 165.769 324.425 166.115C323.488 168.596 322.551 171.077 321.545 173.529C321.13 174.538 320.666 175.526 320.202 176.515C319.751 177.476 319.3 178.436 318.895 179.416C318.14 181.241 317.412 183.077 316.684 184.913L316.683 184.914L316.683 184.914L316.683 184.914L316.683 184.914L316.683 184.915L316.683 184.915L316.683 184.915L316.683 184.915L316.683 184.915L316.683 184.916L316.683 184.916L316.682 184.916L316.682 184.916L316.682 184.917C315.386 188.187 314.089 191.457 312.641 194.658C310.59 199.194 308.951 203.848 307.581 208.616C307.036 210.516 306.476 212.414 305.849 214.289C305.179 216.29 304.487 218.285 303.794 220.28L303.794 220.282C302.44 224.182 301.086 228.081 299.904 232.032C298.165 237.848 296.23 243.571 293.663 249.07C290.928 254.932 287.552 260.438 283.618 265.543C281.77 267.941 279.437 270.165 276.884 271.769C273.972 273.599 270.849 275.288 267.358 275.99C265.036 276.456 262.695 276.729 260.565 275.501C256.647 273.242 253.719 269.873 251.135 266.265C249.187 263.545 247.345 260.751 245.502 257.956L245.5 257.952L245.499 257.952L245.499 257.951L245.498 257.95L245.498 257.949L245.497 257.949L245.497 257.948L245.496 257.947L245.496 257.946L245.495 257.946L245.495 257.945L245.494 257.944L245.494 257.944L245.493 257.943C244.436 256.339 243.379 254.735 242.301 253.145C242.125 252.885 241.818 252.714 241.511 252.543C241.368 252.463 241.226 252.384 241.096 252.295C241.094 252.356 241.091 252.417 241.088 252.478L241.085 252.533L241.081 252.606L241.074 252.74V252.74C241.052 253.135 241.031 253.529 241.052 253.922C241.056 254.005 241.149 254.077 241.247 254.154C241.323 254.213 241.402 254.275 241.447 254.346C242.223 255.587 242.998 256.827 243.773 258.07ZM231.183 339.058C231.008 339.978 230.863 340.895 230.721 341.805C230.378 343.984 230.044 346.114 229.308 348.094C227.954 351.737 224.821 353.938 221.203 355.057C217.647 356.158 213.995 356.965 210.352 357.769L209.688 357.916L209.069 358.053C208.101 358.268 207.092 358.299 206.084 358.331C205.685 358.343 205.285 358.356 204.889 358.38C202.889 358.5 200.89 358.617 198.89 358.735H198.89H198.889H198.889H198.889H198.888H198.888H198.888H198.887H198.887H198.887H198.886H198.886H198.886C195.858 358.912 192.83 359.09 189.802 359.279C188.569 359.356 187.336 359.45 186.103 359.544H186.103H186.102H186.102H186.102H186.101H186.101H186.101H186.1H186.1H186.1H186.099H186.099H186.099C184.592 359.659 183.085 359.774 181.576 359.858C181.335 359.872 181.093 359.885 180.851 359.899L180.84 359.9C178.453 360.034 176.062 360.169 173.675 360.132C172.011 360.107 170.348 359.905 168.687 359.703C168.253 359.651 167.818 359.598 167.384 359.548C167.209 359.528 167.051 359.363 166.893 359.197C166.819 359.12 166.746 359.043 166.671 358.98C166.729 358.918 166.785 358.841 166.841 358.765C166.962 358.599 167.083 358.434 167.23 358.406C167.269 358.399 167.308 358.391 167.347 358.384L167.425 358.368L167.547 358.344L167.693 358.314L167.694 358.314L167.694 358.314C168.39 358.172 169.1 358.027 169.774 358.114C174.431 358.715 179.049 358.322 183.677 357.801C185.938 357.546 188.212 357.39 190.483 357.234L190.487 357.234L191.009 357.198C192.588 357.09 194.168 357 195.748 356.911L195.749 356.911L195.75 356.911L195.751 356.911L195.752 356.911L195.752 356.911L195.753 356.911L195.754 356.91L195.755 356.91L195.756 356.91L195.757 356.91L195.758 356.91L195.758 356.91L195.759 356.91L195.761 356.91L195.762 356.91L195.763 356.91L195.764 356.91L195.766 356.909L195.767 356.909L195.768 356.909L195.769 356.909L195.771 356.909L195.772 356.909L195.773 356.909L195.774 356.909L195.776 356.909C198.773 356.739 201.771 356.569 204.755 356.268C210.557 355.683 216.296 354.642 221.726 352.413C224.864 351.125 227.024 348.674 227.843 345.441L227.926 345.114C228.83 341.552 229.749 337.933 229.384 334.188C229.299 333.314 229.155 332.443 229.01 331.573L229.01 331.572C228.789 330.238 228.568 328.906 228.562 327.57C228.555 325.814 228.684 324.059 228.813 322.302C228.926 320.772 229.038 319.241 229.061 317.71C229.081 316.345 228.902 314.976 228.724 313.608C228.648 313.026 228.572 312.443 228.511 311.861C228.458 311.356 228.409 310.85 228.36 310.344C228.229 308.998 228.098 307.652 227.901 306.315C227.193 301.507 226.918 296.68 226.998 291.821C227.019 290.547 226.94 289.273 226.861 287.998C226.807 287.134 226.753 286.269 226.731 285.405C226.68 283.461 226.644 281.517 226.608 279.573C226.557 276.802 226.505 274.031 226.412 271.261C226.335 268.986 226.204 266.712 226.074 264.439C225.99 262.98 225.906 261.522 225.837 260.063C225.78 258.867 225.74 257.671 225.699 256.474L225.699 256.473C225.651 255.035 225.603 253.598 225.525 252.161C225.47 251.14 225.376 250.119 225.281 249.097V249.097V249.097V249.097V249.097V249.097V249.097V249.096V249.096V249.096V249.096V249.096V249.096V249.096V249.096V249.095V249.095V249.095V249.095V249.095V249.095V249.095V249.094V249.094V249.094V249.094V249.094C225.104 247.173 224.927 245.254 225.011 243.344C225.102 241.272 225.467 239.212 225.832 237.152C225.995 236.232 226.158 235.313 226.297 234.392C226.39 233.777 226.485 233.162 226.58 232.547L226.58 232.547C226.838 230.877 227.096 229.207 227.306 227.531C227.425 226.585 227.512 225.634 227.6 224.684L227.6 224.683L227.6 224.683C227.701 223.584 227.802 222.485 227.952 221.393C227.985 221.151 228.258 220.942 228.531 220.733C228.657 220.636 228.783 220.539 228.886 220.44C228.94 220.554 229.012 220.671 229.085 220.788C229.241 221.039 229.397 221.291 229.371 221.522C229.023 224.683 228.625 227.838 228.208 230.99C228.053 232.165 227.86 233.338 227.668 234.512L227.668 234.512C227.268 236.946 226.869 239.378 226.803 241.82C226.708 245.304 226.916 248.796 227.124 252.287L227.124 252.288L227.124 252.289L227.125 252.29L227.125 252.291L227.125 252.292L227.125 252.294L227.125 252.295L227.125 252.296L227.125 252.297L227.125 252.299L227.125 252.3L227.125 252.301L227.125 252.302L227.125 252.304C227.197 253.499 227.268 254.695 227.327 255.89C227.414 257.651 227.533 259.41 227.652 261.169L227.652 261.169L227.652 261.17L227.652 261.17L227.652 261.17L227.652 261.171L227.652 261.171L227.652 261.171L227.652 261.172L227.653 261.172L227.653 261.172L227.653 261.173L227.653 261.173L227.653 261.173L227.653 261.175C227.743 262.502 227.833 263.829 227.909 265.156C227.961 266.067 228.014 266.978 228.066 267.888L228.067 267.889C228.328 272.402 228.589 276.916 228.791 281.432C228.865 283.088 228.893 284.745 228.921 286.403V286.403C228.958 288.571 228.994 290.738 229.134 292.899C229.299 295.461 229.58 298.015 229.861 300.569L229.861 300.57C230.008 301.911 230.156 303.253 230.286 304.596C230.51 306.889 230.714 309.185 230.878 311.483C230.903 311.839 230.93 312.194 230.957 312.55C231.079 314.134 231.2 315.722 231.156 317.304C231.11 318.925 231.011 320.545 230.911 322.164L230.911 322.165L230.911 322.165L230.911 322.166L230.911 322.167L230.911 322.167L230.911 322.168L230.911 322.168L230.911 322.169L230.911 322.169L230.911 322.17L230.911 322.17L230.911 322.171L230.911 322.171C230.781 324.299 230.65 326.425 230.641 328.553C230.636 329.649 230.84 330.744 231.044 331.84C231.204 332.703 231.364 333.568 231.424 334.435C231.493 335.432 231.402 336.44 231.306 337.493C231.26 338.003 231.213 338.523 231.183 339.058ZM121.866 344.493C123.115 349.787 126.535 353.713 130.922 356.97L131.287 357.116C133.199 357.882 135.039 358.618 136.916 359.242C137.275 359.362 137.696 359.297 138.117 359.232C138.31 359.202 138.504 359.172 138.691 359.16C138.583 359.046 138.475 358.931 138.367 358.816L138.367 358.816C138.051 358.479 137.736 358.142 137.404 357.823C137.361 357.781 137.279 357.788 137.192 357.794C137.117 357.8 137.039 357.806 136.98 357.782C136.49 357.585 135.976 357.417 135.462 357.249L135.461 357.249C134.283 356.864 133.104 356.479 132.208 355.747C130.024 353.962 128.032 351.864 126.29 349.639C124.568 347.44 123.69 344.798 123.852 341.9C123.911 340.851 123.942 339.8 123.974 338.749C124.018 337.265 124.063 335.78 124.184 334.302C124.276 333.178 124.451 332.062 124.626 330.945C124.78 329.96 124.935 328.974 125.032 327.984C125.246 325.816 125.379 323.64 125.513 321.464L125.513 321.463C125.545 320.943 125.576 320.424 125.609 319.904C125.622 319.707 125.492 319.431 125.337 319.313C125.209 319.216 124.847 319.214 124.757 319.317C124.695 319.388 124.628 319.461 124.559 319.535L124.559 319.536C124.26 319.86 123.941 320.207 123.896 320.575C123.707 322.112 123.577 323.656 123.446 325.199L123.446 325.2L123.446 325.2L123.446 325.2L123.446 325.2L123.446 325.201L123.446 325.201L123.446 325.201L123.446 325.202L123.446 325.202L123.446 325.202L123.446 325.202L123.446 325.203C123.386 325.904 123.327 326.605 123.262 327.305C123.242 327.516 123.199 327.725 123.155 327.933C123.122 328.092 123.089 328.25 123.066 328.41C122.94 329.3 122.803 330.188 122.667 331.077C122.338 333.226 122.008 335.375 121.82 337.536C121.806 337.701 121.791 337.866 121.776 338.032C121.584 340.192 121.384 342.446 121.866 344.493ZM201.575 195.076L201.575 195.076C204.797 192.901 207.978 190.754 210.585 187.908C211.96 186.408 213.178 184.765 214.397 183.122C214.933 182.399 215.47 181.675 216.02 180.964C216.08 180.885 216.132 180.792 216.184 180.699L216.184 180.699L216.184 180.699L216.184 180.699L216.184 180.699L216.184 180.699L216.184 180.699L216.184 180.699L216.184 180.699L216.184 180.699C216.277 180.531 216.369 180.365 216.511 180.294C216.797 180.15 217.115 180.069 217.434 179.989C217.567 179.956 217.699 179.922 217.83 179.884C217.787 180.015 217.755 180.153 217.722 180.291C217.651 180.589 217.58 180.887 217.414 181.116C217.073 181.585 216.733 182.055 216.394 182.526L216.392 182.529C215.019 184.432 213.645 186.336 212.148 188.138C210.799 189.763 209.311 191.334 207.649 192.623C204.763 194.861 201.797 197.035 198.673 198.917C195.256 200.976 191.669 202.775 188.061 204.486C186.273 205.335 184.323 205.224 182.553 204.071C177.2 200.584 171.981 196.923 167.532 192.292C166.301 191.011 165.164 189.631 164.088 188.217C163.913 187.988 163.936 187.608 163.959 187.229C163.97 187.055 163.981 186.88 163.972 186.72C164.132 186.75 164.31 186.763 164.488 186.775C164.875 186.803 165.262 186.83 165.462 187.037C166 187.597 166.494 188.202 166.987 188.806C167.559 189.506 168.13 190.206 168.771 190.836C170.427 192.459 172.168 194.01 173.987 195.448C176.167 197.173 178.41 198.82 180.652 200.466L180.653 200.466C181.15 200.832 181.648 201.197 182.145 201.564C182.474 201.806 182.828 202.014 183.181 202.221L183.181 202.221C183.549 202.438 183.918 202.654 184.257 202.909C185.673 203.971 186.892 203.275 188.011 202.636C188.288 202.478 188.56 202.323 188.826 202.199C191.478 200.97 194.042 199.551 196.643 198.111C197.474 197.651 198.308 197.189 199.15 196.731C199.95 196.173 200.757 195.629 201.561 195.086L201.563 195.084L201.566 195.083L201.57 195.08L201.571 195.079L201.575 195.076ZM313.445 181.735L313.448 181.731C313.886 181.194 314.331 180.646 314.796 180.082C315.112 180.047 315.413 180.043 315.705 180.039H315.705C316.027 180.035 316.336 180.031 316.639 179.985C316.894 179.946 317.133 179.801 317.372 179.656C317.479 179.59 317.586 179.525 317.694 179.47C317.608 179.37 317.528 179.254 317.448 179.137C317.275 178.886 317.102 178.635 316.868 178.548C314.658 177.724 310.759 180.754 310.876 183.19C310.887 183.418 311.018 183.64 311.15 183.862C311.211 183.964 311.271 184.067 311.32 184.17C311.396 184.095 311.475 184.021 311.553 183.948L311.553 183.948C311.724 183.788 311.894 183.628 312.042 183.45C312.508 182.885 312.971 182.317 313.443 181.737L313.445 181.735ZM202.717 140.84C203.432 141.009 204.071 141.253 204.711 141.496L204.712 141.497C204.615 141.659 204.527 141.83 204.44 142.002L204.44 142.002C204.251 142.372 204.062 142.742 203.78 143.018C200.331 146.396 196.129 148.37 191.454 149.35C190.887 149.469 190.256 149.313 189.639 149.161C189.453 149.115 189.267 149.069 189.085 149.032C188.916 148.997 188.662 148.537 188.693 148.505C188.759 148.434 188.826 148.357 188.895 148.278C189.145 147.988 189.413 147.679 189.712 147.635C194.398 146.933 198.328 144.781 201.723 141.548C201.884 141.395 202.073 141.273 202.281 141.137C202.419 141.048 202.565 140.953 202.717 140.84ZM307.276 184.152C307.976 182.411 307.41 180.76 306.769 179.042C306.601 178.849 306.439 178.661 306.28 178.477L306.275 178.47L306.271 178.466L306.271 178.466C305.807 177.927 305.371 177.421 304.914 176.933C304.884 176.902 304.329 177.263 304.346 177.303C304.576 177.849 304.848 178.38 305.141 178.896C306.042 180.481 306.158 182.202 306.125 183.972C306.121 184.219 306.267 184.468 306.414 184.717C306.481 184.832 306.549 184.947 306.602 185.062C306.674 184.967 306.754 184.875 306.835 184.783C307.009 184.583 307.183 184.384 307.276 184.152ZM179.231 81.8281C179.813 82.0988 180.382 82.3911 180.947 82.681C182.363 83.408 183.749 84.1198 185.221 84.4358L185.45 84.4853C187.652 84.9602 190.02 85.4713 192.233 84.2698C193.008 83.8487 193.737 83.3303 194.444 82.7984C194.875 82.4741 195.263 82.0714 195.601 81.649C198.291 78.2964 200.275 78.797 203.979 80.986C208.716 83.7865 210.442 88.5665 212.11 93.3221C212.944 95.6979 213.467 98.1893 213.989 100.668L213.989 100.668C214.059 101.001 214.129 101.333 214.199 101.665C214.544 103.285 214.689 104.954 214.817 106.61C214.969 108.573 215.04 110.544 215.112 112.513L215.125 112.874C215.164 113.952 215.185 115.031 215.206 116.111C215.246 118.212 215.286 120.314 215.463 122.404C215.734 125.601 215.224 128.683 214.51 131.74C213.689 135.26 211.013 136.957 207.77 137.748C206.404 138.081 204.978 138.177 203.555 138.273L203.554 138.273L203.553 138.273C203.062 138.307 202.572 138.34 202.084 138.382C197.063 138.824 192.073 139.445 187.221 140.883C185.716 141.329 184.279 141.124 183.017 140.285C180.471 138.592 177.594 137.973 174.66 137.499C169.189 136.614 163.994 135.122 159.985 130.96C158.926 129.862 158.247 128.686 158.316 127.031C158.437 124.097 158.013 121.209 157.59 118.325L157.59 118.324C157.348 116.677 157.107 115.03 156.967 113.377C156.544 108.377 156.73 103.355 158.258 98.3752C159.963 92.8215 162.564 87.9152 166.69 83.9105C167.823 82.8105 169.192 81.9549 170.563 81.0988L170.563 81.0987C171.232 80.6809 171.901 80.263 172.543 79.8164L172.651 79.7414L172.651 79.7413C173.353 79.2532 174.062 78.7603 174.681 78.1774C175.623 77.2898 176.195 77.7585 176.784 78.5745C177.486 79.5489 178.217 80.5032 178.995 81.5191L179.231 81.8281ZM209.629 90.8211C209.551 90.6336 209.472 90.4463 209.392 90.259L209.392 90.2579C209.222 89.8553 209.051 89.4527 208.887 89.0475C207.322 85.1834 204.557 82.4719 200.771 80.8411C200.182 80.5878 199.159 80.7348 198.629 81.1096C198.187 81.4216 197.877 81.9119 197.564 82.4062C197.387 82.6859 197.21 82.9668 197.007 83.2176C195.195 85.4577 193.071 87.2091 189.971 86.9329C188.053 86.762 186.115 86.5158 184.257 86.029C181.346 85.2659 178.695 83.8966 176.812 81.4553C176.748 81.3721 176.687 81.2926 176.628 81.2165C175.391 79.6058 175.376 79.5859 173.689 80.7179C173.133 81.091 172.561 81.4486 171.989 81.8063C170.564 82.6979 169.137 83.5907 167.946 84.7287C163.921 88.5768 161.277 93.2025 159.69 98.678C158.261 103.613 158.174 108.506 158.409 113.454C158.599 117.472 159.239 121.48 159.877 125.461C159.891 125.549 159.905 125.636 159.919 125.724C160.199 127.488 160.486 129.301 162.025 130.666C164.94 133.251 168.395 134.642 172.108 135.382C172.612 135.483 173.117 135.58 173.62 135.676C177.162 136.356 180.682 137.032 183.872 138.937C184.617 139.382 185.743 139.48 186.631 139.341C188.629 139.028 190.619 138.664 192.609 138.299L192.609 138.299L192.61 138.299L192.61 138.299L192.611 138.299L192.611 138.299L192.611 138.299L192.612 138.299C194.675 137.921 196.738 137.544 198.81 137.224C199.984 137.042 201.174 136.944 202.363 136.846L202.363 136.846L202.363 136.846L202.363 136.846L202.363 136.846L202.364 136.846L202.364 136.846L202.364 136.846C203.987 136.713 205.608 136.58 207.185 136.234C209.357 135.757 211.799 135.021 212.503 132.479C213.188 130.009 213.778 127.44 213.872 124.895C214.001 121.376 213.853 117.845 213.705 114.319C213.678 113.677 213.651 113.036 213.626 112.395C213.574 111.089 213.464 109.785 213.354 108.481C213.233 107.045 213.112 105.61 213.069 104.172C212.935 99.6922 211.405 95.5849 209.814 91.3171L209.629 90.8211ZM206.598 105.647C204.082 103.681 201.13 103.278 197.886 103.605C197.585 103.658 197.329 103.719 197.093 103.774L197.092 103.774L197.092 103.774C196.894 103.821 196.709 103.864 196.522 103.898C193.457 104.456 190.829 105.707 189.023 108.397C188.834 108.68 188.126 108.823 187.735 108.725C186.012 108.293 184.413 108.257 183.075 109.649C182.909 109.822 182.755 110.006 182.602 110.19C182.531 110.274 182.46 110.359 182.388 110.442C182.361 110.319 182.323 110.195 182.286 110.071C182.205 109.803 182.124 109.535 182.146 109.277C182.414 106.199 180.94 104.282 178.255 102.988C175.742 101.777 173.103 101.519 170.389 101.522C166.255 101.527 162.734 104.204 161.281 108.119C160.394 110.51 160.634 112.835 161.4 115.043C162.147 117.198 162.996 119.503 165.216 120.698C165.497 120.849 165.78 121.008 166.065 121.168C167.369 121.899 168.711 122.652 170.099 122.818C170.224 122.833 170.349 122.849 170.475 122.864C172.534 123.116 174.742 123.387 176.688 121.997C179.628 119.897 181.232 116.927 182.083 113.558C182.485 111.967 183.296 111.011 184.714 110.375C186.847 109.419 188.186 110.26 188.408 112.469C188.669 115.054 189.238 117.596 190.752 119.81C192.527 122.404 194.937 123.981 197.911 125.078C201.497 126.4 204.073 125.595 206.672 123.493C211.503 119.586 211.984 109.855 206.598 105.647ZM195.379 105.764C197.405 105.16 199.605 104.965 201.751 105.537C204.189 105.72 205.789 107.094 206.97 108.764C208.156 110.439 209.231 112.338 209.155 114.51C209.074 116.839 208.198 118.937 206.734 120.769C205.478 122.342 203.842 123.347 201.902 123.778C201.495 123.868 201.037 123.75 200.586 123.634C200.425 123.593 200.264 123.551 200.107 123.52C194.942 122.484 191.484 119.656 190.455 114.292C190.389 113.95 190.306 113.611 190.223 113.273L190.223 113.273L190.223 113.272L190.223 113.272L190.223 113.272L190.223 113.272L190.223 113.272C189.889 111.912 189.559 110.567 190.393 109.114C191.535 107.125 193.471 106.333 195.379 105.764ZM180.342 109.268C180.664 112.001 179.78 114.458 178.563 116.834C178.318 117.159 178.108 117.469 177.909 117.761C177.618 118.189 177.353 118.58 177.04 118.93C175.321 120.855 173.266 121.46 170.659 120.91C168.832 120.525 167.206 120.052 165.686 118.889C163.855 117.488 163.07 115.556 162.545 113.522C161.708 110.281 162.848 107.561 165.171 105.234C167.047 103.356 169.419 103.122 171.789 103.36C174.07 103.589 176.298 104.156 178.311 105.505C179.754 106.473 180.164 107.755 180.342 109.268ZM179.752 97.956C181.264 98.0411 182.52 97.8813 183.665 96.9568C183.875 96.7874 184.315 96.9033 184.755 97.0192C184.957 97.0724 185.159 97.1255 185.339 97.1511C185.254 97.2489 185.172 97.3498 185.09 97.4507C184.913 97.6689 184.736 97.887 184.53 98.0731C182.614 99.8049 180.506 99.6839 178.174 98.9624C176.135 98.3317 173.994 97.8451 171.873 97.7134C168.687 97.5156 165.962 98.7551 163.832 101.212C163.648 101.424 163.363 101.549 163.078 101.673C162.946 101.731 162.814 101.789 162.692 101.855C162.731 101.683 162.753 101.497 162.775 101.311C162.822 100.909 162.869 100.508 163.086 100.251C166.642 96.0474 171.271 95.8735 176.172 96.9219C176.859 97.0688 177.532 97.2806 178.233 97.5014C178.721 97.6548 179.222 97.8126 179.752 97.956ZM203.216 99.0194C200.32 98.5754 197.438 98.6255 194.839 100.557C194.46 100.837 194.087 101.105 193.719 101.369L193.718 101.37L193.718 101.37L193.718 101.37L193.717 101.37L193.717 101.37L193.717 101.371C192.98 101.899 192.268 102.409 191.591 102.962C191.438 103.087 191.415 103.37 191.391 103.653C191.38 103.784 191.369 103.914 191.346 104.029C191.448 104.016 191.554 104.011 191.661 104.007C191.897 103.997 192.133 103.988 192.314 103.883C192.833 103.582 193.304 103.193 193.768 102.808L193.79 102.79C196.674 100.405 199.878 99.4425 203.57 100.511C204.854 100.882 206.148 101.224 207.455 101.497C207.667 101.541 207.912 101.428 208.157 101.316C208.269 101.264 208.382 101.212 208.491 101.175C208.408 101.087 208.33 100.984 208.252 100.881C208.082 100.658 207.913 100.435 207.692 100.359C207.412 100.263 207.132 100.163 206.852 100.063L206.851 100.063C205.655 99.6372 204.452 99.2089 203.216 99.0194ZM187.556 130.138C185.813 130.262 184.143 130.363 182.477 130.315C182.256 130.309 182.044 130.03 181.831 129.75C181.733 129.621 181.634 129.492 181.535 129.39C181.664 129.336 181.791 129.269 181.919 129.202C182.196 129.056 182.474 128.91 182.758 128.897C184.292 128.828 185.831 128.833 187.367 128.85C187.734 128.854 188.1 128.913 188.466 128.972L188.466 128.972C188.633 128.999 188.801 129.025 188.968 129.047C188.522 129.386 188.076 129.725 187.556 130.138ZM196.77 108.735C195.711 109.911 195.827 112.387 197.069 113.638C199.587 113.712 201.098 111.187 199.925 109.062C199.274 107.883 197.685 107.718 196.77 108.735ZM174.4 107.172C174.931 108.738 174.584 110.36 173.402 111.233C173.058 111.487 172.188 111.567 171.945 111.33C170.579 109.996 170.35 107.739 172.305 106.567C173.196 106.034 173.831 106.281 174.4 107.172ZM270.731 100.013C271.499 101.167 272.273 102.329 273.323 103.324C273.392 105.578 273.412 107.681 272.833 109.737C272.73 110.105 272.806 110.452 272.884 110.803C272.947 111.088 273.36 111.294 273.601 111.157C273.912 110.98 274.219 110.792 274.511 110.585C274.707 110.446 274.903 110.305 275.098 110.165C275.926 109.567 276.754 108.969 277.68 108.519C277.792 108.465 277.905 108.411 278.018 108.356C278.448 108.15 278.878 107.944 279.288 107.704C279.741 107.437 280.181 107.4 280.667 107.566C282.342 108.137 284.071 108.491 285.799 108.845C286.075 108.902 286.35 108.958 286.626 109.016C286.709 109.033 286.791 109.052 286.874 109.07C287.085 109.118 287.295 109.165 287.509 109.191C288.196 109.277 288.886 109.344 289.575 109.41C290.68 109.516 291.784 109.623 292.88 109.809C293.115 109.849 293.364 109.866 293.599 109.835C294.156 109.761 294.715 109.711 295.275 109.661C296.393 109.561 297.511 109.462 298.602 109.171C299.349 108.972 300.089 108.749 300.83 108.527C301.126 108.438 301.422 108.349 301.718 108.262C301.856 108.221 301.993 108.18 302.131 108.14C302.915 107.909 303.7 107.677 304.482 107.439C304.71 107.37 304.936 107.285 305.149 107.178C305.333 107.085 305.518 106.993 305.703 106.901C307.236 106.138 308.767 105.375 310.158 104.341C310.333 104.21 310.51 104.084 310.687 103.957C311.242 103.562 311.795 103.167 312.269 102.665C312.556 102.361 312.876 102.086 313.194 101.813L313.198 101.809C314.119 101.018 314.86 100.072 315.543 99.0787C316.397 97.8364 316.746 96.4001 317.094 94.9654L317.114 94.8828C317.072 94.3727 317.17 93.8813 317.269 93.3897C317.311 93.1751 317.354 92.9605 317.385 92.7443C317.822 89.7265 317.434 86.8723 315.634 84.3089C315.414 83.996 315.233 83.6561 315.051 83.3163C314.977 83.1776 314.903 83.0389 314.826 82.902C314.384 82.1114 313.888 81.3593 313.241 80.7175C311.828 79.3157 310.334 78.0252 308.574 77.0533C307.324 76.3634 306.022 75.8013 304.718 75.238C304.423 75.1108 304.128 74.9834 303.833 74.8546C301.546 73.8538 299.164 73.2971 296.7 73.0466C295.941 72.9696 295.178 72.9298 294.415 72.8901C294.036 72.8703 293.657 72.8506 293.278 72.8263C291.174 72.6905 289.067 72.6439 286.964 72.8121C285.166 72.9555 283.371 73.1266 281.576 73.2976C281.217 73.3318 280.859 73.366 280.5 73.3999C280.326 73.4164 280.149 73.4846 279.989 73.5607C279.147 73.9609 278.277 74.2952 277.408 74.6295C276.934 74.8119 276.46 74.9943 275.99 75.1874C273.945 76.0281 272.19 77.2345 270.945 79.1083C270.765 79.3793 270.568 79.6385 270.37 79.8976C270.203 80.117 270.036 80.3364 269.88 80.563C268.745 82.2062 267.779 83.9341 267.38 85.9181C267.302 86.3072 267.256 86.7026 267.21 87.0981C267.179 87.3596 267.149 87.6212 267.109 87.8811C266.908 89.1943 266.896 90.4848 267.162 91.8088C267.616 94.0763 268.549 96.15 269.504 98.2244C269.529 98.2783 269.564 98.3289 269.6 98.3772C269.995 98.9076 270.363 99.4592 270.731 100.013ZM274.432 108.505C274.423 108.505 274.413 108.506 274.404 108.507C274.398 108.518 274.412 108.534 274.447 108.553C274.442 108.537 274.437 108.521 274.432 108.505ZM274.58 108.499C274.53 108.5 274.48 108.5 274.432 108.505C274.331 108.162 274.386 107.817 274.483 107.488C274.718 106.684 274.821 105.858 274.923 105.032C274.984 104.545 275.045 104.058 275.132 103.575C275.188 103.271 275.119 102.961 274.797 102.812C273.771 102.338 273.101 101.478 272.46 100.609C271.926 99.8852 271.418 99.1287 271.003 98.3318C270.616 97.5905 270.33 96.7896 270.068 95.9927C269.73 94.9652 269.438 93.9212 269.166 92.8738C268.922 91.9366 268.898 90.9693 268.907 90.0054C268.908 89.7964 268.923 89.5871 268.937 89.3778C268.955 89.1056 268.974 88.8335 268.965 88.5622C268.867 85.6006 270.058 83.0668 271.578 80.6442C272.533 79.122 273.904 78.0099 275.469 77.2215C277.289 76.3041 279.181 75.4999 281.193 75.0705C283.075 74.6689 284.969 74.336 286.902 74.2713C287.617 74.2474 288.323 74.2088 289.03 73.9657C289.518 73.798 290.076 73.8023 290.614 73.8066C290.681 73.8071 290.747 73.8076 290.813 73.8078C291.534 73.8101 292.258 73.8583 292.974 73.9379C293.037 73.9448 293.1 73.9518 293.162 73.9588C293.876 74.0386 294.588 74.1182 295.311 74.1276C295.791 74.1342 296.274 74.2393 296.75 74.3429C296.804 74.3547 296.858 74.3665 296.912 74.3781C298.173 74.6498 299.397 75.0488 300.621 75.4478C301.398 75.7009 302.174 75.954 302.96 76.1746C303.41 76.3944 303.861 76.6133 304.311 76.8321C305.319 77.322 306.327 77.8118 307.33 78.312C309.286 79.2869 310.841 80.7778 312.394 82.267L312.559 82.4249C313.63 83.4502 314.265 84.7588 314.739 86.1243C315.19 87.4279 315.504 88.774 315.598 90.1702C315.756 92.4967 315.356 94.7096 314.532 96.8828C313.673 99.1463 312.285 101.026 310.372 102.439C307.9 104.265 305.208 105.742 302.27 106.71C301.017 107.123 299.765 107.535 298.465 107.807C296.504 108.216 294.525 108.25 292.539 108.271C292.458 108.272 292.376 108.268 292.295 108.264C292.196 108.26 292.097 108.255 291.997 108.259C288.389 108.393 284.963 107.506 281.575 106.404C281.251 106.299 280.924 106.205 280.596 106.111C280.404 106.056 280.212 106.001 280.021 105.944C279.65 105.833 279.303 105.895 278.989 106.107C278.383 106.515 277.735 106.847 277.085 107.18C276.343 107.56 275.6 107.941 274.922 108.434C274.838 108.496 274.709 108.498 274.58 108.499Z" fill="#00160A"/>
<path fill-rule="evenodd" clip-rule="evenodd" d="M231.495 203.814C231.755 203.586 232.02 203.353 232.298 203.122C232.482 202.88 232.67 202.649 232.854 202.422C233.302 201.872 233.726 201.351 234.023 200.765C234.76 199.311 234.368 198.787 232.815 198.09C232.106 197.772 231.457 197.328 230.805 196.883C230.379 196.592 229.952 196.301 229.508 196.044L229.408 195.986C228.807 195.637 228.152 195.257 227.497 195.203C224.073 194.92 221.139 199.438 222.503 202.71C223.913 206.092 226.723 207.115 229.665 205.26C230.309 204.854 230.888 204.346 231.495 203.814ZM223.745 201.333C223.653 200.192 223.81 199.148 224.642 198.291C224.857 198.127 225.039 198.008 225.198 197.904C225.353 197.803 225.487 197.716 225.608 197.615C227.048 196.415 227.973 196.493 229.405 197.657C230.252 198.345 231.262 198.879 232.274 199.3C233.051 199.624 233.13 200.066 232.652 200.525C232.347 200.817 232.047 201.118 231.745 201.42L231.745 201.42L231.745 201.42C230.682 202.483 229.611 203.554 228.351 204.286C226.433 205.401 223.929 203.623 223.745 201.333ZM136.645 203.494L136.864 203.299L136.864 203.299C138.097 202.205 139.278 201.156 140.6 200.331C142.068 199.415 143.737 199.807 145.028 201.015C147.013 202.872 148.329 202.656 149.625 201.072C149.749 200.919 149.887 200.768 150.045 200.654C150.217 200.53 150.388 200.393 150.56 200.256C151.329 199.64 152.12 199.008 153.177 199.414C154.479 199.914 155.003 201.098 155.414 202.445C156.351 205.515 154.446 208.123 152.062 209.483C149.322 211.045 146.37 211.654 143.343 212.107C141.167 212.432 136.977 210.542 136.034 209.002C134.817 207.016 135.559 205.327 136.645 203.494ZM149.428 208.994C149.555 208.93 149.683 208.867 149.81 208.804C152.052 207.696 154.281 206.593 153.904 203.37C153.884 203.199 153.875 203.021 153.865 202.842V202.842C153.822 202.032 153.778 201.215 152.763 201.111C152.117 201.045 151.264 201.586 150.729 202.091C148.512 204.183 146.672 204.381 144.347 202.189C143.638 201.52 142.844 200.827 141.495 201.36C139.148 202.289 138.104 204.223 137.302 206.29C136.937 207.233 137.031 208.557 138.444 209.002C138.864 209.134 139.285 209.292 139.707 209.45C140.785 209.854 141.869 210.261 142.94 210.241C144.635 210.209 146.323 209.779 148.087 209.329L148.087 209.329C148.529 209.217 148.975 209.103 149.428 208.994ZM199.299 284.877C199.239 284.998 199.181 285.119 199.122 285.24C198.158 287.226 197.225 289.147 195.058 289.992C192.802 290.873 189.158 291.162 187.386 288.91C186.335 287.575 186.266 285.802 187.443 284.536C187.816 284.135 188.211 283.746 188.607 283.357C189.609 282.369 190.615 281.379 191.258 280.195C191.872 279.063 192.147 277.747 192.422 276.43C192.548 275.823 192.675 275.215 192.835 274.625C193.344 272.749 193.878 270.848 195.721 269.806C197.049 269.055 198.106 269.543 199.098 270.753C200.899 272.949 200.727 275.43 200.557 277.887C200.513 278.523 200.469 279.159 200.459 279.786C200.441 281.009 200.076 282.227 199.702 283.474L199.701 283.474L199.701 283.474L199.701 283.474L199.701 283.475L199.701 283.475L199.701 283.475L199.701 283.475L199.701 283.475L199.701 283.475L199.701 283.475L199.701 283.476L199.701 283.476L199.701 283.476C199.562 283.938 199.422 284.405 199.299 284.877ZM194.913 275.29C194.883 275.477 194.853 275.666 194.823 275.854C194.505 277.875 194.183 279.914 192.811 281.542C191.772 282.777 190.597 283.92 189.363 284.961C188.197 285.944 187.997 287.103 189.046 288.151C190.892 289.996 195.37 289.157 196.675 286.633C197.45 285.134 198.108 283.554 198.629 281.949C199.593 278.978 198.996 276.074 197.9 273.256C197.735 272.829 197.268 272.271 196.905 272.243C196.563 272.216 196.088 272.754 195.826 273.146C195.448 273.713 195.211 274.372 194.913 275.29ZM195.114 213.256C193.751 212.276 192.455 212.261 191.055 212.581C188.765 213.105 186.289 215.774 186.289 218.506C186.289 221.256 187.513 223.268 189.768 224.566C191.945 225.818 194.236 226.691 196.936 226.444C200.097 226.155 202.487 224.917 203.78 222.027C204.049 221.426 204.023 220.692 203.998 219.959C203.987 219.623 203.975 219.287 203.992 218.964C203.714 218.965 203.427 218.944 203.141 218.923C202.497 218.876 201.853 218.829 201.304 219.035C200.282 219.42 199.736 219.067 199.393 218.304C198.444 216.197 197.007 214.615 195.114 213.256ZM190.312 214.818C191.629 214.198 194.056 213.507 195.496 214.818C196.936 216.128 197.481 217.357 197.843 218.197C198.716 220.223 199.944 220.89 202.018 220.332C202.214 220.279 202.423 220.279 202.633 220.279C202.73 220.279 202.827 220.279 202.923 220.274C202.894 220.37 202.867 220.467 202.841 220.564C202.784 220.774 202.727 220.983 202.64 221.179C200.591 225.82 194.006 225.127 190.928 223.168C189.05 221.973 187.983 220.415 188.074 218.143C188.137 216.569 188.956 215.456 190.312 214.818ZM203.758 251.581C203.408 251.877 203.076 252.191 202.749 252.5C202.011 253.198 201.298 253.873 200.455 254.27C198.613 255.14 196.647 254.693 194.855 253.811C191.831 252.324 189.965 250.062 190.152 246.483C190.285 243.933 191.808 242.445 193.865 241.219C195.6 240.184 197.293 239.967 199.107 240.84C200.463 241.493 200.836 242.757 201.204 244.006C201.278 244.256 201.352 244.505 201.433 244.749C201.539 245.066 201.568 245.409 201.596 245.752C201.627 246.126 201.658 246.498 201.788 246.833C201.977 247.319 202.434 247.92 202.889 248.046C205.131 248.667 205.354 249.217 203.942 251.108C203.905 251.159 203.886 251.224 203.863 251.302C203.84 251.382 203.813 251.475 203.758 251.581ZM200.859 251.804C200.924 251.771 200.991 251.741 201.058 251.711C201.203 251.646 201.347 251.582 201.466 251.485C202.882 250.328 202.878 250.325 201.516 249.144L201.444 249.082C201.046 248.737 200.723 248.19 200.587 247.677C200.446 247.148 200.349 246.602 200.252 246.058C200.095 245.176 199.939 244.298 199.598 243.495C199.295 242.783 198.315 242.06 197.533 241.912C195.934 241.611 192.408 244.462 192.266 246.091C192.076 248.287 192.735 250.158 194.774 251.387C196.687 252.541 198.593 253.208 200.859 251.804ZM119.236 224.067C122.514 221.963 124.613 219.169 125.05 215.088C125.05 214.726 125.063 214.378 125.075 214.039L125.075 214.039C125.1 213.314 125.124 212.636 125.022 211.978C124.799 210.55 124.329 209.161 122.358 209.48C121.394 209.636 120.404 210.079 119.592 210.636C117.913 211.787 117.347 213.692 116.808 215.504L116.76 215.667C115.961 218.344 114.723 220.229 111.549 220.227C110.996 220.227 110.096 221.266 109.955 221.949C109.57 223.808 111.425 225.716 113.419 225.792C115.555 225.874 117.427 225.229 119.236 224.067ZM115.012 224.185L115.012 224.185C114.839 224.223 114.666 224.26 114.497 224.304C113.061 224.464 112.377 223.713 111.716 222.989L111.716 222.989C111.664 222.932 111.613 222.875 111.561 222.819C111.455 222.705 111.511 222.238 111.643 222.142L111.739 222.072C112.156 221.768 112.608 221.438 113.086 221.357C115.5 220.946 116.836 219.541 117.671 217.258C118.375 215.335 119.432 213.509 120.569 211.798C120.933 211.251 122.07 210.99 122.821 211.044C123.115 211.066 123.517 212.311 123.533 213.006C123.656 218.497 120.604 221.917 116.099 223.875C115.757 224.024 115.384 224.105 115.012 224.185ZM121.409 237.311C121.994 235.539 123.268 234.404 124.525 233.285C124.97 232.889 125.412 232.495 125.821 232.076C126.632 231.243 128.502 232.334 128.916 233.744C129.089 234.333 129.257 234.924 129.426 235.514L129.426 235.514C129.851 237.002 130.276 238.49 130.77 239.955C131.198 241.226 131.021 242.22 130.11 243.214C129.421 243.967 128.797 244.828 128.343 245.74C127.226 247.982 125.583 248.54 123.089 246.589C119.797 244.011 120.235 240.773 121.409 237.311ZM129.212 240.507L128.658 239.119C128.149 237.844 127.639 236.57 127.133 235.294C127.029 235.032 126.934 234.768 126.839 234.503L126.839 234.503L126.839 234.503L126.839 234.503L126.839 234.502L126.839 234.502L126.839 234.502L126.839 234.502L126.839 234.502L126.839 234.502L126.839 234.501C126.795 234.38 126.752 234.258 126.707 234.137C126.579 234.198 126.446 234.254 126.313 234.309C126.025 234.43 125.737 234.551 125.493 234.73C123.677 236.06 122.818 238.041 122.438 240.11C122.135 241.758 122.063 243.636 123.371 245C123.972 245.626 124.93 246 125.794 246.217C125.926 246.25 126.163 245.838 126.414 245.401C126.556 245.154 126.703 244.898 126.838 244.71C127.067 244.393 127.304 244.081 127.542 243.769C127.933 243.257 128.323 242.745 128.675 242.207C128.915 241.84 129.017 241.383 129.16 240.739C129.177 240.664 129.194 240.587 129.212 240.507ZM162.711 231.874C159.717 230.74 156.734 231.425 156.563 235.304C156.744 235.719 156.911 236.135 157.076 236.545C157.543 237.707 157.991 238.823 158.683 239.759C161.18 243.137 164.338 244.151 167.85 242.745C170.083 241.85 170.093 239.807 168.598 238.524C167.193 237.319 165.983 235.963 165.24 234.139C164.85 233.182 163.719 232.255 162.711 231.874ZM165.692 241.276C164.077 241.57 162.452 241.866 161.171 240.358C159.58 238.792 158.48 237.204 158.339 235.095C158.282 234.247 158.617 233.786 159.41 233.471C160.525 233.027 163.088 233.569 163.336 234.669C163.686 236.229 164.609 237.358 165.533 238.489C165.898 238.936 166.263 239.382 166.593 239.856C166.785 240.131 166.989 240.63 166.867 240.831C166.718 241.078 166.241 241.177 165.888 241.24L165.692 241.276ZM155.503 270.497L155.503 270.497C155.584 269.67 155.661 268.891 156.026 268.288C156.973 266.726 156.752 265.381 155.976 263.935C155.9 263.793 155.858 263.633 155.816 263.473C155.776 263.318 155.736 263.164 155.664 263.025C155.033 261.798 155.329 260.595 156.431 260.083C157.206 259.723 158.502 259.836 159.285 260.259C161.828 261.631 162.981 264.066 163.373 266.812C163.716 269.21 163.178 271.541 162.202 273.742C160.943 276.58 158.401 276.219 156.78 274.536C156.27 274.007 155.997 273.252 155.708 272.453L155.708 272.453C155.602 272.162 155.495 271.866 155.374 271.573C155.433 271.212 155.469 270.85 155.503 270.497L155.503 270.497L155.503 270.497L155.503 270.497L155.503 270.497L155.503 270.497L155.503 270.497ZM160.428 263.695C160.276 263.543 160.127 263.388 159.978 263.233C159.611 262.852 159.244 262.47 158.836 262.137C158.664 261.996 158.416 261.949 158.168 261.901L158.168 261.901C158.055 261.879 157.942 261.858 157.836 261.827C157.811 261.946 157.767 262.075 157.723 262.204C157.628 262.482 157.533 262.76 157.629 262.93C158.696 264.813 158.453 266.547 157.335 268.319C157.1 268.693 157.013 269.16 156.927 269.629C156.884 269.86 156.842 270.092 156.781 270.313C156.449 271.518 157.334 273.803 158.461 274.151C158.492 274.16 158.524 274.17 158.557 274.181C159.158 274.369 159.968 274.624 160.446 273.621C161.984 270.39 162.494 267.199 160.428 263.695ZM247.937 232.871C249.85 233.712 253.066 233.431 255.486 230.77C255.665 230.495 255.844 230.226 256.02 229.961C256.569 229.133 257.094 228.342 257.539 227.508C258.651 225.421 256.724 222.206 254.344 222.254C253.667 222.268 252.993 222.396 252.319 222.524C251.692 222.644 251.064 222.763 250.433 222.791C248.522 222.873 247.007 223.552 245.939 225.156C244.094 227.931 244.787 231.487 247.937 232.871ZM250.968 224.904C251.062 224.901 251.156 224.899 251.25 224.899C251.474 224.861 251.688 224.836 251.888 224.812C252.434 224.746 252.876 224.693 253.124 224.446C253.938 223.635 254.647 224.011 255.274 224.504C255.953 225.038 256.328 225.692 256.002 226.733C255.232 229.187 253.844 230.997 251.303 231.651C249.88 232.016 248.548 231.665 247.562 230.433C246.672 229.32 246.535 228.14 247.192 226.879C247.857 225.602 248.787 224.74 250.358 224.895C250.56 224.915 250.764 224.909 250.968 224.904ZM214.163 228.392C216.039 227.152 217.826 227.073 219.529 228.479C220.011 228.877 220.436 229.388 220.758 229.925C220.9 230.161 220.984 230.439 221.068 230.715L221.068 230.715C221.176 231.071 221.282 231.422 221.509 231.672C222.516 232.783 221.886 233.779 221.063 234.186C218.984 235.215 216.79 236.054 214.572 236.745C213.405 237.109 211.846 235.73 211.563 234.41C210.942 231.517 212.115 229.608 214.163 228.392ZM219.291 232.48C219.147 232.284 219.004 232.086 218.862 231.888L218.862 231.888L218.862 231.888L218.862 231.888L218.862 231.888L218.862 231.888C218.515 231.407 218.169 230.926 217.795 230.468L217.762 230.427C217.511 230.118 217.189 229.723 216.866 229.687C214.448 229.424 212.376 232.218 213.363 234.402C213.653 235.045 214.249 235.735 214.955 234.981C215.931 233.938 217.137 233.725 218.413 233.5L218.5 233.485C218.853 233.422 219.129 232.926 219.291 232.48ZM209.144 293.488L209.144 293.488C209.094 293.729 209.042 293.98 208.96 294.242C208.973 294.434 209.025 294.606 209.074 294.77C209.122 294.93 209.168 295.081 209.171 295.232C209.255 298.905 214.052 301.742 217.045 301.308C219.137 301.005 220.283 300.244 220.584 298.317C220.852 296.603 220.431 294.728 219.088 293.633C217.542 292.372 215.675 291.423 213.819 290.643C211.616 289.717 210.224 290.458 209.36 292.669C209.26 292.925 209.203 293.199 209.144 293.488ZM211.339 292.832C211.47 292.584 211.601 292.336 211.71 292.086C211.978 292.15 212.244 292.211 212.509 292.271C214.988 292.836 217.29 293.36 218.395 295.827C218.919 296.998 219.516 298.402 218.078 299.313C217.385 299.752 216.326 299.889 215.487 299.772C213.401 299.481 210.437 297.233 210.711 294.476C210.767 293.913 211.053 293.372 211.339 292.832ZM212.751 256.412C215.17 256.639 217.089 257.708 217.488 260.258C217.629 261.161 218.199 261.281 218.827 261.413C218.918 261.432 219.011 261.451 219.104 261.473C220.493 261.805 221.597 262.949 221.378 264.755C221.22 266.064 220.547 266.597 218.673 266.492C217.419 266.422 216.103 266.288 214.947 265.841C211.206 264.393 210.134 261.314 210.398 258.057C210.497 256.834 211.4 256.336 212.751 256.412ZM218.251 262.952C216.647 263.053 215.881 262.092 215.756 260.693C215.624 259.214 214.565 258.742 213.522 258.276L213.403 258.223C212.657 257.888 211.779 258.757 211.902 259.576C212.359 262.634 215.843 265.292 218.967 265.052C220.121 264.964 219.974 264.369 219.558 263.762C219.422 263.563 219.173 263.441 218.877 263.297L218.877 263.297C218.682 263.201 218.467 263.096 218.251 262.952ZM182.725 314.086C182.761 313.694 182.763 313.296 182.765 312.908C182.771 312.052 182.775 311.244 183.14 310.661C184.031 309.24 185.104 307.934 186.177 306.627C186.614 306.095 187.051 305.563 187.476 305.023C188.207 304.095 189.34 303.557 190.264 304.059C191.202 304.569 192.113 305.607 192.471 306.615C193.321 309.009 192.249 311.068 190.645 312.826C190.19 313.324 189.674 313.766 189.158 314.208L189.158 314.208C188.751 314.557 188.344 314.905 187.967 315.282C185.871 317.373 184.003 316.398 182.725 314.086ZM187.927 313.491C190.069 312.084 191.451 310.255 191.36 307.541C191.328 306.592 190.973 305.96 190.113 305.559C189.209 305.138 188.593 305.705 188.315 306.316C187.612 307.86 186.609 309.178 185.603 310.499L185.603 310.499C185.255 310.956 184.907 311.413 184.571 311.88C184.229 312.355 184.44 313.503 184.786 314.127C185.188 314.854 185.994 314.732 186.674 314.174C186.841 314.037 187.041 313.943 187.273 313.834C187.469 313.742 187.688 313.639 187.927 313.491ZM175.553 296.331C176.479 294.183 176.619 291.878 176.11 289.485C176.068 289.443 176.035 289.412 176.009 289.389C175.969 289.351 175.946 289.33 175.932 289.305C174.905 287.477 173.83 286.659 172.623 287.059C171.096 287.565 170.526 288.708 170.472 290.367C170.433 291.55 169.964 292.594 168.373 293.058C166.012 293.747 166.182 295.864 167.639 297.009C168.195 297.446 168.903 297.699 169.603 297.949C169.824 298.028 170.043 298.107 170.257 298.19C171.597 298.716 174.891 297.865 175.553 296.331ZM174.514 290.453C174.574 290.554 174.633 290.654 174.698 290.749C174.698 291.281 174.732 291.794 174.765 292.285C174.834 293.313 174.897 294.247 174.625 295.069C173.927 297.179 169.779 297.554 168.456 295.729C168.315 295.533 168.709 294.578 168.98 294.515C171.173 294.004 171.987 292.584 172.062 290.465C172.078 290.006 172.52 289.455 172.924 289.169C173.075 289.062 173.715 289.541 174.058 289.839C174.246 290.002 174.38 290.228 174.514 290.453Z" fill="#FFB61D"/>
</svg>
