<svg width="50" height="50" viewBox="0 0 50 50" fill="none" xmlns="http://www.w3.org/2000/svg">
<rect width="50" height="50" rx="15" fill="#F2C94C"/>
<path d="M36.9162 18.6978C36.9353 18.9885 36.9353 19.2793 36.9353 19.57C36.9353 28.4371 30.7488 38.654 19.4416 38.654C15.9581 38.654 12.7221 37.5533 10 35.6429C10.4949 35.7052 10.9708 35.726 11.4848 35.726C14.3591 35.726 17.0051 34.6669 19.118 32.8603C16.415 32.798 14.1497 30.8667 13.3693 28.2087C13.75 28.2709 14.1307 28.3125 14.5305 28.3125C15.0825 28.3125 15.6346 28.2294 16.1485 28.0841C13.3312 27.4611 11.2182 24.7615 11.2182 21.5012V21.4182C12.0367 21.9166 12.9886 22.2281 13.9974 22.2696C12.3413 21.0651 11.2563 19.0093 11.2563 16.6835C11.2563 15.4376 11.5608 14.2954 12.0938 13.2986C15.1205 17.3688 19.67 20.0268 24.7715 20.3176C24.6763 19.8192 24.6192 19.3001 24.6192 18.7809C24.6192 15.0845 27.3603 12.0735 30.7677 12.0735C32.538 12.0735 34.1369 12.8834 35.2601 14.1916C36.6496 13.9009 37.9821 13.3402 39.1623 12.5719C38.7054 14.1294 37.7346 15.4376 36.4593 16.2682C37.6966 16.1229 38.8959 15.749 39.9999 15.2299C39.1625 16.5589 38.1154 17.7425 36.9162 18.6978Z" fill="white"/>
</svg>
