<?xml version="1.0" encoding="UTF-8"?>
<!DOCTYPE svg PUBLIC "-//W3C//DTD SVG 1.1//EN" "http://www.w3.org/Graphics/SVG/1.1/DTD/svg11.dtd">
<!-- Creator: CorelDRAW 2019 (64-Bit) -->
<svg xmlns="http://www.w3.org/2000/svg" xml:space="preserve" width="140mm" height="46mm" version="1.1" style="shape-rendering:geometricPrecision; text-rendering:geometricPrecision; image-rendering:optimizeQuality; fill-rule:evenodd; clip-rule:evenodd" viewBox="0 0 14000 4600" xmlns:xlink="http://www.w3.org/1999/xlink">
 <defs>
  <style type="text/css">
   <![CDATA[
    .fil2 {fill:#EF7F1A}
    .fil1 {fill:#EF7F1A;fill-rule:nonzero}
    .fil0 {fill:#1C1B17;fill-rule:nonzero}
   ]]>
  </style>
 </defs>
 <g id="Слой_x0020_1">
  <metadata id="CorelCorpID_0Corel-Layer"/>
  <g id="_72759152">
   <path class="fil0" d="M4071.19 779.74c204.46,0 303.64,129.15 328.35,314.02l0 1501.89c0,166.56 -79.86,273.73 -238.24,322.21 -26.61,12.98 -66.21,19.79 -118.09,19.79l-3696 0c-183.72,0 -273.37,-107.18 -271.69,-238.24l7.01 -545.1c2.62,-203.76 154.08,-290.5 328.85,-290.5l2994.21 0c189.09,0 314.02,-95.56 373.41,-286.03 20.73,-193.1 -43.98,-396.46 -273.76,-418.48l-99.65 -9.56 -3094.56 0c-116.04,0 -215.65,-38.03 -228,-132.43 -20.29,-154.97 48.78,-217.11 210.26,-237.57l3777.9 0zm-3147.8 1796.11l2609.86 0c135.85,0 217.77,-40.96 245.75,-122.22 23.22,-135.2 -75.45,-219.81 -209.56,-219.81l-2609.86 0c-136.55,0 -218.45,40.96 -246.46,123.56 -26.87,136.36 76.84,218.47 210.27,218.47zm8881.56 -1776.32l3770.39 0c240.94,0 342.01,180.5 342.01,397.99l0 1438.39c0,392.39 -672.42,394.19 -672.42,55.99l0 -1296.4c0,-155.75 -180.94,-228.02 -303.78,-228.02l-634.2 0c-180.58,0 -290.75,115.99 -314.02,284.01l0 1212.4c0,357.23 -633.53,361.32 -633.53,28.01l0 -1296.4c0,-155.53 -181.8,-228.02 -304.48,-228.02l-633.52 0c-180.34,0 -292.19,115.35 -314.03,284.01l0 1212.4c0,345.57 -634.2,362.96 -634.2,28.01l0 -1580.38c0,-180.92 109.01,-311.99 331.78,-311.99z"/>
   <path class="fil1" d="M8695.61 21.97l261.46 0c124.25,0 186.35,56.67 186.35,171.35l0 2430.31c0,184.32 -108.54,288.75 -326.31,314.03l-3791.55 0c-217.77,-25.28 -326.32,-129.71 -326.32,-314.03l0 -647.86c5.22,-294.01 10.25,-590.63 10.25,-886.12 0,-185.68 108.54,-290.82 325.63,-316.05l863.66 0 192.53 0 96.23 0c65.1,0 118.36,53.26 118.36,118.36l0 135.32c0,65.1 -53.26,118.36 -118.36,118.36l-96.23 0 -192.53 0 -229.45 0c-139.96,0 -243.03,66.91 -307.88,200.01 -19.13,66.9 -28,133.14 -28,200.04l0 705.88c0,184.33 109.22,288.76 327.67,314.03l2520.43 0c218.46,-25.27 327.68,-129.7 327.68,-314.03l0 -781.65c0,-216.4 -158.38,-324.28 -475.81,-324.28l-93.88 0 -216.02 0 -72.74 0c-65.1,0 -118.36,-53.26 -118.36,-118.36l0 -135.32c0,-65.1 53.26,-118.36 118.36,-118.36l72.74 0 216.02 0 242.01 0c218.46,-23.92 327.68,-128.35 327.68,-314.04l0 -266.24c0,-114.68 62.12,-171.35 186.38,-171.35z"/>
   <path class="fil2" d="M6718.94 274.56l395.5 0c89.49,0 162.7,73.21 162.7,162.7l0 1093.81c0,89.48 -73.21,162.69 -162.7,162.69l-395.5 0c-89.49,0 -162.7,-73.21 -162.7,-162.69l0 -1093.81c0,-89.49 73.21,-162.7 162.7,-162.7z"/>
  </g>
  <path class="fil0" d="M4714.31 4548.01l0 -863.17 263.81 0c105.77,0 193.1,35.26 262.2,105.57 69.09,70.31 103.74,160.68 103.74,270.9l0 110.84c0,110.22 -34.65,200.39 -103.74,270.7 -69.1,70.11 -156.43,105.16 -262.2,105.16l-263.81 0zm71.73 -59.57l192.08 0c85.51,0 155.82,-29.79 211.14,-89.56 55.31,-59.57 83.07,-135.15 83.07,-226.33l0 -112.66c0,-90.16 -27.76,-165.13 -83.28,-224.7 -55.51,-59.78 -125.82,-89.56 -210.93,-89.56l-192.08 0 0 742.81zm764.49 59.57l0 -863.17 71.73 0 0 863.17 -71.73 0zm286.3 -356.21l0 -158.45c0,-106.78 30.8,-193.71 92.19,-260.98 61.39,-67.27 140.82,-100.9 238.28,-100.9 94.02,0 168.58,24.72 223.9,74.16 53.9,48.22 81.05,109.01 81.05,182.16 0,2.22 0,4.45 0,6.48l-1.83 3.44 -66.46 0c0,-59.57 -20.66,-108.8 -61.79,-147.51 -41.14,-38.7 -99.29,-57.94 -174.87,-57.94 -77.6,0 -140.01,28.16 -187.62,84.29 -47.42,56.12 -71.13,128.05 -71.13,215.99l0 159.46c0,90.17 24.72,164.13 74.16,221.87 49.44,57.75 113.88,86.73 193.51,86.73 60.38,0 109.82,-9.12 148.32,-27.36 38.29,-18.23 65.04,-39.31 80.03,-63.62l0 -221.47 -230.99 0 0 -60.78 302.72 0 0 304.34c-19.05,31.2 -54.3,60.38 -105.77,87.53 -51.26,27.35 -116.1,40.93 -194.31,40.93 -99.49,0 -180.94,-34.25 -244.36,-102.73 -63.42,-68.29 -95.03,-156.83 -95.03,-265.64zm879.58 356.21l0 -863.17 71.73 0 0 863.17 -71.73 0zm213.15 -802.38l0 -60.79 667.44 0 0 60.79 -292.99 0 0 802.38 -71.73 0 0 -802.38 -302.72 0zm671.69 802.38l317.71 -863.17 67.07 0 315.08 863.17 -73.56 0 -86.11 -240.71 -379.31 0 -87.12 240.71 -73.76 0zm183.58 -303.93l333.51 0 -163.92 -457.72 -3.44 0 -166.15 457.72zm650.21 303.93l0 -863.17 71.73 0 0 803.6 444.96 0 0 59.57 -516.69 0zm877.15 0l317.71 -863.17 67.07 0 315.08 863.17 -73.56 0 -86.11 -240.71 -379.31 0 -87.12 240.71 -73.76 0zm183.58 -303.93l333.51 0 -163.92 -457.72 -3.44 0 -166.15 457.72zm619.21 -52.28l0 -158.45c0,-106.78 30.8,-193.71 92.19,-260.98 61.39,-67.27 140.82,-100.9 238.28,-100.9 94.02,0 168.58,24.72 223.9,74.16 53.9,48.22 81.05,109.01 81.05,182.16 0,2.22 0,4.45 0,6.48l-1.83 3.44 -66.46 0c0,-59.57 -20.66,-108.8 -61.79,-147.51 -41.14,-38.7 -99.29,-57.94 -174.87,-57.94 -77.6,0 -140.01,28.16 -187.62,84.29 -47.42,56.12 -71.13,128.05 -71.13,215.99l0 159.46c0,90.17 24.72,164.13 74.16,221.87 49.44,57.75 113.88,86.73 193.51,86.73 60.38,0 109.82,-9.12 148.32,-27.36 38.29,-18.23 65.04,-39.31 80.03,-63.62l0 -221.47 -230.99 0 0 -60.78 302.72 0 0 304.34c-19.05,31.2 -54.3,60.38 -105.77,87.53 -51.26,27.35 -116.1,40.93 -194.31,40.93 -99.49,0 -180.94,-34.25 -244.36,-102.73 -63.42,-68.29 -95.03,-156.83 -95.03,-265.64zm861.34 356.21l0 -863.17 515.47 0 0 60.79 -443.74 0 0 323.38 386.6 0 0 60.79 -386.6 0 0 358.64 446.78 0 0 59.57 -518.51 0zm670.27 0l0 -863.17 71.73 0 489.94 736.94 3.65 -0.61 0 -736.33 71.72 0 0 863.17 -71.72 0 -489.94 -738.76 -3.65 0.61 0 738.15 -71.73 0zm824.88 -361.68l0 -140.42c0,-110.02 29.58,-199.98 88.75,-269.69 59.16,-69.9 136.76,-104.75 233.21,-104.75 93.61,0 168.38,24.72 224.3,74.16 54.92,48.42 82.27,114.07 82.27,197.15 0,2.23 0,4.25 0,6.48l-1.22 3.04 -65.65 0c0,-69.29 -21.27,-123.19 -63.82,-161.89 -42.35,-38.7 -101.11,-58.15 -175.88,-58.15 -75.37,0 -135.96,29.17 -181.75,87.73 -45.59,58.56 -68.49,133.53 -68.49,224.91l0 141.84c0,92.59 22.9,167.97 68.49,226.32 45.79,58.36 106.38,87.54 181.75,87.54 74.77,0 133.53,-19.05 175.88,-56.94 42.55,-38.09 63.82,-93.21 63.82,-165.54l65.65 0 1.22 3.65c0,2.22 0,4.66 0,7.09 0,81.25 -27.56,146.49 -82.87,195.53 -56.74,50.45 -131.3,75.78 -223.7,75.78 -96.45,0 -174.05,-34.65 -233.21,-104.15 -59.17,-69.3 -88.75,-159.26 -88.75,-269.69zm724.37 -501.49l82.47 0 266.65 479.61 268.07 -479.61 82.67 0 -315.28 547.69 0 315.48 -71.73 0 0 -318.32 -312.85 -544.85z"/>
 </g>
</svg>