<svg width="25" height="25" viewBox="0 0 25 25" fill="none" xmlns="http://www.w3.org/2000/svg">
<path d="M12.5 0C5.59652 0 0 5.59652 0 12.5C0 19.4035 5.59652 25 12.5 25C19.4035 25 25 19.4035 25 12.5C24.9923 5.59977 19.4002 0.00773115 12.5 0ZM12.5 24.1667C6.05672 24.1667 0.833333 18.9433 0.833333 12.5C0.833333 6.05672 6.05672 0.833333 12.5 0.833333C18.9433 0.833333 24.1667 6.05672 24.1667 12.5C24.1593 18.9402 18.9402 24.1593 12.5 24.1667Z" fill="white"/>
<path d="M17.9167 5H7.08333C5.93323 5.00142 5.00142 5.93323 5 7.08333V17.9167C5.00142 19.0668 5.93323 19.9986 7.08333 20H17.9167C19.0668 19.9986 19.9986 19.0668 20 17.9167V7.08333C19.9986 5.93323 19.0668 5.00142 17.9167 5ZM19.1667 17.9167C19.1667 18.607 18.607 19.1667 17.9167 19.1667H7.08333C6.39303 19.1667 5.83333 18.607 5.83333 17.9167V7.08333C5.83333 6.39303 6.39303 5.83333 7.08333 5.83333H17.9167C18.607 5.83333 19.1667 6.39303 19.1667 7.08333V17.9167Z" fill="white"/>
<path d="M12.4999 8.3335C10.1987 8.3335 8.33325 10.1989 8.33325 12.5002C8.33325 14.8014 10.1987 16.6668 12.4999 16.6668C14.8011 16.6668 16.6666 14.8014 16.6666 12.5002C16.6641 10.2 14.8001 8.33594 12.4999 8.3335ZM12.4999 15.8335C10.6589 15.8335 9.16659 14.3412 9.16659 12.5002C9.16659 10.6591 10.6589 9.16683 12.4999 9.16683C14.3409 9.16683 15.8333 10.6591 15.8333 12.5002C15.8312 14.3402 14.3399 15.8315 12.4999 15.8335Z" fill="white"/>
<path d="M17.0833 6.6665C16.3929 6.6665 15.8333 7.2262 15.8333 7.9165C15.8333 8.60681 16.3929 9.1665 17.0833 9.1665C17.7736 9.1665 18.3333 8.60681 18.3333 7.9165C18.3333 7.2262 17.7736 6.6665 17.0833 6.6665ZM17.0833 8.33317C16.8531 8.33317 16.6666 8.14661 16.6666 7.9165C16.6666 7.6864 16.8531 7.49984 17.0833 7.49984C17.3134 7.49984 17.4999 7.6864 17.4999 7.9165C17.4999 8.14661 17.3134 8.33317 17.0833 8.33317Z" fill="white"/>
</svg>
