<svg width="85" height="86" viewBox="0 0 85 86" fill="none" xmlns="http://www.w3.org/2000/svg">
<path d="M10.791 45.3867C10.791 45.6508 10.896 45.9041 11.0828 46.0908C11.2696 46.2776 11.5229 46.3825 11.7871 46.3825C12.0513 46.3825 12.3046 46.2776 12.4915 46.0908C12.6783 45.9041 12.7832 45.6508 12.7832 45.3867V31.31C12.7832 31.0459 12.6783 30.7926 12.4915 30.6059C12.3046 30.4191 12.0513 30.3142 11.7871 30.3142C11.5229 30.3142 11.2696 30.4191 11.0828 30.6059C10.896 30.7926 10.791 31.0459 10.791 31.31V45.3867Z" fill="#453E31"/>
<path d="M11.7871 28.4938C12.0513 28.4938 12.3046 28.3889 12.4915 28.2021C12.6783 28.0154 12.7832 27.7621 12.7832 27.498V26.5022C12.7832 26.2381 12.6783 25.9848 12.4915 25.798C12.3046 25.6113 12.0513 25.5063 11.7871 25.5063C11.5229 25.5063 11.2696 25.6113 11.0828 25.798C10.896 25.9848 10.791 26.2381 10.791 26.5022V27.498C10.791 27.7621 10.896 28.0154 11.0828 28.2021C11.2696 28.3889 11.5229 28.4938 11.7871 28.4938Z" fill="#453E31"/>
<path d="M42.5001 45.7782C42.0263 45.7801 41.5636 45.9222 41.1706 46.1868C40.7775 46.4513 40.4717 46.8263 40.2916 47.2645C40.1116 47.7027 40.0655 48.1844 40.159 48.6487C40.2526 49.1131 40.4817 49.5393 40.8174 49.8736C41.1532 50.2079 41.5804 50.4353 42.0453 50.527C42.5101 50.6188 42.9917 50.5707 43.4293 50.389C43.8669 50.2073 44.2408 49.9001 44.5039 49.5061C44.7669 49.1121 44.9073 48.649 44.9073 48.1753C44.9054 47.5385 44.6508 46.9285 44.1995 46.4791C43.7482 46.0298 43.1371 45.7777 42.5001 45.7782ZM42.5001 48.5808C42.4203 48.5789 42.3428 48.5536 42.2773 48.5079C42.2118 48.4623 42.1612 48.3983 42.1319 48.324C42.1027 48.2497 42.0959 48.1685 42.1126 48.0904C42.1293 48.0123 42.1687 47.9409 42.2258 47.8851C42.2829 47.8293 42.3553 47.7916 42.4337 47.7767C42.5122 47.7618 42.5933 47.7704 42.6669 47.8014C42.7405 47.8324 42.8033 47.8844 42.8474 47.9509C42.8916 48.0174 42.9152 48.0955 42.9152 48.1753C42.9138 48.2841 42.8693 48.3878 42.7915 48.4638C42.7137 48.5398 42.6089 48.5819 42.5001 48.5808Z" fill="#453E31"/>
<path d="M42.5001 34.553C42.0263 34.5548 41.5636 34.697 41.1706 34.9616C40.7775 35.2261 40.4716 35.6011 40.2916 36.0393C40.1116 36.4775 40.0655 36.9592 40.1591 37.4236C40.2527 37.888 40.4818 38.3142 40.8175 38.6485C41.1532 38.9828 41.5805 39.2101 42.0454 39.3018C42.5102 39.3935 42.9919 39.3455 43.4295 39.1638C43.867 38.982 44.241 38.6748 44.504 38.2807C44.767 37.8867 44.9074 37.4236 44.9074 36.9499C44.9053 36.3132 44.6508 35.7032 44.1995 35.2539C43.7482 34.8045 43.1371 34.5524 42.5001 34.553ZM42.5001 37.3556C42.4203 37.3537 42.3428 37.3284 42.2773 37.2827C42.2118 37.2371 42.1612 37.1731 42.132 37.0988C42.1027 37.0246 42.0959 36.9433 42.1126 36.8652C42.1293 36.7872 42.1687 36.7158 42.2258 36.66C42.2829 36.6042 42.3552 36.5665 42.4336 36.5515C42.5121 36.5366 42.5932 36.5452 42.6668 36.5761C42.7404 36.6071 42.8032 36.6591 42.8474 36.7256C42.8916 36.7921 42.9151 36.8701 42.9152 36.9499C42.9138 37.0587 42.8693 37.1625 42.7915 37.2385C42.7137 37.3146 42.6089 37.3567 42.5001 37.3556Z" fill="#453E31"/>
<path d="M42.5001 57.0032C42.0263 57.005 41.5636 57.1472 41.1706 57.4118C40.7775 57.6763 40.4717 58.0513 40.2916 58.4895C40.1116 58.9277 40.0655 59.4093 40.159 59.8737C40.2526 60.3381 40.4817 60.7643 40.8174 61.0986C41.1532 61.4329 41.5804 61.6603 42.0453 61.752C42.5101 61.8437 42.9917 61.7957 43.4293 61.614C43.8669 61.4323 44.2408 61.1251 44.5039 60.7311C44.7669 60.3371 44.9073 59.874 44.9073 59.4003C44.9054 58.7635 44.6508 58.1535 44.1995 57.7041C43.7482 57.2547 43.1371 57.0026 42.5001 57.0032ZM42.5001 59.8058C42.4203 59.8039 42.3428 59.7786 42.2773 59.7329C42.2118 59.6872 42.1612 59.6233 42.1319 59.549C42.1027 59.4747 42.0959 59.3934 42.1126 59.3154C42.1293 59.2373 42.1687 59.1659 42.2258 59.1101C42.2829 59.0543 42.3553 59.0166 42.4337 59.0017C42.5122 58.9868 42.5933 58.9954 42.6669 59.0264C42.7405 59.0574 42.8033 59.1094 42.8474 59.1759C42.8916 59.2424 42.9152 59.3205 42.9152 59.4003C42.9138 59.509 42.8693 59.6128 42.7915 59.6888C42.7137 59.7648 42.6089 59.8069 42.5001 59.8058Z" fill="#453E31"/>
<path d="M42.5001 68.2284C42.0263 68.2303 41.5636 68.3724 41.1706 68.637C40.7775 68.9015 40.4716 69.2766 40.2916 69.7148C40.1116 70.1529 40.0655 70.6346 40.1591 71.099C40.2527 71.5634 40.4818 71.9896 40.8175 72.3239C41.1532 72.6582 41.5805 72.8855 42.0454 72.9773C42.5102 73.069 42.9919 73.0209 43.4295 72.8392C43.867 72.6575 44.241 72.3502 44.504 71.9562C44.767 71.5621 44.9074 71.0991 44.9074 70.6253C44.9053 69.9886 44.6508 69.3786 44.1995 68.9293C43.7482 68.4799 43.1371 68.2279 42.5001 68.2284ZM42.5001 71.031C42.4203 71.0291 42.3428 71.0038 42.2773 70.9581C42.2118 70.9125 42.1612 70.8485 42.132 70.7742C42.1027 70.7 42.0959 70.6187 42.1126 70.5407C42.1293 70.4626 42.1687 70.3912 42.2258 70.3354C42.2829 70.2796 42.3552 70.2419 42.4336 70.227C42.5121 70.212 42.5932 70.2206 42.6668 70.2516C42.7404 70.2825 42.8032 70.3345 42.8474 70.401C42.8916 70.4675 42.9151 70.5455 42.9152 70.6253C42.9138 70.7341 42.8693 70.8379 42.7915 70.914C42.7137 70.99 42.6089 71.0321 42.5001 71.031Z" fill="#453E31"/>
<path d="M30.9555 63.928L24.1345 62.1926C24.0074 62.159 23.8748 62.151 23.7445 62.169C23.6142 62.187 23.4888 62.2306 23.3754 62.2973C23.262 62.364 23.163 62.4524 23.084 62.5576C23.0051 62.6627 22.9477 62.7825 22.9153 62.9099C22.8828 63.0374 22.876 63.17 22.8951 63.3001C22.9142 63.4302 22.9588 63.5552 23.0265 63.6679C23.0942 63.7807 23.1836 63.8789 23.2894 63.957C23.3953 64.035 23.5156 64.0913 23.6433 64.1226L30.4639 65.858C30.7193 65.9215 30.9895 65.8813 31.2153 65.7462C31.4412 65.6112 31.6044 65.3922 31.6694 65.1372C31.7343 64.8822 31.6956 64.6119 31.5618 64.3853C31.428 64.1588 31.21 63.9943 30.9553 63.928H30.9555Z" fill="#453E31"/>
<path d="M61.0606 62.1926L54.2398 63.928C54.1124 63.9596 53.9925 64.0162 53.887 64.0943C53.7815 64.1724 53.6925 64.2706 53.6251 64.3833C53.5577 64.4959 53.5133 64.6208 53.4943 64.7507C53.4754 64.8805 53.4823 65.0129 53.5147 65.1401C53.5471 65.2673 53.6043 65.3868 53.683 65.4918C53.7618 65.5969 53.8605 65.6853 53.9736 65.752C54.0867 65.8187 54.2118 65.8624 54.3418 65.8806C54.4718 65.8989 54.6042 65.8912 54.7312 65.8581L61.552 64.1227C61.6794 64.091 61.7993 64.0345 61.9048 63.9564C62.0103 63.8782 62.0993 63.78 62.1667 63.6674C62.2341 63.5547 62.2785 63.4299 62.2975 63.3C62.3165 63.1701 62.3095 63.0378 62.2772 62.9106C62.2448 62.7834 62.1875 62.6638 62.1088 62.5588C62.03 62.4538 61.9313 62.3654 61.8182 62.2987C61.7052 62.232 61.58 62.1882 61.45 62.17C61.32 62.1518 61.1876 62.1595 61.0606 62.1926Z" fill="#453E31"/>
<path d="M30.9555 72.2265L24.1345 70.4912C24.0074 70.4576 23.8748 70.4496 23.7445 70.4676C23.6142 70.4856 23.4888 70.5292 23.3754 70.5958C23.262 70.6625 23.163 70.751 23.084 70.8562C23.0051 70.9613 22.9477 71.0811 22.9153 71.2085C22.8828 71.3359 22.876 71.4685 22.8951 71.5986C22.9142 71.7287 22.9588 71.8538 23.0265 71.9665C23.0942 72.0793 23.1836 72.1775 23.2894 72.2555C23.3953 72.3336 23.5156 72.3899 23.6433 72.4212L30.4639 74.1566C30.7193 74.22 30.9895 74.1798 31.2153 74.0448C31.4412 73.9097 31.6044 73.6908 31.6694 73.4358C31.7343 73.1808 31.6956 72.9105 31.5618 72.6839C31.428 72.4573 31.21 72.2929 30.9553 72.2265H30.9555Z" fill="#453E31"/>
<path d="M61.0606 70.4912L54.2398 72.2266C54.1124 72.2582 53.9925 72.3147 53.887 72.3929C53.7815 72.471 53.6925 72.5692 53.6251 72.6819C53.5577 72.7945 53.5133 72.9194 53.4943 73.0492C53.4754 73.1791 53.4823 73.3115 53.5147 73.4387C53.5471 73.5659 53.6043 73.6854 53.683 73.7904C53.7618 73.8954 53.8605 73.9838 53.9736 74.0506C54.0867 74.1173 54.2118 74.161 54.3418 74.1792C54.4718 74.1974 54.6042 74.1898 54.7312 74.1566L61.552 72.4213C61.6794 72.3896 61.7993 72.3331 61.9048 72.255C62.0103 72.1768 62.0993 72.0786 62.1667 71.966C62.2341 71.8533 62.2785 71.7285 62.2975 71.5986C62.3165 71.4687 62.3095 71.3364 62.2772 71.2092C62.2448 71.082 62.1875 70.9624 62.1088 70.8574C62.03 70.7524 61.9313 70.664 61.8182 70.5973C61.7052 70.5305 61.58 70.4868 61.45 70.4686C61.32 70.4504 61.1876 70.4581 61.0606 70.4912Z" fill="#453E31"/>
<path d="M7.30469 83.553H77.7451C77.9961 83.553 78.2368 83.4533 78.4143 83.2759C78.5917 83.0985 78.6914 82.8579 78.6914 82.607V25.4207C78.6855 22.3687 77.8367 19.3776 76.2386 16.7772C74.6404 14.1767 72.355 12.068 69.6343 10.6836C69.5195 10.4869 69.3407 10.3356 69.1278 10.255L53.1019 4.38997L51.002 3.66103C45.4939 1.75785 39.5062 1.75785 33.998 3.66103L31.9552 4.37006L16.0675 10.255C15.9081 10.3153 15.7669 10.4156 15.6576 10.5463C12.8593 11.8977 10.4982 14.0096 8.84477 16.6403C7.19134 19.2709 6.3124 22.3139 6.30859 25.4207V57.9936C6.30859 58.2577 6.41354 58.511 6.60034 58.6977C6.78715 58.8845 7.04051 58.9894 7.30469 58.9894C7.56887 58.9894 7.82223 58.8845 8.00903 58.6977C8.19584 58.511 8.30078 58.2577 8.30078 57.9936V25.4207C8.30198 22.8654 8.97682 20.3555 10.2573 18.144C11.5378 15.9324 13.3787 14.0973 15.5945 12.8236L19.5649 49.3087L19.5379 51.8339L15.6538 81.5614H8.30078V64.6324C8.30078 64.3683 8.19584 64.115 8.00903 63.9282C7.82223 63.7415 7.56887 63.6366 7.30469 63.6366C7.04051 63.6366 6.78715 63.7415 6.60034 63.9282C6.41354 64.115 6.30859 64.3683 6.30859 64.6324V82.5572C6.30859 82.8213 6.41354 83.0746 6.60034 83.2613C6.78715 83.4481 7.04051 83.553 7.30469 83.553ZM47.1484 51.5163V81.5614H38.0176V51.5163C38.0133 51.4794 38.0069 51.4427 37.9985 51.4066L35.4148 28.2132L39.2727 26.4229C39.5587 26.6563 39.9153 26.7861 40.2845 26.7912H44.7155C45.0872 26.7862 45.4462 26.6547 45.7332 26.4184L49.77 28.3015L47.1816 51.4066C47.1778 51.4431 47.1484 51.4796 47.1484 51.5163ZM33.8914 21.3294L32.9981 17.5972C32.9932 17.5843 32.9928 17.5701 32.997 17.5569C33.0011 17.5437 33.0096 17.5323 33.021 17.5245C33.0309 17.5163 33.0431 17.5112 33.0559 17.5098C33.0687 17.5084 33.0816 17.5109 33.0931 17.5169L38.6816 20.1223V20.2064L37.6467 19.9372C37.5185 19.8985 37.3838 19.886 37.2507 19.9005C37.1175 19.915 36.9887 19.9562 36.8719 20.0217C36.755 20.0871 36.6526 20.1754 36.5706 20.2813C36.4887 20.3872 36.429 20.5085 36.395 20.6381C36.3611 20.7676 36.3536 20.9026 36.373 21.0351C36.3925 21.1675 36.4384 21.2947 36.5082 21.409C36.5779 21.5233 36.67 21.6224 36.7789 21.7003C36.8878 21.7782 37.0113 21.8334 37.142 21.8625L38.6816 22.2661V22.4062L37.1377 22.8094C36.9036 22.8697 36.6995 23.0132 36.5634 23.213C36.4274 23.4128 36.3688 23.6552 36.3985 23.8951C36.4282 24.135 36.5442 24.3558 36.7249 24.5164C36.9055 24.677 37.1385 24.7664 37.3802 24.7678C37.4705 24.7678 37.5604 24.7566 37.6479 24.7346L38.6816 24.4659V24.4991L33.0927 27.1012C33.0825 27.1072 33.0707 27.1097 33.0589 27.1083C33.0472 27.1069 33.0362 27.1017 33.0276 27.0936C33.0159 27.0859 33.007 27.0747 33.0022 27.0616C32.9974 27.0485 32.9969 27.0342 33.0009 27.0209L33.8924 23.2865C34.0452 22.6431 34.0449 21.9727 33.8914 21.3294ZM51.1097 23.2879L52.0026 27.0194C52.0074 27.0323 52.0078 27.0465 52.0036 27.0597C51.9994 27.0729 51.9909 27.0843 51.9795 27.0921C51.9696 27.1004 51.9574 27.1055 51.9446 27.1069C51.9317 27.1082 51.9187 27.1057 51.9073 27.0997L46.3184 24.4925V24.4799L47.3007 24.7351C47.3863 24.7572 47.4744 24.7683 47.5628 24.7683C47.8057 24.7689 48.0403 24.6806 48.2226 24.5202C48.4048 24.3597 48.522 24.1381 48.552 23.8972C48.5821 23.6563 48.5229 23.4127 48.3857 23.2124C48.2485 23.0121 48.0427 22.8689 47.8072 22.8099L46.3184 22.42V22.2524L47.809 21.863C47.9355 21.8294 48.0541 21.7712 48.158 21.6918C48.262 21.6124 48.3493 21.5132 48.4149 21.4001C48.4805 21.2869 48.5233 21.162 48.5406 21.0323C48.5579 20.9027 48.5495 20.7709 48.5159 20.6444C48.4823 20.518 48.4241 20.3995 48.3447 20.2955C48.2652 20.1916 48.1661 20.1043 48.0529 20.0387C47.9397 19.9731 47.8147 19.9304 47.685 19.9131C47.5553 19.8958 47.4235 19.9041 47.297 19.9377L46.3184 20.1925V20.1235L51.9074 17.5177C51.9176 17.5117 51.9294 17.5092 51.9411 17.5105C51.9528 17.5119 51.9637 17.517 51.9722 17.5252C51.9839 17.5328 51.9929 17.544 51.9978 17.5571C52.0026 17.5702 52.0031 17.5845 51.9991 17.5979L51.1081 21.3299C50.9554 21.9737 50.956 22.6444 51.1097 23.288V23.2879ZM51.1707 15.6735C51.1396 15.6862 51.1086 15.6985 51.078 15.7128L45.731 18.199C45.4443 17.9641 45.0862 17.8335 44.7155 17.8288H40.2845C39.9141 17.8335 39.5563 17.9639 39.2697 18.1985L34.0332 15.7578L33.6632 12.4196C39.4308 10.293 45.7722 10.3175 51.5233 12.4887L51.1707 15.6735ZM44.3262 19.8204V24.7995H40.6738V19.8204H44.3262ZM69.5879 12.9371C71.7501 14.2276 73.5413 16.0555 74.7874 18.243C76.0336 20.4306 76.6922 22.9033 76.6992 25.4207V81.5614H69.3514L65.6452 51.8057L65.6261 49.3437L69.5879 12.9371ZM67.7023 11.8467L63.6391 49.1859C63.635 49.2242 63.6331 49.2627 63.6335 49.3012L63.6534 51.8791C63.6537 51.9176 63.6563 51.9562 63.6612 51.9944L67.3437 81.5614H49.1406V51.7289L61.8139 23.4699C61.8988 23.287 61.9258 23.0826 61.8915 22.884C61.8573 22.6853 61.7632 22.5018 61.622 22.3579L57.3196 18.0593L60.6761 14.1562C60.8283 13.9795 60.9136 13.7549 60.9172 13.5218C60.9209 13.2886 60.8425 13.0615 60.6958 12.8802L56.4053 7.59055L67.7023 11.8467ZM53.0473 21.7931L53.9403 18.0608C54.0327 17.6833 54.0158 17.2873 53.8915 16.9191C53.7673 16.5509 53.5408 16.2256 53.2386 15.9812C53.209 15.9573 53.1788 15.935 53.1484 15.913L54.0434 7.84L58.6264 13.4896L55.2128 17.4636C55.0491 17.6542 54.9634 17.8997 54.9731 18.1508C54.9828 18.4018 55.087 18.64 55.2649 18.8174L59.7424 23.2835L49.8909 45.2977L51.6881 29.0849C51.7745 29.0962 51.8614 29.1022 51.9485 29.1028C52.2593 29.1005 52.5655 29.028 52.8444 28.8909C53.1233 28.7537 53.3676 28.5554 53.5591 28.3107C53.7506 28.0659 53.8844 27.7811 53.9505 27.4775C54.0165 27.1739 54.0132 26.8593 53.9406 26.5571L53.0473 22.8245C52.9666 22.4854 52.9666 22.1322 53.0473 21.7931ZM34.6516 5.54247C39.7363 3.78559 45.2637 3.78559 50.3484 5.54247L52.2217 6.19274L51.7496 10.4517C45.8324 8.33992 39.3704 8.3165 33.438 10.3853L32.9661 6.12785L34.6516 5.54247ZM32.0329 15.7908C31.9377 15.8459 31.847 15.9083 31.7616 15.9775C31.4593 16.2223 31.2329 16.5479 31.1087 16.9165C30.9845 17.285 30.9676 17.6812 31.06 18.059L31.953 21.7921C32.0339 22.1314 32.0339 22.485 31.953 22.8243L31.0597 26.5586C30.9749 26.8982 30.9786 27.2537 31.0705 27.5914C31.1623 27.9291 31.3392 28.2376 31.5842 28.4875C31.8292 28.7374 32.1342 28.9204 32.4701 29.0189C32.806 29.1174 33.1615 29.1281 33.5028 29.0502L35.3041 45.2987L25.4524 23.2832L29.93 18.8171C30.1079 18.6397 30.2121 18.4015 30.2218 18.1504C30.2315 17.8994 30.1459 17.6539 29.9821 17.4633L26.5685 13.4896L31.1515 7.83983L32.0329 15.7908ZM21.5209 52.0331C21.526 51.9938 21.5288 51.9543 21.5292 51.9147L21.5576 49.2707C21.5581 49.2311 21.5562 49.1916 21.5518 49.1523L17.4922 11.8467L28.7888 7.59055L24.4974 12.8807C24.3505 13.0618 24.2718 13.2887 24.2751 13.5219C24.2784 13.7551 24.3634 13.9797 24.5154 14.1567L27.8689 18.0598L23.5596 22.3584C23.4182 22.5022 23.324 22.6857 23.2896 22.8843C23.2551 23.083 23.2821 23.2875 23.3669 23.4704L36.0254 51.7289V81.5614H17.6629L21.5209 52.0331Z" fill="#453E31"/>
</svg>
