<svg width="85" height="80" viewBox="0 0 85 80" fill="none" xmlns="http://www.w3.org/2000/svg">
<rect width="85" height="80" fill="white"/>
<path d="M21.8244 27.9568C21.6736 27.9593 21.5237 27.9338 21.3833 27.8818C21.243 27.8298 21.1149 27.7522 21.0063 27.6536C20.7872 27.4544 20.661 27.1814 20.6557 26.8947C20.6504 26.608 20.7663 26.331 20.9779 26.1247C21.1896 25.9184 21.4796 25.7997 21.7842 25.7947C27.4204 25.7354 33.0443 25.2874 38.6108 24.4541C38.7097 24.4347 38.8109 24.4282 38.9117 24.4347C40.307 24.5041 41.6606 24.9059 42.8458 25.6023C43.0416 25.7361 43.1874 25.9246 43.2625 26.1411C43.3377 26.3575 43.3383 26.5907 43.2643 26.8075C43.1904 27.0242 43.0456 27.2135 42.8506 27.3482C42.6556 27.483 42.4204 27.5564 42.1785 27.5579C41.908 27.5579 41.6456 27.4705 41.4353 27.3104C40.661 26.8927 39.7937 26.6509 38.9025 26.6044C33.2615 27.4386 27.5641 27.8905 21.8543 27.9568H21.8244Z" fill="#453E31"/>
<path d="M63.8419 53.6755C62.8618 53.6767 61.9067 53.3852 61.1138 52.8431L60.8669 52.682C60.8347 52.6615 60.7807 52.6204 60.7302 52.5739L47.2094 43.4096C47.0832 43.3285 46.9754 43.2245 46.8924 43.1037C46.8094 42.9829 46.7529 42.8478 46.7261 42.7062C46.6993 42.5645 46.7028 42.4193 46.7364 42.279C46.77 42.1387 46.833 42.0061 46.9218 41.889C47.0105 41.7719 47.1232 41.6726 47.2532 41.597C47.3832 41.5214 47.528 41.4709 47.6789 41.4486C47.8299 41.4264 47.9841 41.4326 48.1325 41.4671C48.2809 41.5016 48.4204 41.5637 48.543 41.6496L49.4619 42.2658L62.1143 50.8528C62.1521 50.8784 62.1882 50.9062 62.2223 50.9361L62.4417 51.0799C62.9399 51.416 63.5562 51.5593 64.1634 51.4802C64.7706 51.4011 65.3224 51.1058 65.705 50.655C65.9397 50.3762 66.0996 50.0483 66.1714 49.6991C66.2432 49.3499 66.2246 48.9896 66.1173 48.6485C65.9883 48.2189 65.7216 47.8372 65.3535 47.5555L47.2692 33.6885C40.344 37.148 35.4381 35.3685 33.096 33.9599C32.7089 33.7228 32.3947 33.3943 32.1846 33.0072C31.9744 32.6202 31.8758 32.188 31.8984 31.7539C31.9211 31.3198 32.0643 30.8988 32.3137 30.533C32.5631 30.1672 32.9101 29.8693 33.32 29.6691L43.6716 24.495C44.3323 24.1697 45.0549 23.9707 45.7978 23.9094C46.5406 23.8482 47.289 23.926 47.9997 24.1382L54.1231 26.0085C55.9259 26.5666 57.8812 26.5002 59.6367 25.8215L62.3038 24.7934C62.4434 24.7395 62.5929 24.712 62.7438 24.7125C62.8947 24.713 63.044 24.7415 63.1832 24.7963C63.3224 24.8511 63.4488 24.9312 63.5551 25.032C63.6614 25.1328 63.7456 25.2523 63.8028 25.3836C63.86 25.515 63.8892 25.6558 63.8887 25.7978C63.8882 25.9398 63.8579 26.0803 63.7997 26.2113C63.7414 26.3423 63.6564 26.4612 63.5493 26.5613C63.4422 26.6614 63.3152 26.7406 63.1756 26.7945L60.5108 27.8215C58.2504 28.6972 55.7317 28.7831 53.4098 28.0636L47.2921 26.1945C46.8731 26.0706 46.4322 26.0259 45.9948 26.063C45.5573 26.1001 45.132 26.2183 44.7433 26.4107L34.3894 31.5858C34.3317 31.6114 34.2827 31.6515 34.2479 31.7017C34.213 31.7519 34.1936 31.8102 34.1918 31.8701C34.187 31.9244 34.1982 31.9788 34.2242 32.0274C34.2501 32.076 34.2898 32.117 34.3388 32.1458C36.751 33.5966 40.8919 34.6604 46.82 31.455C47.0217 31.346 47.2537 31.2971 47.4854 31.3149C47.7172 31.3326 47.9378 31.4162 48.118 31.5545L66.795 45.8788C67.5275 46.4349 68.0601 47.1898 68.3204 48.0409C68.5267 48.7108 68.5614 49.4172 68.4216 50.1022C68.2819 50.7871 67.9717 51.4311 67.5164 51.9815C67.0827 52.5099 66.5258 52.9374 65.8887 53.2311C65.2516 53.5248 64.5513 53.6769 63.8419 53.6755Z" fill="#453E31"/>
<path d="M59.0887 58.6863C58.1153 58.6873 57.1658 58.4027 56.3722 57.8723L43.9553 49.5804C43.7127 49.4124 43.5499 49.1614 43.5019 48.8815C43.454 48.6017 43.5248 48.3153 43.6991 48.084C43.8734 47.8528 44.1372 47.6953 44.4337 47.6454C44.7302 47.5954 45.0356 47.6571 45.2843 47.8171L57.7012 56.1079C58.2221 56.4282 58.8544 56.5466 59.466 56.4384C60.0775 56.3302 60.6209 56.0037 60.9827 55.5273C61.3445 55.0508 61.4967 54.4612 61.4075 53.8816C61.3182 53.302 60.9945 52.7773 60.5039 52.4171L48.1283 44.0225C47.9002 43.8489 47.7514 43.5996 47.7123 43.326C47.6733 43.0523 47.747 42.7749 47.9183 42.5508C48.0896 42.3266 48.3456 42.1726 48.6337 42.1204C48.9218 42.0683 49.2202 42.1218 49.4677 42.2701L61.8466 50.6658C62.6524 51.2148 63.2528 51.9899 63.5616 52.8799C63.8705 53.7699 63.8719 54.7291 63.5658 55.62C63.2597 56.5108 62.6618 57.2875 61.8577 57.8388C61.0536 58.39 60.0847 58.6875 59.0899 58.6885L59.0887 58.6863Z" fill="#453E31"/>
<path d="M53.7281 63.0185C52.8035 63.0183 51.9012 62.7515 51.1424 62.2542L40.0155 55.0002C39.7649 54.8369 39.5935 54.5866 39.539 54.3044C39.4845 54.0221 39.5514 53.7311 39.7249 53.4953C39.8984 53.2595 40.1643 53.0982 40.4641 53.0469C40.764 52.9956 41.0732 53.0585 41.3238 53.2218L52.4508 60.4758C52.6951 60.6349 52.9703 60.7471 53.2608 60.806C53.5512 60.865 53.8511 60.8694 54.1434 60.8192C54.4357 60.7691 54.7146 60.6651 54.9642 60.5135C55.2138 60.3618 55.4292 60.1653 55.5981 59.9353C55.9342 59.4741 56.0648 58.9072 55.9617 58.3563C55.8586 57.8055 55.5301 57.3147 55.0467 56.9893L43.9737 49.5969C43.8478 49.5159 43.7403 49.4121 43.6575 49.2916C43.5747 49.171 43.5182 49.0362 43.4914 48.8949C43.4645 48.7536 43.4678 48.6087 43.5011 48.4686C43.5344 48.3285 43.597 48.1961 43.6852 48.079C43.7734 47.9619 43.8856 47.8626 44.015 47.7867C44.1445 47.7108 44.2887 47.66 44.4393 47.6372C44.5899 47.6143 44.7438 47.62 44.892 47.6537C45.0402 47.6874 45.1799 47.7486 45.3027 47.8337L56.3757 55.2261C57.3504 55.8817 58.0129 56.8709 58.221 57.9813C58.4292 59.0917 58.1662 60.2346 57.4887 61.1645C57.1502 61.6292 56.7172 62.0262 56.2146 62.3323C55.712 62.6385 55.1499 62.8479 54.5608 62.9483C54.2861 62.9955 54.0073 63.019 53.7281 63.0185Z" fill="#453E31"/>
<path d="M47.1648 66.5731C46.3611 66.5694 45.5725 66.3674 44.8778 65.9872L38.7015 62.6358C38.4398 62.4914 38.2495 62.2555 38.1719 61.9795C38.0944 61.7035 38.136 61.4099 38.2877 61.1626C38.4394 60.9154 38.6888 60.7347 38.9815 60.6599C39.2742 60.5851 39.5865 60.6223 39.8502 60.7634L46.0253 64.1147C46.5473 64.3921 47.1639 64.4663 47.7433 64.3217C48.3228 64.1771 48.8192 63.825 49.1266 63.3407C49.4187 62.8764 49.5116 62.3247 49.3863 61.7981C49.261 61.2716 48.927 60.8099 48.4524 60.5072L40.5612 55.3623C40.4372 55.2815 40.3313 55.1784 40.2496 55.0591C40.168 54.9397 40.1121 54.8064 40.0851 54.6667C40.0582 54.527 40.0608 54.3837 40.0927 54.2449C40.1246 54.1062 40.1852 53.9747 40.2711 53.858C40.357 53.7413 40.4665 53.6417 40.5933 53.5648C40.7202 53.4879 40.8618 53.4353 41.0102 53.4099C41.1587 53.3846 41.3109 53.387 41.4584 53.4171C41.6058 53.4471 41.7455 53.5042 41.8695 53.585L49.7595 58.7288C50.5605 59.2507 51.1635 59.9996 51.4807 60.8665C51.7979 61.7334 51.8128 62.673 51.5231 63.5484C51.2334 64.4238 50.6543 65.1893 49.8701 65.7333C49.086 66.2774 48.1378 66.5716 47.1636 66.5731H47.1648Z" fill="#453E31"/>
<path d="M34.1585 65.9276C33.2188 65.9289 32.301 65.6604 31.5278 65.1579C30.7545 64.6553 30.1625 63.9427 29.8309 63.1151C29.4994 62.2876 29.4439 61.3845 29.6721 60.5265C29.9002 59.6686 30.4011 58.8965 31.1077 58.3135L34.1758 55.7838C34.6317 55.4071 35.162 55.1186 35.7364 54.9347C36.3108 54.7509 36.918 54.6754 37.5234 54.7124C38.1288 54.7494 38.7206 54.8984 39.2648 55.1506C39.8091 55.4029 40.2952 55.7536 40.6955 56.1827C41.0957 56.6119 41.4022 57.111 41.5974 57.6517C41.7926 58.1923 41.8728 58.7639 41.8333 59.3337C41.7938 59.9035 41.6355 60.4604 41.3674 60.9726C41.0992 61.4848 40.7265 61.9423 40.2705 62.3189L37.2025 64.8541C36.3604 65.5485 35.2782 65.9302 34.1585 65.9276ZM37.222 56.8649C36.6587 56.8635 36.1142 57.0557 35.6908 57.4054L32.6216 59.9384C32.3924 60.1277 32.2049 60.3577 32.0701 60.6152C31.9352 60.8727 31.8556 61.1526 31.8357 61.4391C31.8158 61.7255 31.8561 62.0129 31.9542 62.2847C32.0523 62.5565 32.2063 62.8075 32.4074 63.0233C32.8137 63.4591 33.3872 63.7252 34.0019 63.763C34.3063 63.7817 34.6115 63.7438 34.9004 63.6515C35.1892 63.5592 35.4558 63.4142 35.6851 63.2249L38.7531 60.6897C39.107 60.3965 39.3577 60.0089 39.4718 59.5783C39.5858 59.1477 39.5579 58.6947 39.3916 58.2794C39.2254 57.8642 38.9288 57.5064 38.5412 57.2537C38.1536 57.001 37.6935 56.8654 37.222 56.8649Z" fill="#453E31"/>
<path d="M27.2046 62.9827C27.1024 62.9827 27.0001 62.9827 26.8979 62.9741C26.2921 62.9384 25.6998 62.7901 25.1553 62.5377C24.6108 62.2853 24.1248 61.9339 23.7253 61.5038C23.3196 61.0746 23.0079 60.5742 22.8082 60.0313C22.6085 59.4885 22.5246 58.9138 22.5614 58.3404C22.5982 57.7669 22.755 57.206 23.0228 56.6897C23.2905 56.1734 23.6639 55.712 24.1216 55.3319L29.2469 51.0973C29.7028 50.7206 30.2331 50.4321 30.8075 50.2482C31.3819 50.0644 31.9891 49.9888 32.5945 50.0259C33.2 50.0629 33.7917 50.2118 34.336 50.4641C34.8802 50.7164 35.3664 51.0671 35.7666 51.4962L34.9362 52.2454L35.7988 51.5319C36.1992 51.9609 36.5059 52.46 36.7013 53.0006C36.8967 53.5412 36.977 54.1128 36.9376 54.6826C36.8983 55.2525 36.74 55.8094 36.4719 56.3217C36.2037 56.834 35.831 57.2915 35.3749 57.6681L30.2451 61.9027C29.4058 62.6002 28.3242 62.9843 27.2046 62.9827ZM32.2874 52.1784C31.7247 52.1769 31.181 52.3692 30.7585 52.7189L25.6332 56.9535C25.2901 57.2451 25.0456 57.6252 24.9303 58.0466C24.8149 58.4679 24.8338 58.9119 24.9845 59.3232C25.1352 59.7346 25.4111 60.0951 25.7779 60.36C26.1446 60.6249 26.5861 60.7824 27.0472 60.813C27.3518 60.8326 27.6575 60.795 27.9464 60.7021C28.2354 60.6093 28.5017 60.4633 28.73 60.2724L33.8553 56.0378C34.0846 55.8485 34.272 55.6184 34.4069 55.3609C34.5418 55.1033 34.6214 54.8233 34.6412 54.5368C34.6611 54.2503 34.6207 53.9629 34.5225 53.691C34.4243 53.4192 34.2702 53.1682 34.0689 52.9524L34.0356 52.9167C33.8352 52.7018 33.5915 52.5262 33.3187 52.4003C33.0458 52.2743 32.7492 52.2003 32.4459 52.1827C32.3919 52.1805 32.3379 52.1794 32.2862 52.1794L32.2874 52.1784Z" fill="#453E31"/>
<path d="M21.4086 59.0141C21.3075 59.0141 21.2053 59.0141 21.1019 59.0054C20.4961 58.9697 19.9039 58.8214 19.3593 58.5691C18.8148 58.3167 18.3288 57.9653 17.9294 57.5352L17.8042 57.3946C16.9968 56.5279 16.5881 55.3948 16.6681 54.2446C16.748 53.0943 17.3099 52.021 18.2303 51.2606L24.1723 46.3514C24.6281 45.9745 25.1584 45.6859 25.7328 45.502C26.3072 45.3181 26.9145 45.2425 27.5199 45.2795C28.1254 45.3166 28.7172 45.4655 29.2614 45.7179C29.8057 45.9703 30.2918 46.3211 30.692 46.7503L30.8218 46.8898C31.6295 47.7564 32.0383 48.8895 31.9584 50.0398C31.8785 51.1902 31.3163 52.2635 30.3956 53.0238L24.4537 57.933C23.6133 58.6317 22.5299 59.0163 21.4086 59.0141ZM27.2127 47.4335C26.6501 47.4322 26.1064 47.6244 25.6839 47.9741L19.7419 52.8833C19.2785 53.2659 18.9955 53.8062 18.9552 54.3852C18.9149 54.9642 19.1206 55.5346 19.5271 55.9708L19.6569 56.1103C20.0637 56.5453 20.6373 56.8106 21.2517 56.8479C21.8662 56.8852 22.4712 56.6915 22.934 56.3092L28.876 51.4C29.1053 51.2107 29.2928 50.9807 29.4276 50.7231C29.5625 50.4655 29.6421 50.1855 29.6619 49.899C29.6818 49.6125 29.6414 49.3251 29.5432 49.0532C29.445 48.7814 29.2909 48.5304 29.0896 48.3146L28.9621 48.1773C28.7615 47.9614 28.5174 47.7851 28.244 47.6586C27.9705 47.532 27.6731 47.4577 27.369 47.44C27.315 47.4357 27.2644 47.4335 27.2127 47.4335Z" fill="#453E31"/>
<path d="M16.4154 54.2022C16.3143 54.2022 16.211 54.2022 16.1087 54.1925C15.1912 54.138 14.3114 53.8288 13.5805 53.3039C12.8496 52.779 12.3005 52.0619 12.0025 51.2433C11.7045 50.4247 11.671 49.5414 11.9063 48.7049C12.1416 47.8684 12.6351 47.1164 13.3244 46.5438L17.0449 43.4703C17.5007 43.0934 18.031 42.8048 18.6054 42.6209C19.1798 42.437 19.7871 42.3614 20.3926 42.3984C20.998 42.4355 21.5898 42.5844 22.1341 42.8368C22.6783 43.0892 23.1644 43.44 23.5646 43.8692L23.6048 43.9124C24.0052 44.3415 24.3119 44.8406 24.5073 45.3812C24.7027 45.9218 24.783 46.4934 24.7436 47.0632C24.7043 47.6331 24.546 48.19 24.2779 48.7023C24.0098 49.2145 23.637 49.672 23.181 50.0487L19.4605 53.1222C18.6199 53.8206 17.5366 54.2048 16.4154 54.2022ZM20.0911 44.5514C19.5285 44.55 18.9848 44.7423 18.5622 45.0919L14.8418 48.1654C14.6124 48.3548 14.425 48.5848 14.2901 48.8424C14.1553 49.0999 14.0757 49.38 14.0558 49.6665C14.036 49.953 14.0763 50.2404 14.1745 50.5122C14.2727 50.7841 14.4268 51.0351 14.6281 51.2508C14.8278 51.4734 15.0724 51.6565 15.3479 51.7894C15.6233 51.9223 15.924 52.0025 16.2325 52.0252C16.5411 52.0479 16.8514 52.0128 17.1454 51.9218C17.4395 51.8308 17.7114 51.6858 17.9454 51.4952L21.6659 48.4216C21.8952 48.2323 22.0827 48.0023 22.2175 47.7447C22.3524 47.4872 22.432 47.2071 22.4518 46.9206C22.4717 46.6341 22.4313 46.3467 22.3332 46.0748C22.235 45.803 22.0808 45.552 21.8795 45.3362L21.8393 45.293C21.6387 45.0768 21.3945 44.9002 21.1208 44.7734C20.8471 44.6467 20.5494 44.5723 20.245 44.5546C20.1887 44.5535 20.137 44.5514 20.0854 44.5514H20.0911Z" fill="#453E31"/>
<path d="M14.3316 48.229C14.083 48.2295 13.841 48.1536 13.6424 48.0128L9.71744 45.202C9.59737 45.116 9.49647 45.0087 9.42049 44.886C9.34451 44.7633 9.29495 44.6278 9.27463 44.4871C9.25431 44.3464 9.26363 44.2033 9.30207 44.066C9.3405 43.9287 9.40729 43.7999 9.49863 43.6869C9.68309 43.4586 9.95632 43.3087 10.2582 43.2701C10.4077 43.251 10.5597 43.2598 10.7056 43.2959C10.8515 43.3321 10.9884 43.395 11.1085 43.4809L15.0334 46.2917C15.2267 46.4282 15.3694 46.6186 15.4411 46.8358C15.5129 47.053 15.51 47.286 15.4328 47.5016C15.3557 47.7171 15.2083 47.9043 15.0116 48.0365C14.815 48.1686 14.579 48.239 14.3373 48.2377L14.3316 48.229Z" fill="#453E31"/>
<path d="M67.2177 49.4272C66.9906 49.4271 66.7686 49.3637 66.5797 49.2449C66.3909 49.1261 66.2437 48.9573 66.1568 48.7598C66.0698 48.5623 66.0471 48.3449 66.0914 48.1353C66.1357 47.9256 66.2451 47.733 66.4056 47.5818L72.8507 41.5137C73.0674 41.3167 73.3575 41.2078 73.6587 41.2102C73.9599 41.2127 74.248 41.3264 74.4609 41.5268C74.6739 41.7273 74.7947 41.9984 74.7973 42.2819C74.7999 42.5653 74.6842 42.8384 74.4749 43.0423L68.0298 49.1083C67.9234 49.209 67.7969 49.2891 67.6575 49.3438C67.5182 49.3985 67.3687 49.4269 67.2177 49.4272Z" fill="#453E31"/>
<path d="M76.0061 47.1839C75.8097 47.1842 75.6165 47.137 75.445 47.0469C75.2734 46.9568 75.1293 46.8268 75.0264 46.6693L61.0014 25.1991C60.8532 24.9719 60.7994 24.7013 60.8502 24.4391C60.9011 24.1769 61.0531 23.9417 61.277 23.7785L75.1676 13.6531C75.3201 13.542 75.4999 13.4688 75.6903 13.4402C75.8808 13.4117 76.0758 13.4287 76.2574 13.4898C76.4391 13.5509 76.6014 13.654 76.7295 13.7897C76.8577 13.9253 76.9474 14.0892 76.9905 14.2661L83.8216 42.3169C83.8782 42.5452 83.8546 42.7846 83.7541 42.9991C83.6536 43.2136 83.4817 43.3915 83.2645 43.5061L76.5667 47.0488C76.3953 47.1384 76.2022 47.1849 76.0061 47.1839ZM63.4985 24.892L76.4047 44.6488L81.391 42.011L75.1539 16.398L63.4985 24.892Z" fill="#453E31"/>
<path d="M8.99391 47.5675C8.79718 47.5674 8.60377 47.5197 8.43222 47.4291L1.73445 43.8918C1.51716 43.7772 1.34533 43.5993 1.24484 43.3848C1.14436 43.1703 1.12068 42.9309 1.17736 42.7026L8.00952 14.655C8.05265 14.4781 8.14241 14.3142 8.27053 14.1786C8.39865 14.0429 8.56101 13.9398 8.74262 13.8787C8.92424 13.8176 9.11927 13.8006 9.30973 13.8291C9.50019 13.8577 9.67995 13.9309 9.83243 14.042L23.7242 24.1664C23.9481 24.3295 24.1001 24.5648 24.151 24.827C24.2019 25.0892 24.148 25.3598 23.9999 25.5869L9.97371 47.0572C9.87022 47.2138 9.72586 47.343 9.55435 47.4323C9.38285 47.5216 9.18992 47.5681 8.99391 47.5675ZM3.60905 42.402L8.59533 45.0388L21.5016 25.281L9.84621 16.7869L3.60905 42.402Z" fill="#453E31"/>
</svg>
