<svg width="85" height="81" viewBox="0 0 85 81" fill="none" xmlns="http://www.w3.org/2000/svg">
<path d="M76.7757 70.4516H8.22439C6.65139 70.4488 5.14385 69.8588 4.03265 68.8112C2.92145 67.7636 2.29736 66.344 2.29736 64.864V28.9926C2.30326 27.7538 2.78208 26.5582 3.64655 25.6238C4.51102 24.6894 5.70357 24.0783 7.00682 23.9021L34.896 20.2707V21.4812L35.0338 22.4214L7.32844 26.0421C6.57226 26.1433 5.87998 26.497 5.37806 27.0387C4.87615 27.5804 4.59808 28.274 4.59466 28.9926V64.864C4.59466 65.7707 4.97671 66.6406 5.65708 67.2828C6.33746 67.925 7.26067 68.2872 8.22439 68.2901H76.7757C77.7395 68.2872 78.6627 67.925 79.343 67.2828C80.0234 66.6406 80.4055 65.7707 80.4055 64.864V28.5603C80.4096 27.8923 80.1735 27.2426 79.7356 26.7167C79.2977 26.1909 78.6837 25.8198 77.9933 25.6638L63.0609 22.2593L63.6122 20.1626L78.5447 23.5671C79.734 23.8372 80.7917 24.4772 81.5464 25.3835C82.301 26.2897 82.7085 27.4091 82.7028 28.5603V64.864C82.7028 66.344 82.0787 67.7636 80.9675 68.8112C79.8563 69.8588 78.3487 70.4488 76.7757 70.4516Z" fill="#453E31"/>
<path d="M49.0932 65.8476C45.0039 65.8476 41.0065 64.7066 37.6064 62.5689C34.2063 60.4313 31.5562 57.393 29.9913 53.8382C28.4264 50.2834 28.017 46.3718 28.8148 42.5981C29.6125 38.8243 31.5817 35.3579 34.4733 32.6372C37.3648 29.9165 41.0489 28.0637 45.0595 27.313C49.0702 26.5624 53.2274 26.9476 57.0054 28.4201C60.7834 29.8925 64.0125 32.386 66.2844 35.5852C68.5562 38.7845 69.7688 42.5457 69.7688 46.3934C69.7688 51.553 67.5905 56.5012 63.7131 60.1496C59.8356 63.7979 54.5767 65.8476 49.0932 65.8476ZM49.0932 29.1008C45.4583 29.1008 41.905 30.115 38.8827 32.0151C35.8604 33.9153 33.5048 36.616 32.1138 39.7758C30.7227 42.9356 30.3588 46.4126 31.0679 49.767C31.7771 53.1214 33.5274 56.2027 36.0977 58.6211C38.668 61.0395 41.9427 62.6865 45.5077 63.3537C49.0728 64.021 52.7681 63.6785 56.1263 62.3697C59.4845 61.0608 62.3548 58.8444 64.3742 56.0006C66.3937 53.1569 67.4715 49.8135 67.4715 46.3934C67.4761 44.1198 67.004 41.8676 66.0825 39.7658C65.1609 37.6641 63.8079 35.7539 62.1008 34.1447C60.3938 32.5355 58.3663 31.2588 56.1342 30.3878C53.9022 29.5167 51.5096 29.0684 49.0932 29.0684V29.1008Z" fill="#453E31"/>
<path d="M49.0933 57.3092C46.7938 57.3092 44.5459 56.6675 42.634 55.4651C40.7221 54.2628 39.2322 52.554 38.3527 50.5548C37.4733 48.5556 37.2437 46.3558 37.6932 44.2339C38.1427 42.1119 39.2509 40.163 40.8778 38.6338C42.5046 37.1046 44.5769 36.0637 46.8326 35.6429C49.0882 35.2221 51.4259 35.4403 53.5497 36.2698C55.6736 37.0993 57.4883 38.5028 58.7642 40.3029C60.0401 42.103 60.7199 44.2188 60.7176 46.3825C60.7176 47.8183 60.4169 49.24 59.8326 50.5664C59.2483 51.8928 58.3918 53.0979 57.3123 54.1127C56.2327 55.1274 54.9511 55.9321 53.5409 56.4806C52.1306 57.029 50.6193 57.3106 49.0933 57.3092ZM49.0933 37.6065C47.2486 37.6065 45.4453 38.1212 43.9115 39.0855C42.3777 40.0498 41.1822 41.4204 40.4763 43.024C39.7703 44.6276 39.5856 46.3922 39.9455 48.0946C40.3054 49.7969 41.1937 51.3607 42.4981 52.588C43.8025 53.8154 45.4644 54.6512 47.2737 54.9898C49.083 55.3284 50.9583 55.1546 52.6626 54.4904C54.3669 53.8262 55.8236 52.7013 56.8485 51.2581C57.8733 49.8149 58.4203 48.1182 58.4203 46.3825C58.4203 44.0549 57.4377 41.8227 55.6885 40.1769C53.9394 38.5311 51.567 37.6065 49.0933 37.6065Z" fill="#453E31"/>
<path d="M63.7959 35.726L61.4986 14.2399C61.4335 13.7107 61.163 13.2228 60.739 12.8698C60.315 12.5167 59.7674 12.3234 59.2013 12.3269H39.054C38.4878 12.3234 37.9402 12.5167 37.5163 12.8698C37.0923 13.2228 36.8218 13.7107 36.7567 14.2399L34.4594 35.6179L32.1621 35.4018L34.5283 14.013C34.6532 12.9507 35.1919 11.9696 36.0404 11.2591C36.8889 10.5485 37.9871 10.1589 39.1229 10.1654H59.2243C60.352 10.1725 61.4375 10.5696 62.2742 11.2811C63.1109 11.9926 63.6402 12.9688 63.7614 14.0238L66.1161 35.5098L63.7959 35.726Z" fill="#453E31"/>
<path d="M17.5744 23.7615H15.2771V20.4327C15.2775 19.8309 15.511 19.2498 15.9339 18.7982C16.3567 18.3467 16.9399 18.0555 17.5744 17.9793L28.0156 16.8985C28.383 16.8648 28.7539 16.9021 29.1055 17.008C29.4571 17.1139 29.7819 17.2863 30.0602 17.5146C30.3344 17.7462 30.5538 18.0295 30.7041 18.346C30.8545 18.6625 30.9326 19.0052 30.9332 19.3519V22.0106H28.7163V19.3519C28.7172 19.3083 28.7073 19.2651 28.6873 19.2257C28.6674 19.1863 28.638 19.1518 28.6014 19.1249C28.5679 19.0955 28.5278 19.0735 28.4841 19.0604C28.4404 19.0473 28.3942 19.0435 28.3487 19.0493L17.9075 20.1301C17.8293 20.1403 17.7575 20.1763 17.7049 20.2318C17.6523 20.2872 17.6223 20.3584 17.6203 20.4327L17.5744 23.7615Z" fill="#453E31"/>
<path d="M3.44604 33.7048H33.4143V35.8664H3.44604V33.7048Z" fill="#453E31"/>
<path d="M17.758 32.3107C17.106 32.3107 16.4687 32.1287 15.9265 31.7879C15.3844 31.4471 14.9619 30.9626 14.7124 30.3958C14.4629 29.829 14.3976 29.2054 14.5248 28.6037C14.652 28.002 14.9659 27.4493 15.427 27.0154C15.888 26.5816 16.4754 26.2862 17.1149 26.1665C17.7544 26.0469 18.4172 26.1083 19.0196 26.3431C19.622 26.5778 20.1369 26.9754 20.4991 27.4855C20.8613 27.9956 21.0547 28.5953 21.0547 29.2088C21.0547 30.0315 20.7074 30.8204 20.0891 31.4021C19.4709 31.9839 18.6324 32.3107 17.758 32.3107ZM17.758 28.2685C17.5604 28.2685 17.3672 28.3237 17.2029 28.427C17.0385 28.5303 16.9104 28.6771 16.8348 28.849C16.7592 29.0208 16.7394 29.2098 16.7779 29.3922C16.8165 29.5746 16.9117 29.7422 17.0514 29.8737C17.1912 30.0052 17.3692 30.0947 17.5631 30.131C17.7569 30.1673 17.9579 30.1487 18.1405 30.0775C18.3231 30.0063 18.4792 29.8858 18.589 29.7312C18.6988 29.5766 18.7574 29.3948 18.7574 29.2088C18.7544 28.9603 18.6481 28.7227 18.4614 28.547C18.2746 28.3713 18.0222 28.2713 17.758 28.2685Z" fill="#453E31"/>
<path d="M50.46 19.0493H41.133C40.8284 19.0493 40.5362 18.9354 40.3208 18.7327C40.1054 18.53 39.9844 18.2551 39.9844 17.9685C39.9844 17.6818 40.1054 17.4069 40.3208 17.2043C40.5362 17.0016 40.8284 16.8877 41.133 16.8877H50.46C50.7647 16.8877 51.0569 17.0016 51.2723 17.2043C51.4877 17.4069 51.6087 17.6818 51.6087 17.9685C51.6087 18.2551 51.4877 18.53 51.2723 18.7327C51.0569 18.9354 50.7647 19.0493 50.46 19.0493Z" fill="#453E31"/>
<path d="M56.9959 19.0493H55.0661C54.7615 19.0493 54.4693 18.9354 54.2539 18.7327C54.0385 18.53 53.9175 18.2551 53.9175 17.9685C53.9175 17.6818 54.0385 17.4069 54.2539 17.2043C54.4693 17.0016 54.7615 16.8877 55.0661 16.8877H56.9959C57.3005 16.8877 57.5927 17.0016 57.8081 17.2043C58.0235 17.4069 58.1445 17.6818 58.1445 17.9685C58.1445 18.2551 58.0235 18.53 57.8081 18.7327C57.5927 18.9354 57.3005 19.0493 56.9959 19.0493Z" fill="#453E31"/>
</svg>
