<svg width="85" height="80" viewBox="0 0 85 80" fill="none" xmlns="http://www.w3.org/2000/svg">
<path d="M14.6094 58.5964V51.875C14.6088 51.3779 14.3987 50.9013 14.0252 50.5498C13.6518 50.1983 13.1454 50.0005 12.6172 50H10.625V45H11.9531C12.3054 45 12.6432 44.8683 12.8923 44.6339C13.1413 44.3995 13.2812 44.0815 13.2812 43.75C13.2812 43.4185 13.1413 43.1005 12.8923 42.8661C12.6432 42.6317 12.3054 42.5 11.9531 42.5H10.625V41.25H13.2812C13.6335 41.25 13.9713 41.1183 14.2204 40.8839C14.4694 40.6495 14.6094 40.3315 14.6094 40C14.6094 39.6685 14.4694 39.3505 14.2204 39.1161C13.9713 38.8817 13.6335 38.75 13.2812 38.75H10.625V37.5H13.2812C13.6335 37.5 13.9713 37.3683 14.2204 37.1339C14.4694 36.8995 14.6094 36.5815 14.6094 36.25C14.6094 35.9185 14.4694 35.6005 14.2204 35.3661C13.9713 35.1317 13.6335 35 13.2812 35H10.625V33.75H11.9531C12.3054 33.75 12.6432 33.6183 12.8923 33.3839C13.1413 33.1495 13.2812 32.8315 13.2812 32.5C13.2812 32.1685 13.1413 31.8505 12.8923 31.6161C12.6432 31.3817 12.3054 31.25 11.9531 31.25H10.625V30C10.625 29.6685 10.4851 29.3505 10.236 29.1161C9.98693 28.8817 9.64912 28.75 9.29688 28.75C8.94463 28.75 8.60682 28.8817 8.35775 29.1161C8.10868 29.3505 7.96875 29.6685 7.96875 30V31.25H6.64062C6.28838 31.25 5.95057 31.3817 5.7015 31.6161C5.45243 31.8505 5.3125 32.1685 5.3125 32.5C5.3125 32.8315 5.45243 33.1495 5.7015 33.3839C5.95057 33.6183 6.28838 33.75 6.64062 33.75H7.96875V35H5.3125C4.96026 35 4.62245 35.1317 4.37337 35.3661C4.1243 35.6005 3.98438 35.9185 3.98438 36.25C3.98438 36.5815 4.1243 36.8995 4.37337 37.1339C4.62245 37.3683 4.96026 37.5 5.3125 37.5H7.96875V38.75H5.3125C4.96026 38.75 4.62245 38.8817 4.37337 39.1161C4.1243 39.3505 3.98438 39.6685 3.98438 40C3.98438 40.3315 4.1243 40.6495 4.37337 40.8839C4.62245 41.1183 4.96026 41.25 5.3125 41.25H7.96875V42.5H6.64062C6.28838 42.5 5.95057 42.6317 5.7015 42.8661C5.45243 43.1005 5.3125 43.4185 5.3125 43.75C5.3125 44.0815 5.45243 44.3995 5.7015 44.6339C5.95057 44.8683 6.28838 45 6.64062 45H7.96875V50H5.97656C5.44838 50.0005 4.94199 50.1983 4.5685 50.5498C4.19502 50.9013 3.98495 51.3779 3.98438 51.875V58.5964L2.69593 63.4469C2.66955 63.546 2.65622 63.6478 2.65625 63.75V74.375C2.65726 75.2035 3.0074 75.9978 3.62986 76.5837C4.25232 77.1695 5.09627 77.4991 5.97656 77.5H12.6172C13.4975 77.4991 14.3414 77.1695 14.9639 76.5837C15.5863 75.9978 15.9365 75.2035 15.9375 74.375V63.75C15.9375 63.6478 15.9242 63.546 15.8978 63.4469L14.6094 58.5964ZM6.34943 60H12.2443L12.9084 62.5H5.68537L6.34943 60ZM6.64062 52.5H11.9531V57.5H6.64062V52.5ZM12.6172 75H5.97656C5.80044 75 5.63154 74.9342 5.507 74.8169C5.38246 74.6997 5.3125 74.5408 5.3125 74.375V65H13.2812V74.375C13.2812 74.5408 13.2113 74.6997 13.0868 74.8169C12.9622 74.9342 12.7933 75 12.6172 75Z" fill="#453E31"/>
<path d="M73.0469 2.5H59.7656C58.005 2.50186 56.3171 3.16094 55.0722 4.33264C53.8272 5.50434 53.127 7.09297 53.125 8.75V9.03703C53.1243 9.83224 53.2855 10.6202 53.6 11.3583L58.4375 22.7408V31.25C58.4375 31.3091 58.442 31.3682 58.4508 31.4267L59.7689 40.1109L59.965 45.4595C57.9929 43.5047 55.5677 42.005 52.8785 41.0772C50.1893 40.1495 47.3088 39.8188 44.4615 40.111C41.6143 40.4031 38.8772 41.3102 36.4636 42.7616C34.05 44.2129 32.0251 46.1693 30.5469 48.4781V41.25C30.5449 39.593 29.8446 38.0043 28.5997 36.8326C27.3548 35.6609 25.6668 35.0019 23.9062 35H21.25C20.8978 35 20.5599 35.1317 20.3109 35.3661C20.0618 35.6005 19.9219 35.9185 19.9219 36.25V55C19.5696 55 19.2318 55.1317 18.9827 55.3661C18.7337 55.6005 18.5938 55.9185 18.5938 56.25V75C18.5946 75.6628 18.8747 76.2982 19.3727 76.7669C19.8706 77.2356 20.5458 77.4992 21.25 77.5H29.2188C29.6356 77.4996 30.0464 77.4068 30.418 77.229C30.7895 77.0512 31.1113 76.7935 31.3572 76.4767C32.5104 77.1475 33.8397 77.5019 35.1953 77.5H57.7734C58.9626 77.501 60.1338 77.227 61.1841 76.702C61.2809 76.937 61.4509 77.1389 61.6718 77.2813C61.8927 77.4237 62.1541 77.4999 62.4219 77.5H70.3906C70.7351 77.5002 71.0661 77.3744 71.3139 77.1493C71.5617 76.9241 71.7069 76.6171 71.7188 76.2931L73.0436 40.1109L74.3617 31.4267C74.3705 31.3682 74.375 31.3091 74.375 31.25V22.7408L79.2125 11.3583C79.527 10.6202 79.6882 9.83224 79.6875 9.03703V8.75C79.6855 7.09297 78.9853 5.50434 77.7403 4.33264C76.4954 3.16094 74.8075 2.50186 73.0469 2.5ZM71.7188 23.75V31.1613L70.5669 38.75H69.0625V33.75C69.0625 33.4185 68.9226 33.1005 68.6735 32.8661C68.4244 32.6317 68.0866 32.5 67.7344 32.5C67.3821 32.5 67.0443 32.6317 66.7952 32.8661C66.5462 33.1005 66.4062 33.4185 66.4062 33.75V38.75H62.2456L61.0938 31.1613V23.75H71.7188ZM35.627 46.5184C38.5208 43.9814 42.3134 42.5476 46.2679 42.4957C50.2223 42.4438 54.056 43.7775 57.0238 46.2376C59.9916 48.6978 61.8816 52.1086 62.3264 55.8071C62.7712 59.5057 61.7391 63.2278 59.4306 66.25H55.9757C57.803 64.4913 59.0383 62.2641 59.5267 59.8476C60.0151 57.431 59.7349 54.9325 58.7212 52.6652C57.7076 50.3979 56.0055 48.4625 53.8283 47.1016C51.6511 45.7406 49.0956 45.0147 46.482 45.0147C43.8683 45.0147 41.3128 45.7406 39.1356 47.1016C36.9584 48.4625 35.2564 50.3979 34.2427 52.6652C33.2291 54.9325 32.9489 57.431 33.4373 59.8476C33.9257 62.2641 35.1609 64.4913 36.9883 66.25H31.875V56.25C31.8747 55.9543 31.763 55.6684 31.5599 55.4429C31.3567 55.2173 31.0752 55.0669 30.7654 55.0183C31.3423 51.7569 33.0521 48.7676 35.627 46.5184ZM51.6309 66.25H51.0252L56.0183 53.0923C57.2227 55.3961 57.4388 58.0477 56.622 60.4975C55.8051 62.9472 54.0179 65.007 51.6309 66.25ZM48.2045 66.25H44.3771L51.045 48.4698C52.207 48.993 53.2587 49.7098 54.1495 50.5855L48.2045 66.25ZM41.5602 66.25H41.3379C40.6866 65.9116 40.0746 65.5104 39.5117 65.0527L46.0927 47.5094C46.2229 47.5048 46.3531 47.5 46.4844 47.5C47.1683 47.5003 47.8507 47.5628 48.5219 47.6866L41.5602 66.25ZM37.5126 62.8741C36.6503 61.5938 36.1081 60.1459 35.9269 58.6397C35.7456 57.1335 35.93 55.6082 36.4662 54.1789C37.0024 52.7495 37.8763 51.4533 39.0222 50.3881C40.168 49.3229 41.5559 48.5164 43.0811 48.0294L37.5126 62.8741ZM51.5693 68.75C51.2937 69.4806 50.7847 70.1131 50.1121 70.5607C49.4395 71.0083 48.6363 71.2491 47.8125 71.25H45.1562C44.3435 71.249 43.5504 71.0143 42.8832 70.5774C42.216 70.1405 41.7065 69.5222 41.4229 68.8053C41.4944 68.7922 51.5693 68.75 51.5693 68.75ZM21.25 57.5H29.2188V60H21.25V57.5ZM22.5781 41.2466C23.7259 42.0613 25.1248 42.5014 26.5625 42.5H27.8906V50H22.5781V41.2466ZM27.6622 40H26.5625C25.7389 39.999 24.9357 39.7582 24.2633 39.3106C23.5908 38.863 23.082 38.2305 22.8066 37.5H23.9062C24.7299 37.501 25.533 37.7418 26.2055 38.1894C26.8779 38.637 27.3868 39.2695 27.6622 40ZM22.5781 52.5H27.8906V55H22.5781V52.5ZM29.2188 75H21.25V62.5H29.2188L29.2199 75H29.2188ZM35.1953 75C34.5766 75.0008 33.964 74.8848 33.3937 74.659C32.8234 74.4331 32.307 74.1019 31.875 73.685V68.75H38.6493C38.9573 70.1607 39.7728 71.4282 40.9581 72.339C42.1434 73.2498 43.6261 73.7481 45.1562 73.75H47.8125C49.3428 73.7483 50.8257 73.2501 52.0112 72.3393C53.1967 71.4285 54.0122 70.1608 54.3203 68.75H62.4219V70.625C62.4205 71.7849 61.9303 72.8969 61.0588 73.7171C60.1874 74.5373 59.0058 74.9987 57.7734 75H35.1953ZM69.1075 75H63.6622L63.656 74.9144C63.651 74.8535 63.6414 74.793 63.6272 74.7334C64.5708 73.548 65.08 72.1062 65.0781 70.625V67.5C65.0781 67.1685 64.9382 66.8505 64.6891 66.6161C64.4401 66.3817 64.1022 66.25 63.75 66.25H62.5897C64.1916 63.6376 65.0485 60.6797 65.0773 57.6636C65.1061 54.6475 64.3057 51.6756 62.7539 49.0366L62.4685 41.25H70.3441L69.1075 75ZM77.0312 9.03703C77.0318 9.51409 76.935 9.98681 76.7462 10.4295L72.1477 21.25H70.8233L72.9957 14.0938C73.0437 13.9359 73.0582 13.7707 73.0383 13.6076C73.0184 13.4446 72.9646 13.2867 72.88 13.1432C72.7953 12.9997 72.6814 12.8733 72.5449 12.7712C72.4083 12.6691 72.2517 12.5933 72.084 12.5481C71.9163 12.503 71.7408 12.4894 71.5675 12.5081C71.3942 12.5268 71.2265 12.5774 71.074 12.6571C70.9215 12.7368 70.7872 12.8439 70.6787 12.9725C70.5702 13.101 70.4897 13.2484 70.4418 13.4062L68.0606 21.25H67.7344V13.75C67.7344 13.4185 67.5944 13.1005 67.3454 12.8661C67.0963 12.6317 66.7585 12.5 66.4062 12.5C66.054 12.5 65.7162 12.6317 65.4671 12.8661C65.2181 13.1005 65.0781 13.4185 65.0781 13.75V21.25H64.7519L62.3707 13.4062C62.3228 13.2484 62.2423 13.101 62.1338 12.9725C62.0253 12.8439 61.891 12.7368 61.7385 12.6571C61.586 12.5774 61.4183 12.5268 61.245 12.5081C61.0717 12.4894 60.8962 12.503 60.7285 12.5481C60.5608 12.5933 60.4042 12.6691 60.2676 12.7712C60.1311 12.8733 60.0172 12.9997 59.9325 13.1432C59.8479 13.2867 59.7941 13.4446 59.7742 13.6076C59.7543 13.7707 59.7688 13.9359 59.8168 14.0938L61.9892 21.25H60.6648L56.0661 10.4295C55.8774 9.9868 55.7807 9.51408 55.7812 9.03703V8.75C55.7824 7.75578 56.2026 6.8026 56.9496 6.09958C57.6965 5.39656 58.7093 5.00112 59.7656 5H73.0469C74.1032 5.00112 75.116 5.39656 75.8629 6.09958C76.6099 6.8026 77.0301 7.75578 77.0312 8.75V9.03703Z" fill="#453E31"/>
<path d="M67.7344 30C68.0866 30 68.4244 29.8683 68.6735 29.6339C68.9226 29.3995 69.0625 29.0815 69.0625 28.75V27.5C69.0625 27.1685 68.9226 26.8505 68.6735 26.6161C68.4244 26.3817 68.0866 26.25 67.7344 26.25C67.3821 26.25 67.0443 26.3817 66.7952 26.6161C66.5462 26.8505 66.4062 27.1685 66.4062 27.5V28.75C66.4062 29.0815 66.5462 29.3995 66.7952 29.6339C67.0443 29.8683 67.3821 30 67.7344 30Z" fill="#453E31"/>
</svg>
