<svg width="25" height="25" viewBox="0 0 25 25" fill="none" xmlns="http://www.w3.org/2000/svg">
<path d="M23.9563 7.49229C23.2875 5.96436 22.3335 4.60371 21.1208 3.44839C20.9642 3.29922 20.7165 3.30518 20.5673 3.46182C20.4182 3.61836 20.4242 3.86611 20.5807 4.01519C22.9256 6.24912 24.2171 9.26245 24.2171 12.5C24.2171 18.9608 18.9608 24.2171 12.5 24.2171C6.03906 24.2171 0.782861 18.9608 0.782861 12.5C0.782861 6.03916 6.03916 0.782861 12.5 0.782861C14.8602 0.782861 17.1353 1.4814 19.0792 2.80283C19.258 2.92437 19.5014 2.87793 19.623 2.69922C19.7445 2.52041 19.6981 2.27695 19.5193 2.15542C17.445 0.745361 15.0178 0 12.5 0C9.16113 0 6.02212 1.3002 3.66118 3.66118C1.30024 6.02212 0 9.16113 0 12.5C0 15.8389 1.30024 18.9779 3.66118 21.3388C6.02212 23.6998 9.16113 25 12.5 25C15.8389 25 18.9779 23.6998 21.3388 21.3388C23.6998 18.9779 25 15.8389 25 12.5C25 10.7592 24.6488 9.07432 23.9563 7.49229Z" fill="white"/>
<path d="M18.1805 5.30055L10.6524 8.80499C10.4564 8.8962 10.3715 9.12911 10.4627 9.32511C10.554 9.5211 10.7868 9.60611 10.9827 9.5148L15.6266 7.35299L13.3689 9.18067L8.18791 13.3748L5.35412 12.135L9.32512 10.2864C9.52112 10.1951 9.60603 9.96231 9.51477 9.76632C9.42356 9.57032 9.1906 9.48531 8.99475 9.57662L4.72033 11.5665C4.49309 11.6722 4.34963 11.9036 4.35539 12.1541C4.36101 12.3992 4.50915 12.6198 4.73371 12.7181L7.89787 14.1024L8.82458 19.6626C8.88161 20.0064 9.34714 20.1043 9.53811 19.8127L12.1668 15.8004L17.1381 18.1204C17.5364 18.3064 18.0103 18.0221 18.036 17.5849L18.7364 5.67823C18.7371 5.6672 18.7371 5.65587 18.7368 5.64479C18.729 5.36769 18.4314 5.18453 18.1805 5.30055ZM9.27839 17.6237L8.67273 13.9896L14.8431 8.99449L10.1205 14.2895C10.078 14.3371 10.0465 14.3971 10.0319 14.4593L9.27839 17.6237ZM10.11 17.5114L10.6822 15.1077L11.45 15.466L10.11 17.5114ZM11.8835 14.8044L11.0551 14.4178L15.1307 9.8482L14.5412 10.748L11.8835 14.8044ZM17.2676 17.317L12.6003 15.1389L17.8687 7.09772L17.2676 17.317Z" fill="white"/>
</svg>
