<svg width="97" height="87" viewBox="0 0 97 87" fill="none" xmlns="http://www.w3.org/2000/svg">
<g clip-path="url(#clip0_0_291)">
<path fill-rule="evenodd" clip-rule="evenodd" d="M19.9929 31.2236L48.3867 86.7987L0.661865 31.2236H19.9929Z" fill="#EA6C00"/>
<path fill-rule="evenodd" clip-rule="evenodd" d="M76.7886 31.2236L48.3948 86.7987L96.1196 31.2236H76.7886Z" fill="#EA6C00"/>
<path fill-rule="evenodd" clip-rule="evenodd" d="M19.9919 31.2236H76.7796L48.3857 86.7987L19.9919 31.2236Z" fill="#FDAD00"/>
<path fill-rule="evenodd" clip-rule="evenodd" d="M48.3857 0.424316L21.4864 3.26774L19.9919 31.224L48.3857 0.424316Z" fill="#FDD231"/>
<path fill-rule="evenodd" clip-rule="evenodd" d="M48.3857 0.424316L75.2851 3.26774L76.7795 31.224L48.3857 0.424316Z" fill="#FDD231"/>
<path fill-rule="evenodd" clip-rule="evenodd" d="M96.1196 31.2239L75.2941 3.26758L76.7886 31.2239H96.1196Z" fill="#FDAD00"/>
<path fill-rule="evenodd" clip-rule="evenodd" d="M0.661865 31.2239L21.4874 3.26758L19.9929 31.2239H0.661865Z" fill="#FDAD00"/>
<path fill-rule="evenodd" clip-rule="evenodd" d="M48.3857 0.424316L19.9919 31.224H76.7796L48.3857 0.424316Z" fill="#FEEEB7"/>
</g>
<defs>
<clipPath id="clip0_0_291">
<rect width="96" height="86.8992" fill="white" transform="translate(0.486816)"/>
</clipPath>
</defs>
</svg>
