<?xml version="1.0" encoding="UTF-8"?>
<!DOCTYPE svg PUBLIC "-//W3C//DTD SVG 1.1//EN" "http://www.w3.org/Graphics/SVG/1.1/DTD/svg11.dtd">
<!-- Creator: CorelDRAW 2019 (64-Bit) -->
<svg xmlns="http://www.w3.org/2000/svg" xml:space="preserve" width="100mm" height="81mm" version="1.1" style="shape-rendering:geometricPrecision; text-rendering:geometricPrecision; image-rendering:optimizeQuality; fill-rule:evenodd; clip-rule:evenodd"
viewBox="0 0 10000 8100"
 xmlns:xlink="http://www.w3.org/1999/xlink">
 <defs>
  <style type="text/css">
   <![CDATA[
    .str0 {stroke:#EF7F1A;stroke-width:150;stroke-miterlimit:22.9256}
    .fil0 {fill:none}
   ]]>
  </style>
 </defs>
 <g id="Слой_x0020_1">
  <metadata id="CorelCorpID_0Corel-Layer"/>
  <path class="fil0 str0" d="M5058.98 2856.64l938.58 0 5.63 610.29 313.54 224.04 509.53 -431.18 615.93 621.54 -403.14 403.14 173.57 442.34 662.3 0 0 576.72m-2815.92 2437.95l938.56 0 5.63 -610.29 313.54 -224.04 509.53 431.18 615.93 -621.54 -403.14 -403.14 173.57 -442.34 662.3 0 0 -576.72"/>
  <path class="fil0 str0" d="M6840.49 5298.29c0,731.53 -592.93,1324.5 -1324.45,1324.51m1324.45 -1323.04c0,-731.53 -592.93,-1324.5 -1324.45,-1324.51"/>
  <line class="fil0 str0" x1="270.21" y1="3603.55" x2="5603.1" y2= "3603.55" />
  <line class="fil0 str0" x1="2407.49" y1="3213.55" x2="3465.81" y2= "3213.55" />
  <path class="fil0 str0" d="M244.74 5749.01l0 -2050.95c0,-552.79 452.28,-1005.07 1005.07,-1005.07l3261.16 0c552.79,0 1005.07,452.28 1005.07,1005.07l0 3202.01c0,552.79 -452.28,1005.07 -1005.07,1005.07l-2125.21 0m3130.28 -2156.13l0 -2050.95c0,-552.79 -452.28,-1005.07 -1005.07,-1005.07l-3261.16 0c-552.79,0 -1005.07,452.28 -1005.07,1005.07l0 3202.01c0,552.79 452.28,1005.07 1005.07,1005.07l2125.21 0"/>
  <line class="fil0 str0" x1="1177.12" y1="5311.9" x2="2301.7" y2= "5311.9" />
  <line class="fil0 str0" x1="2667.12" y1="5311.9" x2="4522.06" y2= "5311.9" />
  <line class="fil0 str0" x1="1177.12" y1="6776.26" x2="2220.67" y2= "6776.26" />
  <line class="fil0 str0" x1="1177.12" y1="6066.35" x2="4610.11" y2= "6066.35" />
 </g>
</svg>
