<?xml version="1.0" encoding="UTF-8"?>
<!DOCTYPE svg PUBLIC "-//W3C//DTD SVG 1.1//EN" "http://www.w3.org/Graphics/SVG/1.1/DTD/svg11.dtd">
<!-- Creator: CorelDRAW 2019 (64-Bit) -->
<svg xmlns="http://www.w3.org/2000/svg" xml:space="preserve" width="103mm" height="81mm" version="1.1" style="shape-rendering:geometricPrecision; text-rendering:geometricPrecision; image-rendering:optimizeQuality; fill-rule:evenodd; clip-rule:evenodd"
viewBox="0 0 10300 8100"
 xmlns:xlink="http://www.w3.org/1999/xlink">
 <defs>
  <style type="text/css">
   <![CDATA[
    .str0 {stroke:#EF7F1A;stroke-width:150;stroke-miterlimit:22.9256}
    .fil1 {fill:none}
    .fil0 {fill:#EF7F1A;fill-rule:nonzero}
   ]]>
  </style>
 </defs>
 <g id="Слой_x0020_1">
  <metadata id="CorelCorpID_0Corel-Layer"/>
  <path class="fil0" d="M1124.99 7494.59c17.7,111.3 -11.32,219.16 -72.53,303.53 -61.23,84.4 -154.8,145.5 -266.13,163.21 -111.29,17.69 -219.15,-11.32 -303.53,-72.53 -84.41,-61.24 -145.49,-154.82 -163.2,-266.13 -17.7,-111.3 11.32,-219.16 72.53,-303.53 61.23,-84.4 154.8,-145.5 266.13,-163.21 111.29,-17.69 219.15,11.32 303.53,72.53 84.41,61.24 145.49,154.82 163.2,266.13zm-193.81 215.63c38.87,-53.58 57.32,-121.9 46.15,-192.19 -11.18,-70.26 -49.9,-129.45 -103.44,-168.29 -53.58,-38.87 -121.9,-57.32 -192.19,-46.15 -70.27,11.18 -129.45,49.91 -168.29,103.45 -38.87,53.58 -57.32,121.9 -46.15,192.19 11.18,70.26 49.9,129.45 103.44,168.29 53.58,38.87 121.9,57.32 192.19,46.15 70.27,-11.18 129.45,-49.91 168.29,-103.45z"/>
  <path class="fil0" d="M3125.03 4700.45c15.14,108.49 -13.94,213.27 -73.7,295.65 -61.24,84.41 -154.81,145.5 -266.13,163.2 -111.3,17.71 -219.16,-11.32 -303.53,-72.53 -84.41,-61.24 -145.5,-154.81 -163.2,-266.13 -17.7,-111.3 11.32,-219.16 72.53,-303.53 61.23,-84.4 154.8,-145.49 266.12,-163.2l7.92 -1.17c108.49,-15.12 213.25,13.94 295.62,73.7 84.4,61.23 145.48,154.79 163.2,266.1l1.17 7.91zm-194.98 207.75c38.87,-53.59 57.33,-121.9 46.15,-192.2l-0.08 -0.49c-11.28,-70.04 -49.94,-129.04 -103.36,-167.79 -53.58,-38.87 -121.89,-57.32 -192.18,-46.15l-0.51 0.08c-70.05,11.28 -129.04,49.95 -167.79,103.36 -38.87,53.58 -57.32,121.9 -46.15,192.19 11.17,70.25 49.9,129.45 103.44,168.29 53.58,38.87 121.89,57.33 192.19,46.15 70.26,-11.17 129.45,-49.9 168.29,-103.44z"/>
  <path class="fil0" d="M4665.36 4741.38c17.69,111.29 -11.32,219.15 -72.53,303.53 -61.23,84.41 -154.81,145.49 -266.13,163.2 -111.3,17.71 -219.16,-11.32 -303.53,-72.53 -84.41,-61.24 -145.5,-154.81 -163.2,-266.13 -17.71,-111.3 11.32,-219.16 72.53,-303.53 61.24,-84.41 154.81,-145.5 266.13,-163.2 111.29,-17.69 219.15,11.32 303.53,72.53 84.4,61.23 145.49,154.81 163.2,266.13zm-193.81 215.63c38.87,-53.59 57.32,-121.9 46.15,-192.19 -11.18,-70.27 -49.9,-129.45 -103.44,-168.29 -53.58,-38.87 -121.9,-57.32 -192.19,-46.15 -70.25,11.17 -129.45,49.9 -168.29,103.44 -38.87,53.58 -57.33,121.89 -46.15,192.19 11.17,70.25 49.9,129.45 103.44,168.29 53.58,38.87 121.89,57.33 192.19,46.15 70.27,-11.18 129.45,-49.9 168.29,-103.44z"/>
  <path class="fil0" d="M6877.39 3218.82c-76.02,82.88 -178.57,127.12 -282.9,131.62 -104.31,4.5 -210.36,-30.77 -293.35,-106.89 -82.88,-76.02 -127.12,-178.58 -131.62,-282.9 -4.5,-104.32 30.77,-210.37 106.89,-293.36 76.02,-82.88 178.59,-127.13 282.9,-131.62 104.32,-4.5 210.37,30.78 293.36,106.9 82.87,76.01 127.13,178.57 131.62,282.9 4.5,104.31 -30.78,210.36 -106.9,293.35zm-289.34 -17.8c65.95,-2.85 130.91,-30.93 179.18,-83.56 48.16,-52.5 70.49,-119.59 67.64,-185.55 -2.84,-65.95 -30.94,-130.92 -83.56,-179.18 -52.51,-48.16 -119.6,-70.49 -185.56,-67.64 -65.94,2.84 -130.91,30.93 -179.18,83.56 -48.16,52.5 -70.48,119.59 -67.63,185.56 2.85,65.95 30.94,130.92 83.56,179.18 52.5,48.16 119.59,70.48 185.55,67.63z"/>
  <path class="fil1 str0" d="M966.56 7308.04l408.48 -572.24m808.22 -1196.97l349.26 -507.81"/>
  <line class="fil1 str0" x1="3050.03" y1="4704.28" x2="3996.87" y2= "5003.25" />
  <path class="fil1 str0" d="M4590.74 4581.4l535.42 -525.31m516.18 -501.47l638.9 -629.5"/>
  <line class="fil1 str0" x1="6909.4" y1="2925.28" x2="8107.54" y2= "2847.34" />
  <polyline class="fil1 str0" points="7714.01,2498.53 8104.81,2848.02 7724.67,3256.76 "/>
  <path class="fil1 str0" d="M434.47 4445.44l0 -687.64 779.6 0 273.59 -511.23 -597.6 -619.11 863.96 -849.6 604.75 561.56 482.4 -237.55 0 -799.18 1245.53 0 7.23 784.73 403.16 288.05 655.16 -554.42 791.96 799.19 -518.37 518.36 223.18 568.78 851.6 0 0 741.54m-6066.15 -8.01l0 687.64 779.6 0 273.59 511.22 -597.6 619.11 863.96 849.6 604.75 -561.55 482.4 237.54 0 799.19 1245.53 0 7.23 -784.73 403.16 -288.05 655.16 554.41 791.96 -799.18 -518.37 -518.36 223.18 -568.78 851.6 0 0 -741.54"/>
  <path class="fil1 str0" d="M5170.54 4442.2c0,940.61 -762.43,1703.05 -1703.04,1703.05 -940.61,0 -1703.04,-762.44 -1703.04,-1703.05m3406.08 1.86c0,-940.61 -762.43,-1703.05 -1703.04,-1703.05 -940.61,0 -1703.04,762.44 -1703.04,1703.05"/>
  <path class="fil1 str0" d="M434.47 4445.44l0 -687.64 779.6 0 273.59 -511.23 -597.6 -619.11 863.96 -849.6 604.75 561.56 482.4 -237.55 0 -799.18 1245.53 0 7.23 784.73 403.16 288.05 655.16 -554.42 791.96 799.19 -518.37 518.36 223.18 568.78 851.6 0 0 741.54m-6066.15 -8.01l0 687.64 779.6 0 273.59 511.22 -597.6 619.11 863.96 849.6 604.75 -561.55 482.4 237.54 0 799.19 1245.53 0 7.23 -784.73 403.16 -288.05 655.16 554.41 791.96 -799.18 -518.37 -518.36 223.18 -568.78 851.6 0 0 -741.54"/>
  <line class="fil1 str0" x1="6909.4" y1="2925.28" x2="8107.54" y2= "2847.34" />
 </g>
</svg>
