<?xml version="1.0" encoding="UTF-8"?>
<!DOCTYPE svg PUBLIC "-//W3C//DTD SVG 1.1//EN" "http://www.w3.org/Graphics/SVG/1.1/DTD/svg11.dtd">
<!-- Creator: CorelDRAW 2019 (64-Bit) -->
<svg xmlns="http://www.w3.org/2000/svg" xml:space="preserve" width="100mm" height="81mm" version="1.1" style="shape-rendering:geometricPrecision; text-rendering:geometricPrecision; image-rendering:optimizeQuality; fill-rule:evenodd; clip-rule:evenodd"
viewBox="0 0 10000 8100"
 xmlns:xlink="http://www.w3.org/1999/xlink">
 <defs>
  <style type="text/css">
   <![CDATA[
    .str0 {stroke:#EF7F1A;stroke-width:150;stroke-miterlimit:22.9256}
    .fil0 {fill:none}
   ]]>
  </style>
 </defs>
 <g id="Слой_x0020_1">
  <metadata id="CorelCorpID_0Corel-Layer"/>
  <path class="fil0 str0" d="M696.77 7854.71c234.46,88.25 685.73,56.27 988.38,56.27l2144.02 -2.36c168,0 359.92,6 524.96,-0.74 208.88,-8.54 303.62,-51.76 395.45,-91l167.15 -121.44c199.24,-147.36 162.87,-389.64 162.87,-616.76l0 -4346.29c0,-155.03 39.05,-472.47 -178.41,-591.51l-168.49 -111.25c-210.04,-124.82 -629.25,-92.62 -934.59,-91.65l-2112.96 2.58c-258.5,0 -790.4,-27.84 -978.4,56.64"/>
  <path class="fil0 str0" d="M4335.45 7909.66c-222.11,14.86 -482.02,1.32 -678.96,1.32l-2144.03 -2.36c-168,0 -359.92,6 -524.95,-0.74 -208.89,-8.55 -303.63,-51.76 -395.45,-91l-167.15 -121.44c-199.25,-147.36 -162.88,-389.64 -162.88,-616.76l0 -4346.3c0,-155.02 -39.04,-472.46 178.43,-591.5l168.48 -111.25c210.04,-124.82 629.25,-92.62 934.59,-91.64l1145.52 1.39"/>
  <path class="fil0 str0" d="M5080.84 7167.59c10.88,-0.33 21.67,-0.72 32.34,-1.15 208.89,-8.55 303.63,-51.75 395.45,-90.99l167.15 -121.45c199.25,-147.36 162.88,-389.64 162.88,-616.76l0 -4346.29c0,-155.02 39.04,-472.47 -178.42,-591.5l-168.49 -111.25c-210.04,-124.83 -629.25,-92.63 -934.59,-91.66l-2112.96 2.59c-258.49,0 -790.4,-27.85 -978.39,56.63"/>
  <path class="fil0 str0" d="M5094.5 7168.22c-4.52,0.31 -9.07,0.59 -13.62,0.87m-4059.79 -5178.14c0,-155.02 -39.05,-472.47 178.42,-591.5l168.48 -111.25c210.04,-124.83 629.26,-92.63 934.6,-91.65l1145.51 1.4"/>
  <path class="fil0 str0" d="M5848.38 6414.99c10.88,-0.33 21.67,-0.71 32.34,-1.15 208.89,-8.54 303.63,-51.75 395.45,-90.99l167.15 -121.45c199.25,-147.36 162.87,-389.64 162.87,-616.76l0 -4346.29c0,-155.02 39.05,-472.47 -178.42,-591.5l-168.48 -111.25c-210.04,-124.82 -629.25,-92.62 -934.6,-91.65l-2112.95 2.58c-258.5,0 -790.4,-27.84 -978.4,56.63"/>
  <path class="fil0 str0" d="M5862.04 6415.62c-4.52,0.31 -9.08,0.6 -13.62,0.88m-4059.8 -5178.15c0,-155.02 -39.04,-472.47 178.43,-591.5l168.48 -111.25c210.04,-124.82 629.25,-92.62 934.59,-91.64l1145.52 1.39"/>
  <line class="fil0 str0" x1="818.59" y1="3975.98" x2="4250.26" y2= "3975.98" />
  <line class="fil0 str0" x1="818.59" y1="3281.53" x2="1943.17" y2= "3281.53" />
  <line class="fil0 str0" x1="2395.32" y1="3281.53" x2="4250.26" y2= "3281.53" />
  <line class="fil0 str0" x1="818.59" y1="5365.89" x2="2012.81" y2= "5365.89" />
  <line class="fil0 str0" x1="818.59" y1="4655.98" x2="4250.26" y2= "4655.98" />
 </g>
</svg>
