<?xml version="1.0" encoding="UTF-8"?>
<!DOCTYPE svg PUBLIC "-//W3C//DTD SVG 1.1//EN" "http://www.w3.org/Graphics/SVG/1.1/DTD/svg11.dtd">
<!-- Creator: CorelDRAW 2019 (64-Bit) -->
<svg xmlns="http://www.w3.org/2000/svg" xml:space="preserve" width="100mm" height="81mm" version="1.1" style="shape-rendering:geometricPrecision; text-rendering:geometricPrecision; image-rendering:optimizeQuality; fill-rule:evenodd; clip-rule:evenodd"
viewBox="0 0 10000 8100"
 xmlns:xlink="http://www.w3.org/1999/xlink">
 <defs>
  <style type="text/css">
   <![CDATA[
    .str0 {stroke:#EF7F1A;stroke-width:150;stroke-miterlimit:22.9256}
    .fil0 {fill:none}
    .fil1 {fill:#EF7F1A;fill-rule:nonzero}
   ]]>
  </style>
 </defs>
 <g id="Слой_x0020_1">
  <metadata id="CorelCorpID_0Corel-Layer"/>
  <line class="fil0 str0" x1="1186.18" y1="4043.85" x2="4570.07" y2= "4043.85" />
  <line class="fil0 str0" x1="1178.4" y1="3349.4" x2="2302.98" y2= "3349.4" />
  <line class="fil0 str0" x1="2755.13" y1="3349.4" x2="4610.07" y2= "3349.4" />
  <line class="fil0 str0" x1="1186.18" y1="5433.76" x2="2325.49" y2= "5433.76" />
  <line class="fil0 str0" x1="1186.18" y1="4723.85" x2="3918.34" y2= "4723.85" />
  <path class="fil0 str0" d="M5247.41 3786.16l0 -1040.88c0,-526.13 -430.46,-956.59 -956.59,-956.59l-3047.53 0c-526.13,0 -956.59,430.46 -956.59,956.59l0 4211.79c0,526.13 430.46,956.59 956.59,956.59l3047.53 0c450.54,0 830.94,-315.66 930.93,-736.74"/>
  <path class="fil1" d="M7416.05 5212.02c80.27,504.55 -51.55,993.84 -329.51,1376.97 -277.98,383.16 -702.25,660.34 -1206.83,740.6l-7.69 1.17c-501.82,77.72 -988.1,-54.13 -1369.28,-330.68 -383.17,-277.98 -660.32,-702.24 -740.6,-1206.81l-1.17 -7.69c-77.72,-501.82 54.13,-988.1 330.68,-1369.29 277.98,-383.17 702.25,-660.34 1206.83,-740.61 504.55,-80.26 993.84,51.55 1376.97,329.51 383.16,277.98 660.33,702.25 740.6,1206.83zm-450.79 1289.07c255.62,-352.33 376.87,-802.08 303.13,-1265.63 -73.74,-463.53 -328.54,-853.41 -680.84,-1108.99 -352.33,-255.62 -802.08,-376.86 -1265.63,-303.13 -463.52,73.74 -853.41,328.55 -1108.99,680.85 -255.62,352.33 -376.86,802.08 -303.13,1265.62l0.08 0.51c73.85,463.29 328.59,852.99 680.76,1108.48 352.32,255.62 802.07,376.86 1265.61,303.13l0.52 -0.08c463.3,-73.84 853,-328.59 1108.49,-680.76z"/>
  <path class="fil1" d="M5492.04 6112.25l0 -74.66c0,-108.22 16.54,-197.06 50.09,-266.53 33.08,-69.94 94.98,-143.18 185.24,-220.68 125.7,-106.33 204.62,-186.19 237.23,-239.59 32.61,-53.4 49.15,-118.14 49.15,-193.75 0,-94.04 -30.25,-166.82 -90.74,-217.85 -60.48,-51.51 -147.44,-77.03 -260.85,-77.03 -72.78,0 -143.66,8.5 -213.13,25.52 -68.99,17.01 -148.38,48.2 -237.69,93.56l-81.76 -186.66c174.38,-91.2 356.79,-136.57 546.76,-136.57 176.26,0 313.3,43.48 410.65,129.96 97.82,86.95 146.97,208.87 146.97,366.7 0,67.58 -8.98,126.65 -26.94,177.69 -17.95,51.51 -44.42,99.71 -79.86,145.55 -34.97,45.36 -110.58,119.08 -226.83,220.68 -93.09,79.39 -154.53,145.08 -184.77,197.53 -29.77,52.93 -44.89,122.87 -44.89,210.29l0 45.84 -178.63 0zm-67.58 411.6c0,-125.23 55.29,-187.6 165.87,-187.6 53.87,0 94.98,16.06 124.28,48.2 28.83,32.13 43.48,78.92 43.48,139.4 0,59.07 -14.65,104.91 -44.42,137.52 -29.3,32.61 -70.41,49.15 -123.34,49.15 -47.73,0 -87.42,-14.65 -119.09,-43.48 -31.18,-28.83 -46.78,-76.56 -46.78,-143.19z"/>
 </g>
</svg>
