<?xml version="1.0" encoding="UTF-8"?>
<!DOCTYPE svg PUBLIC "-//W3C//DTD SVG 1.1//EN" "http://www.w3.org/Graphics/SVG/1.1/DTD/svg11.dtd">
<!-- Creator: CorelDRAW 2019 (64-Bit) -->
<svg xmlns="http://www.w3.org/2000/svg" xml:space="preserve" width="100mm" height="81mm" version="1.1" style="shape-rendering:geometricPrecision; text-rendering:geometricPrecision; image-rendering:optimizeQuality; fill-rule:evenodd; clip-rule:evenodd"
viewBox="0 0 10000 8100"
 xmlns:xlink="http://www.w3.org/1999/xlink">
 <defs>
  <style type="text/css">
   <![CDATA[
    .str0 {stroke:#EF7F1A;stroke-width:150;stroke-miterlimit:22.9256}
    .fil0 {fill:none}
    .fil1 {fill:#EF7F1A;fill-rule:nonzero}
   ]]>
  </style>
 </defs>
 <g id="Слой_x0020_1">
  <metadata id="CorelCorpID_0Corel-Layer"/>
  <path class="fil0 str0" d="M2387.84 7909.05l-35.82 0.43c-1162.51,0 -2104.83,-942.32 -2104.83,-2104.83 0,-821.08 470.15,-1532.28 1155.9,-1879.18 -17.12,-108.16 -26.18,-219.04 -26.18,-332.09 0,-1162.51 942.32,-2104.83 2104.84,-2104.83 734.06,0 1380.26,375.95 1756.93,945.63 203.36,-82.7 425.71,-128.44 658.84,-128.44 965.77,0 1748.59,782.83 1748.59,1748.74 0,126.7 -13.52,250.25 -39.12,369.33 871.28,99.67 1547.81,839.06 1547.81,1737.08 0,941.89 -744.42,1709.47 -1677.25,1747.01l0 1.58 -71.48 0 -5018.23 0 0 -0.43z"/>
  <path class="fil1" d="M4082.38 6364.26l-1538.38 0 0 -228.82 616.55 -619.28c187.32,-190.05 311.28,-325.48 371.36,-406.85 59.52,-80.83 104.3,-160.01 134.34,-236.47 29.49,-77 44.78,-159.46 44.78,-248.48 0,-124.51 -38.23,-223.35 -113.59,-296.53 -75.91,-73.18 -181.31,-109.77 -315.65,-109.77 -97.21,0 -188.95,15.84 -275.78,48.06 -87.38,31.67 -184.04,90.11 -290.53,174.21l-140.9 -180.77c215.17,-178.57 449.99,-267.59 703.93,-267.59 220.08,0 392.11,56.25 517.17,168.75 125.05,112.5 187.31,263.77 187.31,453.81 0,148 -41.5,294.9 -125.06,440.17 -83.01,144.71 -238.65,328.21 -467.47,549.93l-512.24 501.32 0 12.56 1204.16 0 0 245.75zm1984.01 -537.37l-347.33 0 0 537.37 -254.48 0 0 -537.37 -1138.09 0 0 -232.09 1110.78 -1583.17 281.79 0 0 1572.79 347.33 0 0 242.47zm-601.81 -242.47l0 -777.66c0,-152.36 5.46,-324.93 15.83,-516.61l-12.56 0c-51.33,102.12 -99.39,187.31 -144.17,254.48l-731.78 1039.79 872.68 0z"/>
 </g>
</svg>
