<?xml version="1.0" encoding="UTF-8"?>
<!DOCTYPE svg PUBLIC "-//W3C//DTD SVG 1.1//EN" "http://www.w3.org/Graphics/SVG/1.1/DTD/svg11.dtd">
<!-- Creator: CorelDRAW 2019 (64-Bit) -->
<svg xmlns="http://www.w3.org/2000/svg" xml:space="preserve" width="100mm" height="81mm" version="1.1" style="shape-rendering:geometricPrecision; text-rendering:geometricPrecision; image-rendering:optimizeQuality; fill-rule:evenodd; clip-rule:evenodd"
viewBox="0 0 10000 8100"
 xmlns:xlink="http://www.w3.org/1999/xlink">
 <defs>
  <style type="text/css">
   <![CDATA[
    .str0 {stroke:#EF7F1A;stroke-width:150;stroke-miterlimit:22.9256}
    .fil0 {fill:none}
   ]]>
  </style>
 </defs>
 <g id="Слой_x0020_1">
  <metadata id="CorelCorpID_0Corel-Layer"/>
  <path class="fil0 str0" d="M1621 5913.21l0 -3207.06c0,-355.55 290.9,-646.45 646.45,-646.45l5548.69 0c355.55,0 646.45,290.9 646.45,646.45l0 3737.68c0,355.55 -290.9,646.45 -646.45,646.45l-5548.69 0c-355.53,0 -636.4,-225.81 -644.13,-581.28"/>
  <rect class="fil0 str0" x="4591.99" y="7090.28" width="1031.87" height="659.72"/>
  <line class="fil0 str0" x1="3983.44" y1="7756.15" x2="6272.09" y2= "7756.15" />
  <line class="fil0 str0" x1="3000.92" y1="4026.38" x2="7274.46" y2= "4026.38" />
  <line class="fil0 str0" x1="3000.92" y1="3331.93" x2="4401.39" y2= "3331.93" />
  <line class="fil0 str0" x1="4964.46" y1="3331.93" x2="7274.46" y2= "3331.93" />
  <line class="fil0 str0" x1="3000.92" y1="5416.29" x2="4488.11" y2= "5416.29" />
  <line class="fil0 str0" x1="3000.92" y1="4706.38" x2="7274.46" y2= "4706.38" />
  <path class="fil0 str0" d="M3308.02 3931.6l-3009.38 3534.88c-93.55,109.88 -53.33,244.87 55.71,346.81l3.8 3.55c96.76,90.46 271.3,76.61 348.55,-31l2718.49 -3786.82c193.14,-269.03 97.5,-319.57 -117.17,-67.42z"/>
 </g>
</svg>
