<?xml version="1.0" encoding="UTF-8"?>
<!DOCTYPE svg PUBLIC "-//W3C//DTD SVG 1.1//EN" "http://www.w3.org/Graphics/SVG/1.1/DTD/svg11.dtd">
<!-- Creator: CorelDRAW 2019 (64-Bit) -->
<svg xmlns="http://www.w3.org/2000/svg" xml:space="preserve" width="103mm" height="81mm" version="1.1" style="shape-rendering:geometricPrecision; text-rendering:geometricPrecision; image-rendering:optimizeQuality; fill-rule:evenodd; clip-rule:evenodd"
viewBox="0 0 10300 8100"
 xmlns:xlink="http://www.w3.org/1999/xlink">
 <defs>
  <style type="text/css">
   <![CDATA[
    .str0 {stroke:#EF7F1A;stroke-width:150;stroke-miterlimit:22.9256}
    .fil1 {fill:none}
    .fil0 {fill:#EF7F1A;fill-rule:nonzero}
   ]]>
  </style>
 </defs>
 <g id="Слой_x0020_1">
  <metadata id="CorelCorpID_0Corel-Layer"/>
  <path class="fil0" d="M3506.24 4057.72c-133.62,839.97 439.04,1629.44 1278.93,1763.19l0.27 0.04c419.89,66.79 827.3,-43.05 1146.46,-274.6 318.89,-231.36 549.58,-584.16 616.59,-1003.57l0.16 -1.03c66.79,-419.89 -43.05,-827.3 -274.6,-1146.46 -231.36,-318.89 -584.16,-549.58 -1003.57,-616.59l-1.03 -0.16c-419.89,-66.79 -827.3,43.05 -1146.46,274.6 -319.02,231.45 -549.77,584.44 -616.67,1004.08l-0.08 0.5zm1255.74 1910.89c-918.93,-146.18 -1546.27,-1007.75 -1404.57,-1926.32l1.17 -8.03c73.33,-460.92 326.5,-848.47 676.51,-1102.4 348.02,-252.49 791.96,-372.93 1250.13,-302.15l7.71 1.17c460.92,73.33 848.47,326.5 1102.4,676.51 252.49,348.02 372.93,791.96 302.15,1250.13l-1.17 7.71c-73.33,460.92 -326.5,848.47 -676.51,1102.4 -348.02,252.49 -791.96,372.93 -1250.13,302.15l-7.69 -1.17z"/>
  <path class="fil0" d="M2885.06 3958.39l-0.08 0.52c-94.08,591.43 60.6,1165.21 386.69,1614.69 325.98,449.31 823.22,774.33 1414.4,868.53l0.52 0.08c591.44,94.08 1165.23,-60.59 1614.71,-386.69 449.46,-326.08 774.53,-823.51 868.62,-1414.92 94.08,-591.45 -60.6,-1165.23 -386.7,-1614.71 -326.08,-449.46 -823.51,-774.54 -1414.92,-868.62 -591.43,-94.08 -1165.22,60.6 -1614.71,386.7 -449.32,325.99 -774.34,823.23 -868.53,1414.42zm265.33 1703.11c-347.03,-478.34 -512.29,-1088.66 -414.24,-1718.36l1.17 -7.69c100.61,-632.46 448.05,-1164.29 928.37,-1512.76 480.28,-348.44 1093.62,-513.69 1726.05,-413.08 632.47,100.61 1164.29,448.06 1512.76,928.38 348.44,480.28 513.69,1093.61 413.08,1726.05 -100.62,632.47 -448.05,1164.29 -928.38,1512.76 -478.34,347.03 -1088.67,512.3 -1718.38,414.24l-7.69 -1.17c-632.46,-100.62 -1164.27,-448.06 -1512.74,-928.37z"/>
  <path class="fil0" d="M3019.74 6412.48l-616.2 -849.34 -1792.45 1300.42 616.2 849.34 1792.45 -1300.42zm-538.92 -997.89l748.12 1031.16 -2034.92 1476.34 -792.12 -1091.81 2034.92 -1476.34 44 60.65z"/>
  <line class="fil1 str0" x1="3453.55" y1="5899.62" x2="2986.2" y2= "6238.68" />
  <line class="fil1 str0" x1="3031.48" y1="5335.72" x2="2564.13" y2= "5674.79" />
  <path class="fil1 str0" d="M4912.4 4301.73l0 -404.9 329.47 0 173.89 -301.02 -379.82 -364.53 471.04 -452.36 151.57 33.74 310.88 249 61.26 -27.95m270.07 -582.51l766.94 0 4.6 462.07 256.26 169.6 416.41 -326.44 503.36 470.58 -329.47 305.23 141.84 334.91 375.25 0 0 436.64"/>
  <path class="fil1 str0" d="M6556.92 3779.98c-272.79,38.23 -481.83,256.36 -481.83,519.76"/>
  <path class="fil1 str0" d="M4912.4 4247.8l0 404.9 329.47 0 173.89 301.02 -379.83 364.55 526.29 479.44 49.9 -2.44 357.31 -307.39 100.18 45.7m299.88 564.75l698.21 0 4.6 -462.06 256.25 -169.61 416.41 326.44 503.37 -470.58 -329.47 -305.21 141.84 -334.92 375.25 0 0 -436.64"/>
  <path class="fil1 str0" d="M6572.3 4771.51c-280.27,-32.03 -497.21,-253.38 -497.21,-521.71"/>
 </g>
</svg>
