<?xml version="1.0" encoding="UTF-8"?>
<!DOCTYPE svg PUBLIC "-//W3C//DTD SVG 1.1//EN" "http://www.w3.org/Graphics/SVG/1.1/DTD/svg11.dtd">
<!-- Creator: CorelDRAW 2019 (64-Bit) -->
<svg xmlns="http://www.w3.org/2000/svg" xml:space="preserve" width="47mm" height="49mm" version="1.1" style="shape-rendering:geometricPrecision; text-rendering:geometricPrecision; image-rendering:optimizeQuality; fill-rule:evenodd; clip-rule:evenodd"
viewBox="0 0 4700 4900"
 xmlns:xlink="http://www.w3.org/1999/xlink">
 <defs>
  <style type="text/css">
   <![CDATA[
    .fil0 {fill:#EF7F1A}
    .fil1 {fill:#2B2A29;fill-rule:nonzero}
   ]]>
  </style>
 </defs>
 <g id="Слой_x0020_1">
  <metadata id="CorelCorpID_0Corel-Layer"/>
  <polygon class="fil0" points="31.1,40.04 4685.45,40.04 4685.45,903.75 31.1,903.75 "/>
  <path class="fil1" d="M2258.74 1535.98l2390.18 0 0 773.69 -2440.18 0 0 -773.69 50 0zm2290.18 100l-2240.18 0 0 573.69 2240.18 0 0 -573.69z"/>
  <polygon class="fil1" points="2639.91,1872.82 4173.43,1872.82 4173.43,1972.82 2639.91,1972.82 "/>
  <path class="fil1" d="M2258.74 2803.55l2390.18 0 0 773.69 -2440.18 0 0 -773.69 50 0zm2290.18 100l-2240.18 0 0 573.69 2240.18 0 0 -573.69z"/>
  <polygon class="fil1" points="2639.91,3140.4 4173.43,3140.4 4173.43,3240.4 2639.91,3240.4 "/>
  <path class="fil1" d="M2258.74 4071.12l2390.18 0 0 773.69 -2440.18 0 0 -773.69 50 0zm2290.18 100l-2240.18 0 0 573.69 2240.18 0 0 -573.69z"/>
  <polygon class="fil1" points="2639.91,4407.97 4173.43,4407.97 4173.43,4507.97 2639.91,4507.97 "/>
  <polygon class="fil1" points="2234.46,1972.82 1771.39,1972.82 1771.31,4497.2 1671.71,4497.2 1671.8,1872.82 2234.46,1872.82 "/>
  <polygon class="fil1" points="487.6,3160.02 2245.45,3160.02 2245.45,3260.02 487.6,3260.02 "/>
  <polygon class="fil1" points="1697.89,4407.97 2210.76,4407.97 2210.76,4507.97 1697.89,4507.97 "/>
  <polygon class="fil1" points="789.19,422.95 3839.19,422.95 3839.19,522.95 789.19,522.95 "/>
  <polygon class="fil1" points="400.86,3252.41 400.86,905.85 500.86,905.85 500.86,3252.41 "/>
 </g>
</svg>
