<?xml version="1.0" encoding="UTF-8"?>
<!DOCTYPE svg PUBLIC "-//W3C//DTD SVG 1.1//EN" "http://www.w3.org/Graphics/SVG/1.1/DTD/svg11.dtd">
<!-- Creator: CorelDRAW 2019 (64-Bit) -->
<svg xmlns="http://www.w3.org/2000/svg" xml:space="preserve" width="59mm" height="56mm" version="1.1" style="shape-rendering:geometricPrecision; text-rendering:geometricPrecision; image-rendering:optimizeQuality; fill-rule:evenodd; clip-rule:evenodd"
viewBox="0 0 5900 5600"
 xmlns:xlink="http://www.w3.org/1999/xlink">
 <defs>
  <style type="text/css">
   <![CDATA[
    .fil3 {fill:#FEFEFE}
    .fil2 {fill:#EF7F1A}
    .fil0 {fill:#2B2A29;fill-rule:nonzero}
    .fil1 {fill:#EF7F1A;fill-rule:nonzero}
   ]]>
  </style>
 </defs>
 <g id="Слой_x0020_1">
  <metadata id="CorelCorpID_0Corel-Layer"/>
  <polygon class="fil0" points="1973.55,5329.49 51.35,5335.11 51.35,175.03 4834.2,175.03 4836.85,1772.99 4737.25,1772.99 4734.76,275.03 151.35,275.03 151.35,5235.22 1973.55,5229.89 "/>
  <polygon class="fil0" points="772.34,2715.79 1825.19,2705.3 1825.97,2804.9 773.12,2815.39 "/>
  <polygon class="fil0" points="772.34,2022.55 1992.74,2012.63 1993.52,2112.23 773.12,2122.15 "/>
  <polygon class="fil1" points="771.75,3333.74 1992.15,3323.82 1994.11,3572.84 773.71,3582.76 "/>
  <polygon class="fil0" points="2005.97,4161.47 785.57,4151.55 786.35,4051.95 2006.75,4061.87 "/>
  <rect class="fil2" x="2021.26" y="1429.6" width="3733.47" height="706.63"/>
  <circle class="fil3" cx="4690.79" cy="1749.58" r="98.66"/>
  <circle class="fil3" cx="5057.44" cy="1749.58" r="98.66"/>
  <circle class="fil3" cx="5424.09" cy="1749.58" r="98.66"/>
  <path class="fil0" d="M5814.67 5519.6l-3843.41 10.19 0 -4179.72 3875.41 0 18 4168.04 -50 0.2 0 1.29zm-3743.41 -89.67l3693.38 -9.8 -17.14 -3970.06 -3676.24 0 0 3979.86z"/>
  <polygon class="fil0" points="2562.37,3398.62 3908.97,3390.16 3909.37,3489.76 2562.77,3498.22 "/>
  <polygon class="fil0" points="2562.18,2839.69 3546.14,2831.69 3546.92,2931.29 2562.96,2939.29 "/>
  <polygon class="fil1" points="2561.59,3882.37 3545.55,3874.38 3547.51,4123.4 2563.55,4131.39 "/>
  <polygon class="fil1" points="4043.94,2766.62 5027.9,2758.62 5029.86,3007.64 4045.9,3015.64 "/>
  <polygon class="fil0" points="4044.53,3980.68 4963.16,3972.68 4963.94,4072.28 4045.31,4080.28 "/>
  <polygon class="fil0" points="4354.99,3411.23 5028.29,3402.77 5029.47,3502.37 4356.17,3510.83 "/>
  <polygon class="fil0" points="4371.96,4581.87 4054.42,4573.88 4056.76,4474.28 4374.3,4482.27 "/>
  <polygon class="fil0" points="3556.81,4583.51 2572.85,4575.51 2573.63,4475.91 3557.59,4483.91 "/>
  <polygon class="fil0" points="764.28,1360.76 1599.37,1350.27 1600.55,1449.87 765.46,1460.36 "/>
  <polygon class="fil0" points="764.48,667.52 1984.88,657.6 1985.66,757.2 765.26,767.12 "/>
  <polygon class="fil1" points="2602.44,594.84 3822.84,584.92 3824.8,833.94 2604.4,843.86 "/>
 </g>
</svg>
