<?xml version="1.0" encoding="UTF-8"?>
<!DOCTYPE svg PUBLIC "-//W3C//DTD SVG 1.1//EN" "http://www.w3.org/Graphics/SVG/1.1/DTD/svg11.dtd">
<!-- Creator: CorelDRAW 2019 (64-Bit) -->
<svg xmlns="http://www.w3.org/2000/svg" xml:space="preserve" width="49mm" height="58mm" version="1.1" style="shape-rendering:geometricPrecision; text-rendering:geometricPrecision; image-rendering:optimizeQuality; fill-rule:evenodd; clip-rule:evenodd"
viewBox="0 0 4900 5800"
 xmlns:xlink="http://www.w3.org/1999/xlink">
 <defs>
  <style type="text/css">
   <![CDATA[
    .fil0 {fill:#EF7F1A}
    .fil1 {fill:#2B2A29;fill-rule:nonzero}
   ]]>
  </style>
 </defs>
 <g id="Слой_x0020_1">
  <metadata id="CorelCorpID_0Corel-Layer"/>
  <polygon class="fil0" points="701.97,4159.21 701.97,2666.95 62.66,2666.95 1377.92,1342.15 2691.35,2666.95 2093.23,2666.95 2093.23,4159.21 "/>
  <path class="fil1" d="M2073.73 1612.1l0 -585.5 -614.16 0 1010.2 -1017.53 1008.77 1017.53 -612.79 0 39.43 1399.81c-277.16,-264.35 -554.22,-528.8 -831.45,-793.07l0 -21.24zm100 -635.5l0 614.27 625.03 596.19 -35.5 -1260.46 475.72 0 -769.27 -775.95 -770.35 775.95 474.37 0 0 50z"/>
  <path class="fil1" d="M4029.59 588.31l301.97 0 0 1073.1 -351.97 0 0 -1073.1 50 0zm201.97 100l-151.97 0 0 873.1 151.97 0 0 -873.1z"/>
  <path class="fil1" d="M4029.59 1797.42l301.97 0 0 437.09 -351.97 0 0 -437.09 50 0zm201.97 100l-151.97 0 0 237.09 151.97 0 0 -237.09z"/>
  <path class="fil1" d="M3664.16 4987.28l0 386.35 -351.97 0 0 -386.35 -360.48 0 0 -1549.84 -659.42 0 1286.28 -1295.61 1284.51 1295.61 -659.21 0 0 659.2 0.27 0 0 1073.11 -351.97 0 0 -182.47 -188.01 0zm-100 286.35l0 -386.35 388.01 0 0 182.47 151.97 0 0 -873.11 -0.27 0 0 -859.2 519.64 0 -1044.99 -1054.03 -1046.44 1054.03 519.63 0 0 1549.84 360.48 0 0 386.35 151.97 0z"/>
  <path class="fil1" d="M3362.19 5482.93l301.97 0 0 319.74 -351.97 0 0 -319.74 50 0zm201.97 100l-151.97 0 0 119.74 151.97 0 0 -119.74z"/>
  <path class="fil1" d="M3590.42 1107.51l301.97 0 0 437.1 -351.97 0 0 -437.1 50 0zm201.97 100l-151.97 0 0 237.1 151.97 0 0 -237.1z"/>
  <path class="fil1" d="M3590.42 1678.16l301.97 0 0 268.55 -351.97 0 0 -268.55 50 0zm201.97 100l-151.97 0 0 68.55 151.97 0 0 -68.55z"/>
  <rect class="fil0" x="900.64" y="4363.36" width="251.97" height="900.67"/>
  <rect class="fil0" x="900.64" y="5396.06" width="251.97" height="141.09"/>
  <rect class="fil0" x="1441.92" y="4557.44" width="251.97" height="337.1"/>
  <rect class="fil0" x="1441.92" y="5034.84" width="251.97" height="168.56"/>
  <rect class="fil0" x="1428.29" y="4092.66" width="251.97" height="337.1"/>
  <rect class="fil0" x="1840.44" y="3505.27" width="251.97" height="900.67"/>
  <rect class="fil0" x="1840.44" y="4537.97" width="251.97" height="141.09"/>
 </g>
</svg>
