<?xml version="1.0" encoding="UTF-8"?>
<!DOCTYPE svg PUBLIC "-//W3C//DTD SVG 1.1//EN" "http://www.w3.org/Graphics/SVG/1.1/DTD/svg11.dtd">
<!-- Creator: CorelDRAW 2017 -->
<svg xmlns="http://www.w3.org/2000/svg" xml:space="preserve" width="36px" height="39px" version="1.1" style="shape-rendering:geometricPrecision; text-rendering:geometricPrecision; image-rendering:optimizeQuality; fill-rule:evenodd; clip-rule:evenodd"
viewBox="0 0 5000 5500"
 xmlns:xlink="http://www.w3.org/1999/xlink">
 <defs>
  <style type="text/css">
   <![CDATA[
    .str0 {stroke:#2B2A29;stroke-width:30;stroke-miterlimit:22.9256}
    .str2 {stroke:#1F1B20;stroke-width:30;stroke-miterlimit:22.9256}
    .str1 {stroke:#E77817;stroke-width:30;stroke-miterlimit:22.9256}
    .str3 {stroke:#E77817;stroke-width:30;stroke-miterlimit:22.9256}
    .fil0 {fill:none}
    .fil1 {fill:#E77817}
   ]]>
  </style>
 </defs>
 <g id="Слой_x0020_1">
  <metadata id="CorelCorpID_0Corel-Layer"/>
  <g id="_1201830512">
   <rect class="fil0 str0" x="956.06" y="1208.96" width="675.14" height="600.12"/>
   <rect class="fil0 str0" x="956.06" y="2588.72" width="675.14" height="600.12"/>
   <rect class="fil0 str0" x="945.53" y="3968.49" width="675.14" height="600.12"/>
   <rect class="fil1 str1" transform="matrix(-0.110385 0.0714506 -0.0714506 -0.110385 1432.32 1607.75)" width="1322.92" height="4868.34" rx="510" ry="510"/>
   <rect class="fil1 str1" transform="matrix(-0.0889083 -0.0238229 0.0521091 -0.194474 1392.73 1649.46)" width="1322.92" height="4868.34" rx="510" ry="510"/>
   <rect class="fil1 str1" transform="matrix(-0.110385 0.0714506 -0.0714506 -0.110385 1467.68 2970.08)" width="1322.92" height="4868.34" rx="510" ry="510"/>
   <rect class="fil1 str1" transform="matrix(-0.0889083 -0.0238229 0.0521091 -0.194474 1428.08 3011.8)" width="1322.92" height="4868.34" rx="510" ry="510"/>
   <polygon class="fil0 str2" points="185.4,193.25 2650.99,193.25 3514.04,1056.3 3514.04,2487.55 3514.04,1198.13 2613.84,1198.13 2613.84,193.25 185.4,193.25 185.4,5259.5 3514.04,5259.5 3514.04,3157.9 3514.04,5259.5 185.4,5259.5 "/>
   <path class="fil0 str3" d="M4763.62 1625.71l-25.96 -25.96c-83.02,-83.02 -218.88,-83.01 -301.89,0l-1839.29 1839.29 -284.55 584.07 607.41 -251.23 1844.28 -1844.28c83.02,-83.02 83.02,-218.87 0,-301.89"/>
   <path class="fil0 str3" d="M4488.18 2203.13c-328.19,-327.69 0,0 -328.19,-327.69"/>
  </g>
 </g>
</svg>
