<?xml version="1.0" encoding="UTF-8"?>
<!DOCTYPE svg PUBLIC "-//W3C//DTD SVG 1.1//EN" "http://www.w3.org/Graphics/SVG/1.1/DTD/svg11.dtd">
<!-- Creator: CorelDRAW 2019 (64-Bit) -->
<svg xmlns="http://www.w3.org/2000/svg" xml:space="preserve" width="100mm" height="81mm" version="1.1" style="shape-rendering:geometricPrecision; text-rendering:geometricPrecision; image-rendering:optimizeQuality; fill-rule:evenodd; clip-rule:evenodd"
viewBox="0 0 10000 8100"
 xmlns:xlink="http://www.w3.org/1999/xlink">
 <defs>
  <style type="text/css">
   <![CDATA[
    .str0 {stroke:#EF7F1A;stroke-width:150;stroke-miterlimit:22.9256}
    .fil0 {fill:none}
   ]]>
  </style>
 </defs>
 <g id="Слой_x0020_1">
  <metadata id="CorelCorpID_0Corel-Layer"/>
  <circle class="fil0 str0" cx="2364.2" cy="7288.76" r="660.82"/>
  <circle class="fil0 str0" cx="7012.18" cy="7288.76" r="660.82"/>
  <path class="fil0 str0" d="M5336.8 7286.03l-1979.86 0c-1.48,-547.03 -445.36,-990.04 -992.74,-990.04 -547.38,0 -991.26,443.01 -992.74,990.04l-523.82 0c-385,0 -700,-315 -700,-700l0 -3914.83c0,-385 315,-700 700,-700l3789.16 0c385,0 700,315 700,700l0 4614.83z"/>
  <path class="fil0 str0" d="M5769.67 7348.74l362.57 0c-1.76,-22.78 -2.67,-45.81 -2.67,-69.04 0,-487.45 395.16,-882.61 882.61,-882.61 487.45,0 882.61,395.16 882.61,882.61 0,23.23 -0.91,46.26 -2.67,69.04l401.39 0c216.44,0 393.54,-177.09 393.54,-393.54l0 -1897.8c0,-421.5 -1171.43,-1910.2 -1520.13,-1911.14l-1397.25 -3.76 0 4206.24z"/>
  <path class="fil0 str0" d="M8196.83 5197.69l-1396.92 0c-110,0 -200,-90 -200,-200l0 -1506.88 525.36 0c160.63,0 1133.37,1143.78 1271.56,1506.88 39.13,102.8 -90.01,200 -200,200z"/>
 </g>
</svg>
