<?xml version="1.0" encoding="UTF-8"?>
<!DOCTYPE svg PUBLIC "-//W3C//DTD SVG 1.1//EN" "http://www.w3.org/Graphics/SVG/1.1/DTD/svg11.dtd">
<!-- Creator: CorelDRAW 2019 (64-Bit) -->
<svg xmlns="http://www.w3.org/2000/svg" xml:space="preserve" width="103mm" height="81mm" version="1.1" style="shape-rendering:geometricPrecision; text-rendering:geometricPrecision; image-rendering:optimizeQuality; fill-rule:evenodd; clip-rule:evenodd"
viewBox="0 0 10300 8100"
 xmlns:xlink="http://www.w3.org/1999/xlink">
 <defs>
  <style type="text/css">
   <![CDATA[
    .str0 {stroke:#EF7F1A;stroke-width:150;stroke-miterlimit:22.9256}
    .fil0 {fill:none}
   ]]>
  </style>
 </defs>
 <g id="Слой_x0020_1">
  <metadata id="CorelCorpID_0Corel-Layer"/>
  <rect class="fil0 str0" x="6081.21" y="5168.16" width="1228.5" height="732.86"/>
  <rect class="fil0 str0" x="4351.21" y="5168.16" width="1228.5" height="732.86"/>
  <rect class="fil0 str0" x="6081.21" y="4088.16" width="1228.5" height="732.86"/>
  <rect class="fil0 str0" x="4351.21" y="4088.16" width="1228.5" height="732.86"/>
  <path class="fil0 str0" d="M188.63 4369.61l3.13 1534.93c0,120.27 -7.96,257.67 0.98,375.82 11.34,149.54 68.71,217.37 120.79,283.1l161.2 119.67c195.59,142.64 517.18,116.6 818.65,116.6l5769.03 0c205.78,0 627.13,27.96 785.14,-127.73l147.66 -120.62c165.68,-150.37 122.94,-450.48 121.66,-669.09l-3.43 -1512.68"/>
  <path class="fil0 str0" d="M190.38 6266.99c-19.72,-159.01 -1.75,-345.08 -1.75,-486.07l3.13 -1534.93c0,-120.27 -7.97,-257.67 0.99,-375.82 11.34,-149.54 68.7,-217.37 120.78,-283.11l161.19 -119.66c195.6,-142.64 517.19,-116.6 818.66,-116.6l5769.04 0c205.76,0 627.12,-27.96 785.13,127.73l147.66 120.62c165.68,150.37 122.94,450.49 121.65,669.08l-1.85 820.09"/>
  <path class="fil0 str0" d="M1175.37 6800.62c0.43,7.79 0.95,15.51 1.52,23.15 11.35,149.55 68.7,217.37 120.78,283.11l161.2 119.66c195.6,142.65 517.19,116.61 818.66,116.61l5769.03 0c205.76,0 627.13,27.95 785.13,-127.74l147.66 -120.61c165.69,-150.38 122.95,-450.49 121.66,-669.09l-3.43 -1512.68"/>
  <path class="fil0 str0" d="M1174.53 6810.4c-0.41,-3.24 -0.79,-6.5 -1.16,-9.75m6873.19 -2906.44c205.76,0 627.13,-27.95 785.13,127.73l147.66 120.62c165.69,150.37 122.95,450.49 121.65,669.09l-1.86 820.08"/>
  <path class="fil0 str0" d="M2174.32 7350.11c0.44,7.78 0.95,15.51 1.53,23.15 11.34,149.54 68.69,217.37 120.78,283.1l161.2 119.67c195.59,142.64 517.19,116.6 818.66,116.6l5769.02 0c205.77,0 627.14,27.95 785.13,-127.73l147.67 -120.62c165.68,-150.37 122.94,-450.49 121.66,-669.08l-3.43 -1512.69"/>
  <path class="fil0 str0" d="M2173.48 7359.89c-0.4,-3.24 -0.79,-6.5 -1.15,-9.76m6873.18 -2906.43c205.77,0 627.14,-27.96 785.13,127.73l147.67 120.62c165.68,150.37 122.94,450.48 121.64,669.08l-1.85 820.08"/>
  <line class="fil0 str0" x1="3961.27" y1="5763.84" x2="3026.28" y2= "5763.84" />
  <line class="fil0 str0" x1="2722.47" y1="5763.84" x2="1180.27" y2= "5763.84" />
  <line class="fil0 str0" x1="3961.27" y1="4299.48" x2="3093.66" y2= "4299.48" />
  <line class="fil0 str0" x1="3961.27" y1="5009.39" x2="1107.06" y2= "5009.39" />
  <path class="fil0 str0" d="M1174.53 6810.4c-0.41,-3.24 -0.79,-6.5 -1.16,-9.75m6873.19 -2906.44c205.76,0 627.13,-27.95 785.13,127.73l147.66 120.62c165.69,150.37 122.95,450.49 121.65,669.09l-1.86 820.08"/>
  <path class="fil0 str0" d="M2173.48 7359.89c-0.4,-3.24 -0.79,-6.5 -1.15,-9.76m6873.18 -2906.43c205.77,0 627.14,-27.96 785.13,127.73l147.67 120.62c165.68,150.37 122.94,450.48 121.64,669.08l-1.85 820.08"/>
 </g>
</svg>
