<?xml version="1.0" encoding="UTF-8"?>
<!DOCTYPE svg PUBLIC "-//W3C//DTD SVG 1.1//EN" "http://www.w3.org/Graphics/SVG/1.1/DTD/svg11.dtd">
<!-- Creator: CorelDRAW 2019 (64-Bit) -->
<svg xmlns="http://www.w3.org/2000/svg" xml:space="preserve" width="100mm" height="81mm" version="1.1" style="shape-rendering:geometricPrecision; text-rendering:geometricPrecision; image-rendering:optimizeQuality; fill-rule:evenodd; clip-rule:evenodd"
viewBox="0 0 10000 8100"
 xmlns:xlink="http://www.w3.org/1999/xlink">
 <defs>
  <style type="text/css">
   <![CDATA[
    .str0 {stroke:#EF7F1A;stroke-width:150;stroke-miterlimit:22.9256}
    .fil0 {fill:none}
   ]]>
  </style>
 </defs>
 <g id="Слой_x0020_1">
  <metadata id="CorelCorpID_0Corel-Layer"/>
  <g id="_1390486784">
   <path class="fil0 str0" d="M345.07 6394.23l121.44 136.19c147.36,162.33 389.64,132.7 616.76,132.7l4346.29 0c155.03,0 472.47,31.81 591.51,-145.37l111.25 -137.27c124.82,-171.13 92.62,-512.68 91.65,-761.46l-2.58 -1721.52c0,-210.61 27.84,-643.97 -56.64,-797.14 -47.35,18.6 -2180.48,1893.95 -2477.96,2161.34 -115.07,103.45 -267.93,188.86 -462.89,185.17 -200.98,-3.81 -331.36,-93.16 -452.62,-196.68l-2464.04 -2157.96c-88.25,191.02 -56.27,558.69 -56.27,805.27l2.36 1746.84c0,136.87 -6,293.24 0.74,427.7 8.54,170.19 51.76,247.38 91,322.19z"/>
   <line class="fil0 str0" x1="392.44" y1="6457.62" x2="1895.49" y2= "5157.91" />
   <line class="fil0 str0" x1="6071.03" y1="6413.64" x2="4937.87" y2= "5429.05" />
   <path class="fil0 str0" d="M252.29 6056.82c-14.86,-180.96 -1.32,-392.72 -1.32,-553.17l2.36 -1746.84c0,-136.88 -6,-293.25 0.74,-427.7 8.55,-170.2 51.76,-247.38 91,-322.2l121.44 -136.18c147.36,-162.34 389.64,-132.7 616.76,-132.7l4346.3 0c155.02,0 472.46,-31.82 591.5,145.37l111.25 137.27c124.82,171.13 92.62,512.68 91.64,761.45l-1.39 933.3"/>
  </g>
  <path class="fil0 str0" d="M994.36 6664.13c0.33,8.86 0.72,17.65 1.15,26.35 8.55,170.19 51.75,247.38 90.99,322.19l121.45 136.18c147.36,162.34 389.64,132.7 616.76,132.7l4346.29 0c155.02,0 472.47,31.82 591.5,-145.36l111.25 -137.27c124.83,-171.13 92.63,-512.68 91.66,-761.46l-2.59 -1721.52"/>
  <path class="fil0 str0" d="M993.73 6675.26c-0.31,-3.69 -0.59,-7.4 -0.87,-11.1m5178.14 -3307.7c155.02,0 472.47,-31.81 591.5,145.37l111.25 137.27c124.83,171.13 92.63,512.68 91.65,761.46l-1.4 933.3"/>
  <path class="fil0 str0" d="M1746.96 7289.48c0.33,8.86 0.71,17.65 1.15,26.34 8.54,170.19 51.75,247.38 90.99,322.2l121.45 136.18c147.36,162.34 389.64,132.7 616.76,132.7l4346.29 0c155.02,0 472.47,31.81 591.5,-145.37l111.25 -137.27c124.82,-171.13 92.62,-512.68 91.65,-761.45l-2.58 -1721.53"/>
  <path class="fil0 str0" d="M1746.33 7300.6c-0.31,-3.68 -0.6,-7.39 -0.88,-11.09m5178.15 -3307.7c155.02,0 472.47,-31.81 591.5,145.37l111.25 137.27c124.82,171.13 92.62,512.68 91.64,761.45l-1.39 933.31"/>
  <path class="fil0 str0" d="M993.73 6675.26c-0.31,-3.69 -0.59,-7.4 -0.87,-11.1m5178.14 -3307.7c155.02,0 472.47,-31.81 591.5,145.37l111.25 137.27c124.83,171.13 92.63,512.68 91.65,761.46l-1.4 933.3"/>
  <path class="fil0 str0" d="M1746.33 7300.6c-0.31,-3.68 -0.6,-7.39 -0.88,-11.09m5178.15 -3307.7c155.02,0 472.47,-31.81 591.5,145.37l111.25 137.27c124.82,171.13 92.62,512.68 91.64,761.45l-1.39 933.31"/>
 </g>
</svg>
