<?xml version="1.0" encoding="UTF-8"?>
<!DOCTYPE svg PUBLIC "-//W3C//DTD SVG 1.1//EN" "http://www.w3.org/Graphics/SVG/1.1/DTD/svg11.dtd">
<!-- Creator: CorelDRAW 2019 (64-Bit) -->
<svg xmlns="http://www.w3.org/2000/svg" xml:space="preserve" width="100mm" height="81mm" version="1.1" style="shape-rendering:geometricPrecision; text-rendering:geometricPrecision; image-rendering:optimizeQuality; fill-rule:evenodd; clip-rule:evenodd"
viewBox="0 0 10000 8100"
 xmlns:xlink="http://www.w3.org/1999/xlink">
 <defs>
  <style type="text/css">
   <![CDATA[
    .str0 {stroke:#EF7F1A;stroke-width:150;stroke-miterlimit:22.9256}
    .fil0 {fill:none}
   ]]>
  </style>
 </defs>
 <g id="Слой_x0020_1">
  <metadata id="CorelCorpID_0Corel-Layer"/>
  <line class="fil0 str0" x1="4208.85" y1="3612.28" x2="9541.74" y2= "3612.28" />
  <line class="fil0 str0" x1="6346.13" y1="3222.28" x2="7404.45" y2= "3222.28" />
  <path class="fil0 str0" d="M4183.38 5757.74l0 -2050.95c0,-552.79 452.28,-1005.07 1005.07,-1005.07l3261.16 0c552.79,0 1005.07,452.28 1005.07,1005.07l0 3202.01c0,552.79 -452.28,1005.07 -1005.07,1005.07l-2125.21 0m3130.28 -2156.13l0 -2050.95c0,-552.79 -452.28,-1005.07 -1005.07,-1005.07l-3261.16 0c-552.79,0 -1005.07,452.28 -1005.07,1005.07l0 3202.01c0,552.79 452.28,1005.07 1005.07,1005.07l2125.21 0"/>
  <line class="fil0 str0" x1="5115.76" y1="5320.63" x2="6240.34" y2= "5320.63" />
  <line class="fil0 str0" x1="6605.76" y1="5320.63" x2="8460.7" y2= "5320.63" />
  <line class="fil0 str0" x1="5115.76" y1="6784.99" x2="6159.31" y2= "6784.99" />
  <line class="fil0 str0" x1="5115.76" y1="6075.08" x2="8548.75" y2= "6075.08" />
  <line class="fil0 str0" x1="247.53" y1="5417.66" x2="3660.72" y2= "5417.66" />
  <line class="fil0 str0" x1="1491.14" y1="4350.51" x2="3660.72" y2= "4350.51" />
  <line class="fil0 str0" x1="1491.14" y1="6484.8" x2="3660.72" y2= "6484.8" />
 </g>
</svg>
