<?xml version="1.0" encoding="UTF-8"?>
<!DOCTYPE svg PUBLIC "-//W3C//DTD SVG 1.1//EN" "http://www.w3.org/Graphics/SVG/1.1/DTD/svg11.dtd">
<!-- Creator: CorelDRAW 2019 (64-Bit) -->
<svg xmlns="http://www.w3.org/2000/svg" xml:space="preserve" width="103mm" height="81mm" version="1.1" style="shape-rendering:geometricPrecision; text-rendering:geometricPrecision; image-rendering:optimizeQuality; fill-rule:evenodd; clip-rule:evenodd"
viewBox="0 0 10300 8100"
 xmlns:xlink="http://www.w3.org/1999/xlink">
 <defs>
  <style type="text/css">
   <![CDATA[
    .str0 {stroke:#EF7F1A;stroke-width:150;stroke-miterlimit:22.9256}
    .fil1 {fill:none}
    .fil0 {fill:#EF7F1A;fill-rule:nonzero}
   ]]>
  </style>
 </defs>
 <g id="Слой_x0020_1">
  <metadata id="CorelCorpID_0Corel-Layer"/>
  <path class="fil0" d="M3597.9 5354.07l135.09 -1112.02 293.67 971.06c27.41,88.1 52.86,160.54 140.96,160.54 88.1,0 113.55,-72.44 140.96,-160.54l293.67 -971.06 135.09 1112.02 191.86 0 -150.75 -1196.21c-9.79,-74.4 -31.32,-193.82 -162.49,-193.82 -111.6,0 -144.88,99.85 -172.29,189.9l-276.05 906.46 -276.05 -906.46c-27.41,-90.05 -60.69,-189.9 -172.28,-189.9 -131.17,0 -152.71,119.42 -162.5,193.82l-150.75 1196.21 191.86 0zm1879.48 -959.32c-272.13,0 -489.45,217.32 -489.45,489.45 0,272.13 217.32,489.45 489.45,489.45 272.13,0 489.45,-217.32 489.45,-489.45 0,-272.13 -217.32,-489.45 -489.45,-489.45zm0 164.46c185.99,0 313.25,135.08 313.25,324.99 0,189.91 -127.26,324.99 -313.25,324.99 -184.03,0 -313.25,-133.13 -313.25,-324.99 0,-191.86 129.22,-324.99 313.25,-324.99zm790.95 -144.88l-172.29 0 0 814.44c0,41.12 -5.87,144.88 101.81,144.88 82.22,0 113.55,-80.27 160.54,-148.79l340.65 -503.16c3.92,-7.83 25.45,-41.11 33.28,-54.81 1.96,-1.96 1.96,-5.88 3.92,-5.88 1.96,0 1.96,1.96 1.96,3.92 0,3.91 0,11.74 0,31.32l0 657.82 172.28 0 0 -814.44c0,-41.11 5.88,-144.88 -101.8,-144.88 -82.23,0 -115.51,80.27 -162.5,148.79l-338.7 509.03c-3.91,5.87 -25.45,41.11 -33.28,54.82 -1.96,1.96 -1.96,5.87 -3.92,5.87 -1.95,0 -1.95,-1.96 -1.95,-3.91 0,-3.92 0,-11.75 0,-31.33l0 -663.69zm405.26 -393.51c-19.58,88.1 -95.93,129.21 -172.29,129.21 -76.35,0 -152.7,-41.11 -172.28,-129.21l-139 0c31.32,150.74 146.83,240.8 311.28,240.8 164.46,0 279.97,-90.06 311.29,-240.8l-139 0zm-2842.72 1856.22l0 939.74 172.29 0 0 -401.35 184.03 0c195.78,0 205.57,156.63 205.57,258.43l0 142.92 172.28 0 0 -140.96c0,-90.06 -1.95,-187.95 -56.77,-262.34 -35.24,-48.95 -101.81,-93.98 -185.99,-105.73 92.01,-68.52 121.38,-150.75 166.41,-236.89l101.8 -193.82 -184.03 0 -93.97 182.08c-66.57,127.25 -105.72,191.86 -199.7,191.86l-109.63 0 0 -373.94 -172.29 0zm1654.34 939.74l0 -939.74 -109.64 0c-140.96,0 -305.42,11.75 -430.71,97.89 -187.95,131.17 -193.82,326.95 -193.82,460.08l0 217.32 -121.39 0 0 164.45 285.84 0 0 -381.77c0,-101.8 1.96,-231.02 113.55,-323.03 84.19,-68.53 182.08,-70.48 256.47,-70.48l27.41 0 0 775.28 172.29 0zm877.09 -250.6c-70.48,66.57 -148.79,105.72 -246.68,105.72 -139.01,0 -325,-86.14 -325,-323.03 0,-203.61 144.88,-326.95 321.08,-326.95 129.22,0 321.08,58.73 321.08,373.94l0 420.92 172.28 0 0 -415.05c0,-393.52 -242.76,-544.27 -487.49,-544.27 -272.13,0 -503.15,197.74 -503.15,503.15 0,289.76 211.44,475.75 475.75,475.75 109.63,0 197.73,-31.33 272.13,-90.06l0 -180.12zm-2701.76 119.43c-147.48,123.99 -312.59,185.99 -495.32,185.99 -207.52,0 -385.68,-74.72 -534.47,-224.17 -148.8,-149.44 -223.19,-327.93 -223.19,-535.45 0,-208.84 74.07,-387.65 222.21,-536.44 148.14,-148.79 326.62,-223.19 535.45,-223.19 184.04,0 349.14,63.3 495.32,189.91l0 279.96c-52.2,-90.71 -122.03,-161.51 -208.83,-212.74 -87.12,-51.23 -182.72,-77.01 -287.47,-77.01 -158.25,0 -293.34,57.1 -405.91,170.98 -112.57,113.88 -168.7,249.94 -168.7,408.53 0,159.88 55.8,296.27 167.72,409.5 111.92,113.23 247.33,170 406.89,170 102.14,0 197.41,-26.1 286.49,-77.98 88.76,-51.89 158.91,-122.37 209.81,-211.77l0 283.88z"/>
  <path class="fil0" d="M7409.84 6127.64c-76.36,-72.44 -160.54,-105.72 -272.13,-105.72 -187.95,0 -299.55,140.96 -299.55,317.16 0,199.69 146.84,332.82 326.95,332.82 46.99,0 93.98,-9.79 135.09,-29.36 180.12,-86.15 180.12,-287.8 180.12,-391.56l0 -323.04c0,-254.51 -142.92,-332.82 -326.95,-332.82 -78.31,0 -158.58,19.58 -260.39,46.99l-41.11 -156.63c146.83,-45.03 246.68,-54.82 311.29,-54.82 180.11,0 289.75,68.53 350.44,127.26 119.43,115.51 139,260.39 139,411.14l0 281.92c0,540.35 -352.4,585.38 -487.49,585.38 -268.21,0 -503.15,-197.74 -503.15,-497.28 0,-342.61 270.18,-481.62 491.41,-481.62 97.89,0 174.24,27.41 256.47,90.06l0 180.12z"/>
  <path class="fil1 str0" d="M7197.68 7883.09l35.82 0.43c1162.51,0 2104.83,-942.32 2104.83,-2104.83 0,-821.08 -470.15,-1532.28 -1155.9,-1879.18 17.12,-108.16 26.18,-219.04 26.18,-332.09 0,-1162.51 -942.32,-2104.83 -2104.84,-2104.83 -734.06,0 -1380.26,375.95 -1756.93,945.63 -203.36,-82.7 -425.71,-128.44 -658.84,-128.44 -965.77,0 -1748.59,782.83 -1748.59,1748.74 0,126.7 13.52,250.25 39.12,369.33 -871.28,99.67 -1547.81,839.06 -1547.81,1737.08 0,941.89 744.42,1709.47 1677.25,1747.01l0 1.58 71.48 0 5018.23 0 0 -0.43z"/>
 </g>
</svg>
