<?xml version="1.0" encoding="UTF-8"?>
<!DOCTYPE svg PUBLIC "-//W3C//DTD SVG 1.1//EN" "http://www.w3.org/Graphics/SVG/1.1/DTD/svg11.dtd">
<!-- Creator: CorelDRAW 2019 (64-Bit) -->
<svg xmlns="http://www.w3.org/2000/svg" xml:space="preserve" width="103mm" height="81mm" version="1.1" style="shape-rendering:geometricPrecision; text-rendering:geometricPrecision; image-rendering:optimizeQuality; fill-rule:evenodd; clip-rule:evenodd"
viewBox="0 0 10300 8100"
 xmlns:xlink="http://www.w3.org/1999/xlink">
 <defs>
  <style type="text/css">
   <![CDATA[
    .str0 {stroke:#EF7F1A;stroke-width:150;stroke-miterlimit:22.9256}
    .fil0 {fill:none}
   ]]>
  </style>
 </defs>
 <g id="Слой_x0020_1">
  <metadata id="CorelCorpID_0Corel-Layer"/>
  <path class="fil0 str0" d="M4179.08 7563.31l122.66 137.54c148.83,163.96 393.53,134.03 622.92,134.03l4389.68 0c156.57,0 477.19,32.13 597.41,-146.82l112.36 -138.64c126.07,-172.84 93.55,-517.8 92.57,-769.06l-2.61 -1738.71c0,-212.71 28.12,-650.4 -57.2,-805.1 -47.82,18.79 -2202.25,1912.86 -2502.7,2182.92 -116.22,104.48 -270.61,190.75 -467.51,187.02 -202.99,-3.85 -334.67,-94.09 -457.14,-198.64l-2488.64 -2179.51c-89.13,192.93 -56.84,564.27 -56.84,813.31l2.39 1764.28c0,138.24 -6.06,296.17 0.75,431.97 8.63,171.89 52.27,249.85 91.9,325.41z"/>
  <line class="fil0 str0" x1="4226.93" y1="7627.33" x2="5744.98" y2= "6314.64" />
  <line class="fil0 str0" x1="9962.21" y1="7582.91" x2="8517.09" y2= "6327.26" />
  <path class="fil0 str0" d="M4085.38 7222.53c-15.01,-182.77 -1.33,-396.64 -1.33,-558.7l2.38 -1764.28c0,-138.24 -6.07,-296.17 0.75,-431.97 8.63,-171.89 52.27,-249.85 91.9,-325.41l122.66 -137.54c148.83,-163.96 393.53,-134.03 622.92,-134.03l4389.68 0c156.57,0 477.19,-32.13 597.41,146.82l112.36 138.64c126.07,172.84 93.55,517.8 92.56,769.06l-1.41 942.62"/>
  <line class="fil0 str0" x1="162.51" y1="6022.53" x2="3575.7" y2= "6022.53" />
  <line class="fil0 str0" x1="1406.12" y1="4955.38" x2="3575.7" y2= "4955.38" />
  <line class="fil0 str0" x1="1406.12" y1="7089.67" x2="3575.7" y2= "7089.67" />
 </g>
</svg>
