<?xml version="1.0" encoding="UTF-8"?>
<!DOCTYPE svg PUBLIC "-//W3C//DTD SVG 1.1//EN" "http://www.w3.org/Graphics/SVG/1.1/DTD/svg11.dtd">
<!-- Creator: CorelDRAW 2019 (64-Bit) -->
<svg xmlns="http://www.w3.org/2000/svg" xml:space="preserve" width="100mm" height="81mm" version="1.1" style="shape-rendering:geometricPrecision; text-rendering:geometricPrecision; image-rendering:optimizeQuality; fill-rule:evenodd; clip-rule:evenodd"
viewBox="0 0 10000 8100"
 xmlns:xlink="http://www.w3.org/1999/xlink">
 <defs>
  <style type="text/css">
   <![CDATA[
    .str0 {stroke:#EF7F1A;stroke-width:150;stroke-miterlimit:22.9256}
    .fil0 {fill:none}
   ]]>
  </style>
 </defs>
 <g id="Слой_x0020_1">
  <metadata id="CorelCorpID_0Corel-Layer"/>
  <path class="fil0 str0" d="M3490 1477.06c413.53,20.06 745.59,364.56 745.59,782.82l0 4940.97c0,431.06 -352.68,783.74 -783.74,783.74l-2496.91 0c-431.06,0 -783.74,-352.68 -783.74,-783.74l0 -4940.97c0,-402.58 307.63,-736.8 699.42,-779.2"/>
  <rect class="fil0 str0" x="640.99" y="3423.85" width="3009.58" height="3534.81"/>
  <path class="fil0 str0" d="M4248.45 3870.5l1690.31 0c151.95,0 527.62,291.03 527.62,646.33l0 2059.15c0,355.31 -296.37,646.33 -448.24,646.33l-1769.69 0 0 -3351.81z"/>
  <line class="fil0 str0" x1="5047.44" y1="6458.87" x2="5047.44" y2= "4633.94" />
  <line class="fil0 str0" x1="5540.6" y1="5660.12" x2="5540.6" y2= "4673.68" />
  <path class="fil0 str0" d="M3933.18 129.71l-2619.38 0c-243.75,0 -443.18,199.43 -443.18,443.18l0 2024.06 443.18 0 443.18 0 1832.9 -0.36m-99.88 0.36l0 -1766.09 324.34 1.2 562.02 2.08 0 -261.25c0,-240.41 -194.01,-437.69 -433.2,-443.05 -3.32,-0.07 -6.64,-0.13 -9.98,-0.13l0 0c-243.75,0 -443.18,199.43 -443.18,443.18l0 2024.06z"/>
  <line class="fil0 str0" x1="5047.44" y1="6458.87" x2="5047.44" y2= "4633.94" />
  <line class="fil0 str0" x1="5540.6" y1="5660.12" x2="5540.6" y2= "4673.68" />
 </g>
</svg>
