<?xml version="1.0" encoding="UTF-8"?>
<!DOCTYPE svg PUBLIC "-//W3C//DTD SVG 1.1//EN" "http://www.w3.org/Graphics/SVG/1.1/DTD/svg11.dtd">
<!-- Creator: CorelDRAW 2019 (64-Bit) -->
<svg xmlns="http://www.w3.org/2000/svg" xml:space="preserve" width="100mm" height="79mm" version="1.1" style="shape-rendering:geometricPrecision; text-rendering:geometricPrecision; image-rendering:optimizeQuality; fill-rule:evenodd; clip-rule:evenodd"
viewBox="0 0 10000 7900"
 xmlns:xlink="http://www.w3.org/1999/xlink">
 <defs>
  <style type="text/css">
   <![CDATA[
    .str1 {stroke:#EF7F1A;stroke-width:150;stroke-miterlimit:22.9256}
    .str0 {stroke:#EF7F1A;stroke-width:149.97;stroke-miterlimit:22.9256}
    .fil1 {fill:none}
    .fil0 {fill:none;fill-rule:nonzero}
   ]]>
  </style>
 </defs>
 <g id="Слой_x0020_1">
  <metadata id="CorelCorpID_0Corel-Layer"/>
  <g id="_1393017472">
   <path class="fil0 str0" d="M3372.56 1386.44c-237.31,0 -467.31,26.79 -689.81,75.97l0 3108.47c0,380.74 310.88,691.28 691.62,691.28 381.09,0 691.37,-310.54 691.37,-691.28 0,-365.58 -285.99,-666.13 -645.45,-690.16l0 -553.37 0 -230.59 0 -553.71c1096.13,24.89 1981.92,926.26 1981.92,2027.83 0,1117.07 -911.02,2028.09 -2027.84,2028.09 -1117.07,0 -2028.35,-911.02 -2028.35,-2028.09l0 -2455.44c-705.32,583.52 -1155.4,1465.68 -1155.4,2453.03 0,1757.01 1424.94,3182.2 3182.29,3182.2 1757.61,0 3181.69,-1425.19 3181.69,-3182.2 0,-1757.44 -1424.08,-3182.03 -3182.04,-3182.03z"/>
   <path class="fil1 str1" d="M3372.61 3224.07c742.54,0 1344.49,601.95 1344.49,1344.48 0,742.54 -601.95,1344.49 -1344.49,1344.49 -742.53,0 -1344.48,-601.95 -1344.48,-1344.49"/>
   <line class="fil1 str1" x1="2028.83" y1="4612.33" x2="1980.98" y2= "1575.18" />
  </g>
  <g id="_1393018592">
   <path class="fil0 str0" d="M3372.56 1386.44c-237.31,0 -467.31,26.79 -689.81,75.97l0 3108.47c0,380.74 310.88,691.28 691.62,691.28 381.09,0 691.37,-310.54 691.37,-691.28 0,-365.58 -285.99,-666.13 -645.45,-690.16l0 -553.37 0 -230.59 0 -553.71c1096.13,24.89 1981.92,926.26 1981.92,2027.83 0,1117.07 -911.02,2028.09 -2027.84,2028.09 -1117.07,0 -2028.35,-911.02 -2028.35,-2028.09l0 -2455.44c-705.32,583.52 -1155.4,1465.68 -1155.4,2453.03 0,1757.01 1424.94,3182.2 3182.29,3182.2 1757.61,0 3181.69,-1425.19 3181.69,-3182.2 0,-1757.44 -1424.08,-3182.03 -3182.04,-3182.03z"/>
   <path class="fil1 str1" d="M3372.61 3224.07c742.54,0 1344.49,601.95 1344.49,1344.48 0,742.54 -601.95,1344.49 -1344.49,1344.49 -742.53,0 -1344.48,-601.95 -1344.48,-1344.49"/>
   <line class="fil1 str1" x1="2028.83" y1="4612.33" x2="1980.98" y2= "1575.18" />
  </g>
 </g>
</svg>
