<?xml version="1.0" encoding="UTF-8"?>
<!DOCTYPE svg PUBLIC "-//W3C//DTD SVG 1.1//EN" "http://www.w3.org/Graphics/SVG/1.1/DTD/svg11.dtd">
<!-- Creator: CorelDRAW 2017 -->
<svg xmlns="http://www.w3.org/2000/svg" xml:space="preserve" width="115mm" height="46mm" version="1.1" style="shape-rendering:geometricPrecision; text-rendering:geometricPrecision; image-rendering:optimizeQuality; fill-rule:evenodd; clip-rule:evenodd"
viewBox="0 0 11500 4600"
 xmlns:xlink="http://www.w3.org/1999/xlink">
 <defs>
  <style type="text/css">
   <![CDATA[
    .str0 {stroke:#EF7F1A;stroke-width:200;stroke-miterlimit:22.9256}
    .fil0 {fill:none}
   ]]>
  </style>
 </defs>
 <g id="Слой_x0020_1">
  <metadata id="CorelCorpID_0Corel-Layer"/>
  <g id="_1283313536">
   <path class="fil0 str0" d="M5262.37 3990.2l122.66 137.54c148.83,163.96 393.53,134.03 622.92,134.03l4389.68 0c156.57,0 477.19,32.13 597.41,-146.82l112.36 -138.64c126.07,-172.84 93.55,-517.8 92.57,-769.06l-2.61 -1738.71c0,-212.71 28.12,-650.4 -57.2,-805.1 -47.82,18.79 -2202.25,1912.86 -2502.7,2182.92 -116.22,104.48 -270.61,190.75 -467.51,187.02 -202.99,-3.85 -334.67,-94.09 -457.14,-198.64l-2488.64 -2179.51c-89.13,192.93 -56.84,564.27 -56.84,813.31l2.39 1764.28c0,138.24 -6.06,296.17 0.75,431.97 8.63,171.89 52.27,249.85 91.9,325.41z"/>
   <line class="fil0 str0" x1="5310.22" y1="4054.22" x2="6828.27" y2= "2741.53" />
   <line class="fil0 str0" x1="11045.5" y1="4009.8" x2="9600.38" y2= "2754.15" />
   <path class="fil0 str0" d="M5168.67 3649.42c-15.01,-182.77 -1.33,-396.64 -1.33,-558.7l2.38 -1764.28c0,-138.24 -6.07,-296.17 0.75,-431.97 8.63,-171.89 52.27,-249.85 91.9,-325.41l122.66 -137.54c148.83,-163.96 393.53,-134.03 622.92,-134.03l4389.68 0c156.57,0 477.19,-32.13 597.41,146.82l112.36 138.64c126.07,172.84 93.55,517.8 92.56,769.06l-1.41 942.62"/>
   <line class="fil0 str0" x1="355.8" y1="2449.42" x2="3768.99" y2= "2449.42" />
   <line class="fil0 str0" x1="1599.41" y1="1382.27" x2="3768.99" y2= "1382.27" />
   <line class="fil0 str0" x1="1599.41" y1="3516.56" x2="3768.99" y2= "3516.56" />
  </g>
 </g>
</svg>
