<?xml version="1.0" encoding="UTF-8"?>
<!DOCTYPE svg PUBLIC "-//W3C//DTD SVG 1.1//EN" "http://www.w3.org/Graphics/SVG/1.1/DTD/svg11.dtd">
<!-- Creator: CorelDRAW 2017 -->
<svg xmlns="http://www.w3.org/2000/svg" xml:space="preserve" width="85mm" height="62mm" version="1.1" style="shape-rendering:geometricPrecision; text-rendering:geometricPrecision; image-rendering:optimizeQuality; fill-rule:evenodd; clip-rule:evenodd"
viewBox="0 0 8500 6200"
 xmlns:xlink="http://www.w3.org/1999/xlink">
 <defs>
  <style type="text/css">
   <![CDATA[
    .str0 {stroke:#EF7F1A;stroke-width:250;stroke-miterlimit:22.9256}
    .fil0 {fill:none}
    .fil1 {fill:#EF7F1A;fill-rule:nonzero}
   ]]>
  </style>
 </defs>
 <g id="Слой_x0020_1">
  <metadata id="CorelCorpID_0Corel-Layer"/>
  <path class="fil0 str0" d="M3218.88 2183.52c-140.13,880.82 460.47,1708.66 1341.29,1848.78 880.82,140.13 1708.66,-460.47 1848.78,-1341.29 140.13,-880.82 -460.47,-1708.66 -1341.29,-1848.78 -880.82,-140.13 -1708.66,460.47 -1848.78,1341.29z"/>
  <path class="fil0 str0" d="M2597.61 2084.69c-194.7,1223.89 639.83,2374.17 1863.73,2568.87 1223.89,194.71 2374.17,-639.82 2568.88,-1863.72 194.7,-1223.89 -639.83,-2374.17 -1863.73,-2568.88 -1223.89,-194.7 -2374.17,639.83 -2568.88,1863.73z"/>
  <path class="fil1" d="M2736.48 4538.91l-557.56 -768.52 -1711.63 1241.78 557.56 768.52 1711.63 -1241.78zm-428.76 -1016.09l777.42 1071.55 -2115.75 1534.97 -850.75 -1172.64 2115.75 -1534.97 73.33 101.09z"/>
  <line class="fil0 str0" x1="3240.02" y1="4037.14" x2="2772.67" y2= "4376.2" />
  <line class="fil0 str0" x1="2817.95" y1="3473.24" x2="2350.6" y2= "3812.31" />
  <path class="fil1" d="M4573.87 2439.25l0 -529.9 382.66 0 88.84 -153.78 -402.97 -386.74 612.76 -588.47 245.51 54.66 333.36 266.99 -30.92 38.46 65.81 144.04 -131.2 59.86 -348.36 -279.02 -57.63 -12.83 -329.31 316.25 356.67 342.32 -258.95 448.26 -276.27 0 0 279.9 -250 0zm1513.36 -1975.53l890.21 0 5.18 519.47 126.41 83.66 429.68 -336.83 678.92 634.7 -363.61 336.85 75.43 178.1 417.97 0 0 561.64 -250 0 0 -311.64 -332.54 0 -208.25 -491.72 295.34 -273.61 -327.8 -306.45 -403.15 316.04 -386.1 -255.53 -4.03 -404.68 -643.66 0 0 -250z"/>
  <path class="fil0 str0" d="M6343.39 1917.5c-272.79,38.23 -481.83,256.36 -481.83,519.76"/>
  <path class="fil1" d="M4823.87 2385.32l0 279.9 276.27 0 258.95 448.27 -354.1 339.85 369.01 336.15 360.96 -310.54 172.88 78.87 -73.02 159.82 2.13 2.49 -5.39 4.64 -27.24 59.61 -27.48 -12.54 -329.38 283.35 -144.61 7.07 -663.05 -604.02 405.57 -389.24 -88.84 -153.78 -382.66 0 0 -529.9 250 0zm1332.09 1725.53l574.93 0 4.03 -404.66 386.09 -255.55 403.15 316.04 327.81 -306.45 -295.34 -273.59 208.25 -491.73 332.54 0 0 -311.64 250 0 0 561.64 -417.97 0 -75.42 178.11 363.6 336.83 -678.93 634.7 -429.67 -336.83 -126.41 83.67 -5.18 519.46 -821.48 0 0 -250z"/>
  <path class="fil0 str0" d="M6358.77 2909.03c-280.27,-32.03 -497.21,-253.38 -497.21,-521.71"/>
 </g>
</svg>
