<?xml version="1.0" encoding="UTF-8"?>
<!DOCTYPE svg PUBLIC "-//W3C//DTD SVG 1.1//EN" "http://www.w3.org/Graphics/SVG/1.1/DTD/svg11.dtd">
<!-- Creator: CorelDRAW 2017 -->
<svg xmlns="http://www.w3.org/2000/svg" xml:space="preserve" width="75mm" height="65mm" version="1.1" style="shape-rendering:geometricPrecision; text-rendering:geometricPrecision; image-rendering:optimizeQuality; fill-rule:evenodd; clip-rule:evenodd"
viewBox="0 0 7500 6500"
 xmlns:xlink="http://www.w3.org/1999/xlink">
 <defs>
  <style type="text/css">
   <![CDATA[
    .fil0 {fill:#EF7F1A;fill-rule:nonzero}
   ]]>
  </style>
 </defs>
 <g id="Слой_x0020_1">
  <metadata id="CorelCorpID_0Corel-Layer"/>
  <polygon class="fil0" points="1142.19,2350.2 4526.08,2350.2 4526.08,2550.2 1142.19,2550.2 "/>
  <polygon class="fil0" points="1134.41,1655.75 2258.99,1655.75 2258.99,1855.75 1134.41,1855.75 "/>
  <polygon class="fil0" points="2711.14,1655.75 4566.08,1655.75 4566.08,1855.75 2711.14,1855.75 "/>
  <polygon class="fil0" points="1142.19,3740.11 2281.5,3740.11 2281.5,3940.11 1142.19,3940.11 "/>
  <polygon class="fil0" points="1142.19,3030.2 3874.35,3030.2 3874.35,3230.2 1142.19,3230.2 "/>
  <path class="fil0" d="M5078.42 2192.51l0 -1040.88c0,-228.55 -93.6,-436.43 -244.38,-587.21 -150.78,-150.78 -358.66,-244.38 -587.21,-244.38l-3047.53 0c-228.56,0 -436.43,93.6 -587.21,244.38 -150.78,150.77 -244.38,358.66 -244.38,587.21l0 4211.79c0,228.56 93.6,436.44 244.38,587.21 150.77,150.78 358.65,244.38 587.21,244.38l3047.53 0c194.22,0 373.13,-67.04 514.62,-179.02 144.61,-114.44 250.71,-276.16 294.73,-461.53l243.16 57.62c-57.01,240.09 -195.11,450.07 -383.59,599.23 -184.71,146.18 -417.32,233.7 -668.92,233.7l-3047.53 0c-297.57,0 -568.01,-121.64 -763.97,-317.62 -195.98,-195.96 -317.62,-466.4 -317.62,-763.97l0 -4211.79c0,-297.55 121.64,-568.01 317.62,-763.97 195.97,-195.97 466.4,-317.62 763.97,-317.62l3047.53 0c297.55,0 568,121.65 763.97,317.62 195.97,195.97 317.62,466.42 317.62,763.97l0 1040.88 -250 0z"/>
  <path class="fil0" d="M7421.28 3610.56c82.44,518.21 -52.89,1020.68 -338.3,1414.07 -285.45,393.46 -721.18,678.09 -1239.45,760.53l-12.82 1.95c-513.67,78.2 -1011.11,-57.19 -1401.25,-340.25 -393.46,-285.45 -678.07,-721.17 -760.53,-1239.43l-1.95 -12.82c-78.2,-513.67 57.19,-1011.11 340.25,-1401.26 285.45,-393.46 721.18,-678.09 1239.45,-760.54 518.21,-82.43 1020.68,52.89 1414.07,338.3 393.46,285.45 678.08,721.18 760.53,1239.45zm-540.44 1267.59c248.17,-342.07 365.91,-778.64 294.34,-1228.53 -71.56,-449.84 -318.91,-828.25 -660.91,-1076.37 -342.07,-248.17 -778.64,-365.9 -1228.53,-294.34 -449.83,71.56 -828.25,318.92 -1076.37,660.92 -248.17,342.07 -365.9,778.64 -294.34,1228.52l0.08 0.53c71.68,449.59 318.96,827.81 660.83,1075.84 342.07,248.18 778.63,365.9 1228.51,294.34l0.52 -0.08c449.61,-71.65 827.84,-318.96 1075.87,-660.83z"/>
  <path class="fil0" d="M5448.05 4518.6l0 -74.66c0,-108.22 16.54,-197.06 50.09,-266.53 33.08,-69.94 94.98,-143.18 185.24,-220.68 125.7,-106.33 204.62,-186.19 237.23,-239.59 32.61,-53.4 49.15,-118.14 49.15,-193.75 0,-94.04 -30.25,-166.82 -90.74,-217.85 -60.48,-51.51 -147.44,-77.03 -260.85,-77.03 -72.78,0 -143.66,8.5 -213.13,25.52 -68.99,17.01 -148.38,48.2 -237.69,93.56l-81.76 -186.66c174.38,-91.2 356.79,-136.57 546.76,-136.57 176.26,0 313.3,43.48 410.65,129.96 97.82,86.95 146.97,208.87 146.97,366.7 0,67.58 -8.98,126.65 -26.94,177.69 -17.95,51.51 -44.42,99.71 -79.86,145.55 -34.97,45.36 -110.58,119.08 -226.83,220.68 -93.09,79.39 -154.53,145.08 -184.77,197.53 -29.77,52.93 -44.89,122.87 -44.89,210.29l0 45.84 -178.63 0zm-67.58 411.6c0,-125.23 55.29,-187.6 165.87,-187.6 53.87,0 94.98,16.06 124.28,48.2 28.83,32.13 43.48,78.92 43.48,139.4 0,59.07 -14.65,104.91 -44.42,137.52 -29.3,32.61 -70.41,49.15 -123.34,49.15 -47.73,0 -87.42,-14.65 -119.09,-43.48 -31.18,-28.83 -46.78,-76.56 -46.78,-143.19z"/>
 </g>
</svg>
