<?xml version="1.0" encoding="UTF-8"?>
<!DOCTYPE svg PUBLIC "-//W3C//DTD SVG 1.1//EN" "http://www.w3.org/Graphics/SVG/1.1/DTD/svg11.dtd">
<!-- Creator: CorelDRAW 2017 -->
<svg xmlns="http://www.w3.org/2000/svg" xml:space="preserve" width="65mm" height="65mm" version="1.1" style="shape-rendering:geometricPrecision; text-rendering:geometricPrecision; image-rendering:optimizeQuality; fill-rule:evenodd; clip-rule:evenodd"
viewBox="0 0 6500 6500"
 xmlns:xlink="http://www.w3.org/1999/xlink">
 <defs>
  <style type="text/css">
   <![CDATA[
    .fil0 {fill:#EF7F1A;fill-rule:nonzero}
   ]]>
  </style>
 </defs>
 <g id="Слой_x0020_1">
  <metadata id="CorelCorpID_0Corel-Layer"/>
  <path class="fil0" d="M5343.24 3269.77l0 -2050.95c0,-241.88 -99.05,-461.88 -258.62,-621.45 -159.57,-159.57 -379.57,-258.62 -621.45,-258.62l-3261.16 0c-241.89,0 -461.88,99.05 -621.45,258.62 -159.57,159.57 -258.62,379.57 -258.62,621.45l0 3202.01c0,241.89 99.05,461.88 258.62,621.45 159.57,159.57 379.56,258.62 621.45,258.62l2125.21 0 0 250 -2125.21 0c-310.9,0 -593.45,-127.1 -798.21,-331.86 -204.76,-204.76 -331.86,-487.31 -331.86,-798.21l0 -3202.01c0,-310.89 127.1,-593.45 331.86,-798.21 204.76,-204.76 487.31,-331.86 798.21,-331.86l3261.16 0c310.89,0 593.45,127.1 798.21,331.86 204.76,204.76 331.86,487.32 331.86,798.21l0 2050.95 -250 0z"/>
  <polygon class="fil0" points="222.41,1024.31 5555.3,1024.31 5555.3,1224.31 222.41,1224.31 "/>
  <polygon class="fil0" points="2359.69,634.31 3418.01,634.31 3418.01,834.31 2359.69,834.31 "/>
  <path class="fil0" d="M6187.47 4454.38l-0.08 -0.5c-63.74,-399.86 -283.69,-736.26 -587.77,-956.88 -304.27,-220.75 -692.58,-325.47 -1092.72,-261.82 -800.63,127.36 -1346.55,879.9 -1219.18,1680.58 63.64,400.08 283.66,736.67 587.86,957.36 304.27,220.75 692.58,325.47 1092.71,261.82l0.5 -0.08c399.85,-63.75 736.25,-283.69 956.86,-587.78 220.75,-304.27 325.47,-692.57 261.82,-1092.7zm248.05 -26.28c70.3,463.92 -52.1,913.1 -307.73,1265.46 -258.03,355.66 -651.92,612.94 -1120.42,687.48l-12.8 1.95c-463.91,70.3 -913.1,-52.1 -1265.47,-307.73 -355.66,-258.03 -612.95,-651.92 -687.48,-1120.44 -148.98,-936.52 489.64,-1816.75 1426.22,-1965.74 468.46,-74.52 922.67,47.8 1278.26,305.78 355.66,258.04 612.94,651.94 687.47,1120.44l1.95 12.8z"/>
  <polygon class="fil0" points="4829.15,4594.88 5378.91,4594.88 5378.91,4777.98 4829.15,4777.98 4829.15,5346.42 4643.31,5346.42 4643.31,4777.98 4096.28,4777.98 4096.28,4594.88 4643.31,4594.88 4643.31,4023.71 4829.15,4023.71 "/>
 </g>
</svg>
