<?xml version="1.0" encoding="UTF-8"?>
<!DOCTYPE svg PUBLIC "-//W3C//DTD SVG 1.1//EN" "http://www.w3.org/Graphics/SVG/1.1/DTD/svg11.dtd">
<!-- Creator: CorelDRAW 2019 (64-Bit) -->
<svg xmlns="http://www.w3.org/2000/svg" xml:space="preserve" width="110mm" height="24mm" version="1.1" style="shape-rendering:geometricPrecision; text-rendering:geometricPrecision; image-rendering:optimizeQuality; fill-rule:evenodd; clip-rule:evenodd"
viewBox="0 0 11000 2400"
 xmlns:xlink="http://www.w3.org/1999/xlink">
 <defs>
  <style type="text/css">
   <![CDATA[
    .fil2 {fill:#EF7F1A}
    .fil0 {fill:#FEFEFE;fill-rule:nonzero}
    .fil1 {fill:#EF7F1A;fill-rule:nonzero}
   ]]>
  </style>
 </defs>
 <g id="Слой_x0020_1">
  <metadata id="CorelCorpID_0Corel-Layer"/>
  <path class="fil0" d="M3201.79 658.71c161.3,0 239.55,101.9 259.05,247.75l0 1184.91c0,131.41 -63.01,215.96 -187.96,254.2 -21,10.24 -52.24,15.62 -93.17,15.62l-2915.93 0c-144.95,0 -215.68,-84.56 -214.35,-187.96l5.53 -430.06c2.06,-160.75 121.56,-229.19 259.45,-229.19l2362.25 0c149.19,0 247.75,-75.39 294.61,-225.65 16.35,-152.35 -34.7,-312.79 -215.98,-330.16l-78.63 -7.54 -2441.43 0c-91.55,0 -170.13,-30.01 -179.88,-104.49 -16,-122.25 38.49,-171.29 165.89,-187.43l2980.55 0zm-2483.44 1417.03l2059.03 0c107.18,0 171.81,-32.31 193.89,-96.42 18.32,-106.67 -59.53,-173.42 -165.34,-173.42l-2059.03 0c-107.73,0 -172.34,32.32 -194.44,97.49 -21.2,107.57 60.62,172.35 165.89,172.35zm7007.05 -1401.41l2974.63 0c190.08,0 269.82,142.41 269.82,313.99l0 1134.81c0,309.57 -530.5,310.99 -530.5,44.17l0 -1022.78c0,-122.88 -142.75,-179.9 -239.67,-179.9l-500.35 0c-142.46,0 -229.38,91.51 -247.74,224.07l0 956.52c0,281.82 -499.82,285.05 -499.82,22.09l0 -1022.78c0,-122.71 -143.43,-179.9 -240.22,-179.9l-499.81 0c-142.28,0 -230.52,91.01 -247.75,224.07l0 956.52c0,272.63 -500.34,286.35 -500.34,22.09l0 -1246.83c0,-142.73 86,-246.14 261.75,-246.14z"/>
  <path class="fil1" d="M6850.19 60.88l206.28 0c98.03,0 147.02,44.71 147.02,135.18l0 1917.38c0,145.42 -85.63,227.81 -257.44,247.75l-2991.32 0c-171.81,-19.94 -257.45,-102.33 -257.45,-247.75l0 -511.12c4.12,-231.96 8.09,-465.98 8.09,-699.1 0,-146.49 85.63,-229.44 256.9,-249.35l681.38 0 151.9 0 75.92 0c51.36,0 93.38,42.02 93.38,93.38l0 106.76c0,51.36 -42.02,93.38 -93.38,93.38l-75.92 0 -151.9 0 -181.02 0c-110.42,0 -191.74,52.79 -242.9,157.8 -15.09,52.78 -22.09,105.04 -22.09,157.82l0 556.9c0,145.42 86.17,227.81 258.51,247.75l1988.48 0c172.35,-19.94 258.52,-102.33 258.52,-247.75l0 -616.68c0,-170.73 -124.95,-255.84 -375.39,-255.84l-74.06 0 -170.43 0 -57.39 0c-51.36,0 -93.38,-42.02 -93.38,-93.38l0 -106.76c0,-51.36 42.02,-93.38 93.38,-93.38l57.39 0 170.43 0 190.93 0c172.35,-18.87 258.52,-101.26 258.52,-247.76l0 -210.05c0,-90.47 49.01,-135.18 147.04,-135.18z"/>
  <path class="fil2" d="M5290.71 260.16l312.03 0c70.6,0 128.36,57.76 128.36,128.36l0 862.95c0,70.6 -57.76,128.36 -128.36,128.36l-312.03 0c-70.6,0 -128.36,-57.76 -128.36,-128.36l0 -862.95c0,-70.6 57.76,-128.36 128.36,-128.36z"/>
 </g>
</svg>
