<?xml version="1.0" encoding="UTF-8"?>
<!DOCTYPE svg PUBLIC "-//W3C//DTD SVG 1.1//EN" "http://www.w3.org/Graphics/SVG/1.1/DTD/svg11.dtd">
<!-- Creator: CorelDRAW 2019 (64-Bit) -->
<svg xmlns="http://www.w3.org/2000/svg" xml:space="preserve" width="22px" height="31px" version="1.1" style="shape-rendering:geometricPrecision; text-rendering:geometricPrecision; image-rendering:optimizeQuality; fill-rule:evenodd; clip-rule:evenodd"
viewBox="0 0 6700 9500"
 xmlns:xlink="http://www.w3.org/1999/xlink">
 <defs>
  <style type="text/css">
   <![CDATA[
    .fil0 {fill:#b7b7b7;fill-rule:nonzero}
    .fil1 {fill:black;fill-rule:nonzero}
   ]]>
  </style>
 </defs>
 <g id="Слой_x0020_1">
  <metadata id="CorelCorpID_0Corel-Layer"/>
  <path class="fil0" d="M114.04 1296.78l5031.32 -1.02 0 -0.21 76.17 0c5.82,7.48 11.41,15.46 17.79,22.43 467.82,601.48 937.25,1201.99 1403.56,1804.61 1.23,2109.55 0.01,4219.14 0.01,6328.69 -2192.95,0.44 -4385.9,0.01 -6578.85,0.01l0 -8154.49 50 -0.02zm5031.49 98.58l-4981.49 1.01 0 7954.92 6378.85 0 0 -6161.61 -1394.35 0 -3.01 -1794.32zm1345.16 1694.32l-1245.4 -1600.85 2.69 1600.85 1242.71 0z"/>
  <path class="fil0" d="M3343.01 2418.35l0 1860.7c0,256.52 -104.94,489.72 -274.01,658.79 -169.07,169.07 -402.27,274.01 -658.79,274.01 -256.52,0 -489.72,-104.94 -658.79,-274.01 -169.06,-169.07 -274,-402.27 -274,-658.79l0 -1860.7 1.34 0 0 1860.7c0,256.15 104.79,489.01 273.62,657.84 168.82,168.82 401.69,273.61 657.83,273.61 256.15,0 489.02,-104.79 657.84,-273.61 168.83,-168.83 273.62,-401.69 273.62,-657.84l0 -1860.7 1.34 0z"/>
  <path class="fil1" d="M3393.01 2418.35l0 1860.7c0,132.39 -26.63,259.05 -74.79,374.86 -50.04,120.31 -123.24,228.65 -213.87,319.28 -178.1,178.1 -423.82,288.66 -694.14,288.66 -132.39,0 -259.05,-26.63 -374.86,-74.79 -120.31,-50.04 -228.65,-123.24 -319.28,-213.87 -90.62,-90.63 -163.82,-198.98 -213.86,-319.29 -48.16,-115.8 -74.79,-242.46 -74.79,-374.85l0 -1910.7 101.34 0 0 1910.7c0,118.98 23.81,232.52 66.87,336.06 44.78,107.66 110.53,204.86 192.1,286.43 81.57,81.57 178.77,147.32 286.42,192.09 103.54,43.06 217.08,66.87 336.06,66.87 118.98,0 232.52,-23.81 336.06,-66.87 107.67,-44.78 204.87,-110.53 286.43,-192.09 81.57,-81.57 147.32,-178.77 192.1,-286.43 43.06,-103.54 66.87,-217.08 66.87,-336.06l0 -1910.7 101.34 0 0 50z"/>
  <path class="fil0" d="M2680.6 101.6c182.16,0 347.77,74.52 467.83,194.58 120.06,120.06 194.58,285.66 194.58,467.83l0 2451.28 -1.34 0 0 -2451.28c0,-181.79 -74.37,-347.06 -194.19,-466.88 -119.82,-119.82 -285.09,-194.19 -466.88,-194.19 -181.79,0 -347.06,74.37 -466.88,194.19 -119.81,119.82 -194.18,285.09 -194.18,466.88l0 587.02 -1.35 -587.02c0,-182.17 74.52,-347.77 194.58,-467.83 120.06,-120.06 285.67,-194.58 467.83,-194.58z"/>
  <path class="fil1" d="M2680.6 51.6c95.93,0 187.75,19.32 271.75,54.25 87.24,36.28 165.77,89.32 231.43,154.98 65.66,65.66 118.7,144.19 154.99,231.43 34.92,83.98 54.24,175.81 54.24,271.75l0 2501.28 -101.34 0 0 -2501.28c0,-82.52 -16.49,-161.23 -46.32,-232.95 -31.02,-74.59 -76.63,-141.99 -133.22,-198.58 -56.59,-56.59 -123.99,-102.2 -198.58,-133.22 -71.72,-29.83 -150.43,-46.32 -232.95,-46.32 -82.52,0 -161.23,16.49 -232.95,46.32 -74.59,31.02 -141.99,76.63 -198.58,133.22 -56.58,56.59 -102.18,123.98 -133.21,198.58 -29.83,71.72 -46.32,150.43 -46.32,232.95l0 587.02 -100 0 0 -86.97 -1.15 -500.05 -0.2 0c0,-95.94 19.32,-187.77 54.24,-271.75 36.29,-87.24 89.33,-165.77 154.99,-231.43 65.66,-65.66 144.19,-118.7 231.43,-154.98 83.99,-34.93 175.82,-54.25 271.75,-54.25z"/>
 </g>
</svg>
