<svg width="50" height="50" viewBox="0 0 50 50" fill="none" xmlns="http://www.w3.org/2000/svg">
<path d="M48.7374 42.2472L45.3155 41.4068C45.2985 41.4027 45.2812 41.3996 45.2638 41.3978L42.2415 41.0763L40.0675 36.7943C40.0606 36.7806 40.0528 36.7672 40.0442 36.7545L35.9632 30.633L34.7397 23.3615C34.372 20.9256 33.1899 18.6453 31.4114 16.9408L31.3446 16.8767C30.9991 16.5455 30.5683 16.3324 30.1044 16.2541C29.2003 16.0601 28.1774 16.0203 27.1839 15.9834C27.0021 15.9765 26.8224 15.9695 26.644 15.9619V15.3263C26.9814 15.3101 27.3183 15.2455 27.6364 15.1035C28.9103 14.5353 29.5905 12.8291 29.7802 12.2818L30.7122 11.83C30.8911 11.7433 30.9765 11.5363 30.9105 11.3488L30.3798 9.84098C30.398 9.44098 30.4653 7.64841 30.2767 6.55739C30.0952 5.50778 29.2597 4.40524 28.2901 3.93591C26.7868 3.20778 24.8968 3.14059 23.4753 3.76442C21.7218 4.53395 20.786 6.11052 20.5208 7.79157C19.3903 7.95778 18.5183 8.932 18.5183 10.1074C18.5183 11.3998 19.5696 12.4511 20.862 12.4511C21.0644 12.4511 21.2624 12.4226 21.4556 12.3718C21.7737 12.8853 22.1593 13.3396 22.594 13.722V16.0125H21.9028C21.8855 16.0125 21.8692 16.0175 21.8522 16.0199L21.8517 16.0158L20.5476 16.1877C20.5397 16.1886 20.5321 16.19 20.5247 16.1914C19.7841 16.3341 18.9118 16.7707 17.9319 17.489C16.5103 18.531 15.2821 19.8564 14.2817 21.4285L12.0325 24.9631L8.13916 27.03C8.12569 27.0373 8.11279 27.0451 8.1001 27.0539L5.24639 29.0273C3.68916 30.1043 2.32783 31.4216 1.20049 32.9429C0.553224 33.8166 0.345021 34.9621 0.643263 36.0072C0.750685 36.3832 0.918458 36.7363 1.14209 37.0568L2.49561 38.9955C2.57744 39.1127 2.6792 39.2121 2.79444 39.291L2.93701 39.4799C3.72393 40.9451 5.1419 41.9922 6.34697 42.6691L4.75186 42.8267C4.25225 42.9007 3.83154 43.2205 3.62647 43.682C3.37373 44.2507 3.5085 44.9191 3.96162 45.3457L4.39131 45.75C4.55518 45.9043 4.75576 46.0203 4.97119 46.0857L6.3169 46.4935C6.56143 46.5675 6.81123 46.6045 7.06084 46.6045C7.34951 46.6045 7.6376 46.555 7.91592 46.4564L12.2581 44.9175C12.613 44.7918 12.9165 44.5453 13.1126 44.2234L13.3696 43.8013C13.5335 43.5326 13.6134 43.2297 13.6083 42.9226L16.0118 44.3574C18.0103 45.5504 20.1964 46.2855 22.5091 46.5425L22.6093 46.5537C22.8417 46.5795 23.0755 46.5924 23.3093 46.5924C24.0925 46.5924 24.8753 46.4484 25.6067 46.1672C27.68 45.3697 29.1673 43.5914 29.5856 41.4099C29.8144 40.2181 29.8997 38.9988 29.8398 37.7855L29.4651 30.224L30.0634 24.5752C30.1419 24.7006 30.205 24.8359 30.2458 24.9775L32.4644 32.6769C32.4778 32.7236 32.4999 32.7672 32.5292 32.8058L41.1966 44.156C41.2706 44.2529 41.3855 44.3095 41.5071 44.3095H48.4872C49.064 44.3095 49.5331 43.8402 49.5331 43.2634C49.5341 42.7802 49.2065 42.3625 48.7374 42.2472ZM23.3757 14.305C23.6431 14.4738 23.928 14.6314 24.2192 14.7668C24.621 14.9535 25.2157 15.1838 25.8634 15.2832V16.9355C25.8634 17.6213 25.3056 18.1793 24.6196 18.1793C23.9337 18.1793 23.3757 17.6213 23.3757 16.9355V14.305ZM23.7897 4.47985C24.3425 4.23727 24.9796 4.11735 25.6325 4.11735C26.4222 4.11735 27.2353 4.29274 27.9503 4.63903C28.2429 4.78063 28.5267 5.00934 28.7718 5.28239C27.2308 5.83454 23.0278 7.3902 21.229 8.55329C21.3026 6.88122 22.0923 5.22477 23.7897 4.47985ZM20.8622 11.6699C20.0007 11.6699 19.2997 10.9689 19.2997 10.1074C19.2997 9.39118 19.7855 8.78708 20.4442 8.60368C20.4237 9.24802 20.4962 9.89138 20.6544 10.4951C20.7603 10.8986 20.904 11.2849 21.0745 11.6539C21.0046 11.6632 20.9339 11.6699 20.8622 11.6699ZM21.4103 10.2968C21.3417 10.0353 21.2917 9.7654 21.2601 9.49137C22.3608 8.51462 27.098 6.70602 29.2388 5.94509C29.3704 6.19098 29.4649 6.44587 29.5073 6.6904C29.7011 7.8113 29.5974 9.85759 29.5964 9.87809C29.5937 9.92907 29.6009 9.97985 29.6179 10.0281L30.0581 11.2789L29.2907 11.6508C29.1919 11.6986 29.1179 11.7857 29.0866 11.891C28.9235 12.4394 28.2882 13.9572 27.3187 14.3896C26.6507 14.6873 25.6413 14.5664 24.5483 14.0584C24.0646 13.8334 23.5972 13.5449 23.2323 13.2459C22.371 12.5396 21.7239 11.4924 21.4103 10.2968ZM22.5944 16.7937V16.9355C22.5944 18.0521 23.5028 18.9605 24.6196 18.9605C25.7362 18.9605 26.6446 18.0521 26.6446 16.9355V16.7437C26.8132 16.7509 26.9835 16.7574 27.1552 16.7638C27.4855 16.7761 27.8189 16.7892 28.1487 16.8076C27.9921 16.9453 27.8509 17.1031 27.7327 17.2822C26.7261 18.8084 26.8587 20.84 28.0556 22.2222L29.3669 23.7371L28.6856 30.1713C28.6835 30.1914 28.6829 30.2115 28.6841 30.2318L28.8468 33.5154C27.9249 33.5783 26.696 33.5631 25.5142 33.2406C23.6659 32.7367 21.5083 31.8025 20.8331 31.5017C20.7562 30.0521 20.3204 28.6443 19.5542 27.4049C18.9083 26.3599 18.7048 25.0763 18.9958 23.883C19.1128 23.4033 19.3048 22.948 19.5661 22.5299C19.5753 22.5148 19.5837 22.4994 19.5909 22.4834L22.1554 16.7937H22.5944ZM5.18604 32.5189L8.58487 31.609C8.78291 31.556 8.97901 31.4953 9.17451 31.433C9.01983 32.0086 9.05518 32.6211 9.28213 33.1752L9.5376 33.799L7.84561 33.2195C6.99678 32.9289 6.09736 32.8562 5.21807 33.0002L5.18604 32.5189ZM10.5194 34.1355L10.1315 33.1881C10.6745 33.4144 11.4718 33.7312 12.4581 34.0793C12.6472 34.3791 12.8806 34.7068 13.1632 35.041L10.5194 34.1355ZM14.9216 35.6433C13.1413 34.2822 12.512 32.4629 12.5058 32.4445L12.1355 32.5683L11.7647 32.6916C11.7714 32.7117 11.8159 32.842 11.9062 33.0474C10.9144 32.6765 10.1927 32.3681 9.8624 32.2224C9.85264 31.9877 9.88447 31.7511 9.96006 31.525C9.99541 31.4189 10.1446 31.2222 10.2435 31.092C10.2647 31.064 10.2813 31.041 10.3005 31.015C10.8636 30.7779 11.4124 30.505 11.9397 30.1929C12.1894 30.2037 12.4329 30.2554 12.6647 30.3523L17.3392 32.3043C17.7753 32.4863 18.5661 32.9107 18.7978 33.0363C18.869 33.0752 18.9392 33.116 19.0079 33.159L20.0683 33.8213V36.8675L16.1774 36.0736L14.9216 35.6433ZM20.0681 32.9L19.4214 32.4961C19.3392 32.4447 19.2556 32.3959 19.17 32.3496C18.8622 32.1828 18.097 31.7742 17.6399 31.5834L12.9657 29.6316C12.931 29.6172 12.8952 29.6066 12.8601 29.5933C13.1944 29.3568 13.521 29.109 13.8327 28.8425L18.0888 24.8259C18.0614 25.8715 18.3358 26.9189 18.8903 27.8158C19.661 29.0625 20.0685 30.4963 20.0685 31.9621V32.9H20.0681ZM1.7835 36.6091C1.60947 36.3599 1.47881 36.0851 1.39541 35.7924C1.16318 34.9789 1.3251 34.0875 1.82901 33.4078C2.90518 31.9554 4.20479 30.6978 5.69151 29.6695L8.52647 27.709L12.4905 25.6045C12.5501 25.5728 12.6005 25.5261 12.637 25.4691L14.9417 21.8476C15.8897 20.3578 17.0515 19.1033 18.3946 18.1189C19.2755 17.4732 20.0386 17.0836 20.6624 16.9603L21.2593 16.8816L18.8896 22.1386C18.6128 22.5865 18.4071 23.0713 18.2708 23.5795L13.3105 28.2613C11.8907 29.4744 10.1868 30.3711 8.38272 30.8541L4.67373 31.847C4.49346 31.8953 4.37256 32.0642 4.38487 32.2504L4.60381 35.5334L3.50869 35.1568C3.36846 35.1088 3.21358 35.1439 3.10811 35.2476C3.00244 35.3513 2.96455 35.5058 3.01026 35.6465L3.83682 38.2002C3.87432 38.3164 3.85694 38.4412 3.78858 38.5424C3.72022 38.6437 3.61123 38.7068 3.48936 38.7158C3.35127 38.7248 3.21611 38.6615 3.13701 38.5478L1.7835 36.6091ZM12.7032 43.3945L12.4462 43.8166C12.3433 43.9853 12.1841 44.1146 11.998 44.1806L7.65576 45.7197C7.29522 45.8474 6.91084 45.8564 6.54444 45.7455L5.19873 45.3377C5.09795 45.3072 5.0042 45.2529 4.92764 45.1808L4.49795 44.7763C4.28623 44.5769 4.22334 44.2646 4.34131 43.9988C4.43721 43.7832 4.63389 43.6338 4.84834 43.6015L8.26377 43.2642C8.62686 43.2285 8.98408 43.1453 9.32588 43.017L11.664 42.1388C11.9112 42.0461 12.1827 42.0705 12.4089 42.2056C12.6079 42.3244 12.7481 42.5138 12.8038 42.7386C12.8595 42.9638 12.8237 43.1966 12.7032 43.3945ZM9.05127 42.2855C8.77315 42.39 8.48233 42.4576 8.18701 42.4869L7.80069 42.525C7.11397 42.2195 6.15088 41.7191 5.27334 41.0117C5.97022 41.1355 6.78467 41.2566 7.30283 41.2566C8.17686 41.2566 9.46533 40.8726 9.92862 40.725L11.1944 41.4806L9.05127 42.2855ZM28.8194 41.2623C28.4522 43.1769 27.1468 44.7377 25.3272 45.4375C24.4938 45.758 23.5845 45.8759 22.6966 45.7767L22.5964 45.7656C20.3952 45.5211 18.3149 44.8215 16.413 43.6863L12.8099 41.5355C12.8097 41.5353 12.8095 41.5353 12.8093 41.5351C12.8091 41.5349 12.8089 41.5349 12.8087 41.5347L8.52295 38.9763L8.12256 39.6472L9.01319 40.1789C8.47842 40.3228 7.79619 40.4756 7.30264 40.4756C6.48272 40.4756 4.73057 40.1179 4.24541 40.0156C4.09287 39.8332 3.95049 39.642 3.82197 39.4414C4.07041 39.3617 4.28662 39.2017 4.43643 38.9791C4.63975 38.6775 4.69209 38.3058 4.57998 37.9599L3.99424 36.1502L4.61201 36.3625C4.80166 36.4279 5.00986 36.3939 5.16904 36.272C5.32822 36.1502 5.41533 35.9582 5.40186 35.7584L5.27022 33.7824C6.0458 33.6424 6.84209 33.7019 7.59268 33.959L15.9478 36.8209C15.9636 36.8263 15.9798 36.8306 15.9962 36.834L19.9446 37.6396C20.7646 37.8068 21.5501 38.0998 22.2798 38.5101L23.3284 39.1L23.7114 38.4191L22.6628 37.8293C22.0872 37.5056 21.4796 37.2498 20.8493 37.0627V32.3632C21.7603 32.7601 23.6304 33.5367 25.3089 33.9945C26.2321 34.2463 27.1743 34.3261 27.998 34.3261C28.3149 34.3261 28.6118 34.3136 28.8858 34.2953L29.0606 37.824C29.1173 38.9746 29.0362 40.1314 28.8194 41.2623ZM48.4882 43.5279H41.7013L33.1956 32.3896L30.9974 24.7609C30.9034 24.4338 30.7356 24.1248 30.5128 23.8672L28.6462 21.7109C27.6776 20.592 27.5702 18.9478 28.3851 17.7123C28.6792 17.2662 29.1737 17 29.7079 17C29.7905 17 29.8718 17.008 29.9521 17.0205C30.0296 17.0373 30.1073 17.0539 30.1819 17.0732C30.4126 17.1455 30.6257 17.2693 30.8044 17.4406L30.8712 17.5047C32.5259 19.0904 33.6255 21.2117 33.9685 23.4843L35.2067 30.8447C35.2159 30.899 35.2364 30.9507 35.2671 30.9965L39.3815 37.1683L41.6409 41.6189C41.7009 41.7369 41.8163 41.8166 41.9478 41.8304L45.1548 42.1716L48.5511 43.0058C48.6696 43.0349 48.7526 43.1408 48.7526 43.2631C48.7528 43.4091 48.6341 43.5279 48.4882 43.5279Z" fill="#143500"/>
</svg>
