<svg width="50" height="50" viewBox="0 0 50 50" fill="none" xmlns="http://www.w3.org/2000/svg">
<path d="M14.7302 48.5685C14.9378 49.0077 15.3001 49.3421 15.7503 49.5103C15.9548 49.5868 16.1663 49.6247 16.3766 49.6247C16.6331 49.6247 16.8882 49.5681 17.1261 49.4554C17.611 49.2259 17.9653 48.837 18.12 48.3907C18.186 48.3952 18.2518 48.3982 18.3171 48.3982C18.454 48.3982 18.5889 48.3882 18.7208 48.3677C19.4266 48.2579 20.0554 48.0042 20.4583 47.8105C20.652 47.7173 20.913 47.5907 21.1638 47.4171L22.9059 47.3941C23.1059 47.5411 23.3296 47.6599 23.5764 47.7345C23.5805 47.7357 23.5848 47.7365 23.5891 47.7376C23.9761 48.2044 24.5223 48.5279 25.1222 48.6382L25.3788 48.6855C26.3345 48.8611 27.3118 48.9519 28.2835 48.9552L33.9829 48.9747H33.9843C33.9979 48.9747 34.0116 48.9739 34.0251 48.9726C34.1848 48.9558 34.9979 48.8439 35.3118 48.2929C35.4196 48.1034 35.5079 47.7898 35.3157 47.3712C34.9079 46.4835 30.8425 40.8911 30.1729 39.9726L29.5491 37.1654C29.4804 36.8562 29.2487 36.6089 28.9446 36.5202C28.9264 36.515 28.9081 36.5122 28.8899 36.5083L28.7194 34.5411C28.8809 34.2448 29.3532 33.3521 29.9104 32.0515C30.2546 31.2488 30.1577 30.1677 29.6227 28.8384C29.2194 27.8361 28.9628 26.7917 28.8598 25.7347C28.7622 24.7325 28.6712 23.8913 28.5891 23.2353C28.421 21.8894 27.777 19.6107 27.4081 18.3722C27.3284 18.1044 27.3315 17.8113 27.4173 17.5245C27.5429 17.1052 27.6923 16.3587 27.6923 15.1843C27.6923 13.3966 26.6975 9.66262 26.3927 8.56086C26.3751 8.49778 26.3802 8.43215 26.4106 8.3634L26.8999 7.19446C27.1057 6.70266 27.0591 6.13977 26.7747 5.68879L26.0794 4.58528C25.7934 4.13137 25.5628 3.64309 25.3942 3.13411L24.7856 1.29583C24.7739 1.26047 24.7571 1.22688 24.736 1.19622C24.5532 0.932154 24.2661 0.754029 23.9483 0.707545C23.6307 0.661451 23.3044 0.749537 23.0536 0.950123C22.6427 1.27903 22.5052 1.83294 22.7098 2.31282L23.9346 8.15579L23.9216 14.155C23.9216 14.1634 23.9218 14.1718 23.9223 14.1802C23.9612 14.8017 23.9011 15.4251 23.7432 16.0329C23.3298 17.6261 22.636 20.5697 22.636 22.3841C22.636 24.1331 22.8579 27.2361 22.9903 29.09C23.0415 29.8075 23.0858 30.4273 23.0858 30.5478C23.0858 30.8937 22.9391 33.2736 22.8616 34.4835C22.861 34.4919 22.8626 34.5001 22.8626 34.5085H22.8608V38.1187C22.8608 38.6839 22.7222 39.2472 22.4597 39.7476L21.9856 40.6513C21.8659 40.8796 21.7661 41.1204 21.6891 41.3671C21.5874 41.6935 21.5259 42.0318 21.5042 42.3726C21.0968 42.1495 20.6768 42.0245 20.4477 41.9675L20.1325 41.462C20.0272 41.2933 19.8126 41.2304 19.6329 41.3159L18.7468 41.7382C18.444 41.7573 17.3524 41.8374 16.6887 42.0265C16.0007 42.2224 15.3237 42.8587 15.0794 43.5394C14.7421 44.4788 14.7897 45.5876 15.1837 46.4478C14.5893 46.9722 14.385 47.839 14.7302 48.5685ZM16.7919 48.7491C16.5512 48.8632 16.2782 48.8736 16.0237 48.7782C15.7651 48.6818 15.5565 48.4886 15.4364 48.2343C15.26 47.8618 15.343 47.4261 15.6124 47.1245C16.0497 47.6372 16.6759 48.0343 17.3378 48.2404C17.2341 48.4474 17.0436 48.63 16.7919 48.7491ZM22.0909 46.2146C22.1307 46.3562 22.1811 46.4927 22.2466 46.6212L21.8729 46.6261C21.9489 46.4925 22.0223 46.3548 22.0909 46.2146ZM29.4282 40.2214C29.4399 40.2739 29.4622 40.3234 29.4938 40.3669C30.8048 42.1644 34.2788 46.9855 34.6057 47.6972C34.6708 47.839 34.6425 47.8892 34.6331 47.9058C34.5514 48.0501 34.1972 48.1632 33.962 48.1931L28.286 48.1736C27.3606 48.1704 26.43 48.0841 25.5198 47.9167L25.263 47.8695C24.7841 47.7816 24.354 47.4991 24.0831 47.0956L24.0479 47.0433C23.7042 46.5306 23.7323 45.8624 24.1175 45.3818L24.1395 45.3544C24.4145 45.0111 24.8345 44.8107 25.2727 44.8107C25.2923 44.8107 25.312 44.8111 25.3315 44.8118L25.6323 44.8241C25.9397 44.8364 26.2304 44.9441 26.4721 45.1351L27.5618 45.9954C28.1124 46.4302 28.7704 46.7144 29.4645 46.8173L31.6007 47.1339C31.6028 47.1359 31.6048 47.1376 31.6069 47.1394L31.9661 47.4595L32.4858 46.8763L32.1266 46.5562C31.704 46.1796 31.4307 45.663 31.3571 45.1017C31.31 44.7419 31.2018 44.396 31.0358 44.0734L29.5216 41.13C29.4954 41.0792 29.4585 41.0347 29.4134 40.9997L27.7622 39.722C27.7339 39.7001 27.7253 39.6722 27.7229 39.6525C27.7208 39.6327 27.7227 39.6036 27.7454 39.5757C27.7679 39.5482 27.7958 39.54 27.8153 39.5382C27.8345 39.5364 27.8638 39.5388 27.8913 39.5618L28.2641 39.8745C28.3874 39.9781 28.562 39.9949 28.7032 39.9175C28.8444 39.84 28.9235 39.6835 28.9024 39.5238L28.6161 37.3648C28.6126 37.3382 28.6218 37.3113 28.6407 37.2921C28.6708 37.2624 28.7036 37.2636 28.7263 37.2702C28.7487 37.2767 28.7772 37.2933 28.7866 37.3347L29.4282 40.2214ZM29.2235 43.8937C29.1948 43.8841 29.1655 43.8761 29.135 43.8734L28.6755 43.8339L28.8962 41.9927L29.2235 43.8937ZM28.5823 44.6101L28.9573 44.6423L29.918 45.3573L30.3845 44.7306L30.1274 44.5394L29.9915 43.7499L30.3417 44.4306C30.4665 44.673 30.5475 44.9329 30.5831 45.2032C30.6309 45.5685 30.7425 45.9195 30.9095 46.2415L29.5794 46.0445C29.1837 45.9859 28.803 45.8527 28.4567 45.6564L28.5823 44.6101ZM23.6427 34.895L27.9624 34.8507L28.0735 36.1327H23.6427V34.895ZM23.4661 2.11086C23.4597 2.0802 23.4497 2.05051 23.4362 2.02239C23.3593 1.86145 23.4028 1.67141 23.5421 1.55989C23.6257 1.4929 23.7305 1.46516 23.8356 1.4802C23.9259 1.49329 24.0059 1.53684 24.0651 1.60364L24.653 3.37922C24.8415 3.94817 25.0991 4.49407 25.4186 5.00129L26.1141 6.105C26.2628 6.34094 26.2872 6.63508 26.1796 6.89251L25.6936 8.05383C25.5936 8.27883 25.5747 8.53293 25.6399 8.76907C25.8522 9.53625 26.9112 13.4513 26.9112 15.1841C26.9112 15.6794 26.8829 16.0841 26.8423 16.4167L24.494 16.2517C24.496 16.2445 24.4979 16.2363 24.4999 16.229C24.6772 15.5452 24.7458 14.8439 24.7034 14.1439L24.7165 8.11633C24.7165 8.08918 24.7138 8.06204 24.7083 8.03528L23.4661 2.11086ZM24.3003 17.0212L26.6995 17.19C26.6893 17.2284 26.679 17.2671 26.669 17.3005C26.5393 17.7335 26.5362 18.1812 26.6595 18.5952C26.9511 19.5738 27.647 21.9941 27.8141 23.3322C27.8954 23.9814 27.9856 24.8152 28.0825 25.8105C28.1927 26.9417 28.4671 28.0585 28.8983 29.13C29.2108 29.9066 29.5157 30.9904 29.1927 31.7437C28.7061 32.879 28.2784 33.7095 28.0868 34.0681L23.6684 34.1134C23.7284 33.162 23.8677 30.914 23.8677 30.5476C23.8677 30.4054 23.836 29.956 23.77 29.0339C23.6382 27.1904 23.4177 24.1048 23.4177 22.3837C23.4177 20.9179 23.9054 18.6322 24.3003 17.0212ZM22.4356 41.5995C22.4985 41.3978 22.5802 41.2009 22.678 41.0142L23.152 40.1105C23.4731 39.4986 23.6427 38.8099 23.6427 38.1187V36.914H27.9554C27.8585 37.0794 27.8163 37.2749 27.8421 37.4675L28.0157 38.7767C27.9272 38.7573 27.8352 38.7517 27.7417 38.7605C27.504 38.7831 27.2901 38.8978 27.1395 39.0829C26.9882 39.2695 26.9198 39.5034 26.9473 39.7419C26.9749 39.9806 27.0946 40.1929 27.2846 40.3398L28.2186 41.0624C28.2157 41.0952 28.2132 41.1281 28.2093 41.1607L27.7327 45.1345L26.9567 44.522C26.5845 44.2282 26.1376 44.0626 25.6647 44.0437L25.3639 44.0314C24.6587 44.0025 23.9722 44.3144 23.529 44.8675L23.5091 44.8925C23.1524 45.3376 22.9936 45.8853 23.0345 46.4236C22.9233 46.2607 22.8448 46.0738 22.8079 45.8714L22.3337 43.2724C22.2323 42.7169 22.2677 42.1384 22.4356 41.5995ZM18.868 42.5132C18.919 42.5105 18.9688 42.4978 19.0149 42.4759L19.6548 42.171L19.8718 42.5191C19.9298 42.612 20.0241 42.6765 20.1319 42.6964C20.4028 42.7468 21.155 42.9616 21.5581 43.3659C21.5608 43.3816 21.5624 43.3972 21.5651 43.4128L21.7415 44.3792C21.7139 44.7573 21.6602 45.1034 21.6294 45.2341C21.5374 45.6238 21.3235 46.0208 21.1061 46.3921C20.9255 46.7007 20.52 46.9142 20.12 47.1064C20.0638 47.1333 20.0059 47.1562 19.9489 47.1816C19.3667 46.514 18.3095 44.2593 17.6241 42.6361C18.2315 42.549 18.8591 42.5138 18.868 42.5132ZM15.8157 43.8031C15.9692 43.3753 16.4134 42.9478 16.8452 42.799C17.271 43.8177 18.3526 46.314 19.1858 47.4603C18.9856 47.5181 18.788 47.5665 18.6011 47.5956C17.6811 47.7384 16.4589 47.1361 15.9839 46.3062C15.5854 45.6103 15.5194 44.6279 15.8157 43.8031Z" fill="#143500"/>
</svg>
