<svg width="50" height="50" viewBox="0 0 50 50" fill="none" xmlns="http://www.w3.org/2000/svg">
<path d="M39.0595 29.7742C39.4562 29.3107 39.8114 28.807 40.1147 28.277L42.3821 24.3141C42.8257 23.5391 43.0058 22.6605 42.9034 21.7734L42.862 21.4137C42.613 19.2537 40.7138 17.6393 38.5444 17.7381C37.9677 17.7643 37.4124 17.907 36.8853 18.1672L35.2147 19.0473C34.7687 17.9842 34.1675 16.9869 33.4278 16.0939C32.7745 15.3055 31.8579 14.7834 30.8464 14.6238L29.5394 14.4174C30.0681 13.2027 30.3751 11.8553 30.3751 10.6002C30.3751 8.62656 29.5813 6.86523 28.3462 5.72051C28.386 5.55449 28.4247 5.37246 28.4247 5.18223C28.4247 3.29414 26.8884 1.75781 25.0001 1.75781C23.1118 1.75781 21.5755 3.29414 21.5755 5.18242C21.5755 5.38848 21.6188 5.56035 21.6618 5.71367C20.4222 6.8582 19.6251 8.62266 19.6251 10.6004C19.6251 11.8494 19.9292 13.1902 20.4534 14.4004L19.0376 14.624C18.0261 14.7838 17.1095 15.3059 16.4563 16.0941C15.7249 16.977 15.1284 17.9617 14.6835 19.0141L12.9894 18.1625C12.4716 17.907 11.9165 17.7643 11.3397 17.7381C9.16318 17.64 7.27119 19.2539 7.02217 21.4137L6.98057 21.7736C6.87822 22.6607 7.0583 23.5395 7.50185 24.3143L9.76943 28.2771C10.0728 28.8072 10.4278 29.3109 10.8249 29.7744L11.5394 30.6086L11.9616 43.1719L10.6292 44.2822C10.3485 44.516 10.2188 44.8838 10.2909 45.242C10.3628 45.6 10.6243 45.8893 10.9735 45.9967L12.3296 46.4141C12.4257 46.4436 12.5243 46.4584 12.621 46.4584C12.6538 46.4584 12.6864 46.4568 12.7185 46.4533L15.9071 46.1795C16.2563 46.1428 16.554 45.9311 16.703 45.6131C16.8204 45.3631 16.8286 45.0846 16.7319 44.835L17.5579 44.7434C17.8765 44.7078 18.137 44.4859 18.2063 44.1912C18.2534 43.992 18.2147 43.7818 18.1005 43.6143C17.9864 43.4469 17.806 43.3344 17.6056 43.3059L15.5087 43.0209L16.1325 35.9719L18.7151 38.9873L19.6702 40.8975C19.6964 40.9496 19.7337 40.9953 19.78 41.0311L22.1724 42.8918C22.4183 43.083 22.7183 43.1832 23.0224 43.1832C23.1593 43.1832 23.2972 43.1629 23.4313 43.1213C23.863 42.9875 24.2028 42.6508 24.3401 42.2201L24.9423 40.3338L25.5444 42.2201C25.6817 42.6508 26.0216 42.9875 26.4532 43.1213C26.5874 43.1629 26.7253 43.1832 26.8622 43.1832C27.1663 43.1832 27.4663 43.083 27.7122 42.8918L30.1046 41.0311C30.1507 40.9953 30.1882 40.9496 30.2144 40.8975L31.1694 38.9873L33.7386 35.9877L34.3747 43.0064L32.279 43.3059C32.0786 43.3344 31.8981 43.4469 31.7841 43.6143C31.6698 43.7816 31.6312 43.992 31.6782 44.1912C31.7476 44.4859 32.0081 44.7078 32.3269 44.7434L33.1526 44.835C33.0562 45.0848 33.0644 45.3633 33.1817 45.6133C33.331 45.931 33.6284 46.1428 33.9853 46.1803L37.1589 46.4527C37.1939 46.4564 37.2286 46.4582 37.2634 46.4582C37.3622 46.4582 37.4599 46.4436 37.555 46.4143L38.9112 45.9969C39.2603 45.8895 39.5218 45.6004 39.5937 45.2422C39.6655 44.884 39.5358 44.5162 39.2554 44.2824L37.9167 43.1539L38.345 30.6092L39.0595 29.7742ZM37.2403 18.8631C37.6608 18.6557 38.1116 18.5396 38.58 18.5186C40.3409 18.4348 41.8837 19.7494 42.086 21.5033L42.1276 21.8633C42.2106 22.5836 42.0644 23.2969 41.704 23.9264L41.4132 24.4346C39.7263 24.1746 38.0196 24.1873 36.3356 24.4793L35.203 24.6758L37.5972 21.5256L36.9749 21.0529L36.0808 22.2293L35.9493 21.5365C35.8433 20.9398 35.6901 20.3539 35.4944 19.7832L37.2403 18.8631ZM32.8263 16.5926C34.0349 18.0516 34.8489 19.8084 35.1814 21.6777L35.4448 23.0666L32.3329 27.1613L31.4024 24.5713L30.6245 22.4762C30.3175 21.6498 30.189 20.7844 30.2417 19.9107L30.5923 15.375L30.7249 15.3959C31.548 15.5256 32.2946 15.9506 32.8263 16.5926ZM30.0728 32.6139L25.0565 31.8811C25.0196 31.8756 24.9817 31.8758 24.9448 31.8809L19.8116 32.615L18.9103 29.7031C18.7173 29.0793 18.446 28.4883 18.1019 27.9381L18.9651 25.5353C20.0841 26.6797 23.0882 29.4922 25.586 29.4922C27.9921 29.4922 30.2019 27.1949 31.1206 26.0967L31.7823 27.9381C31.4382 28.4883 31.1667 29.0793 30.9737 29.7029L30.0728 32.6139ZM22.0704 16.9133C22.9124 17.7965 23.9175 18.3594 25.0001 18.3594C26.0827 18.3594 27.0878 17.7965 27.9298 16.9133V18.4641C27.9298 19.8303 27.0009 21.0029 25.6712 21.316C25.2323 21.4193 24.7685 21.4191 24.3292 21.316C22.9993 21.0029 22.0704 19.8301 22.0704 18.4641V16.9133ZM25.0001 17.5781C22.8981 17.5781 20.9979 14.6609 20.5216 11.883C21.0157 9.47891 22.888 7.74023 25.0001 7.74023C27.1769 7.74023 29.0187 9.38281 29.5021 11.7418C29.0673 14.5613 27.1376 17.5781 25.0001 17.5781ZM25.0001 2.53906C26.4528 2.53906 27.6349 3.71719 27.6429 5.16816C26.8618 4.65371 25.9604 4.3584 25.0001 4.3584C24.0397 4.3584 23.1384 4.65371 22.3573 5.16816C22.3653 3.71719 23.5474 2.53906 25.0001 2.53906ZM25.0001 5.13965C27.2538 5.13965 29.1319 7.0791 29.5194 9.62715C28.5495 7.9918 26.8829 6.95898 25.0001 6.95898C23.103 6.95898 21.419 8.06504 20.4552 9.8084C20.7788 7.17148 22.6933 5.13965 25.0001 5.13965ZM21.2892 15.9355V18.4639C21.2892 20.1943 22.4655 21.6797 24.1501 22.0762C24.428 22.1416 24.7142 22.1742 25.0001 22.1742C25.286 22.1742 25.5722 22.1416 25.8501 22.0762C27.5347 21.6797 28.711 20.1943 28.711 18.4639V15.9355C28.8794 15.6863 29.0376 15.4248 29.1839 15.1523L29.8183 15.2525L29.4624 19.8568C29.4024 20.8463 29.5472 21.8189 29.8921 22.748L30.6688 24.8393L30.8108 25.2346C30.2626 25.9377 27.9499 28.7109 25.586 28.7109C23.1831 28.7109 19.9983 25.4941 19.2618 24.7143L19.9923 22.7479C20.3376 21.8187 20.4819 20.8459 20.4222 19.8637L20.2259 15.227L20.8075 15.1352C20.9563 15.4139 21.1173 15.6812 21.2892 15.9355ZM17.0579 16.5926C17.5896 15.9508 18.3358 15.5258 19.1593 15.3957L19.4491 15.35L19.6419 19.9041C19.6952 20.7842 19.5667 21.6494 19.2597 22.476L18.4802 24.575L17.5511 27.1611L14.4938 23.1383L14.7036 21.6732C15.0351 19.808 15.8493 18.0512 17.0579 16.5926ZM7.75635 21.8631L7.79795 21.5031C7.99463 19.8002 9.45205 18.5148 11.1509 18.5148C11.2019 18.5148 11.253 18.516 11.3042 18.5184C11.7724 18.5395 12.2231 18.6555 12.6411 18.8617L14.4022 19.7471C14.1995 20.3322 14.0417 20.9346 13.9323 21.5492L13.8298 22.2645L12.9089 21.0525L12.2866 21.5252L14.5583 24.5145L12.9466 24.6121C11.6347 24.6916 10.3306 25.04 9.14853 25.6187L8.17998 23.9262C7.81963 23.2969 7.67334 22.5834 7.75635 21.8631ZM15.3993 43.7797L17.0417 44.0145L16.062 44.1232C15.9218 44.1395 15.7978 44.2293 15.7386 44.3574C15.6813 44.4809 15.6938 44.6426 15.7692 44.7559L15.9802 45.0725C16.0405 45.1627 16.0112 45.2484 15.9958 45.2812C15.9806 45.3139 15.9331 45.3912 15.8327 45.4019L12.6442 45.6758C12.6159 45.6785 12.5864 45.676 12.5591 45.6676L11.203 45.2502C11.0935 45.2166 11.0642 45.1258 11.0567 45.0885C11.0491 45.051 11.0411 44.9561 11.1292 44.8828L12.4616 43.7725C12.6521 43.6139 12.7589 43.3715 12.7485 43.1273L12.3536 31.5596L15.4218 35.142L14.7296 42.9666C14.7089 43.3727 14.9968 43.7223 15.3993 43.7797ZM24.269 39.873L23.5958 41.9826C23.5351 42.1728 23.3907 42.3158 23.2001 42.375C23.0093 42.4344 22.8097 42.3977 22.6519 42.275L20.3294 40.4686L19.3925 38.5947C19.3782 38.5662 19.3604 38.5396 19.3396 38.5154L11.4181 29.266C11.053 28.8398 10.7265 28.3766 10.4476 27.8891L9.53682 26.2977C10.6147 25.7773 11.8009 25.4645 12.9938 25.3922L15.1271 25.2631L17.0896 27.8453C17.5687 28.4754 17.9302 29.1783 18.1642 29.9342L20.3302 36.932C20.3464 36.985 20.3739 37.0336 20.4103 37.075L21.8751 38.7352C21.937 38.8053 22.022 38.851 22.1147 38.8637L23.7774 39.093C23.954 39.1174 24.1099 39.2178 24.2048 39.3686C24.2999 39.5191 24.3231 39.7031 24.269 39.873ZM25.0185 38.952C24.9901 38.9969 24.9649 39.0432 24.9421 39.0904C24.9192 39.0432 24.894 38.9969 24.8657 38.9518C24.6476 38.6055 24.2897 38.3748 23.8843 38.3187L22.3653 38.1092L21.0517 36.6205L20.0456 33.3703L24.9997 32.6619L29.8392 33.3689L28.8327 36.6205L27.519 38.1092L26.0001 38.3187C25.5944 38.3748 25.2366 38.6057 25.0185 38.952ZM30.5444 38.5154C30.5237 38.5396 30.506 38.5662 30.4915 38.5947L29.5546 40.4686L27.2321 42.275C27.0743 42.3975 26.8747 42.434 26.6839 42.375C26.4931 42.3158 26.3487 42.1728 26.2882 41.9826L25.6149 39.8728C25.5608 39.7031 25.5843 39.5191 25.6792 39.3684C25.7741 39.2176 25.93 39.117 26.1065 39.0928L27.7692 38.8635C27.862 38.8508 27.9468 38.8051 28.0089 38.735L29.4737 37.0748C29.5103 37.0334 29.5376 36.9848 29.5538 36.9318L31.7198 29.934C31.9538 29.1781 32.3153 28.4752 32.7944 27.8451L34.5091 25.5891L36.4692 25.249C37.9708 24.9887 39.4907 24.9611 40.9968 25.1623L39.4366 27.8891C39.1573 28.3768 38.8308 28.84 38.4659 29.2662L30.5444 38.5154ZM37.4226 43.7721L38.7548 44.8826C38.8429 44.9559 38.8349 45.051 38.8272 45.0883C38.8198 45.1258 38.7905 45.2164 38.6812 45.25L37.3249 45.6674C37.2972 45.6758 37.2692 45.6787 37.2323 45.675L34.0591 45.4025C33.9509 45.391 33.9036 45.3137 33.8882 45.2811C33.873 45.2484 33.8437 45.1625 33.9038 45.0723L34.1175 44.7518C34.1952 44.6322 34.2052 44.4838 34.1446 44.3549C34.0866 44.2322 33.955 44.1381 33.8202 44.123L32.8435 44.0143L34.4847 43.7797C34.8874 43.7223 35.1753 43.3727 35.1536 42.951L34.4478 35.159L37.5306 31.5596L37.1358 43.1232C37.1249 43.3713 37.2321 43.6139 37.4226 43.7721Z" fill="#143500"/>
</svg>
