<svg width="50" height="50" viewBox="0 0 50 50" fill="none" xmlns="http://www.w3.org/2000/svg">
<path d="M48.9021 37.116L48.8509 37.0775C48.7546 37.0054 48.6511 36.9427 48.5433 36.8908L41.9626 33.7281C40.9494 33.2412 39.8708 32.9181 38.7568 32.7681L35.8431 32.3755L29.0431 26.5925C28.8271 25.842 28.2949 25.1609 27.8304 24.6418C27.288 24.0355 25.5138 22.4521 23.9486 21.0548C23.0738 20.274 22.3181 19.5996 21.9494 19.2482C21.1124 18.4511 19.4359 15.5103 18.9773 14.6923C19.8287 13.4779 20.4484 12.1343 20.8212 10.6898C20.9628 10.141 20.6921 9.57048 20.1775 9.33298L19.7564 9.13864C19.5087 9.02419 19.2271 8.99997 18.9632 9.07009L16.3855 9.75758C15.3017 10.0465 14.3328 10.6406 13.5835 11.4756C13.4628 11.6101 13.3634 11.7599 13.2851 11.9213L12.9421 12.1254C12.5656 12.3496 12.1968 12.5943 11.8412 12.8543L11.2796 12.2453C11.5224 11.9273 11.7169 11.6041 11.7462 11.3533C11.8712 10.2855 11.0437 9.17419 10.729 8.79508L10.7931 8.04098C10.8099 7.84294 10.6753 7.66384 10.4806 7.62497L9.29623 7.38786C9.01068 7.20075 7.87552 6.47126 7.08842 6.17087C6.30052 5.8697 5.21146 5.99255 4.49955 6.46305C3.48763 7.13161 2.72611 8.2529 2.50346 9.37575C1.55482 9.42614 0.72865 10.1027 0.537244 11.0449C0.30326 12.1978 1.02943 13.3218 2.15619 13.5507C2.32181 13.5843 2.48666 13.6007 2.64818 13.6007C3.11263 13.6007 3.54877 13.4648 3.89174 13.2131C4.08881 13.3902 4.29877 13.5433 4.52045 13.6609C5.27767 14.0629 6.06478 14.2707 6.59154 14.3744C6.95209 14.4453 7.32357 14.5088 7.68822 14.5088C7.99095 14.5088 8.2892 14.465 8.57259 14.3457C8.65541 14.3109 8.73861 14.2748 8.82181 14.2379L9.5517 14.9564C9.05619 15.5261 8.60834 16.1388 8.21127 16.781C8.04427 16.8179 7.87455 16.8845 7.70443 16.984C7.26888 17.2388 6.90912 17.6589 6.66459 18.1992C6.25931 19.0939 6.29623 20.0603 6.32865 20.9129C6.36127 21.7707 6.42982 22.6769 6.55111 23.8517C6.6183 24.5017 6.75658 25.13 6.96049 25.7306C6.81888 26.1494 6.40853 27.5005 6.49486 28.8818C6.56361 29.9818 6.68119 34.7886 6.74525 37.556C6.77123 38.6757 6.61517 39.7834 6.28158 40.8513L1.75717 42.3009C1.40736 42.413 1.17201 42.7353 1.17201 43.1031C1.17201 43.5673 1.54994 43.9453 2.01439 43.9453H8.1265C8.35111 43.9453 8.5726 43.9076 8.78471 43.8334C9.35365 43.6341 9.79701 43.1947 10.0023 42.6248C10.1468 42.2234 10.1579 41.7779 10.0337 41.3699L9.88392 40.8779C9.76732 40.4951 9.74896 40.0861 9.8306 39.6953C10.2439 37.7142 10.9376 34.2365 10.9376 33.2031V29.739L14.7681 29.8822C15.1714 29.923 20.9919 30.5078 23.9476 30.6021L28.5462 33.6609C28.7203 33.7765 28.9023 33.8826 29.0874 33.9757L33.7128 36.3082C34.3068 36.6078 34.9441 36.7892 35.607 36.8478L41.2929 37.3496L44.8046 38.2275C45.1591 38.3162 45.4558 38.5699 45.5982 38.9066C45.7111 39.1736 45.721 39.4718 45.6259 39.7457L45.0706 41.3464L43.6372 41.5511C43.2285 41.6095 42.9203 41.965 42.9203 42.3779C42.9203 42.8384 43.2949 43.213 43.7554 43.213H46.1915C46.3171 43.213 46.4351 43.1525 46.5085 43.0505L48.1663 40.748C48.215 40.6806 48.2714 40.6187 48.3341 40.5646L49.0007 39.9888C49.2314 39.7898 49.4107 39.5339 49.5193 39.249C49.8107 38.4841 49.5568 37.607 48.9021 37.116ZM22.5667 20.8679L17.2421 24.1964C17.0972 24.2166 16.9505 24.2369 16.8025 24.2576C16.7394 24.2306 16.6777 24.2037 16.6163 24.1767L21.5023 19.9004C21.7529 20.1353 22.123 20.4701 22.5667 20.8679ZM15.1802 19.8763C15.2158 19.8162 15.2345 19.7476 15.2345 19.6777V19.2185L15.6267 18.9898C15.6699 18.9646 15.7079 18.9314 15.7384 18.892L18.4656 15.3769C18.9951 16.3105 20.131 18.2582 20.9753 19.3236L15.8429 23.8156C14.7247 23.2591 13.9951 22.7451 13.6462 22.475L15.1802 19.8763ZM13.2363 23.1464C13.6257 23.4429 14.3337 23.93 15.3804 24.4588C14.0353 24.6511 12.7288 24.8429 11.8497 24.973C12.3624 24.4058 12.8255 23.7922 13.2363 23.1464ZM13.3413 12.7968L13.5943 12.6463L15.6677 13.8263C15.6644 13.8336 15.6603 13.8404 15.657 13.8474L14.4037 16.4931L11.9913 15.5283L12.1906 15.3461C12.4724 15.0884 12.6367 14.7363 12.6531 14.3547C12.6673 14.0207 12.5667 13.6996 12.3679 13.4363C12.6833 13.209 13.0093 12.9945 13.3413 12.7968ZM2.31166 12.7849C1.60717 12.642 1.15463 11.9308 1.30287 11.2002C1.41596 10.6437 1.88568 10.2365 2.44252 10.1652C2.47924 11.0168 2.82787 11.9195 3.36127 12.6297C3.08119 12.8049 2.70404 12.8648 2.31166 12.7849ZM3.23607 9.73005C3.35795 8.74079 4.02279 7.71423 4.93002 7.11481C5.25052 6.90309 5.70385 6.78825 6.13373 6.78825C6.37513 6.78825 6.60912 6.82458 6.80795 6.90016C6.5181 8.05192 5.66498 11.592 5.67572 13.3138C5.39291 13.2127 5.12533 13.0976 4.88666 12.9709C3.86185 12.4271 3.09076 10.9127 3.23607 9.73005ZM8.26928 13.6257C7.8472 13.8035 7.28373 13.7144 6.74232 13.608C6.64799 13.5894 6.55404 13.5685 6.46068 13.5465C6.35111 12.4859 6.99877 9.36149 7.52787 7.2404C8.2183 7.60973 8.9183 8.07477 8.92787 8.08102C8.97025 8.10934 9.01771 8.12907 9.06791 8.13903L9.9849 8.32262L9.93646 8.89294C9.92709 9.00231 9.96439 9.11051 10.0386 9.19118C10.3285 9.50465 11.0605 10.4882 10.9703 11.2611C10.9242 11.532 10.0691 12.5093 9.64095 12.8675C9.2599 13.1865 8.75658 13.4203 8.26928 13.6257ZM10.1425 13.4666C10.149 13.4611 10.438 13.1992 10.7689 12.8443L11.7027 13.8568C11.8199 13.9838 11.8802 14.1488 11.8728 14.3213C11.8654 14.4937 11.7912 14.6527 11.6638 14.7691L11.1863 15.2058L10.9263 15.1019C10.7749 15.0416 10.614 15.0314 10.4615 15.0611C10.5062 14.9244 10.4744 14.7683 10.3654 14.6611L9.56049 13.8685C9.76537 13.7494 9.96224 13.6175 10.1425 13.4666ZM9.78861 15.8986C9.79447 16.0937 9.86693 16.2859 10.0076 16.4381L12.5642 19.2009L11.5038 20.4515L10.2654 19.4215L8.9058 17.1455C9.17572 16.7132 9.47064 16.2966 9.78861 15.8986ZM10.1056 21.8808L10.082 21.5627C10.0523 21.1615 10.0839 20.7537 10.1714 20.3593L10.9988 21.0474L10.9035 21.1599C10.7216 21.3172 10.4304 21.5748 10.1056 21.8808ZM7.3765 18.5215C7.50033 18.248 7.72631 17.8763 8.09916 17.6584C8.15365 17.6265 8.20599 17.6019 8.25677 17.5818L9.53627 19.7242C9.33705 20.3322 9.25541 20.9834 9.30267 21.6205L9.37552 22.6027C8.77943 23.2267 8.23939 23.8972 8.1601 24.3463L8.92943 24.482C9.00482 24.0543 10.2896 22.7211 11.4367 21.7314C11.4521 21.7181 11.4663 21.7037 11.4794 21.6882L13.3837 19.4422C13.5115 19.2916 13.5066 19.0691 13.3724 18.9242L10.581 15.9072C10.5654 15.8904 10.5634 15.865 10.5761 15.8459C10.589 15.8263 10.6136 15.8183 10.6359 15.8273L14.4546 17.3548C14.646 17.4314 14.8644 17.3461 14.9527 17.1593L16.363 14.1818C16.8537 13.1461 17.5794 12.2127 18.4619 11.4826L17.9638 10.8806C17.2003 11.5123 16.546 12.2838 16.038 13.1381L14.1253 12.0496C14.139 12.0326 14.1499 12.0136 14.1646 11.9972C14.8122 11.2756 15.6497 10.7623 16.5863 10.5125L19.1638 9.82497C19.2519 9.80153 19.3456 9.80973 19.4283 9.84782L19.8495 10.0424C20.021 10.1215 20.1113 10.3117 20.0642 10.4945C19.6671 12.0326 18.9722 13.4488 17.9986 14.7037L15.1675 18.3531L14.8779 18.522L12.5845 16.6986L12.0984 17.3101L14.4533 19.1826V19.5711L12.8033 22.3662C12.3599 23.117 11.8382 23.8248 11.2521 24.4703L9.10385 26.8365C8.99252 26.9589 8.82845 27.0218 8.66302 27.0047C8.49564 26.9871 8.34623 26.8888 8.26342 26.7421C8.17435 26.5843 8.09017 26.4214 8.01303 26.258C7.64974 25.4882 7.41927 24.6515 7.32845 23.7714C7.20912 22.6142 7.14154 21.7234 7.10951 20.8832C7.08041 20.1168 7.0474 19.2482 7.3765 18.5215ZM9.06576 39.5357C8.95736 40.0546 8.98178 40.5976 9.13646 41.1054L9.28627 41.5974C9.36166 41.8455 9.35502 42.1162 9.26595 42.3632C9.14193 42.708 8.8724 42.975 8.5265 43.0961C8.39759 43.1412 8.26302 43.164 8.1265 43.164H2.01439C1.9806 43.164 1.95326 43.1367 1.95326 43.1031C1.95326 43.0765 1.97025 43.0531 1.99564 43.0451L6.71107 41.5343C6.82963 41.4963 6.92299 41.4041 6.96244 41.2859C7.36615 40.0748 7.55599 38.814 7.52631 37.5382C7.48099 35.5771 7.40873 32.5943 7.34564 30.6211L10.1564 30.6588V33.2031C10.1564 33.8962 9.74877 36.2636 9.06576 39.5357ZM14.8097 29.1017L10.9376 28.9572V27.832H10.1564V29.8775L7.31927 29.839C7.30306 29.3953 7.28802 29.0461 7.27474 28.833C7.23119 28.1367 7.33431 27.4343 7.45424 26.8877C7.49603 26.9679 7.53881 27.0476 7.58295 27.1259C7.78959 27.4923 8.16283 27.7375 8.58119 27.7814C8.62631 27.7861 8.67142 27.7884 8.71634 27.7884C9.08119 27.7884 9.43451 27.6341 9.68217 27.3615L11.0218 25.8859C12.1103 25.7236 19.3462 24.6482 20.6324 24.5595C21.9591 24.4675 23.6995 24.9787 23.7169 24.9838L23.9394 24.2349C23.8628 24.2123 22.0482 23.6789 20.5785 23.7802C20.3052 23.799 19.7837 23.8593 19.1187 23.9445L23.173 21.4101C23.257 21.4851 23.3413 21.5605 23.4281 21.6379C24.9013 22.9527 26.7347 24.5894 27.2478 25.1629C28.2286 26.2589 28.5484 27.0894 28.254 27.7759C27.8433 28.7341 27.0634 29.8341 24.6579 29.8341C22.071 29.8341 14.9062 29.1109 14.8341 29.1037C14.8263 29.1027 14.8179 29.1021 14.8097 29.1017ZM34.0644 35.6105L29.4388 33.2779C29.2814 33.1986 29.1265 33.1086 28.9786 33.0101L25.3339 30.5859C27.7054 30.3787 28.5451 29.0808 28.9724 28.0836C29.0322 27.9439 29.0718 27.8048 29.0995 27.6664L35.424 33.0451C35.481 33.0937 35.5507 33.1248 35.6249 33.1345L36.537 33.2574L35.9769 36.0961L35.6753 36.0695C35.1117 36.0195 34.5697 35.8652 34.0644 35.6105ZM48.7892 38.9709C48.7267 39.1351 48.6234 39.2826 48.4904 39.3974L47.8236 39.9732C47.7144 40.0675 47.6163 40.1748 47.5322 40.2916L45.9913 42.4316H43.755C43.7253 42.4316 43.7011 42.4074 43.7011 42.3777C43.7011 42.3509 43.721 42.3281 43.7474 42.3244L45.4165 42.0859C45.5613 42.0652 45.6824 41.9654 45.7304 41.8273L46.3638 40.0015C46.5224 39.5445 46.5058 39.0474 46.3173 38.6019C46.0798 38.0406 45.5851 37.6171 44.9937 37.4693L41.4521 36.5839C41.4322 36.5791 41.412 36.5757 41.3917 36.5738L36.7597 36.165L37.3128 33.3619L38.6523 33.5423C39.6851 33.6814 40.6849 33.981 41.6242 34.4324L48.2048 37.5951C48.2671 37.625 48.3269 37.6613 48.3822 37.7027L48.4331 37.741C48.8109 38.0242 48.9574 38.5298 48.7892 38.9709Z" fill="#143500"/>
</svg>
