<svg width="50" height="50" viewBox="0 0 50 50" fill="none" xmlns="http://www.w3.org/2000/svg">
<path d="M19.6456 25.9436C20.2479 25.7502 21.7854 25.2252 23.4774 24.3979C25.5335 23.3928 29.8216 20.2127 30.3032 19.8537L32.8497 18.7735C34.2694 18.1713 35.5516 17.2354 36.5579 16.067L39.3251 12.8584C39.5688 12.5762 39.9067 12.3973 40.277 12.3547L41.079 12.2623C41.1017 12.2596 41.1239 12.2551 41.1458 12.2486C41.477 12.15 41.7522 11.9297 41.9208 11.6285L41.9897 11.5055C42.32 10.9154 42.1534 10.175 41.6018 9.7838L41.5231 9.72795C41.1852 9.48791 40.9835 9.09748 40.9835 8.68322C40.9835 7.88517 40.595 7.13263 39.9442 6.66994L39.3294 6.23342C39.1565 6.11037 38.9516 6.06017 38.7515 6.07697L37.8829 5.65334C37.7759 5.60119 37.6509 5.6008 37.5434 5.65197L35.5145 6.62013L30.5149 7.46095C30.4985 7.46388 30.4823 7.46759 30.4661 7.47248L27.8599 8.26388C25.5602 8.46779 22.1114 8.77072 21.9362 8.77834C21.9175 8.77834 20.0058 8.79006 19.1667 8.97502C19.0966 8.99064 19.0255 9.01349 18.9544 9.04025C18.8753 9.01798 18.7942 9.00021 18.7116 8.98791L18.0132 8.884C17.9097 8.86857 17.804 8.86056 17.6979 8.85529V8.24474C17.8325 8.17463 17.962 8.10158 18.078 8.02443C18.7923 7.5508 19.3659 6.80685 19.6934 5.92951C19.7759 5.709 19.839 5.47775 19.8852 5.24142C20.2735 5.23341 20.6505 5.09943 20.9599 4.85002C21.7214 4.23595 21.8415 3.11681 21.2276 2.35529C20.9302 1.98615 20.5069 1.75529 20.0356 1.7047C19.6956 1.66857 19.3604 1.73048 19.0612 1.87892C18.8368 1.63341 18.5688 1.41545 18.2518 1.23634C17.3423 0.722282 16.0735 0.638493 15.0202 1.02326C14.3257 1.27677 13.679 1.97209 13.4823 2.67677C13.2917 3.35939 13.2159 4.48302 13.1979 4.79064L12.7686 5.7047C12.6841 5.88459 12.7481 6.09924 12.9173 6.20353L13.4399 6.52541C13.5483 6.96525 13.8899 8.05861 14.6913 8.51779C14.7085 8.52775 14.7263 8.53595 14.7438 8.54513V9.20646L14.3263 9.33127C14.0298 9.41994 13.7663 9.57541 13.5528 9.77873C12.8356 9.8631 11.979 10.2182 11.497 10.6449L11.0011 11.0842C10.6811 11.3674 10.4241 11.7059 10.2372 12.0901L7.88778 16.918C7.8331 17.0303 7.83544 17.1621 7.89423 17.2723L11.3895 23.8373C11.4444 23.9403 11.5423 24.0133 11.6565 24.0367L13.6456 24.4412L13.8518 25.7885L15.3614 35.3217L15.8866 39.5656C15.9175 39.7914 15.9671 40.017 16.0345 40.2358L17.8009 45.9772L17.5493 47.0676L17.1657 47.944C17.0542 48.1994 17.0595 48.4897 17.1804 48.7406C17.3013 48.9916 17.5249 49.1768 17.7942 49.2488L18.5059 49.4385C18.5614 49.4533 18.6015 49.4639 19.7124 49.4707C19.9934 49.4707 20.2589 49.3477 20.4407 49.1332C20.6224 48.9186 20.7001 48.6367 20.6538 48.3594L20.3852 46.7486C20.3831 46.7362 20.3806 46.7237 20.377 46.7115L19.7302 44.3088L19.8151 39.8139C19.8214 39.4805 19.788 39.1461 19.7175 38.8295L19.0704 35.5311L19.6347 26.2346L19.6456 25.9436ZM39.4919 7.30685C39.9368 7.62306 40.2024 8.13752 40.2024 8.68322C40.2024 9.35002 40.5272 9.97873 41.0712 10.3649L41.1499 10.4207C41.3751 10.5805 41.4432 10.8828 41.3085 11.1236L41.2395 11.2467C41.1755 11.361 41.0739 11.4467 40.9513 11.4906L40.188 11.5783C39.6224 11.6434 39.1057 11.9166 38.7337 12.3479L35.9663 15.5569C35.0378 16.6352 33.8546 17.4986 32.5448 18.0543L32.4298 18.1031L31.5882 16.1244L33.9102 15.0494C34.3433 14.849 34.754 14.5981 35.1309 14.3039L37.622 12.3578C37.6474 12.3377 37.6704 12.3149 37.6903 12.2891L39.1546 10.3996C39.2147 10.3223 39.2434 10.2248 39.235 10.1272L39.0308 7.73361C39.0411 7.54591 38.9901 7.35822 38.8854 7.20119L38.7481 6.99513C38.7224 6.95646 38.7296 6.90451 38.7651 6.87443C38.797 6.84767 38.8431 6.84552 38.8774 6.86994L39.4919 7.30685ZM12.6401 14.7447C12.6608 14.8713 12.6817 14.9979 12.7087 15.1235C12.7433 15.2846 12.7624 15.4494 12.7657 15.6131C12.7847 16.5346 12.8452 18.8279 12.9989 20.2166L13.0001 20.2164C13.0007 20.2219 13.0003 20.2274 13.0011 20.2328L13.2167 21.6416L12.8538 21.6506C12.5677 20.8885 11.7153 18.6942 10.9698 17.5463L12.6401 14.7447ZM13.7317 19.6791C13.6905 19.2041 13.6577 18.6656 13.6315 18.1283L19.5507 16.9313C19.6155 17.3164 19.713 17.6969 19.847 18.0672L13.7317 19.6791ZM21.2091 18.9166L20.7241 18.1483L20.6036 17.8721C20.1747 16.742 20.1184 15.4787 20.4452 14.3153L20.7087 13.3772C20.7741 13.144 20.8122 12.9076 20.8286 12.6711L25.1296 11.819C25.1509 11.8149 25.1718 11.8088 25.1919 11.801L28.4017 10.5861L31.7972 10.266C31.8292 10.2629 31.8608 10.2561 31.8909 10.2453L35.586 8.93556L37.4847 8.65763C37.572 8.64494 37.6524 8.60295 37.7128 8.53869L38.2643 7.95119L38.4429 10.042L37.1018 11.7721L34.6493 13.6883C34.3196 13.9457 33.9604 14.1653 33.5815 14.3406L29.121 16.4057C28.704 16.5237 24.7561 17.6422 24.0186 17.9188C23.6315 18.0641 22.3515 18.5156 21.2091 18.9166ZM27.9692 9.0383C27.996 9.03595 28.0224 9.03088 28.0481 9.02306L30.669 8.22736L35.6981 7.38146C35.7341 7.37541 35.7688 7.36427 35.8016 7.34865L37.7099 6.4381L38.0284 6.59357C37.9552 6.75978 37.9327 6.94474 37.9702 7.12345L37.2368 7.9047L35.4352 8.16857C35.41 8.17228 35.3852 8.17834 35.3614 8.18693L31.6757 9.49318L28.2759 9.81369C28.2411 9.81701 28.2069 9.82502 28.1741 9.83732L24.9456 11.0592L20.7927 11.882C20.7528 11.6363 20.689 11.3932 20.5958 11.1561L20.2001 10.1486C20.1288 9.9672 20.0261 9.80275 19.9032 9.65549C20.6534 9.57892 21.661 9.55978 21.9362 9.55978C22.0798 9.55939 26.2032 9.19494 27.9692 9.0383ZM19.9524 2.48127C20.2161 2.50959 20.453 2.63888 20.6196 2.84513C20.9634 3.2715 20.8962 3.89806 20.4698 4.24142C20.3233 4.35939 20.1497 4.43166 19.9681 4.45373C19.9792 3.78927 19.8401 3.11994 19.5227 2.53263C19.6593 2.48537 19.8046 2.46506 19.9524 2.48127ZM15.2884 1.75685C16.1364 1.44689 17.1485 1.50959 17.8677 1.91603C19.2179 2.67912 19.4399 4.37521 18.9618 5.65607C18.8684 5.90627 18.7499 6.14162 18.613 6.35998C17.68 5.23869 15.5165 2.87463 14.7794 2.07248C14.937 1.93322 15.1126 1.82091 15.2884 1.75685ZM14.1696 6.20588C14.1491 6.09806 14.0841 6.00392 13.9907 5.94631L13.6245 5.72072L13.9378 5.05373C13.9595 5.00763 13.972 4.95763 13.9745 4.90666C13.9751 4.89357 14.0411 3.58166 14.2351 2.88634C14.2517 2.82677 14.2741 2.76681 14.3009 2.70705C15.1479 3.63009 17.3261 6.01506 18.1161 6.98517C17.9696 7.13107 17.8134 7.26252 17.6464 7.37326C17.4015 7.53595 17.0921 7.68615 16.7755 7.79631C16.0747 8.03947 15.4569 8.05509 15.0804 7.83966C14.5315 7.52502 14.2368 6.55334 14.1696 6.20588ZM15.7454 8.7715C16.1858 8.7715 16.6085 8.67072 16.9169 8.57228V9.64103C16.9169 10.0248 16.6048 10.3369 16.2212 10.3369C15.8376 10.3369 15.5255 10.0248 15.5255 9.64103V8.76193C15.5989 8.76798 15.6725 8.7715 15.7454 8.7715ZM14.5505 10.0793L14.7921 10.007C14.9556 10.6445 15.5333 11.118 16.2212 11.118C17.0356 11.118 17.6981 10.4553 17.6981 9.64084V9.6381C17.7655 9.64259 17.8329 9.6467 17.8985 9.65646L18.5968 9.76037C18.9975 9.81994 19.3333 10.0779 19.4729 10.4338L19.8686 11.4412C20.0868 11.9967 20.1171 12.5928 19.9563 13.1654L19.6929 14.1035C19.5061 14.7682 19.4298 15.4613 19.4622 16.1518L13.5974 17.3379C13.5704 16.6278 13.5548 15.9875 13.5468 15.5969C13.5425 15.3836 13.5175 15.1692 13.4725 14.959C13.2171 13.7695 13.2731 12.5268 13.6347 11.3653L13.8155 10.784C13.9196 10.4494 14.1944 10.1858 14.5505 10.0793ZM8.67724 17.0809L10.9401 12.4315C11.0819 12.1401 11.2768 11.8832 11.5194 11.6686L12.0153 11.2293C12.2518 11.0199 12.6337 10.8246 13.0251 10.6949L12.8886 11.1336C12.6608 11.8658 12.5462 12.627 12.5382 13.3899L10.1706 17.3611C10.0903 17.4957 10.0983 17.6653 10.1907 17.7916C11.0448 18.9604 12.2054 22.1494 12.2171 22.1815C12.2743 22.3395 12.4249 22.4473 12.594 22.4387L13.8854 22.4065C14.0944 22.4098 14.2895 22.5201 14.3802 22.7092L14.4921 22.9424C14.564 23.0924 14.5626 23.2637 14.4884 23.4123C14.3804 23.6279 14.1399 23.7449 13.904 23.6967L11.9923 23.3078L8.67724 17.0809ZM19.6177 46.8959L19.8829 48.4877C19.8944 48.5565 19.8636 48.6051 19.8442 48.6279C19.8249 48.6508 19.7819 48.6891 19.7145 48.6891C19.2833 48.6863 18.7985 48.6805 18.6737 48.6744L17.9954 48.4936C17.9284 48.4758 17.897 48.4281 17.8839 48.4014C17.871 48.3744 17.8536 48.3201 17.8813 48.2569L18.2794 47.3471C18.289 47.325 18.2966 47.302 18.302 47.2783L18.5854 46.0502C18.6009 45.983 18.5983 45.9131 18.5782 45.8475L16.7808 40.0059C16.7259 39.8276 16.6854 39.6438 16.661 39.4647L16.3731 37.1399L18.5472 36.9235L18.9524 38.9891C19.0114 39.2547 19.0388 39.5274 19.0337 39.7988L18.9477 44.3492C18.947 44.386 18.9517 44.4227 18.961 44.4582L19.6177 46.8959ZM18.9481 23.7485L18.8542 26.1959L18.2874 35.5336C18.2852 35.5666 18.2876 35.6 18.294 35.6324L18.3964 36.1535L16.2774 36.3645L16.1349 35.2127L14.6237 25.6686L14.4319 24.4158C14.752 24.307 15.0284 24.0791 15.1872 23.7615C15.3702 23.3953 15.3737 22.9736 15.1966 22.6043L15.0847 22.3711C14.8813 21.9477 14.4675 21.6692 14.0058 21.632L13.8267 20.4621L20.2003 18.7819L20.4528 19.1817C19.7505 19.4276 19.2245 19.6111 19.2101 19.6162L19.4673 20.3539C19.6333 20.2959 23.5423 18.9322 24.2934 18.6504C25.0255 18.3758 29.3204 17.1613 29.3636 17.149C29.3835 17.1434 29.4028 17.1363 29.4214 17.1276L30.8786 16.4529L31.7102 18.4082L29.9548 19.1529C29.9261 19.1653 29.8985 19.1809 29.8735 19.1996C29.827 19.2344 25.2024 22.6848 23.1345 23.6959C21.7173 24.3889 20.3837 24.8721 19.6776 25.1098L19.7288 23.7785L18.9481 23.7485Z" fill="#143500"/>
</svg>
