<?xml version="1.0" encoding="UTF-8"?>
<!DOCTYPE svg PUBLIC "-//W3C//DTD SVG 1.1//EN" "http://www.w3.org/Graphics/SVG/1.1/DTD/svg11.dtd">
<!-- Creator: CorelDRAW 2017 -->
<svg xmlns="http://www.w3.org/2000/svg" xml:space="preserve" width="46px" height="38px" version="1.1" style="shape-rendering:geometricPrecision; text-rendering:geometricPrecision; image-rendering:optimizeQuality; fill-rule:evenodd; clip-rule:evenodd"
viewBox="0 0 6100 5500"
 xmlns:xlink="http://www.w3.org/1999/xlink">
 <defs>
  <style type="text/css">
   <![CDATA[
    .str0 {stroke:#1F1B20;stroke-width:30;stroke-miterlimit:22.9256}
    .str1 {stroke:#E77817;stroke-width:30;stroke-miterlimit:22.9256}
    .fil0 {fill:none}
    .fil1 {fill:#1F1B20}
    .fil2 {fill:#E77817}
   ]]>
  </style>
 </defs>
 <g id="Слой_x0020_1">
  <metadata id="CorelCorpID_0Corel-Layer"/>
  <g id="_1201806832">
   <path class="fil0 str0" d="M1523.14 265.55l2267.73 0 793.8 793.79 0 1688.89 0 -1558.44 -827.97 0 0 -924.24 -2233.56 0 0 570.85 0 -570.85zm0 2377.83l0 2281.84 3061.53 0 0 -370.01 0 370.01 -3061.53 0 0 -2281.84z"/>
   <path class="fil0 str0" d="M183.97 836.39l2678.34 0c58.61,0 106.56,47.96 106.56,106.56l0 1593.87c0,58.61 -47.95,106.56 -106.56,106.56l-1901.67 0 -492.36 608.97 0 -608.97 -284.31 0c-58.61,0 -106.56,-47.95 -106.56,-106.56l0 -1593.87c0,-58.6 47.95,-106.56 106.56,-106.56z"/>
   <circle class="fil1" cx="1059.36" cy="1739.88" r="94.51"/>
   <circle class="fil1" cx="1560.61" cy="1754.37" r="94.51"/>
   <circle class="fil1" cx="2056.68" cy="1750.09" r="94.51"/>
   <path class="fil0 str1" d="M5923.84 2748.23l-2678.34 0c-58.61,0 -106.56,47.95 -106.56,106.56l0 1593.87c0,58.6 47.95,106.56 106.56,106.56l1901.67 0 492.36 608.97 0 -608.97 284.31 0c58.61,0 106.56,-47.96 106.56,-106.56l0 -1593.87c0,-58.61 -47.95,-106.56 -106.56,-106.56z"/>
   <circle class="fil2" cx="5048.45" cy="3651.71" r="94.51"/>
   <circle class="fil2" cx="4547.2" cy="3666.2" r="94.51"/>
   <circle class="fil2" cx="4051.13" cy="3661.93" r="94.51"/>
  </g>
 </g>
</svg>
