<?xml version="1.0" encoding="UTF-8"?>
<!DOCTYPE svg PUBLIC "-//W3C//DTD SVG 1.1//EN" "http://www.w3.org/Graphics/SVG/1.1/DTD/svg11.dtd">
<!-- Creator: CorelDRAW 2017 -->
<svg xmlns="http://www.w3.org/2000/svg" xml:space="preserve" width="27px" height="43px" version="1.1" style="shape-rendering:geometricPrecision; text-rendering:geometricPrecision; image-rendering:optimizeQuality; fill-rule:evenodd; clip-rule:evenodd"
viewBox="0 0 3500 5800"
 xmlns:xlink="http://www.w3.org/1999/xlink">
 <defs>
  <style type="text/css">
   <![CDATA[
    .str0 {stroke:#1F1B20;stroke-width:30;stroke-miterlimit:22.9256}
    .str1 {stroke:#E77817;stroke-width:30;stroke-miterlimit:22.9256}
    .fil0 {fill:none}
    .fil1 {fill:#E77817}
   ]]>
  </style>
 </defs>
 <g id="Слой_x0020_1">
  <metadata id="CorelCorpID_0Corel-Layer"/>
  <g id="_1233739536">
   <polygon class="fil0 str0" points="93.3,111.87 2563.6,111.87 3428.3,976.57 3428.3,5187.79 3280.6,5187.79 3428.3,5187.79 3428.3,1118.67 2526.38,1118.67 2526.38,111.87 93.3,111.87 93.3,5187.79 521.48,5187.79 93.3,5187.79 "/>
   <path class="fil0 str1" d="M2862.5 3623.06c-365.64,0 -641.65,-3.68 -990.33,-3.68 -38.75,1.41 -67.39,-41.42 -75.07,-67.25l-67.84 -227.92c-6.82,-22.93 -32.17,-46.4 -68.23,-46.47l-1108.59 -2.25c-20.14,-0.04 -35.41,14.06 -35.41,34.19 0,782.04 44.81,1567.71 44.81,2350.03 0,20.14 16.48,36.62 36.62,36.62l29.45 0m2271.21 -1706.97l0 -329.68c0,-20.14 -16.48,-36.62 -36.62,-36.62m-1923.78 366.3l1960.4 0 470.76 0c20.14,0 38.74,16.59 36.62,36.62l-173.18 1633.73c-2.12,20.03 -16.48,36.62 -36.61,36.62l-334.21 0 -2096.95 0c-10.87,0 -146.26,4.26 -137.64,0 18.1,-8.94 44.81,-14.36 66.61,-30.95 21.68,-16.5 38.49,-44.18 39.56,-54.23l168.03 -1585.17c2.12,-20.03 16.47,-36.62 36.61,-36.62z"/>
   <path class="fil1 str1" d="M1992.9 1296.02l40.04 0c24.62,0 44.76,20.13 44.76,44.76l0 1309.07 357.85 -357.85c17.41,-17.4 45.88,-17.4 63.3,0.01l28.3 28.31c17.41,17.41 17.41,45.88 0.01,63.29l-444.75 444.76c-1.23,1.61 -2.58,3.17 -4.05,4.65l-28.31 28.3c-17.41,17.42 -45.88,17.42 -63.29,0.02l-475.86 -475.86c-17.4,-17.41 -17.4,-45.88 0.01,-63.3l28.31 -28.3c17.41,-17.41 45.88,-17.41 63.29,-0.01l345.64 345.63 0 -1298.72c0,-24.63 20.13,-44.76 44.75,-44.76z"/>
  </g>
 </g>
</svg>
