<?xml version="1.0" encoding="UTF-8"?>
<!DOCTYPE svg PUBLIC "-//W3C//DTD SVG 1.1//EN" "http://www.w3.org/Graphics/SVG/1.1/DTD/svg11.dtd">
<!-- Creator: CorelDRAW 2019 (64-Bit) -->
<svg xmlns="http://www.w3.org/2000/svg" xml:space="preserve" width="72mm" height="64mm" version="1.1" style="shape-rendering:geometricPrecision; text-rendering:geometricPrecision; image-rendering:optimizeQuality; fill-rule:evenodd; clip-rule:evenodd"
viewBox="0 0 7200 6400"
 xmlns:xlink="http://www.w3.org/1999/xlink">
 <defs>
  <style type="text/css">
   <![CDATA[
    .fil0 {fill:#EF7F1A;fill-rule:nonzero}
   ]]>
  </style>
 </defs>
 <g id="Слой_x0020_1">
  <metadata id="CorelCorpID_0Corel-Layer"/>
  <polygon class="fil0" points="3295.46,2295.93 6394.92,2295.93 6394.92,2495.93 3295.46,2495.93 "/>
  <polygon class="fil0" points="2963.25,1601.48 4087.83,1601.48 4087.83,1801.48 2963.25,1801.48 "/>
  <polygon class="fil0" points="4539.98,1601.48 6394.92,1601.48 6394.92,1801.48 4539.98,1801.48 "/>
  <polygon class="fil0" points="3396.22,3685.84 4439.77,3685.84 4439.77,3885.84 3396.22,3885.84 "/>
  <polygon class="fil0" points="3396.22,2975.93 6394.92,2975.93 6394.92,3175.93 3396.22,3175.93 "/>
  <path class="fil0" d="M1946.54 2138.24l0 -1040.88c0,-297.57 121.64,-568.01 317.62,-763.97 195.96,-195.98 466.4,-317.62 763.97,-317.62l3047.53 0c297.57,0 568.01,121.64 763.97,317.62 195.98,195.96 317.62,466.4 317.62,763.97l0 4211.79c0,297.57 -121.64,568.01 -317.62,763.97 -195.96,195.98 -466.4,317.62 -763.97,317.62l-3047.53 0c-251.6,0 -484.21,-87.52 -668.92,-233.7 -188.48,-149.16 -326.58,-359.14 -383.59,-599.23l243.16 -57.62c44.02,185.37 150.12,347.09 294.73,461.53 141.49,111.98 320.4,179.02 514.62,179.02l3047.53 0c228.56,0 436.44,-93.6 587.21,-244.38 150.78,-150.77 244.38,-358.65 244.38,-587.21l0 -4211.79c0,-228.56 -93.6,-436.44 -244.38,-587.21 -150.77,-150.78 -358.65,-244.38 -587.21,-244.38l-3047.53 0c-228.56,0 -436.44,93.6 -587.21,244.38 -150.78,150.77 -244.38,358.65 -244.38,587.21l0 1040.88 -250 0z"/>
  <path class="fil0" d="M796.19 2013.24l1978.88 0c205.32,0 391.9,83.91 527.07,219.08 135.17,135.17 219.08,321.75 219.08,527.07l0 2148.58c0,205.32 -83.91,391.9 -219.08,527.07 -135.17,135.17 -321.75,219.08 -527.07,219.08l-1978.88 0c-205.32,0 -391.9,-83.91 -527.07,-219.08 -135.17,-135.17 -219.08,-321.75 -219.08,-527.07l0 -2148.58c0,-205.32 83.91,-391.9 219.08,-527.07 135.17,-135.17 321.75,-219.08 527.07,-219.08zm1978.88 250l-1978.88 0c-136.31,0 -260.34,55.87 -350.31,145.84 -89.97,89.97 -145.84,214 -145.84,350.31l0 2148.58c0,136.31 55.87,260.34 145.84,350.31 89.97,89.97 214,145.84 350.31,145.84l1978.88 0c136.31,0 260.34,-55.87 350.31,-145.84 89.97,-89.97 145.84,-214 145.84,-350.31l0 -2148.58c0,-136.31 -55.87,-260.34 -145.84,-350.31 -89.97,-89.97 -214,-145.84 -350.31,-145.84z"/>
  <path class="fil0" d="M2902.84 3016.95c18.87,118.66 -12.04,233.64 -77.27,323.54 -65.26,89.96 -165.01,155.08 -283.71,173.96 -118.66,18.87 -233.63,-12.05 -323.54,-77.27 -89.96,-65.26 -155.08,-165.02 -173.96,-283.72 -18.87,-118.66 12.04,-233.63 77.27,-323.53 65.26,-89.96 165.02,-155.08 283.72,-173.96 118.66,-18.87 233.64,12.05 323.53,77.27 89.97,65.27 155.08,165.03 173.96,283.71zm-238.99 206.36c35.45,-48.86 52.29,-111.1 42.11,-175.1 -10.17,-63.95 -45.46,-117.85 -94.26,-153.25 -48.85,-35.44 -111.09,-52.29 -175.09,-42.11 -63.96,10.17 -117.86,45.46 -153.26,94.26 -35.45,48.86 -52.29,111.1 -42.11,175.09 10.17,63.97 45.47,117.87 94.26,153.26 48.86,35.45 111.11,52.29 175.1,42.11 63.95,-10.17 117.85,-45.46 153.25,-94.26z"/>
  <polygon class="fil0" points="3341.14,4991.17 2327.23,4315.89 1513.51,4844.8 640.25,3778.93 256.29,4320.46 93.79,4204.84 629.06,3449.9 1554.98,4580.07 2328.75,4077.13 3451.3,4824.77 "/>
 </g>
</svg>
