<?xml version="1.0" encoding="UTF-8"?>
<!DOCTYPE svg PUBLIC "-//W3C//DTD SVG 1.1//EN" "http://www.w3.org/Graphics/SVG/1.1/DTD/svg11.dtd">
<!-- Creator: CorelDRAW 2017 -->
<svg xmlns="http://www.w3.org/2000/svg" xml:space="preserve" width="85mm" height="70mm" version="1.1" style="shape-rendering:geometricPrecision; text-rendering:geometricPrecision; image-rendering:optimizeQuality; fill-rule:evenodd; clip-rule:evenodd"
viewBox="0 0 8500 7000"
 xmlns:xlink="http://www.w3.org/1999/xlink">
 <defs>
  <style type="text/css">
   <![CDATA[
    .str1 {stroke:#EF7F1A;stroke-width:200;stroke-miterlimit:22.9256}
    .str0 {stroke:#EF7F1A;stroke-width:250;stroke-miterlimit:22.9256}
    .fil0 {fill:none}
   ]]>
  </style>
 </defs>
 <g id="Слой_x0020_1">
  <metadata id="CorelCorpID_0Corel-Layer"/>
  <path class="fil0 str0" d="M1504.27 4591.59l0 -3207.06c0,-355.55 290.9,-646.45 646.45,-646.45l5548.69 0c355.55,0 646.45,290.9 646.45,646.45l0 3737.68c0,355.55 -290.9,646.45 -646.45,646.45l-5548.69 0c-355.53,0 -636.4,-225.81 -644.13,-581.28"/>
  <rect class="fil0 str0" x="4475.26" y="5768.66" width="1031.87" height="659.72"/>
  <line class="fil0 str0" x1="3866.71" y1="6494.53" x2="6155.36" y2= "6494.53" />
  <line class="fil0 str1" x1="2884.19" y1="2704.76" x2="7157.73" y2= "2704.76" />
  <line class="fil0 str1" x1="2884.19" y1="2010.31" x2="4284.66" y2= "2010.31" />
  <line class="fil0 str1" x1="4847.73" y1="2010.31" x2="7157.73" y2= "2010.31" />
  <line class="fil0 str1" x1="2884.19" y1="4094.67" x2="4371.38" y2= "4094.67" />
  <line class="fil0 str1" x1="2884.19" y1="3384.76" x2="7157.73" y2= "3384.76" />
  <path class="fil0 str1" d="M3191.29 2609.98l-3009.38 3534.88c-93.55,109.88 -53.33,244.87 55.71,346.81l3.8 3.55c96.76,90.46 271.3,76.61 348.55,-31l2718.49 -3786.82c193.14,-269.03 97.5,-319.57 -117.17,-67.42z"/>
 </g>
</svg>
