<svg width="137" height="137" viewBox="0 0 137 137" fill="none" xmlns="http://www.w3.org/2000/svg">
<path d="M68.0552 6C63.427 6 58.9414 6.52262 54.602 7.48169V68.1037C54.602 75.5292 60.6649 81.5854 68.0904 81.5854C75.5223 81.5854 81.5736 75.5292 81.5736 68.1037C81.5736 60.9743 75.996 55.1128 68.9857 54.6443V43.8524C81.9413 44.3209 92.3602 55.0357 92.3602 68.1037C92.3602 81.4727 81.456 92.3787 68.0904 92.3787C54.7214 92.3787 43.8168 81.4727 43.8168 68.1037V10.914C42.2814 11.5657 40.7882 12.2882 39.318 13.0641V68.1037C39.325 83.9456 52.2503 96.8643 68.0904 96.8643C83.932 96.8643 96.8576 83.9456 96.8576 68.1037C96.8576 52.5646 84.4176 39.834 68.9857 39.355V28.5565C90.3629 29.0421 107.638 46.6207 107.638 68.1037C107.638 89.8891 89.8706 107.656 68.0904 107.656C46.305 107.656 28.5331 89.8891 28.5331 68.1037V20.2172C14.7775 31.5973 6 48.8016 6 68.0569C6 102.322 33.7893 130.117 68.0618 130.117C102.339 130.117 130.112 102.322 130.112 68.0569C130.112 33.7827 102.339 6 68.0552 6V6Z" fill="#CE1235"/>
</svg>
