<?xml version="1.0" encoding="UTF-8"?>
<!DOCTYPE svg PUBLIC "-//W3C//DTD SVG 1.1//EN" "http://www.w3.org/Graphics/SVG/1.1/DTD/svg11.dtd">
<!-- Creator: CorelDRAW 2019 (64-Bit) -->
<svg xmlns="http://www.w3.org/2000/svg" xml:space="preserve" width="27.5mm" height="21mm" version="1.1" style="shape-rendering:geometricPrecision; text-rendering:geometricPrecision; image-rendering:optimizeQuality; fill-rule:evenodd; clip-rule:evenodd"
viewBox="0 0 2750 2100"
 xmlns:xlink="http://www.w3.org/1999/xlink">
 <defs>
  <style type="text/css">
   <![CDATA[
    .fil0 {fill:#053452}
    .fil1 {fill:white;fill-rule:nonzero}
   ]]>
  </style>
 </defs>
 <g id="Слой_x0020_1">
  <metadata id="CorelCorpID_0Corel-Layer"/>
  <path class="fil0" d="M339.93 21.59l2063.84 0c175.53,0 319.15,143.61 319.15,319.14l0 1433.36c0,175.53 -143.62,319.14 -319.15,319.14l-2063.84 0c-175.54,0 -319.15,-143.61 -319.15,-319.14l0 -1433.36c0,-175.53 143.61,-319.14 319.15,-319.14z"/>
  <path class="fil1" d="M792.69 1239l1158.3 0c17.6,0 33.62,7.22 45.23,18.82l0.09 0.09c11.61,11.62 18.83,27.63 18.83,45.23l0 573.71 -1286.59 0 0 -573.71c0,-17.6 7.22,-33.61 18.83,-45.23l0.09 -0.09c11.61,-11.6 27.62,-18.82 45.22,-18.82zm1158.3 47.87l-1158.3 0c-4.48,0 -8.56,1.83 -11.51,4.75 -2.93,2.96 -4.75,7.04 -4.75,11.52l0 525.84 1190.83 0 0 -525.84c0,-4.48 -1.82,-8.56 -4.74,-11.52 -2.95,-2.92 -7.04,-4.75 -11.53,-4.75z"/>
  <polygon class="fil1" points="654.1,1828.98 2089.59,1828.98 2089.59,1876.85 654.1,1876.85 "/>
  <path class="fil1" d="M1371.85 1469.92c24.29,0 46.3,9.86 62.22,25.78 15.94,15.93 25.78,37.93 25.78,62.23 0,24.19 -9.84,46.16 -25.78,62.13l-0.09 0.09c-15.97,15.94 -37.94,25.79 -62.13,25.79 -24.3,0 -46.3,-9.85 -62.23,-25.79 -15.92,-15.92 -25.78,-37.93 -25.78,-62.22 0,-24.23 9.86,-46.21 25.78,-62.14l0.09 -0.09c15.93,-15.92 37.91,-25.78 62.14,-25.78zm28.38 59.62c-7.26,-7.26 -17.3,-11.75 -28.38,-11.75 -11.12,0 -21.18,4.48 -28.43,11.71 -7.23,7.25 -11.71,17.31 -11.71,28.43 0,11.08 4.49,21.12 11.75,28.38 7.26,7.26 17.3,11.75 28.39,11.75 11.14,0 21.18,-4.46 28.38,-11.66l0.09 -0.09c7.2,-7.2 11.66,-17.24 11.66,-28.38 0,-11.09 -4.49,-21.13 -11.75,-28.39z"/>
  <path class="fil1" d="M1372.46 237.95c88.44,0 168.64,34.13 226.8,89.3 58.45,55.45 94.61,132.13 94.61,216.86 0,9.53 0.5,18.45 1.01,27.46 2.79,49.44 5.77,101.97 -46.84,125.25 -19.93,8.81 -66.16,-13.43 -112.89,-45.02 -20.73,-14.01 -42.3,-29.92 -61.74,-45.43 6.51,12.53 14.24,25.27 23.15,37.15l26.97 35.9 -44.92 2.24c-56.59,2.82 -105.67,-11.17 -145.71,-31.22 -50.39,-25.24 -86.86,-60.82 -105.9,-84.36 -48,27.24 -64.32,97.4 -72.77,133.7l-2.69 11.36 -12.27 49.45 -30.19 -41.04c-18.6,-25.3 -33.3,-53.37 -43.22,-83.37 -9.62,-29.08 -14.81,-60.02 -14.81,-92.07 0,-84.73 36.16,-161.41 94.61,-216.86 58.15,-55.17 138.36,-89.3 226.8,-89.3zm193.89 123.9c-49.51,-46.96 -118.06,-76.02 -193.89,-76.02 -75.84,0 -144.38,29.06 -193.89,76.02 -49.21,46.68 -79.65,111.13 -79.65,182.26 0,26.88 4.34,52.8 12.38,77.11 2.48,7.48 5.3,14.8 8.45,21.97 15.41,-49.27 44.5,-108.76 108.03,-129.43l18.6 -6.06 9.64 17.09c8.04,14.27 42.34,55.04 98.2,83.01 22.94,11.49 49.41,20.6 79,24.47 -16.2,-30.31 -26.48,-60.21 -30.46,-78.84 -1.53,-7.2 -2.27,-13.53 -2.18,-18.42 0.39,-20.86 10.34,-30.83 29.85,-27.57 6.97,1.19 13.38,5.2 18.84,12.36 15.07,19.73 65.56,60.56 112.62,92.36 34.69,23.44 64.15,42.11 66.89,40.89 22.32,-9.87 20.31,-45.42 18.42,-78.86 -0.6,-10.72 -1.2,-21.29 -1.2,-30.08 0,-71.13 -30.44,-135.58 -79.65,-182.26z"/>
  <path class="fil1" d="M1651.2 820.52c-12.09,67.94 -47.68,127.64 -97.92,170.12 -49.52,41.88 -113.24,67.09 -182.71,67.09 -69.34,0 -132.95,-25.11 -182.45,-66.86 -50.13,-42.28 -85.72,-101.77 -97.97,-169.57l46.94 -8.41c10.21,56.5 39.96,106.16 81.89,141.52 41.05,34.62 93.9,55.45 151.59,55.45 57.81,0 110.76,-20.93 151.86,-55.68 41.89,-35.42 71.57,-85.22 81.65,-141.9l47.12 8.24z"/>
  <path class="fil1" d="M1104.51 659.92c-7.54,4.46 -14.24,12.73 -19.2,23.5 -5.36,11.63 -8.51,25.89 -8.51,41.46 0,20.14 5.19,38.03 13.63,50.83 6.84,10.4 15.56,17.04 24.5,17.55l-2.62 47.68c-24.88,-1.44 -46.63,-16.16 -61.71,-39.05 -13.41,-20.35 -21.67,-47.53 -21.67,-77.01 0,-22.51 4.8,-43.7 13,-61.47 9,-19.51 22.32,-35.19 38.27,-44.64l24.31 41.15z"/>
  <path class="fil1" d="M1627.17 792.56c8.98,-0.18 17.82,-6.68 24.82,-17.04 8.71,-12.89 14.1,-31.02 14.1,-51.4 0,-12.43 -1.93,-23.9 -5.36,-33.8 -3.37,-9.72 -8.17,-18.03 -13.93,-24.23l34.97 -32.54c10.13,10.91 18.41,25.06 24.02,41.25 5.22,15.08 8.17,31.85 8.17,49.32 0,30.09 -8.53,57.72 -22.33,78.15 -15.54,23 -37.95,37.44 -63.53,37.97l-0.93 -47.68z"/>
  <path class="fil1" d="M1292.93 1017.54l-15.87 85.07 -41.08 8.85c-95.52,20.36 -209.67,44.7 -295.25,116.09l-30.48 -36.65c94.77,-79.06 215.12,-104.72 315.83,-126.19l9.9 -2.12 10.01 -53.65 46.94 8.6z"/>
  <path class="fil1" d="M1497.71 1008.36l10 53.65 9.95 2.13c100.7,21.47 221.02,47.13 315.79,126.18l-30.49 36.65c-85.57,-71.38 -199.69,-95.72 -295.21,-116.08l-41.12 -8.87 -15.86 -85.06 46.94 -8.6z"/>
 </g>
</svg>
