<?xml version="1.0" encoding="UTF-8"?>
<!DOCTYPE svg PUBLIC "-//W3C//DTD SVG 1.1//EN" "http://www.w3.org/Graphics/SVG/1.1/DTD/svg11.dtd">
<!-- Creator: CorelDRAW 2019 (64-Bit) -->
<svg xmlns="http://www.w3.org/2000/svg" xml:space="preserve" width="27.5mm" height="21mm" version="1.1" style="shape-rendering:geometricPrecision; text-rendering:geometricPrecision; image-rendering:optimizeQuality; fill-rule:evenodd; clip-rule:evenodd"
viewBox="0 0 2750 2100"
 xmlns:xlink="http://www.w3.org/1999/xlink">
 <defs>
  <style type="text/css">
   <![CDATA[
    .fil0 {fill:#053452}
    .fil2 {fill:white;fill-rule:nonzero}
    .fil1 {fill:white;fill-rule:nonzero}
   ]]>
  </style>
 </defs>
 <g id="Слой_x0020_1">
  <metadata id="CorelCorpID_0Corel-Layer"/>
  <path class="fil0" d="M341.55 18.35l2063.85 0c175.53,0 319.14,143.61 319.14,319.14l0 1433.36c0,175.53 -143.61,319.14 -319.14,319.14l-2063.85 0c-175.53,0 -319.14,-143.61 -319.14,-319.14l0 -1433.36c0,-175.53 143.61,-319.14 319.14,-319.14z"/>
  <path class="fil1" d="M1217.56 1028.52l-361.26 361.26c-24.47,24.41 -36.71,56.73 -36.71,89.07 0,32.34 12.23,64.66 36.67,89.13 24.51,24.42 56.81,36.66 89.12,36.66 32.37,0 64.67,-12.21 89.07,-36.62l297.49 -297.58 33.85 33.84 -297.49 297.49c-33.92,33.81 -78.46,50.74 -122.92,50.74 -44.54,0 -89.1,-16.91 -122.92,-50.74l0 -0.09c-33.81,-33.81 -50.74,-78.35 -50.74,-122.83 0,-44.48 16.92,-89 50.74,-122.83l361.26 -361.35 33.84 33.85z"/>
  <path class="fil1" d="M1564.44 1037.94l48.45 -48.45 12.62 2.62c40.7,8.44 83.14,6.68 123.21,-5.28 38.48,-11.48 74.79,-32.46 105.25,-62.92 35.04,-35.04 57.54,-77.74 67.49,-122.56 7.49,-33.73 7.94,-68.71 1.36,-102.61l-120.97 120.96c-27.26,27.16 -63.05,40.77 -98.75,40.77 -35.77,0 -71.57,-13.59 -98.75,-40.77 -27.17,-27.18 -40.76,-62.98 -40.76,-98.75 0,-35.77 13.59,-71.58 40.76,-98.75l121.34 -121.34c-34.02,-6.73 -69.2,-6.36 -103.13,1.11 -45.07,9.92 -87.95,32.43 -123.02,67.5 -30.65,30.64 -51.69,67.16 -63.12,105.81 -11.9,40.22 -13.5,82.87 -4.82,123.77l2.7 12.72 -113.79 113.8 -33.84 -33.84 95.73 -95.73c-7.43,-44.59 -4.7,-90.58 8.2,-134.19 13.68,-46.26 38.72,-89.81 75.09,-126.18 41.77,-41.77 92.86,-68.58 146.58,-80.41 55.4,-12.2 113.67,-8.44 167.42,11.27l35.15 12.9 -176.65 176.65c-17.81,17.82 -26.73,41.36 -26.73,64.91 0,23.54 8.92,47.09 26.73,64.9 17.83,17.83 41.37,26.74 64.91,26.74 23.61,0 47.15,-8.88 64.91,-26.65 0,-0.29 153.13,-153.22 176.44,-176.53l12.82 35.34c19.44,53.57 23.02,111.63 10.75,166.89 -11.91,53.63 -38.65,104.55 -80.21,146.11 -36.21,36.21 -79.49,61.19 -125.45,74.9 -43.33,12.93 -89.07,15.79 -133.52,8.58l-30.56 30.55 -33.84 -33.84zm-587.68 408.74c-7.98,-7.98 -18.44,-11.97 -28.91,-11.97 -10.47,0 -20.94,3.99 -28.92,11.97 -7.98,7.98 -11.97,18.45 -11.97,28.91 0,10.47 3.99,20.94 11.97,28.92 7.98,7.98 18.46,11.97 28.92,11.97 10.46,0 20.93,-3.99 28.91,-11.97 7.98,-7.98 11.98,-18.45 11.98,-28.92 0,-10.46 -4,-20.93 -11.98,-28.91zm-28.91 -59.84c22.7,0 45.43,8.67 62.76,26 17.33,17.33 26,40.04 26,62.75 0,22.72 -8.67,45.43 -26,62.76 -17.33,17.33 -40.05,26.01 -62.76,26.01 -22.71,0 -45.43,-8.68 -62.76,-26.01 -17.33,-17.33 -26,-40.05 -26,-62.76 0,-22.7 8.67,-45.42 26,-62.75 17.33,-17.33 40.05,-26 62.76,-26z"/>
  <path class="fil2" d="M1469.8 1075.71c26.78,-12.89 56.42,-17.81 85.31,-14.77 34.78,3.67 68.53,18.73 94.96,45.16l258.34 258.33c30.72,30.73 46.09,71.21 46.09,111.66 0,40.37 -15.38,80.84 -46.14,111.62l-26.25 26.33c-30.81,30.72 -71.28,46.09 -111.65,46.09 -40.45,0 -80.94,-15.36 -111.67,-46.09l-258.33 -258.34c-26.43,-26.42 -41.48,-60.18 -45.16,-94.96 -3.04,-28.88 1.88,-58.54 14.77,-85.31l-354.43 -354.42c-18.01,3.76 -36.56,3.67 -53.57,-0.85 -21.13,-5.63 -39.93,-17.86 -52.89,-37.7l-123.98 -189.86c-5.46,-8.38 -8.9,-18.16 -8.9,-27.94 0,-10.45 3.59,-20.55 11.99,-28.96l41.69 -41.77c8.39,-8.4 18.52,-11.99 29.05,-11.99 9.77,0 19.55,3.43 27.93,8.9l189.87 123.97c19.84,12.96 32.07,31.76 37.69,52.89 4.53,17.02 4.62,35.56 0.85,53.57l354.43 354.44zm80.44 32.73c-24.82,-2.62 -50.29,3.01 -71.77,16.89l-16.24 10.49 -400.76 -400.77 4.67 -14.02c4.6,-13.82 5.58,-28.44 2.19,-41.18 -2.7,-10.15 -8.4,-19.08 -17.49,-25.02l-190.01 -124.06 -35.7 35.69 124.07 190.01c5.94,9.1 14.87,14.8 25.02,17.5 12.74,3.39 27.35,2.41 41.17,-2.2l14.03 -4.67 400.77 400.76 -10.5 16.24c-13.87,21.47 -19.5,46.96 -16.89,71.78 2.55,24.08 13.05,47.53 31.5,65.98l258.34 258.34c21.37,21.37 49.59,32.06 77.82,32.06 28.28,0 56.51,-10.66 77.81,-31.97 0,-0.17 26.22,-26.38 26.38,-26.38 21.32,-21.31 31.98,-49.53 31.98,-77.82 0,-28.23 -10.7,-56.45 -32.07,-77.82l-258.34 -258.33c-18.45,-18.45 -41.89,-28.95 -65.98,-31.5z"/>
 </g>
</svg>
