<?xml version="1.0" encoding="UTF-8"?>
<!DOCTYPE svg PUBLIC "-//W3C//DTD SVG 1.1//EN" "http://www.w3.org/Graphics/SVG/1.1/DTD/svg11.dtd">
<!-- Creator: CorelDRAW 2019 (64-Bit) -->
<svg xmlns="http://www.w3.org/2000/svg" xml:space="preserve" width="27.5mm" height="21mm" version="1.1" style="shape-rendering:geometricPrecision; text-rendering:geometricPrecision; image-rendering:optimizeQuality; fill-rule:evenodd; clip-rule:evenodd"
viewBox="0 0 2750 2100"
 xmlns:xlink="http://www.w3.org/1999/xlink">
 <defs>
  <style type="text/css">
   <![CDATA[
    .fil0 {fill:#053452}
    .fil1 {fill:white;fill-rule:nonzero}
   ]]>
  </style>
 </defs>
 <g id="Слой_x0020_1">
  <metadata id="CorelCorpID_0Corel-Layer"/>
  <path class="fil0" d="M340.26 17.6l2063.85 0c175.53,0 319.14,143.61 319.14,319.14l0 1433.36c0,175.53 -143.61,319.14 -319.14,319.14l-2063.85 0c-175.53,0 -319.14,-143.61 -319.14,-319.14l0 -1433.36c0,-175.53 143.61,-319.14 319.14,-319.14z"/>
  <polygon class="fil1" points="1013.31,612.91 1731.06,612.91 1731.06,660.78 1013.31,660.78 "/>
  <path class="fil1" d="M1598.01 1372.89c30.7,0 58.5,12.45 78.62,32.57 20.12,20.12 32.57,47.93 32.57,78.62 0,30.7 -12.45,58.5 -32.57,78.62 -20.12,20.12 -47.92,32.57 -78.62,32.57 -30.7,0 -58.5,-12.45 -78.62,-32.57 -20.11,-20.21 -32.57,-48 -32.57,-78.62 0,-30.7 12.45,-58.5 32.57,-78.62 20.12,-20.12 47.92,-32.57 78.62,-32.57zm44.78 66.41c-11.45,-11.45 -27.29,-18.54 -44.78,-18.54 -17.49,0 -33.33,7.09 -44.78,18.54 -11.45,11.46 -18.54,27.29 -18.54,44.78 0,17.55 7.06,33.38 18.45,44.78l0.09 0c11.45,11.45 27.29,18.54 44.78,18.54 17.49,0 33.33,-7.09 44.78,-18.54 11.45,-11.45 18.54,-27.29 18.54,-44.78 0,-17.48 -7.09,-33.32 -18.54,-44.78z"/>
  <path class="fil1" d="M935.74 365.21l872.88 0c25.81,0 49.32,10.58 66.42,27.64l0.09 0.09c17.05,17.09 27.64,40.61 27.64,66.41l0 1188.14c0,25.81 -10.59,49.32 -27.64,66.42l-0.09 0.09c-17.1,17.05 -40.61,27.63 -66.42,27.63l-872.88 0c-25.81,0 -49.33,-10.58 -66.42,-27.63l-0.09 -0.09c-17.05,-17.1 -27.64,-40.61 -27.64,-66.42l0 -1188.14c0,-25.8 10.59,-49.32 27.64,-66.41l0.09 -0.09c17.09,-17.06 40.61,-27.64 66.42,-27.64zm872.88 47.87l-872.88 0c-12.77,0 -24.34,5.19 -32.67,13.52l-0.09 0.09c-8.33,8.33 -13.52,19.9 -13.52,32.66l0 1188.14c0,12.76 5.19,24.33 13.52,32.66l0.09 0.09c8.33,8.34 19.9,13.52 32.67,13.52l872.88 0c12.76,0 24.33,-5.18 32.66,-13.52l0.09 -0.09c8.34,-8.33 13.52,-19.9 13.52,-32.66l0 -1188.14c0,-12.76 -5.18,-24.33 -13.52,-32.66l-0.09 -0.09c-8.33,-8.33 -19.9,-13.52 -32.66,-13.52z"/>
  <polygon class="fil1" points="1013.31,778.87 1731.06,778.87 1731.06,826.74 1013.31,826.74 "/>
  <polygon class="fil1" points="1013.31,951.21 1731.06,951.21 1731.06,999.08 1013.31,999.08 "/>
  <polygon class="fil1" points="1013.31,1123.55 1372.18,1123.55 1372.18,1171.42 1013.31,1171.42 "/>
 </g>
</svg>
