<svg width="110" height="110" viewBox="0 0 110 110" fill="none" xmlns="http://www.w3.org/2000/svg">
<path d="M103.698 63.4236C104.234 62.2304 104.477 60.9082 104.4 59.5998L104.262 57.2408C104.13 55 102.936 52.9195 101.069 51.6751C99.2509 50.4629 96.98 50.0272 94.8398 50.4831C94.6572 50.5218 94.4543 50.5665 94.2326 50.6168C86.5923 52.3454 79.2829 55.3317 72.5089 59.492L69.9673 61.053L69.3615 48.7008C69.2338 46.466 68.5511 44.2733 67.3866 42.3603L64.0922 36.948C63.4399 35.8772 62.9621 34.7149 62.6716 33.4946C61.5665 28.8531 58.0564 25.0688 53.5111 23.6182L45.0635 20.9223C43.707 20.4896 42.2516 20.3487 40.8268 20.5055C36.4289 16.2362 31.4866 11.5839 30.5938 10.9141C30.4713 10.8221 18.1904 1.71875 15.8984 1.71875H12.0068C10.4895 1.71875 9.13301 2.73539 8.70719 4.1916C7.86242 7.08125 6.44531 12.4455 6.44531 15.8984C6.44531 20.1897 6.08438 29.9535 6.02465 31.5438L4.55383 33.9952C3.8066 35.2408 3.53375 36.7146 3.78641 38.1451L4.4275 41.7768C4.66254 43.1084 5.34875 44.3364 6.35938 45.2354L7.12938 45.9198C7.7086 46.4346 8.43735 46.7109 9.20391 46.7109C9.2834 46.7109 9.36375 46.7079 9.44367 46.7019C9.59364 46.6907 9.7393 46.6658 9.88324 46.6344V93.8463C9.88324 96.6758 10.5523 99.5092 11.8173 102.04C12.9469 104.299 15.2182 105.703 17.7439 105.703H18.2209C20.194 105.703 22.1431 105.386 24.0535 104.748C24.7582 104.475 41.3471 98.0306 44.978 95.8074L60.5284 86.2868L70.4494 82.7595C75.5485 80.9463 80.1389 77.8456 83.725 73.7924L85.7802 71.4691C83.5583 79.1738 82.3376 91.0044 82.1812 92.5839L77.4727 102.786C77.1538 103.476 77.0301 104.241 77.1139 104.997C77.3489 107.114 79.133 108.711 81.2634 108.711H101.958C103.126 108.711 104.077 107.76 104.077 106.592C104.077 105.708 103.522 104.91 102.695 104.605C96.8696 102.455 90.2447 98.786 90.747 95.5208C91.315 91.8281 97.8093 76.5192 103.698 63.4236ZM51.7516 58.0095C51.7279 57.7715 51.6987 57.5339 51.6575 57.2962L51.3936 55.7803C51.2772 55.1104 51.1268 54.4513 50.9511 53.8016C52.9616 53.2688 57.9116 51.9509 59.4382 51.4907C60.9645 51.0297 65.4711 48.7072 67.5164 47.6347C67.5765 48.0184 67.6234 48.4043 67.6453 48.7919L68.0565 57.1785L65.1784 56.2628C61.6284 55.1349 57.8033 55.3541 54.4234 56.8747L51.7516 58.0095ZM11.6149 45.5838C12.1816 44.9041 12.4347 44.012 12.3093 43.1363L12.0025 40.9875L12.094 41.0923C12.5091 41.5667 13.1295 41.8026 13.7547 41.7222C13.8321 41.7123 13.9081 41.6977 13.9825 41.6788L14.7091 44.4645C15.2616 46.5824 16.2263 48.5289 17.5768 50.2507L19.953 53.28C19.9689 53.3002 19.9856 53.3199 20.0032 53.3388C20.6443 54.0195 20.6284 55.0705 19.9672 55.7318L17.7439 57.955C17.362 58.337 17.1806 58.8839 17.2648 59.455L20.9292 78.6947C20.9567 78.8855 20.9799 79.0771 20.9988 79.2687C21.0513 79.808 21.0538 80.4096 21.0079 81.1615L20.6431 87.0865L11.6016 91.1917V45.5984C11.6059 45.5933 11.6106 45.589 11.6149 45.5838ZM22.7098 79.1029C22.6888 78.8838 22.6622 78.6655 22.6243 78.4102L18.9595 59.1701L21.1827 56.9469C22.4954 55.6342 22.5367 53.5532 21.2837 52.1907L18.9295 49.1902C17.725 47.6553 16.8648 45.9194 16.372 44.0309L15.3669 40.1775C15.4146 39.9085 15.4107 39.6318 15.3394 39.3637L15.1779 38.7574C16.277 39.6146 17.4659 40.2832 18.6863 40.7275C18.098 43.8058 19.6655 46.924 22.5131 48.0756C23.3084 48.397 24.1411 48.5577 24.9739 48.5577C25.8423 48.5577 26.7107 48.3828 27.5348 48.033C29.1483 47.3486 30.3987 46.0771 31.0552 44.4525C31.8845 42.4024 31.8119 40.2342 30.9049 38.5778C31.6976 37.993 32.4006 37.3282 32.9747 36.5952C32.9863 36.5806 32.997 36.5655 33.0086 36.5509C33.8104 37.9289 34.928 39.1295 36.3099 40.0177L42.2795 43.8552C42.9473 44.2845 43.5703 44.7868 44.1319 45.3484C47.0645 48.2805 48.99 51.99 49.7002 56.0759L49.9641 57.5919C50.157 58.7026 50.1162 59.8207 49.8429 60.9146C49.699 61.4896 49.4871 62.0387 49.2237 62.5629C47.6717 63.3003 45.3754 64.6989 42.7909 67.2839C41.0713 69.0035 39.8011 71.2852 39.0173 74.0644C38.1176 77.2539 36.1101 80.0082 33.3652 81.8198L22.2372 89.1645L22.7236 81.2681C22.7752 80.4225 22.7709 79.7345 22.7098 79.1029ZM31.7647 29.4224L31.6779 30.1151C31.6727 30.1559 31.6718 30.1967 31.6671 30.2375C22.8907 29.7271 15.84 24.7934 13.8424 23.2547C15.5195 20.8085 17.6636 18.0108 17.6881 17.979C17.7203 17.9373 17.7482 17.8926 17.7723 17.8458L18.6476 16.1275L32.0311 28.1033C31.9163 28.5411 31.8201 28.9816 31.7647 29.4224ZM16.2761 16.9959C16.0579 17.2812 15.1804 18.4332 14.1629 19.8301C14.4005 18.9273 14.6627 18.1436 14.9484 17.5721C15.5319 16.4042 16.1889 15.3471 16.793 14.4689L17.3224 14.9424L16.2761 16.9959ZM13.1781 24.9176C15.7356 26.8391 22.7605 31.4647 31.6237 31.9559C31.68 32.9261 31.8734 33.8766 32.1931 34.7823C32.001 35.0419 31.8093 35.295 31.622 35.5343C29.1195 38.7303 23.5357 40.468 19.6711 39.2558C17.7315 38.647 15.8464 37.3437 14.3318 35.5824L13.7216 33.2939C13.7066 33.2376 13.686 33.183 13.6598 33.1311L12.4794 30.7708C12.5477 30.0154 12.7832 27.57 13.1781 24.9176ZM29.462 43.8071C28.9773 45.0063 28.0543 45.9452 26.8636 46.4496C25.673 46.9554 24.3568 46.9661 23.1576 46.4806C21.114 45.6543 19.9792 43.4208 20.35 41.1787C21.0091 41.2968 21.6902 41.3613 22.3863 41.3613C24.7788 41.3613 27.3097 40.6841 29.4456 39.5042C30.0579 40.6996 30.0803 42.2787 29.462 43.8071ZM44.5406 22.559L52.9886 25.2549C56.9632 26.5233 60.0329 29.8328 60.9993 33.892C61.3315 35.2881 61.8784 36.6167 62.6239 37.8413L65.9184 43.2536C66.4245 44.0851 66.8259 44.9771 67.1163 45.9027C64.8441 47.1002 60.2963 49.4351 58.9415 49.8446C57.4419 50.2971 52.3845 51.6433 50.4363 52.1593C49.3616 49.155 47.6399 46.4239 45.3475 44.1319C44.6995 43.4839 43.9802 42.9039 43.2094 42.408L37.2397 38.5705C34.4919 36.8049 32.9785 33.5689 33.3837 30.3278L33.4705 29.6351C33.4761 29.5921 33.4868 29.5487 33.4929 29.5058L38.3028 34.5989C39.6795 36.0564 41.7467 36.6811 43.7001 36.2308L44.1916 36.117C45.9693 35.7066 47.4491 34.4566 48.1504 32.7731C49.0093 30.7115 48.5753 28.3302 47.0452 26.7064C46.0552 25.6554 44.4164 24.0152 42.5455 22.1809C43.2244 22.2282 43.896 22.3532 44.5406 22.559ZM9.31477 44.9879C8.92891 45.0171 8.55895 44.8912 8.27063 44.6351L7.50063 43.9506C6.77789 43.3082 6.28762 42.4304 6.11961 41.4782L5.47852 37.8464C5.29805 36.8238 5.4927 35.7702 6.0268 34.8799L7.61149 32.239C7.68582 32.1148 7.72793 31.9743 7.73352 31.83C7.73781 31.7178 8.16406 20.5872 8.16406 15.8984C8.16406 12.6595 9.53778 7.47527 10.3568 4.67414C10.5699 3.94625 11.2479 3.4375 12.0068 3.4375L15.883 3.43707C17.2872 3.57586 26.22 9.78227 29.5625 12.2891C30.7656 13.1918 42.2005 24.0707 45.7944 27.885C46.86 29.0164 47.1625 30.6758 46.5639 32.1123C46.075 33.2853 45.0437 34.1571 43.8049 34.4429L43.3138 34.5563C41.9543 34.8709 40.5118 34.4352 39.5527 33.4194L34.1404 27.6886C34.1236 27.671 34.1064 27.6543 34.0884 27.6384L17.8136 13.0754C18.4044 12.3166 18.8117 11.874 18.8212 11.8637L17.5609 10.6949C17.4638 10.7993 15.1645 13.2962 13.411 16.8034C11.6385 20.3483 10.7809 30.4382 10.7452 30.8666C10.7323 31.0234 10.7624 31.1811 10.8329 31.3225L12.0828 33.822L13.6787 39.8063C13.6894 39.8462 13.6851 39.8887 13.6662 39.9257C13.6331 39.9923 13.5773 40.0125 13.5369 40.0177C13.4948 40.0245 13.4372 40.0177 13.3878 39.9609L11.3889 37.6767C11.1384 37.3905 10.7289 37.3029 10.3838 37.4619C10.0379 37.6204 9.8377 37.9878 9.89141 38.3647L10.6077 43.3804C10.6644 43.7753 10.5501 44.1775 10.2945 44.4843C10.0474 44.7803 9.69977 44.9595 9.31477 44.9879ZM82.4377 72.6541C79.044 76.4904 74.6995 79.4247 69.8741 81.1405L59.8684 84.6979C59.8121 84.718 59.7584 84.7434 59.7072 84.7748L44.0804 94.3422C40.5801 96.4855 23.6027 103.08 23.4708 103.132C21.7753 103.698 20.0088 103.984 18.2209 103.984H17.7439C15.8731 103.984 14.1909 102.945 13.3547 101.272C12.2079 98.9781 11.6016 96.4107 11.6016 93.8468V93.0798L20.5232 89.0287L20.442 90.3482L17.1437 92.525L18.0903 93.9593L34.3114 83.2532C37.4004 81.2148 39.6593 78.1168 40.6712 74.5302C41.3746 72.0371 42.4965 70.0077 44.006 68.4982C45.0575 67.4468 46.0509 66.611 46.9563 65.9433L45.9224 67.4077C45.8103 67.5666 45.6951 67.751 45.5795 67.9559C44.2342 70.3527 44.0069 73.2712 44.9569 75.9627L45.1662 76.5553L46.7865 75.9829L46.5773 75.3904C45.7922 73.1659 45.9748 70.7626 47.0779 68.7977C47.1642 68.6439 47.248 68.5094 47.3262 68.3985L50.0169 64.5872C50.7143 63.5989 51.2166 62.5032 51.5101 61.3302C51.6308 60.8476 51.7129 60.3612 51.7589 59.8731L55.1113 58.4482C58.1208 57.0934 61.5106 56.8984 64.6564 57.9L68.1454 59.0103L68.2958 62.0782L61.4247 66.2986L62.3245 67.763L73.4078 60.9555C80.0211 56.8941 87.1548 53.9791 94.6099 52.2921C94.823 52.2444 95.019 52.201 95.196 52.1632C96.8868 51.8048 98.679 52.1469 100.115 53.1042C101.536 54.0517 102.445 55.6355 102.545 57.3405L102.684 59.6995C102.744 60.7325 102.553 61.7762 102.129 62.7176C101.764 63.5297 101.293 64.5825 100.747 65.8092L88.7571 68.2168C89.054 67.601 89.3604 67.097 89.6762 66.7459C93.4716 62.5286 94.7886 61.2051 94.8015 61.1927L93.5859 59.9775C93.5327 60.0308 92.2367 61.3314 88.3983 65.5961C88.0864 65.9424 87.7865 66.3949 87.4973 66.9324L82.4377 72.6541ZM102.1 106.217C102.254 106.275 102.358 106.425 102.358 106.592C102.358 106.813 102.179 106.992 101.958 106.992H81.2634C80.01 106.992 78.9607 106.052 78.8219 104.807C78.7725 104.362 78.8455 103.913 79.0329 103.506L83.8024 93.1726C83.8428 93.0849 83.8681 92.9908 83.8776 92.895C84.3507 87.9738 85.8546 76.2915 87.9875 70.1254L99.8942 67.7346C95.9862 76.5811 89.6539 91.3172 89.0476 95.26C88.2415 100.505 97.9069 104.671 102.1 106.217Z" fill="#143500"/>
</svg>
