<svg width="109" height="109" viewBox="0 0 109 109" fill="none" xmlns="http://www.w3.org/2000/svg">
<path d="M105.787 99.2981L98.9793 97.0202L101.801 69.272C101.875 68.5835 101.666 67.8814 101.225 67.3466C98.9176 64.5446 95.943 62.2866 92.6228 60.8177L78.047 54.3688L77.7694 50.6824C77.7656 50.6309 77.7507 50.5828 77.7379 50.5338L77.7447 50.5321C77.0405 47.8228 76.1711 45.0395 75.3297 42.3473C74.6736 40.2473 73.1386 37.263 70.7683 33.4757C67.6222 28.4498 63.6676 23.9582 59.0146 20.1262C57.8288 19.1499 56.652 18.0735 55.4057 16.9337C52.1344 13.9417 48.7516 10.848 44.854 9.27772C42.7915 8.4466 41.0424 7.77386 39.656 7.27868C34.6076 5.47592 20.8995 5.43292 19.9892 5.43207L8.71495 4.68823C8.68812 4.68652 8.66172 4.6861 8.63405 4.68695C7.74672 4.71292 6.94668 5.25664 6.59626 6.07372C6.31908 6.72133 6.35229 7.44772 6.6878 8.06723C7.02374 8.68631 7.6143 9.11082 8.30833 9.23174L13.0583 10.0578C12.8118 10.4201 12.7101 10.8646 12.7816 11.3138C12.8791 11.9303 13.2836 12.437 13.8631 12.6686C14.3451 12.8619 14.8832 12.8326 15.341 12.5882L20.0799 10.0603L28.7284 12.0564C29.0085 12.1211 29.2959 12.1739 29.5812 12.2126L36.877 13.2077L50.3891 23.4111L49.6432 24.6518L48.6081 24.8434C48.6124 23.9412 48.4565 23.0454 48.0265 22.2632C47.395 21.1161 45.4309 20.555 44.323 20.3238L43.9049 18.7394C43.8474 18.521 43.7052 18.3345 43.5102 18.2208C43.3152 18.1067 43.0827 18.0748 42.8643 18.1335L40.2628 18.8203C39.6207 18.8237 36.4495 18.8497 34.6527 19.0528C32.8674 19.2551 30.9148 20.5273 30.0095 22.0788C28.7258 24.2793 28.3464 27.0711 28.9855 29.3601C27.2335 30.3722 26.3133 32.4228 26.8537 34.3554C27.4042 36.3251 29.201 37.6169 31.1528 37.6169C31.5492 37.6169 31.952 37.5632 32.3522 37.4512C33.6934 37.0766 34.7604 36.2314 35.319 35.1631C35.8657 35.3015 36.4141 35.3828 36.9502 35.3871C37.0115 35.3875 37.0724 35.3879 37.1346 35.3879C39.6726 35.3879 42.9243 34.983 44.871 33.2002L44.8834 33.2484L43.896 36.8683L41.0854 41.4361C41.0509 41.4915 41.0232 41.5511 41.0028 41.6128L36.3716 55.5065L31.7757 61.8702C31.7642 61.8864 31.7531 61.9026 31.7425 61.9196L25.3409 72.2333L17.6146 78.9517C17.1105 79.3894 16.8789 80.0681 17.01 80.7221C17.0743 81.0427 17.2263 81.3284 17.4337 81.5686L7.53638 92.1756L2.87663 95.9038C2.81319 95.9549 2.74464 96.0047 2.67524 96.0549C2.49599 96.1869 2.29246 96.3355 2.1115 96.5246C1.0032 97.6831 1.27825 99.3083 1.426 100.182C1.43707 100.246 1.44729 100.319 1.45878 100.397C1.55629 101.067 1.70361 102.08 2.49684 102.537C2.68886 102.648 3.28496 102.703 4.03944 102.703C5.74853 102.703 8.27043 102.424 8.75071 101.891C9.17351 101.421 9.28379 100.817 9.32977 100.406C9.43409 99.4735 9.78025 97.6282 9.93396 96.9325L22.5554 88.7609C24.1504 87.7283 25.8454 86.8291 27.5937 86.0874L36.7471 82.2043L47.7731 77.5884C50.7715 76.3332 53.6289 74.7326 56.2653 72.832L65.5308 66.1523C68.0646 67.2108 80.5979 72.321 89.842 73.8219L91.8973 97.8334L91.5767 98.8689C91.2931 99.7852 91.3387 100.778 91.7052 101.665C92.3452 103.214 93.8422 104.215 95.5181 104.215H104.985C106.377 104.215 107.509 103.082 107.509 101.691C107.51 100.604 106.818 99.6421 105.787 99.2981ZM56.1615 49.9164C57.0083 49.9896 58.2478 50.0684 59.6652 50.0684C61.7464 50.0684 64.2087 49.8985 66.3619 49.2914C69.8418 48.3104 73.1016 46.7179 74.648 45.9073C75.1049 47.4047 75.5443 48.9043 75.9398 50.3839C74.6621 51.2278 71.0578 53.4419 67.6742 53.9805C63.6386 54.623 58.1477 53.7817 56.0623 53.4091C56.2879 52.2616 56.3245 51.0796 56.1615 49.9164ZM73.7041 42.8553C73.848 43.3164 73.9932 43.7826 74.1379 44.2484C72.8035 44.9582 69.4216 46.6588 65.8995 47.6521C62.2207 48.6897 57.3613 48.3265 55.7595 48.166C55.2098 46.4672 54.2348 44.9148 52.9213 43.6953L45.6425 36.9369L46.3493 34.346C48.3594 34.8067 50.4981 34.0105 51.7001 32.2537L51.9994 31.8165C53.4194 29.7408 53.0673 26.9421 51.2837 25.23L51.9398 24.1383L62.9991 26.1932C65.3737 28.7193 67.4936 31.4541 69.3249 34.3801C71.6177 38.0431 73.0914 40.8945 73.7041 42.8553ZM29.7243 74.9954L29.8967 74.7612L38.8607 64.3627C38.8905 64.3283 38.9177 64.2908 38.9416 64.2516L45.0239 54.3279C45.5408 53.4845 46.0002 52.5954 46.3894 51.6847L49.9766 43.2849L51.7623 44.9433C53.1772 46.2568 54.1313 48.0298 54.4494 49.9351C54.7657 51.8333 54.4409 53.8136 53.5357 55.512L53.3155 55.9238C52.6505 57.1704 51.6818 58.2507 50.5139 59.0473L46.9544 61.4738C45.3368 62.5766 43.781 63.8028 42.33 65.1177L33.0726 73.5072L29.7243 74.9954ZM37.3279 11.5501L29.8111 10.5253C29.577 10.4933 29.3423 10.4503 29.1124 10.3967L20.1523 8.32908C19.9517 8.28267 19.7414 8.31077 19.56 8.40785L14.5392 11.0856C14.526 11.0933 14.5103 11.0941 14.4958 11.0877C14.4847 11.0835 14.4685 11.0771 14.4638 11.0477C14.4592 11.0183 14.4724 11.0077 14.4817 11L15.4742 10.1731C15.7293 9.96068 15.8374 9.61963 15.7518 9.29901C15.6663 8.9784 15.4018 8.73698 15.0753 8.67993L8.60084 7.55331C8.35729 7.51073 8.23594 7.34851 8.18528 7.25526C8.13461 7.16159 8.06435 6.97127 8.16143 6.74432C8.24701 6.54506 8.43734 6.40881 8.65193 6.39093L19.9045 7.13349C19.9232 7.13477 19.9419 7.13519 19.9607 7.13519C20.1029 7.13519 34.2473 7.15563 39.0825 8.8826C40.4476 9.37012 42.175 10.0348 44.2166 10.8578C47.8285 12.3127 51.0959 15.3012 54.2557 18.191C55.5185 19.3462 56.7116 20.4366 57.931 21.4414C58.9533 22.2832 59.9356 23.1624 60.8872 24.0685L51.8662 22.3926L37.726 11.7145C37.6097 11.6263 37.4726 11.5697 37.3279 11.5501ZM47.4517 29.6288C47.7395 28.9752 48.1712 27.8597 48.4186 26.6109L49.957 26.326C51.2777 27.456 51.5766 29.4176 50.5935 30.8546L50.2942 31.2919C49.4435 32.5352 47.889 33.0546 46.4788 32.6144L46.2288 31.6295C46.7053 31.0036 47.1387 30.3394 47.4517 29.6288C47.4513 29.6292 47.4513 29.6292 47.4517 29.6288ZM31.8936 35.812C30.4294 36.2199 28.9034 35.3624 28.4938 33.8977C28.1838 32.7881 28.6811 31.6099 29.654 30.9504C30.535 32.4641 32.0367 33.7755 33.7036 34.573C33.3353 35.138 32.6915 35.5893 31.8936 35.812ZM36.9626 33.6844C34.5058 33.666 31.6084 31.6321 30.7615 29.3316C30.0538 27.4088 30.3361 24.8992 31.4806 22.9372C32.115 21.8493 33.5925 20.8871 34.8439 20.7453C34.8447 20.7453 34.846 20.7453 34.8468 20.7449C34.8869 23.0066 35.3778 28.8015 39.0868 33.5903C38.4255 33.6575 37.7179 33.6907 36.9626 33.6844ZM41.0232 33.259C37.0643 28.7244 36.5921 22.6915 36.5542 20.6188C38.3493 20.5294 40.3505 20.5235 40.3773 20.5235C40.4501 20.5235 40.5225 20.5141 40.5928 20.4954L42.476 19.998L42.8145 21.2801C42.9005 21.6054 43.1696 21.8493 43.5017 21.9034C44.7394 22.1048 46.2897 22.6396 46.535 23.0845C47.5334 24.8996 46.2957 28.027 45.8925 28.9429V28.9424C45.4748 29.8915 44.7429 30.8031 44.0143 31.6474C43.3889 32.3721 42.3657 32.9158 41.0232 33.259ZM18.731 80.2376L26.5548 73.434C26.6191 73.3782 26.6744 73.3131 26.7195 73.2407L33.1731 62.8431L37.8282 56.3977C37.8788 56.3278 37.918 56.2503 37.9457 56.1686L42.5867 42.2447L44.8663 38.54L48.6503 42.0535L44.8229 51.0154C44.4665 51.8499 44.0454 52.6648 43.572 53.4376L37.5259 63.3021L28.5857 73.6729C28.5717 73.6891 28.5581 73.7061 28.5453 73.7235L24.1802 79.6479C24.0899 79.7705 23.992 79.8863 23.886 79.994C24.0367 79.6849 23.9873 79.3132 23.7561 79.0539C23.5126 78.7801 23.1213 78.6937 22.7853 78.838L18.8984 80.5033C18.8405 80.5284 18.7919 80.5139 18.7617 80.4977C18.731 80.482 18.6919 80.4496 18.6795 80.3879C18.6684 80.3329 18.688 80.2755 18.731 80.2376ZM26.929 84.5192C25.0905 85.2988 23.3077 86.2449 21.6302 87.3311L8.7324 95.6815C8.60893 95.7616 8.50844 95.8718 8.44032 96.0025C8.23296 96.3998 7.71819 99.4961 7.63772 100.216C7.616 100.412 7.58365 100.561 7.54192 100.657C6.78233 100.886 4.11864 101.093 3.34031 101.021C3.24238 100.821 3.17553 100.362 3.14488 100.151C3.13168 100.059 3.1189 99.9738 3.10613 99.8972C2.93326 98.8753 2.9124 98.1515 3.34329 97.7014C3.42036 97.6209 3.55363 97.5234 3.68221 97.4289C3.77163 97.3638 3.85976 97.2986 3.94151 97.2331L8.6498 93.4662C8.68216 93.4402 8.71197 93.4121 8.74007 93.3823L19.1879 82.1842C19.3173 82.1591 19.4455 82.1221 19.5694 82.0689L21.5752 81.2092C21.6144 81.4715 21.7281 81.7231 21.9137 81.9309C22.1841 82.2336 22.5639 82.3963 22.9518 82.3963C23.1366 82.3963 23.3231 82.3597 23.5006 82.2835C24.316 81.9343 25.0249 81.3718 25.5512 80.6578L27.6822 77.7659L28.9941 77.183L33.3783 81.7827L26.929 84.5192ZM67.1598 64.978L67.8262 64.4977L66.8303 63.1165L55.2699 71.4503C52.7382 73.2752 49.9949 74.8118 47.1157 76.0172L36.0859 80.6344L35.0538 81.0721L30.6469 76.4485L33.8893 75.0077C33.9719 74.9711 34.0481 74.9217 34.1154 74.8608L43.4736 66.3792C44.8668 65.1168 46.3608 63.9399 47.9137 62.8806L51.4736 60.4541C52.868 59.5029 54.0249 58.2132 54.8181 56.7251L55.0382 56.3134C55.2545 55.908 55.4351 55.4861 55.5952 55.0569C57.6406 55.4341 63.4909 56.37 67.9415 55.6619C71.1656 55.1488 74.45 53.3337 76.1804 52.2548L76.3878 55.0045C76.4112 55.3174 76.6053 55.5921 76.8923 55.7194L91.9343 62.3748C95.0127 63.7368 97.7709 65.8304 99.9105 68.429C100.061 68.612 100.133 68.8522 100.107 69.094L99.503 75.0332C95.797 77.054 92.8263 76.4162 91.744 76.0594L91.5733 74.0637C91.8424 74.0948 92.1097 74.1242 92.3708 74.1472L92.5202 72.4509C84.3712 71.7343 71.4155 66.7041 67.1598 64.978ZM104.987 102.511H95.5194C94.535 102.511 93.6566 101.923 93.2802 101.014C93.0652 100.493 93.0384 99.9095 93.2048 99.3717L93.5744 98.1779C93.6068 98.0727 93.6187 97.9624 93.6093 97.853L91.8986 77.8677C92.5219 78.0163 93.3424 78.1449 94.3161 78.1449C95.708 78.1449 97.4154 77.8711 99.2999 77.0268L97.2157 97.5251C97.1753 97.9215 97.415 98.2924 97.7926 98.4189L105.247 100.912C105.581 101.025 105.806 101.337 105.806 101.69C105.807 102.143 105.439 102.511 104.987 102.511Z" fill="#143500"/>
</svg>
