<svg width="110" height="110" viewBox="0 0 110 110" fill="none" xmlns="http://www.w3.org/2000/svg">
<path d="M17.0831 100.08C18.2523 100.647 19.5779 101.289 21.0513 102.149C22.8912 103.222 26.883 103.465 31.9791 103.238C30.8374 103.848 30.2191 105.144 30.5108 106.455C30.8138 107.818 32.0315 108.752 33.3755 108.752C33.5792 108.752 33.7863 108.73 33.9934 108.686L47.7705 105.707C49.4635 105.772 70.1856 106.562 82.0703 106.562C94.9859 106.562 98.3984 99.2548 98.3984 95.3906C98.3984 93.8566 97.3204 92.2328 95.1943 90.5657C93.0888 88.9144 90.6215 87.7271 87.8866 87.0435L67.4609 81.2986V77.7734H84.8521C86.06 77.7734 87.0929 76.9514 87.3641 75.775L87.8118 73.8354C87.9446 73.2591 87.8741 72.6498 87.6133 72.1192L74.4799 45.3836C74.1954 44.7404 73.6162 44.2776 72.9244 44.1431L61.0156 41.8305V37.7064C64.6529 34.305 67.0961 28.2429 67.0961 22.9204C67.0961 18.4727 65.3056 14.5037 62.52 11.9277C62.6102 11.5513 62.6991 11.1379 62.6991 10.707C62.6991 6.46164 59.2453 3.00781 55 3.00781C50.7547 3.00781 47.3009 6.46164 47.3009 10.707C47.3009 11.1745 47.4005 11.5637 47.4985 11.9109C44.7025 14.4869 42.9043 18.4628 42.9043 22.9204C42.9043 28.2429 45.3475 34.305 48.9848 37.7064V41.8305L37.076 44.1431C36.3846 44.2776 35.805 44.7408 35.5205 45.3836L22.3867 72.1192C22.1263 72.6498 22.0559 73.2591 22.1886 73.8358L22.6359 75.7745C22.9071 76.9514 23.94 77.7734 25.1479 77.7734H42.5391V81.2977L19.5357 87.6876C19.4825 87.7027 19.4309 87.7224 19.3815 87.7469C18.6287 88.1229 12.0312 91.5213 12.0312 94.9609C12.0312 97.631 14.15 98.658 17.0831 100.08ZM29.6205 101.593C29.0215 100.866 27.5 98.8096 27.5 96.6797C27.5 94.5579 28.4629 92.6342 28.8797 91.9007L36.0624 91.1028L58.2514 95.2119C59.085 95.3674 59.9436 95.1006 60.5438 94.4999L62.7477 92.296C62.9342 92.11 63.2023 92.0206 63.4623 92.0511L69.5032 92.8061C69.5264 92.8091 69.5492 92.8108 69.5724 92.8121L78.0244 93.1795C78.3655 93.1945 78.6332 93.4738 78.6332 93.8154C78.6332 94.1033 78.4399 94.3559 78.1636 94.4298C75.3324 95.1835 65.6279 97.6985 59.6264 98.4045C58.4036 98.5484 56.6466 98.7903 54.6129 99.0709C48.2737 99.9449 37.2685 101.462 29.6205 101.593ZM47.7293 103.985C47.6575 103.982 47.5849 103.988 47.514 104.004L33.6308 107.006C32.9828 107.148 32.3331 106.732 32.1892 106.083C32.0517 105.463 32.404 104.852 33.0086 104.662L39.2404 102.694C44.1964 102.208 49.6113 101.496 54.8475 100.774C56.8721 100.495 58.621 100.253 59.8271 100.112C64.9911 99.504 72.5789 97.6564 76.8883 96.5413C77.5616 97.0823 79.1699 98.5548 79.1699 100.279C79.1699 102.12 78.0785 104.041 77.5861 104.814C65.1187 104.662 47.923 103.993 47.7293 103.985ZM72.9094 46.0831C72.9154 46.0969 72.9214 46.1106 72.9283 46.1239L86.0703 72.8771C86.1575 73.0542 86.1807 73.2574 86.1364 73.4495L85.6891 75.3887C85.5989 75.781 85.2543 76.0547 84.8517 76.0547H58.807C58.7262 76.0547 58.6476 76.0319 58.5793 75.9894L55.8594 74.2895V59.3059C56.4468 59.3519 56.9314 59.7837 57.0298 60.3741L58.7434 70.6557C58.8835 71.4961 59.6045 72.0921 60.4347 72.0921C60.5064 72.0921 60.5791 72.0878 60.6521 72.0784L73.4452 70.4795L77.6054 71.3114L77.9423 69.6261L74.0889 68.8553L69.1475 57.3259L66.7408 44.6931L72.5966 45.8305C72.7362 45.858 72.8535 45.9521 72.9094 46.0831ZM68.9343 61.1922L72.2369 68.8982L68.374 69.3812L68.9343 61.1922ZM49.0196 10.707C49.0196 7.40953 51.7026 4.72656 55 4.72656C58.2974 4.72656 60.9804 7.40953 60.9804 10.707C60.9804 10.7095 60.98 10.7125 60.98 10.7151C59.2148 9.54379 57.1746 8.87047 55 8.87047C52.8254 8.87047 50.7852 9.54379 49.02 10.7151C49.02 10.7125 49.0196 10.7095 49.0196 10.707ZM55 10.5892C60.1232 10.5892 64.3878 15.0245 65.2253 20.8325C63.0511 17.0973 59.2728 14.7331 55 14.7331C50.6988 14.7331 46.8828 17.2601 44.7219 21.2356C45.4158 15.2307 49.7591 10.5892 55 10.5892ZM44.8826 25.8109C45.998 20.3796 50.2283 16.4519 55 16.4519C59.9182 16.4519 64.0793 20.1631 65.1707 25.4921C64.1902 31.8579 59.8301 38.6719 55 38.6719C50.2507 38.6719 45.9568 32.0835 44.8826 25.8109ZM55 40.3906C56.5151 40.3906 57.9623 39.8982 59.2969 39.0504V46.4062C59.2969 48.7755 57.3693 50.7031 55 50.7031C52.6307 50.7031 50.7031 48.7755 50.7031 46.4062V39.0504C52.0377 39.8982 53.4849 40.3906 55 40.3906ZM55 52.4219C58.3172 52.4219 61.0156 49.7234 61.0156 46.4062V43.5815L64.9232 44.3403L67.4554 57.6297L66.6364 69.5982L60.4386 70.3729L58.725 60.0914C58.4822 58.6347 57.2344 57.5777 55.758 57.5777H55H54.242C52.7656 57.5777 51.5178 58.6347 51.275 60.0914L49.5614 70.3729L43.3636 69.5982L42.5446 57.6275L45.0029 44.3545L48.9848 43.5811V46.4062C48.9844 49.7234 51.6828 52.4219 55 52.4219ZM41.0657 61.1922L41.626 69.3812L37.7631 68.8982L41.0657 61.1922ZM24.3109 75.3882L23.8636 73.4495C23.8189 73.257 23.8425 73.0537 23.9293 72.8767L37.0713 46.1235C37.0782 46.1102 37.0842 46.0964 37.0902 46.0827C37.1461 45.9516 37.2634 45.8575 37.4034 45.83L43.1892 44.7064L40.8521 57.3276L35.912 68.8553L32.0586 69.6261L32.3954 71.3114L36.5557 70.4795L49.3483 72.0784C50.267 72.1948 51.1049 71.5683 51.257 70.6552L52.9706 60.3737C53.069 59.7828 53.5528 59.3459 54.1411 59.3003V74.2887L51.4207 75.9889C51.3524 76.0315 51.2738 76.0543 51.193 76.0543H25.1479C24.7453 76.0547 24.4011 75.7805 24.3109 75.3882ZM51.193 77.7734C51.596 77.7734 51.9896 77.6604 52.3316 77.4469L55 75.7793L57.6684 77.4469C58.01 77.6609 58.404 77.7734 58.807 77.7734H65.7422V81.2109H44.2578V77.7734H51.193ZM20.0767 89.3213L43.0856 82.9297H66.9127L87.4453 88.7043C89.9693 89.335 92.2191 90.4166 94.1334 91.9179C95.7752 93.2057 96.6793 94.4389 96.6793 95.3906C96.6793 98.6601 93.6259 104.844 82.0699 104.844C81.2724 104.844 80.4341 104.84 79.5648 104.833C80.172 103.703 80.8882 102.007 80.8882 100.278C80.8882 98.456 79.7895 96.9543 78.8524 96.0016C79.4737 95.7584 79.9537 95.2682 80.1883 94.6602C80.9901 94.34 82.4828 93.842 83.5381 93.8859L83.6095 92.1688C82.4428 92.1211 81.0575 92.5203 80.1372 92.846C79.7822 92.061 79.0152 91.502 78.0983 91.462L69.6811 91.0959L63.675 90.3452C62.8805 90.2455 62.0989 90.5137 61.5321 91.0804L59.3282 93.2843C59.128 93.4841 58.8427 93.5739 58.5643 93.5215L36.2502 89.3892C36.1672 89.3741 36.0826 89.3707 35.9988 89.3801L24.3972 90.6692L24.5867 92.3777L26.837 92.1276C26.7953 92.223 26.7528 92.3196 26.7085 92.4249C26.2857 93.4287 25.7812 94.9816 25.7812 96.6797C25.7812 98.6055 26.6973 100.4 27.4871 101.591C24.9292 101.533 22.9363 101.258 21.9175 100.664C20.3865 99.7709 19.03 99.113 17.8329 98.5329C14.9286 97.1253 13.75 96.4928 13.75 94.9609C13.75 93.2714 17.4243 90.6632 20.0767 89.3213Z" fill="#143500"/>
</svg>
