<?xml version="1.0" encoding="UTF-8"?>
<!DOCTYPE svg PUBLIC "-//W3C//DTD SVG 1.1//EN" "http://www.w3.org/Graphics/SVG/1.1/DTD/svg11.dtd">
<!-- Creator: CorelDRAW 2019 (64-Bit) -->
<svg xmlns="http://www.w3.org/2000/svg" xml:space="preserve" width="22mm" height="34mm" version="1.1" style="shape-rendering:geometricPrecision; text-rendering:geometricPrecision; image-rendering:optimizeQuality; fill-rule:evenodd; clip-rule:evenodd"
viewBox="0 0 2200 3400"
 xmlns:xlink="http://www.w3.org/1999/xlink">
 <defs>
  <style type="text/css">
   <![CDATA[
    .fil0 {fill:#053452}
    .fil1 {fill:#2B2A29;fill-rule:nonzero}
   ]]>
  </style>
 </defs>
 <g id="Слой_x0020_1">
  <metadata id="CorelCorpID_0Corel-Layer"/>
  <polygon class="fil0" points="37.1,3186.25 37.1,283.65 483.91,283.65 483.91,3186.25 "/>
  <path class="fil1" d="M1191.72 44.93l975.01 0 0 381.12 -1000.88 0 0 -381.12 25.87 0zm923.28 51.73l-897.41 0 0 277.66 897.41 0 0 -277.66z"/>
  <polygon class="fil1" points="1346.32,209.62 1968.29,209.62 1968.29,261.36 1346.32,261.36 "/>
  <path class="fil1" d="M1191.72 935.21l975.01 0 0 381.12 -1000.88 0 0 -381.12 25.87 0zm923.28 51.74l-897.41 0 0 277.65 897.41 0 0 -277.65z"/>
  <polygon class="fil1" points="1346.32,1099.91 1968.29,1099.91 1968.29,1151.64 1346.32,1151.64 "/>
  <polygon class="fil1" points="1181.87,261.35 999.62,261.35 999.59,1125.77 948.07,1125.77 948.1,209.62 1181.87,209.62 "/>
  <polygon class="fil1" points="686.08,633.76 974.68,633.76 974.68,685.49 686.08,685.49 "/>
  <polygon class="fil1" points="973.83,1099.91 1191.72,1099.91 1191.72,1151.64 973.83,1151.64 "/>
  <polygon class="fil1" points="235.18,2713.48 235.18,811.41 286.91,811.41 286.91,2713.48 "/>
  <polygon class="fil1" points="660.22,2871.87 660.22,659.61 711.95,659.61 711.95,2871.87 "/>
  <path class="fil1" d="M1192.83 2065.82l975.01 0 0 381.12 -1000.88 0 0 -381.12 25.87 0zm923.27 51.74l-897.41 0 0 277.65 897.41 0 0 -277.65z"/>
  <polygon class="fil1" points="1347.42,2230.52 1969.4,2230.52 1969.4,2282.25 1347.42,2282.25 "/>
  <path class="fil1" d="M1192.83 2968.59l975.01 0 0 381.12 -1000.88 0 0 -381.12 25.87 0zm923.27 51.73l-897.41 0 0 277.65 897.41 0 0 -277.65z"/>
  <polygon class="fil1" points="1347.42,3133.28 1969.4,3133.28 1969.4,3185.01 1347.42,3185.01 "/>
  <polygon class="fil1" points="1182.98,2282.26 1000.75,2282.26 1001.46,3159.15 949.94,3159.15 949.18,2230.52 1182.98,2230.52 "/>
  <polygon class="fil1" points="975.7,3133.28 1192.83,3133.28 1192.83,3185.01 975.7,3185.01 "/>
  <polygon class="fil1" points="686.08,2845.99 974.68,2845.99 974.68,2897.72 686.08,2897.72 "/>
  <polygon class="fil1" points="483.71,1742.19 685.89,1739.97 686.29,1791.49 484.11,1793.72 "/>
 </g>
</svg>
