<?xml version="1.0" encoding="UTF-8"?>
<!DOCTYPE svg PUBLIC "-//W3C//DTD SVG 1.1//EN" "http://www.w3.org/Graphics/SVG/1.1/DTD/svg11.dtd">
<!-- Creator: CorelDRAW 2019 (64-Bit) -->
<svg xmlns="http://www.w3.org/2000/svg" xml:space="preserve" width="35mm" height="26mm" version="1.1" style="shape-rendering:geometricPrecision; text-rendering:geometricPrecision; image-rendering:optimizeQuality; fill-rule:evenodd; clip-rule:evenodd"
viewBox="0 0 3500 2600"
 xmlns:xlink="http://www.w3.org/1999/xlink">
 <defs>
  <style type="text/css">
   <![CDATA[
    .fil0 {fill:#1F1B20;fill-rule:nonzero}
    .fil1 {fill:#053452;fill-rule:nonzero}
   ]]>
  </style>
 </defs>
 <g id="Слой_x0020_1">
  <metadata id="CorelCorpID_0Corel-Layer"/>
  <path class="fil0" d="M789.11 845.56l1801.98 -818.73c41.08,-18.66 86.11,-18.81 125.52,-4.03 39.49,14.82 73.37,44.61 92.08,85.79l358.79 789.69c18.66,41.08 18.82,86.1 4.03,125.51 -14.82,39.5 -44.62,73.38 -85.78,92.08l-1807.11 821.05 -0.25 0c-39.61,16.32 -82.44,15.85 -120.15,1.71 -39.49,-14.81 -73.36,-44.61 -92.07,-85.78l-358.8 -789.7c-18.66,-41.08 -18.81,-86.1 -4.02,-125.51 14.81,-39.5 44.6,-73.37 85.78,-92.08zm1823.2 -771.64l-1801.98 818.73c-28.19,12.8 -48.58,35.97 -58.71,62.97 -10.15,27.06 -10.03,58.03 2.82,86.31l358.97 790.09c12.84,27.98 35.93,48.24 62.8,58.31 27.06,10.15 58.02,10.03 86.31,-2.82l1801.98 -818.72c28.19,-12.81 48.59,-35.98 58.72,-62.98 10.15,-27.06 10.03,-58.02 -2.82,-86.31l-358.8 -789.69c-12.81,-28.19 -35.98,-48.58 -62.97,-58.71 -27.07,-10.15 -58.03,-10.03 -86.32,2.82z"/>
  <polygon class="fil0" points="961.27,1020.48 2629.34,262.6 2650.56,309.69 982.49,1067.57 "/>
  <path class="fil0" d="M74.21 1312.38l134.84 -61.26c21.39,-9.72 85.72,13.77 150.09,37.28 54.6,19.94 109.24,39.89 111.47,38.87l183.45 -84.45 245.77 546.92 -182.62 84.63c-4.98,2.31 -8.61,31.33 -24.87,71.59 -29.16,72.18 -65.51,162.16 -89.2,172.92l-134.83 61.26c-18.3,8.31 -38.37,8.37 -55.94,1.78 -17.66,-6.63 -32.81,-19.94 -41.16,-38.33l-333.54 -734.11c-8.31,-18.3 -8.37,-38.37 -1.78,-55.94 6.63,-17.66 19.94,-32.8 38.32,-41.16zm156.06 -14.17l-134.83 61.26c-5.41,2.46 -9.32,6.89 -11.25,12.05 -1.96,5.23 -1.93,11.23 0.56,16.73l333.55 734.12c2.45,5.4 6.89,9.32 12.05,11.25 5.23,1.97 11.24,1.93 16.74,-0.56l134.83 -61.27c4.81,-2.18 36.84,-81.44 62.53,-145.03 20.46,-50.66 37.56,-92.97 51.13,-99.27l136.31 -63.16 -203.51 -452.85 -136.15 62.67c-21.54,9.91 -86.13,-13.68 -150.67,-37.25 -54.47,-19.89 -108.93,-39.77 -111.29,-38.69z"/>
  <path class="fil1" d="M1815.65 1817.82l809.45 -367.77 8.41 28.51c21.03,71.26 41.8,161.94 28.48,256.99 -13.12,93.54 -58.8,189.94 -168.33,273.9l1.43 218.38 970.09 -3.31 3.55 372.47 -25.9 0.11c-214.44,0.87 -391.6,0.88 -568.76,0.88l0 -0.11c-189.59,0 -379.21,0 -568.36,0.77 -48.88,0.66 -90.26,-12.14 -121.94,-38.4 -30.92,-25.62 -51.85,-63.25 -60.7,-112.82l-0.28 -1.55 -3.05 -351.73c-62.88,-12.12 -122.98,-36.73 -176.56,-75.52 -54.96,-39.77 -102.93,-94.3 -139.86,-165.33l-12.56 -24.17 24.89 -11.3z"/>
  <path class="fil1" d="M1814.09 1814.35l813.42 -369.58 9.65 32.72c10.55,35.76 21.05,76.45 27.24,120.12 6.2,43.76 8.07,90.56 1.36,138.46 -6.62,47.21 -21.48,95.19 -48.49,141.93 -26.73,46.26 -65.41,91.34 -119.8,133.31l1.4 212.71 970.08 -3.32c1,126.68 2.29,253.39 3.62,380.07l-29.73 0.13c-107.2,0.43 -205.13,0.66 -298.37,0.77l-274.21 0.12 0 -0.11c-189.52,0 -379.07,0.01 -564.51,0.76 -24.92,0.33 -47.97,-2.79 -68.81,-9.34 -20.81,-6.55 -39.44,-16.54 -55.6,-29.93 -15.97,-13.24 -29.37,-29.62 -39.84,-49.11 -10.25,-19.03 -17.73,-41.05 -22.18,-65.99 -11.61,-65.77 -2.65,-270.44 -3.35,-350.79 -31.19,-6.22 -61.71,-15.52 -91.07,-28.07 -29.27,-12.51 -57.41,-28.3 -83.95,-47.51 -28.28,-20.47 -54.76,-44.83 -78.81,-73.27 -23.1,-27.29 -44.01,-58.38 -62.2,-93.38l-14.41 -27.74 28.56 -12.96zm808.6 -359.03l-826.7 375.6 10.71 20.61c17.95,34.54 38.53,65.15 61.24,91.98 23.65,27.96 49.67,51.91 77.47,72.03 26.07,18.87 53.71,34.38 82.47,46.67 29.8,12.74 60.84,22.08 92.57,28.19l3.07 0.59 3.07 354.53 0.22 1.23c4.31,24.14 11.53,45.39 21.39,63.71 9.99,18.6 22.78,34.23 38,46.85 15.39,12.76 33.16,22.29 53,28.53 20.08,6.32 42.35,9.32 66.47,9 191.63,-0.78 380.04,-0.78 568.4,-0.78l3.81 0 0 0.11 266.59 -0.1c93.22,-0.1 191.14,-0.34 298.35,-0.77l22.07 -0.09 -3.47 -364.88 -970.1 3.31c-0.59,-74.68 -1.07,-149.38 -1.47,-224.06l1.5 -1.15c54.32,-41.64 92.83,-86.37 119.34,-132.25 26.47,-45.8 41.04,-92.85 47.53,-139.15 6.6,-47.11 4.75,-93.24 -1.36,-136.38 -6.12,-43.22 -16.54,-83.55 -27,-119.02l-7.17 -24.31z"/>
 </g>
</svg>
