<?xml version="1.0" encoding="UTF-8"?>
<!DOCTYPE svg PUBLIC "-//W3C//DTD SVG 1.1//EN" "http://www.w3.org/Graphics/SVG/1.1/DTD/svg11.dtd">
<!-- Creator: CorelDRAW 2019 (64-Bit) -->
<svg xmlns="http://www.w3.org/2000/svg" xml:space="preserve" width="42mm" height="34mm" version="1.1" style="shape-rendering:geometricPrecision; text-rendering:geometricPrecision; image-rendering:optimizeQuality; fill-rule:evenodd; clip-rule:evenodd"
viewBox="0 0 4200 3400"
 xmlns:xlink="http://www.w3.org/1999/xlink">
 <defs>
  <style type="text/css">
   <![CDATA[
    .fil1 {fill:#053452}
    .fil0 {fill:#2B2A29;fill-rule:nonzero}
   ]]>
  </style>
 </defs>
 <g id="Слой_x0020_1">
  <metadata id="CorelCorpID_0Corel-Layer"/>
  <path class="fil0" d="M65.21 53.31l4086.48 0 0 2670.6 -4112.35 0 0 -2670.6 25.87 0zm4034.74 51.73l-4008.88 0 0 2567.13 4008.88 0 0 -2567.13z"/>
  <path class="fil0" d="M3107.16 3371.79l-2080.82 0 467.37 -448.67 1229.44 0 446.1 448.67 -62.09 0zm-1952.43 -51.73l1890.34 0 -343.23 -345.21 -1187.51 0 -359.6 345.21z"/>
  <path class="fil1" d="M1403.54 789.51l74.08 158.64c18.95,0.99 37.49,3.5 55.52,7.38l116.75 -132.46 122.77 70.24 -51.55 171.98c12.41,13.94 23.74,28.87 33.83,44.68l176.94 -10.2 35.87 132.15 -158.07 86.74 -0.77 5.7c-1.08,14.73 -3.07,29.2 -5.9,43.37l-0.97 7.13 133.15 115.86 -70.8 123.03 -170.45 -53.61 -13.07 10.13c-4.7,3.83 -9.49,7.54 -14.39,11.14l-13.56 10.5 8.92 178.58 -133.88 36.97 -78.82 -157.52 -9.96 -1.2c-15.1,-0.84 -29.95,-2.64 -44.48,-5.33l-9.07 -1.09 -116.36 129.78 -124.96 -68.28 54.59 -169.54 -2.13 -2.8c-11.91,-13.39 -22.81,-27.7 -32.58,-42.81l-1.05 -1.37 -174.44 15.72 -38.39 -141.97 158.23 -77.39c0.9,-21.73 3.77,-42.96 8.45,-63.5l-134.44 -109.83 74.26 -128.68 163.31 59.96c17.06,-15.87 35.69,-30.07 55.65,-42.32l-13.95 -173.35 141.72 -36.43zm55.49 322.32c103.09,0 186.66,83.57 186.66,186.66 0,103.09 -83.57,186.66 -186.66,186.66 -103.09,0 -186.66,-83.57 -186.66,-186.66 0,-103.09 83.57,-186.66 186.66,-186.66z"/>
  <path class="fil1" d="M2998.87 953.78l56.6 336.34c35.05,11.71 68.55,26.06 100.38,42.71l288.06 -187.98 193.96 195.69 -186.19 296.08c16.06,32.63 29.57,66.55 40.3,101.46l337.46 72.84 -1.36 266.74 -341.85 80.68 -4.41 10.28c-9.67,27.1 -20.93,53.24 -33.62,78.37l-5.52 12.87 89.61 135.43 -1403.33 0.14 98.53 -149.83 -2.55 -6.36c-15.39,-31.34 -28.42,-63.87 -38.91,-97.33l-1.25 -3.11 -335.66 -61.17 1.73 -286.48 337.28 -63.03c13,-40.34 29.42,-78.7 48.88,-114.82l-195.28 -276.1 206.3 -202.96 275.43 197.46c40.27,-20.93 82.64,-37.89 126.47,-50.52l63.94 -332.67 285 5.27zm-63.4 633.95c193.53,53.6 306.98,253.94 253.38,447.47 -53.59,193.54 -253.93,306.98 -447.47,253.39 -193.53,-53.6 -306.97,-253.93 -253.38,-447.47 53.6,-193.54 253.93,-306.98 447.47,-253.39z"/>
 </g>
</svg>
