<?xml version="1.0" encoding="UTF-8"?>
<!DOCTYPE svg PUBLIC "-//W3C//DTD SVG 1.1//EN" "http://www.w3.org/Graphics/SVG/1.1/DTD/svg11.dtd">
<!-- Creator: CorelDRAW 2019 (64-Bit) -->
<svg xmlns="http://www.w3.org/2000/svg" xml:space="preserve" width="35mm" height="31mm" version="1.1" style="shape-rendering:geometricPrecision; text-rendering:geometricPrecision; image-rendering:optimizeQuality; fill-rule:evenodd; clip-rule:evenodd"
viewBox="0 0 3500 3100"
 xmlns:xlink="http://www.w3.org/1999/xlink">
 <defs>
  <style type="text/css">
   <![CDATA[
    .fil1 {fill:#053452}
    .fil0 {fill:#2B2A29;fill-rule:nonzero}
   ]]>
  </style>
 </defs>
 <g id="Слой_x0020_1">
  <metadata id="CorelCorpID_0Corel-Layer"/>
  <g id="_1440450832">
   <path class="fil0" d="M1958.7 1260.57l0 1004.58c-331.76,272.49 -663.5,545 -995.41,817.31l-41.82 -9.79 0 -2200.6 994.99 -815.34 32.74 40.01 -976 799.78 0 2111.12 933.76 -766.7 0 -980.37 51.74 0z"/>
   <path class="fil0" d="M49.95 858.43l923.25 0 0 2228.04 -955.1 0 0 -2201.59 18.51 -26.45 13.34 0zm871.52 51.73l-851.64 0 0 2124.57 851.64 0 0 -2124.57z"/>
   <path class="fil0" d="M1055.32 915.65l0 1311.53 851.64 0 0 -966.61 51.74 0 0 1018.34 -955.11 0 0 -1363.26 51.73 0zm877.51 -813.05l-903.37 0 0 -51.73 903.37 0 0 51.73z"/>
   <path class="fil0" d="M938.03 858.5l922.45 -755.9 -821.91 0 -917.2 753.07 816.66 2.83zm1009.76 -760.61l-991.16 812.2 -923.03 -3.2 -13.75 -34.57c333.58,-273.72 667.01,-547.62 1000.5,-821.45l921.43 0 26.85 29.94 -20.84 17.08z"/>
   <path class="fil0" d="M2443.77 1483.31l-1547.28 -590.78c343.88,-281.71 687.76,-563.44 1031.54,-845.29 520.39,198.8 1040.85,397.42 1561.27,596.12 -343.84,281.77 -687.63,563.61 -1031.55,845.29l-13.98 -5.34zm-1445.59 -607.26l1449.98 553.63 939.45 -769.83 -1449.98 -553.63 -939.45 769.83z"/>
   <path class="fil0" d="M2434.46 1585.23c110.45,0 210.45,44.78 282.83,117.16 72.38,72.38 117.16,172.39 117.16,282.84 0,110.44 -44.78,210.45 -117.16,282.83 -72.38,72.38 -172.38,117.16 -282.83,117.16 -110.45,0 -210.46,-44.78 -282.84,-117.16 -72.38,-72.38 -117.16,-172.38 -117.16,-282.83 0,-110.45 44.78,-210.46 117.16,-282.84 72.38,-72.38 172.39,-117.16 282.84,-117.16zm246.26 153.73c-63.02,-63.01 -150.09,-102 -246.26,-102 -96.17,0 -183.24,38.99 -246.26,102 -63.02,63.02 -102.01,150.1 -102.01,246.27 0,96.17 38.99,183.24 102.01,246.26 63.02,63.01 150.09,102 246.26,102 96.17,0 183.24,-38.99 246.26,-102 63.02,-63.02 102,-150.1 102,-246.26 0,-96.17 -38.99,-183.25 -102,-246.27z"/>
   <path class="fil1" d="M2434.46 1912.23c40.31,0 72.99,32.68 72.99,73 0,40.31 -32.68,72.99 -72.99,72.99 -40.32,0 -73,-32.68 -73,-72.99 0,-40.32 32.68,-73 73,-73z"/>
   <path class="fil1" d="M2500.91 1915.34c84.06,-54.79 155.02,-56.54 243.64,-24.08 16.66,47.62 21.73,83.42 7.6,157.56 -61.42,-68.02 -146.81,-81.28 -221.93,-60.34 -2.07,-33.02 -5.29,-48.19 -29.31,-73.14z"/>
   <path class="fil1" d="M2524.31 2018.21c84.76,53.7 115.83,117.52 123.12,211.62 -36.39,34.94 -66.86,54.42 -140.16,72.37 36.35,-84.13 12.94,-167.31 -37.32,-226.94 29.18,-15.6 41.64,-24.83 54.36,-57.05z"/>
   <path class="fil1" d="M2435.02 2079.28c-18.15,98.69 -65.73,151.36 -150.29,193.28 -46.01,-20.7 -75.46,-41.67 -119.5,-102.96 91.62,2.28 160.03,-50.52 196.56,-119.42 25.37,21.24 38.59,29.35 73.23,29.1z"/>
   <path class="fil1" d="M2341.08 2016.19c-99.71,11.24 -163.91,-19.04 -228.54,-87.82 6.48,-50.03 18.01,-84.3 63.91,-144.21 24.37,88.35 94.73,138.52 171.26,153.51 -12.98,30.44 -16.9,45.44 -6.63,78.52z"/>
   <path class="fil1" d="M2385.88 1894.92c-27.29,-96.56 -7.84,-164.82 49.54,-239.77 50.41,-1.73 86.1,4.09 152.67,39.64 -83.22,38.4 -121.3,115.97 -123.66,193.92 -32.14,-7.86 -47.58,-9.3 -78.55,6.21z"/>
   <polygon class="fil1" points="976.43,2990.29 976.43,2490.29 1224.43,2280.63 1224.43,2787.06 "/>
   <polygon class="fil1" points="972.81,1717.79 972.81,1923.1 1127.94,1813.6 1127.94,1608.28 "/>
   <polygon class="fil1" points="972.81,1663.04 1273.94,1437.19 1271.66,1229.59 977.37,1450.88 "/>
   <polygon class="fil1" points="975.09,1396.13 972.81,923.91 1285.35,1053.94 1285.35,1156.6 "/>
   <polygon class="fil1" points="1675.34,2650.96 2091.56,2650.96 2091.56,3059.62 1675.34,3059.62 "/>
   <polygon class="fil1" points="1675.34,2640.62 2091.56,2640.62 2307.24,2432.5 1933.59,2430.61 "/>
   <polygon class="fil1" points="2101.91,2650.96 2317.59,2442.85 2317.59,2851.5 2101.91,3059.62 "/>
   <polygon class="fil0" points="930.97,2300.34 1013.09,2233.04 1045.83,2273.05 963.7,2340.35 "/>
   <polygon class="fil1" points="976.43,2460.4 1223.86,2252.11 976.99,2251.9 "/>
  </g>
 </g>
</svg>
