<?xml version="1.0" encoding="UTF-8"?>
<!DOCTYPE svg PUBLIC "-//W3C//DTD SVG 1.1//EN" "http://www.w3.org/Graphics/SVG/1.1/DTD/svg11.dtd">
<!-- Creator: CorelDRAW 2019 (64-Bit) -->
<svg xmlns="http://www.w3.org/2000/svg" xml:space="preserve" width="27mm" height="32mm" version="1.1" style="shape-rendering:geometricPrecision; text-rendering:geometricPrecision; image-rendering:optimizeQuality; fill-rule:evenodd; clip-rule:evenodd"
viewBox="0 0 2700 3200"
 xmlns:xlink="http://www.w3.org/1999/xlink">
 <defs>
  <style type="text/css">
   <![CDATA[
    .fil1 {fill:#053452}
    .fil0 {fill:#2B2A29;fill-rule:nonzero}
   ]]>
  </style>
 </defs>
 <g id="Слой_x0020_1">
  <metadata id="CorelCorpID_0Corel-Layer"/>
  <path class="fil0" d="M165.3 2.98l1617.96 266.91c83.68,13.8 195.35,57.39 275.08,140.96 59.46,62.33 101.28,146.42 101.28,256.25l0 2216.89c0,8.29 -0.63,16.56 -1.84,24.78 -15.81,106.92 -131.57,180.1 -244.6,226.5 -109.58,44.98 -219.46,65.37 -224.53,65.37l-3.05 -0.19c-513.28,-75.67 -1026.53,-151.57 -1539.83,-227.02 -133.74,-19.57 -139.27,-20.39 -139.27,-152.64l0 -2663.56c0,-8.35 0.75,-16.95 2.19,-25.66 5.6,-34.01 22.13,-66.18 45.57,-89.86 24.37,-24.63 56.28,-40.4 91.62,-40.4 6.14,0 12.62,0.55 19.42,1.67zm1609.68 317.84l-1617.97 -266.92c-3.5,-0.58 -7.23,-0.85 -11.13,-0.85 -20.71,0 -39.95,9.77 -55.05,25.03 -16.03,16.2 -27.35,38.32 -31.22,61.78 -0.9,5.49 -1.38,11.31 -1.38,17.37l0 2663.56c0,87.61 3.77,88.17 95.02,101.52l1536.36 226.51c11.1,-1.46 105.23,-20.71 203.96,-61.24 99.34,-40.78 200.7,-102.5 213.09,-186.29 0.81,-5.51 1.23,-11.27 1.23,-17.3l0 -2216.89c0,-94.81 -35.89,-167.18 -86.93,-220.68 -70.93,-74.34 -170.91,-113.22 -245.98,-125.6z"/>
  <path class="fil1" d="M1857.58 1533.91c458.6,0 830.37,371.77 830.37,830.37 0,458.6 -371.77,830.37 -830.37,830.37 -458.6,0 -830.37,-371.77 -830.37,-830.37 0,-458.6 371.77,-830.37 830.37,-830.37zm0 593.12c131.03,0 237.25,106.22 237.25,237.25 0,131.03 -106.22,237.25 -237.25,237.25 -131.03,0 -237.25,-106.22 -237.25,-237.25 0,-131.03 106.22,-237.25 237.25,-237.25z"/>
  <path class="fil0" d="M740.47 614.52c69.22,-32.56 124.04,-45.22 177.56,-40.86 53.28,4.34 103.52,25.42 164.15,60.4l18.24 10.53 -108.64 326.86 -27.21 -15.24c-42.11,-23.57 -86.39,-38.43 -134.68,-42.09 -48.72,-3.69 -102.05,3.94 -161.98,25.38l-49.85 17.83 112.37 -338.09 10.04 -4.72zm173.52 10.66c-41.86,-3.41 -85.95,6.36 -141.69,31.42l-72.83 219.1c47.88,-12.31 92.34,-16.29 134.26,-13.1 45.75,3.46 88.19,15.43 128.52,34.37l75.96 -228.54c-45.87,-25.02 -84.78,-40.04 -124.22,-43.25z"/>
  <path class="fil0" d="M627.61 970.63c69.22,-32.56 124.04,-45.23 177.56,-40.87 53.28,4.35 103.52,25.43 164.16,60.41l18.23 10.52 -108.64 326.86 -27.21 -15.23c-42.11,-23.58 -86.38,-38.43 -134.68,-42.09 -48.73,-3.69 -102.05,3.94 -161.97,25.37l-49.86 17.84 112.37 -338.09 10.04 -4.72zm173.52 10.66c-41.86,-3.41 -85.95,6.36 -141.69,31.42l-72.83 219.1c47.89,-12.31 92.34,-16.29 134.26,-13.11 45.76,3.47 88.2,15.44 128.53,34.37l75.95 -228.53c-45.87,-25.02 -84.78,-40.04 -124.22,-43.25z"/>
  <path class="fil0" d="M1251.37 1390.3c-69.21,32.56 -124.03,45.23 -177.56,40.87 -53.28,-4.34 -103.51,-25.41 -164.15,-60.41l-18.23 -10.53 108.64 -326.86 27.21 15.24c42.11,23.58 86.38,38.44 134.68,42.09 48.72,3.7 102.06,-3.93 161.97,-25.37l49.86 -17.84 -112.37 338.09 -10.05 4.72zm-173.51 -10.66c41.86,3.41 85.95,-6.35 141.69,-31.41l72.83 -219.11c-47.88,12.31 -92.34,16.29 -134.26,13.11 -45.75,-3.47 -88.2,-15.44 -128.53,-34.37l-75.95 228.53c45.87,25.03 84.77,40.04 124.22,43.25z"/>
  <path class="fil0" d="M1364.23 1034.2c-69.21,32.55 -124.03,45.22 -177.56,40.86 -53.28,-4.34 -103.51,-25.41 -164.15,-60.41l-18.23 -10.53 108.63 -326.86 27.22 15.25c42.11,23.58 86.38,38.43 134.67,42.09 48.73,3.69 102.06,-3.94 161.98,-25.38l49.85 -17.84 -112.37 338.09 -10.04 4.73zm-173.51 -10.67c41.86,3.41 85.95,-6.35 141.68,-31.41l72.83 -219.11c-47.88,12.31 -92.34,16.29 -134.26,13.11 -45.75,-3.47 -88.2,-15.43 -128.52,-34.37l-75.96 228.54c45.88,25.02 84.78,40.03 124.23,43.24z"/>
 </g>
</svg>
