<?xml version="1.0" encoding="UTF-8"?>
<!DOCTYPE svg PUBLIC "-//W3C//DTD SVG 1.1//EN" "http://www.w3.org/Graphics/SVG/1.1/DTD/svg11.dtd">
<!-- Creator: CorelDRAW 2019 (64-Bit) -->
<svg xmlns="http://www.w3.org/2000/svg" xml:space="preserve" width="36mm" height="33mm" version="1.1" style="shape-rendering:geometricPrecision; text-rendering:geometricPrecision; image-rendering:optimizeQuality; fill-rule:evenodd; clip-rule:evenodd"
viewBox="0 0 3600 3300"
 xmlns:xlink="http://www.w3.org/1999/xlink">
 <defs>
  <style type="text/css">
   <![CDATA[
    .fil1 {fill:#053452}
    .fil0 {fill:#2B2A29;fill-rule:nonzero}
   ]]>
  </style>
 </defs>
 <g id="Слой_x0020_1">
  <metadata id="CorelCorpID_0Corel-Layer"/>
  <path class="fil0" d="M852.5 175.1c255.44,-120.15 456.11,-167.02 650.07,-151.21 193.72,15.78 379.04,93.96 604.32,223.97l17.62 10.17c-124.32,373.92 -248.66,747.83 -372.84,1121.8l-26.31 -14.73c-172.39,-96.52 -354.02,-157.35 -552.69,-172.41 -199.08,-15.09 -415.82,15.69 -658.14,102.39l-48.17 17.24c125.42,-377.57 250.86,-755.14 376.45,-1132.66l9.69 -4.56zm646.17 -101.41c-182.64,-14.88 -372.99,29.16 -615.39,142l-337.6 1015.76c229.97,-76.46 438.02,-103.17 630.71,-88.56 196.29,14.88 376.27,72.6 547,164.19l341.06 -1026.17c-210.95,-120.27 -385.48,-192.54 -565.78,-207.22z"/>
  <path class="fil0" d="M415.43 1554.25c255.44,-120.15 456.11,-167.02 650.06,-151.21 193.72,15.78 379.04,93.96 604.33,223.97l17.62 10.17c-124.31,373.92 -248.66,747.83 -372.84,1121.79l-26.31 -14.73c-172.39,-96.52 -354.02,-157.34 -552.69,-172.4 -199.08,-15.09 -415.82,15.69 -658.14,102.39l-48.17 17.24c125.42,-377.57 250.86,-755.14 376.45,-1132.66l9.69 -4.56zm646.16 -101.41c-182.63,-14.88 -372.98,29.16 -615.38,142l-337.6 1015.76c229.97,-76.46 438.02,-103.17 630.71,-88.56 196.29,14.88 376.27,72.59 547,164.18l341.06 -1026.16c-210.96,-120.27 -385.49,-192.54 -565.79,-207.22z"/>
  <path class="fil0" d="M2767.72 3043.92c-255.43,120.14 -456.12,167.02 -650.07,151.21 -193.72,-15.78 -379.03,-93.97 -604.32,-223.97l-17.61 -10.16c124.08,-374 248.51,-747.89 372.84,-1121.8l26.3 14.72c172.39,96.53 354.03,157.34 552.69,172.4 199.09,15.09 415.83,-15.69 658.14,-102.38l48.18 -17.23c-125.51,377.54 -251.3,755 -376.45,1132.66l-9.7 4.55zm-646.17 101.41c182.63,14.88 372.99,-29.17 615.39,-142l337.6 -1015.76c-229.97,76.46 -438.02,103.16 -630.71,88.55 -196.29,-14.88 -376.27,-72.59 -547,-164.18l-341.06 1026.17c210.95,120.27 385.48,192.54 565.78,207.22z"/>
  <path class="fil0" d="M3204.79 1664.77c-255.43,120.14 -456.11,167.02 -650.06,151.21 -193.73,-15.78 -379.04,-93.96 -604.33,-223.96l-17.61 -10.16c124.08,-374 248.51,-747.89 372.84,-1121.8l26.3 14.72c172.39,96.53 354.03,157.34 552.69,172.4 199.08,15.09 415.82,-15.69 658.14,-102.39l48.18 -17.23c-125.51,377.54 -251.3,755 -376.45,1132.66l-9.7 4.55zm-646.16 101.41c182.64,14.88 372.99,-29.18 615.38,-142l337.6 -1015.76c-229.97,76.46 -438.02,103.17 -630.71,88.56 -196.29,-14.88 -376.27,-72.59 -547,-164.18l-341.06 1026.17c210.95,120.27 385.48,192.53 565.79,207.21z"/>
  <polygon class="fil1" points="978.12,2119.8 978.12,2860.12 1188.18,2860.12 756.03,3295.4 324.48,2860.12 521,2860.12 521,2119.8 "/>
 </g>
</svg>
