<?xml version="1.0" encoding="UTF-8"?>
<!DOCTYPE svg PUBLIC "-//W3C//DTD SVG 1.1//EN" "http://www.w3.org/Graphics/SVG/1.1/DTD/svg11.dtd">
<!-- Creator: CorelDRAW 2019 (64-Bit) -->
<svg xmlns="http://www.w3.org/2000/svg" xml:space="preserve" width="32mm" height="33mm" version="1.1" style="shape-rendering:geometricPrecision; text-rendering:geometricPrecision; image-rendering:optimizeQuality; fill-rule:evenodd; clip-rule:evenodd"
viewBox="0 0 3200 3300"
 xmlns:xlink="http://www.w3.org/1999/xlink">
 <defs>
  <style type="text/css">
   <![CDATA[
    .fil1 {fill:#053452}
    .fil0 {fill:#1F1B20;fill-rule:nonzero}
   ]]>
  </style>
 </defs>
 <g id="Слой_x0020_1">
  <metadata id="CorelCorpID_0Corel-Layer"/>
  <path class="fil0" d="M814.89 2466.05l-650.23 0c-35.21,0 -67.2,-14.39 -90.36,-37.55 -23.15,-23.27 -37.55,-55.25 -37.55,-90.36l0 -1654.17c0,-35.11 14.4,-67.08 37.6,-90.3 23.11,-23.21 55.1,-37.59 90.31,-37.59l2873.94 0c35.2,0 67.19,14.38 90.35,37.54 23.16,23.16 37.54,55.15 37.54,90.35l0 1654.17c0,35.2 -14.38,67.2 -37.54,90.36 -23.16,23.16 -55.15,37.55 -90.35,37.55l-650.25 0 0 -50 650.25 0c21.39,0 40.87,-8.79 54.99,-22.91 14.12,-14.12 22.9,-33.61 22.9,-55l0 -1654.17c0,-21.39 -8.78,-40.87 -22.9,-54.99 -14.12,-14.12 -33.6,-22.9 -54.99,-22.9l-2873.94 0c-21.4,0 -40.88,8.78 -55,22.9 -14.17,14.06 -22.91,33.53 -22.91,54.99l0 1654.17c0,21.46 8.74,40.94 22.81,55 14.22,14.12 33.7,22.91 55.1,22.91l650.23 0 0 50z"/>
  <path class="fil0" d="M814.89 1634.57l1598.46 0 0 1612.95 -1623.46 0 0 -1612.95 25 0zm1548.46 50l-1523.46 0 0 1512.95 1523.46 0 0 -1512.95z"/>
  <path class="fil0" d="M814.89 24.03l1598.46 0 0 582.04 -1623.46 0 0 -582.04 25 0zm1548.46 50l-1523.46 0 0 482.04 1523.46 0 0 -482.04z"/>
  <rect class="fil1" x="825.47" y="842.16" width="1569.87" height="405.7" rx="110" ry="110"/>
 </g>
</svg>
