<?xml version="1.0" encoding="UTF-8"?>
<!DOCTYPE svg PUBLIC "-//W3C//DTD SVG 1.1//EN" "http://www.w3.org/Graphics/SVG/1.1/DTD/svg11.dtd">
<!-- Creator: CorelDRAW 2019 (64-Bit) -->
<svg xmlns="http://www.w3.org/2000/svg" xml:space="preserve" width="30mm" height="30mm" version="1.1" style="shape-rendering:geometricPrecision; text-rendering:geometricPrecision; image-rendering:optimizeQuality; fill-rule:evenodd; clip-rule:evenodd"
viewBox="0 0 3000 3000"
 xmlns:xlink="http://www.w3.org/1999/xlink">
 <defs>
  <style type="text/css">
   <![CDATA[
    .fil0 {fill:#2B2A29;fill-rule:nonzero}
    .fil1 {fill:#053452;fill-rule:nonzero}
   ]]>
  </style>
 </defs>
 <g id="Слой_x0020_1">
  <metadata id="CorelCorpID_0Corel-Layer"/>
  <path class="fil0" d="M303.71 22.92l2386.65 0c75.66,0 144.44,30.94 194.26,80.76 49.82,49.82 80.77,118.61 80.77,194.27l0 2413.38c0,75.6 -30.94,144.33 -80.76,194.16l-0.1 0.1c-49.83,49.82 -118.57,80.76 -194.17,80.76l-2386.65 0c-75.6,0 -144.34,-30.94 -194.17,-80.76l-0.1 -0.1c-49.82,-49.83 -80.76,-118.56 -80.76,-194.16l0 -2413.38c0,-75.6 30.94,-144.34 80.76,-194.17l0.1 -0.1c49.83,-49.82 118.57,-80.76 194.17,-80.76zm2386.65 50l-2386.65 0c-61.88,0 -118.17,25.32 -158.96,66.07 -40.75,40.79 -66.07,97.08 -66.07,158.96l0 2413.38c0,61.88 25.32,118.16 66.07,158.95 40.79,40.75 97.08,66.07 158.96,66.07l2386.65 0c61.89,0 118.17,-25.32 158.96,-66.07 40.75,-40.79 66.07,-97.07 66.07,-158.95l0 -2413.38c0,-61.85 -25.33,-118.11 -66.13,-158.91 -40.79,-40.79 -97.05,-66.12 -158.9,-66.12z"/>
  <polygon class="fil1" points="382,1120.32 750.16,1119.32 747.2,2031.23 597.78,2031.23 600.25,1269.14 382,1269.74 "/>
  <polygon class="fil1" points="498.56,908.77 949.15,907.58 945.51,2031.23 796.09,2031.23 799.24,1057.39 498.56,1058.19 "/>
  <path class="fil1" d="M1558.46 1877.87c-107.01,0 -203.9,-43.38 -274.03,-113.51 -70.12,-70.11 -113.51,-167.01 -113.51,-274.02 0,-107.01 43.39,-203.91 113.51,-274.02 70.13,-70.13 167.02,-113.51 274.03,-113.51 107.01,0 203.91,43.39 274.02,113.51 70.12,70.11 113.51,167 113.51,274.02l-150 0c0,-65.6 -26.59,-124.99 -69.57,-167.96 -42.97,-42.98 -102.37,-69.57 -167.96,-69.57 -65.6,0 -124.99,26.59 -167.97,69.57 -42.98,42.97 -69.57,102.37 -69.57,167.96 0,65.59 26.59,124.99 69.57,167.96 42.98,42.98 102.37,69.57 167.97,69.57l0 150z"/>
  <path class="fil1" d="M1558.46 2077.64c-162.17,0 -309.01,-65.74 -415.28,-172.02 -106.27,-106.27 -172.02,-253.11 -172.02,-415.28 0,-162.17 65.75,-309.01 172.02,-415.28 106.27,-106.27 253.11,-172.02 415.28,-172.02 162.16,0 309,65.74 415.27,172.02 106.27,106.27 172.02,253.11 172.02,415.28l-150 0c0,-120.76 -48.95,-230.09 -128.08,-309.22 -79.12,-79.12 -188.46,-128.08 -309.21,-128.08 -120.76,0 -230.09,48.95 -309.22,128.08 -79.13,79.13 -128.08,188.46 -128.08,309.22 0,120.76 48.95,230.09 128.08,309.22 79.12,79.12 188.46,128.08 309.22,128.08l0 150z"/>
  <polygon class="fil1" points="1542,1728.16 2611.14,1729.78 2611.14,1879.2 1542,1877.58 "/>
  <polygon class="fil1" points="1543.79,1927.93 2612.08,1929.89 2612.08,2079.31 1543.79,2077.35 "/>
 </g>
</svg>
