<?xml version="1.0" encoding="UTF-8"?>
<!DOCTYPE svg PUBLIC "-//W3C//DTD SVG 1.1//EN" "http://www.w3.org/Graphics/SVG/1.1/DTD/svg11.dtd">
<!-- Creator: CorelDRAW 2019 (64-Bit) -->
<svg xmlns="http://www.w3.org/2000/svg" xml:space="preserve" width="32mm" height="33mm" version="1.1" style="shape-rendering:geometricPrecision; text-rendering:geometricPrecision; image-rendering:optimizeQuality; fill-rule:evenodd; clip-rule:evenodd"
viewBox="0 0 3200 3300"
 xmlns:xlink="http://www.w3.org/1999/xlink">
 <defs>
  <style type="text/css">
   <![CDATA[
    .fil1 {fill:#053452}
    .fil0 {fill:#2B2A29;fill-rule:nonzero}
    .fil2 {fill:#053452;fill-rule:nonzero}
   ]]>
  </style>
 </defs>
 <g id="Слой_x0020_1">
  <metadata id="CorelCorpID_0Corel-Layer"/>
  <path class="fil0" d="M234.87 2308.33l2738.84 0c60.76,0 115.98,24.84 155.98,64.85 40.01,40.01 64.85,95.23 64.85,155.99l0 361.74c0,60.76 -24.84,115.98 -64.85,155.99 -40.01,40.01 -95.23,64.85 -155.98,64.85l-2738.84 0c-60.75,0 -115.97,-24.84 -155.98,-64.85 -40.01,-40.01 -64.85,-95.23 -64.85,-155.99l0 -361.74c0,-60.76 24.84,-115.98 64.85,-155.99 40.01,-40.01 95.23,-64.85 155.98,-64.85zm2738.84 51.73l-2738.84 0c-46.47,0 -88.75,19.04 -119.41,49.7 -30.65,30.66 -49.69,72.93 -49.69,119.41l0 361.74c0,46.47 19.04,88.76 49.69,119.41 30.66,30.66 72.94,49.7 119.41,49.7l2738.84 0c46.48,0 88.75,-19.04 119.41,-49.7 30.65,-30.65 49.69,-72.94 49.69,-119.41l0 -361.74c0,-46.48 -19.04,-88.75 -49.69,-119.41 -30.65,-30.66 -72.93,-49.7 -119.41,-49.7z"/>
  <path class="fil0" d="M575.93 3083.23l0 106.43c0,22.45 -9.17,42.86 -23.94,57.63 -14.77,14.78 -35.18,23.94 -57.63,23.94l-222.67 0c-22.46,0 -42.86,-9.16 -57.63,-23.94l0 -0.1c-14.77,-14.77 -23.95,-35.14 -23.95,-57.53l0 -107.34 51.74 0 0 107.34c0,8.22 3.35,15.7 8.73,21.11l0.05 -0.05c5.42,5.41 12.88,8.78 21.06,8.78l222.67 0c8.18,0 15.64,-3.37 21.06,-8.78 5.41,-5.42 8.78,-12.88 8.78,-21.06l0 -106.43 51.73 0z"/>
  <path class="fil0" d="M2998.03 3083.23l0 106.43c0,22.45 -9.17,42.86 -23.94,57.63 -14.78,14.78 -35.18,23.94 -57.63,23.94l-222.68 0c-22.45,0 -42.85,-9.16 -57.63,-23.94l0 -0.1c-14.76,-14.77 -23.94,-35.14 -23.94,-57.53l0 -106.43 51.73 0 0 106.43c0,8.22 3.36,15.7 8.74,21.11l0.05 -0.05c5.41,5.41 12.87,8.78 21.05,8.78l222.68 0c8.18,0 15.64,-3.37 21.05,-8.78 5.42,-5.42 8.79,-12.88 8.79,-21.06l0 -106.43 51.73 0z"/>
  <path class="fil0" d="M229.42 2331.56l0 -1431.26c0,-37.71 15.44,-72.01 40.3,-96.87l0.1 -0.1c24.87,-24.87 59.17,-40.31 96.88,-40.31l42.47 0c37.78,0 72.11,15.44 96.98,40.31l0 0.1c24.86,24.86 40.3,59.16 40.3,96.87l0 1431.26 -51.73 0 0 -1431.26c0,-23.53 -9.62,-44.94 -25.1,-60.45l-0.05 0.05c-15.51,-15.51 -36.9,-25.15 -60.4,-25.15l-42.47 0c-23.54,0 -44.94,9.62 -60.45,25.1 -15.48,15.51 -25.1,36.92 -25.1,60.45l0 1431.26 -51.73 0z"/>
  <path class="fil1" d="M337.57 2542.81l727.03 0c38.51,0 70.01,31.5 70.01,70.01l0 194.45c0,38.51 -31.5,70 -70.01,70l-727.03 0c-38.51,0 -70.01,-31.49 -70.01,-70l0 -194.45c0,-38.51 31.5,-70.01 70.01,-70.01z"/>
  <path class="fil1" d="M1132.83 1195.27c47.47,58.1 39.58,143.12 -17.64,189.87 -57.22,46.75 -142.1,37.51 -189.57,-20.59 -47.47,-58.1 -39.59,-143.12 17.64,-189.86 57.22,-46.75 142.1,-37.53 189.57,20.58z"/>
  <path class="fil2" d="M1000.21 887.03c64,-4.75 127.2,6.26 184.54,30.89 57.22,24.58 108.73,62.93 149.55,112.89 40.63,49.73 67.86,107.82 80.56,168.9 12.72,61.16 10.91,125.31 -6.52,187.07l-99.42 -27.89c12.91,-45.72 14.27,-93.1 4.89,-138.17 -9.39,-45.16 -29.51,-88.09 -59.53,-124.84 -29.84,-36.53 -67.87,-64.73 -110.35,-82.98 -42.36,-18.19 -89.08,-26.33 -136.45,-22.8l-7.27 -103.07z"/>
  <path class="fil2" d="M978.6 596.27c111.45,-8.28 221.45,10.89 321.26,53.76 99.68,42.83 189.33,109.52 260.24,196.31 70.74,86.58 118.13,187.68 140.24,294.01 22.13,106.42 18.98,218.06 -11.37,325.6l-99.41 -27.88c25.81,-91.5 28.52,-186.38 9.74,-276.71 -18.8,-90.4 -59.09,-176.36 -119.22,-249.95 -59.94,-73.37 -136.1,-129.9 -221.04,-166.4 -84.83,-36.44 -178.36,-52.73 -273.16,-45.68l-7.28 -103.06z"/>
  <path class="fil2" d="M957.01 305.49c158.88,-11.81 315.68,15.51 457.96,76.63 142.16,61.07 269.94,156.1 370.96,279.74 100.83,123.42 168.38,267.53 199.89,419.12 31.54,151.67 27.05,310.79 -16.21,464.13l-99.42 -27.89c38.73,-137.29 42.78,-279.64 14.59,-415.23 -28.2,-135.66 -88.65,-264.63 -178.87,-375.07 -90.04,-110.21 -204.34,-195.08 -331.76,-249.82 -127.29,-54.68 -267.62,-79.13 -409.87,-68.55l-7.27 -103.06z"/>
  <path class="fil2" d="M929.38 49.07c172.84,-14.43 341.01,6.97 496.55,57.54 227,73.8 426.85,209.81 574.97,387.31 148.66,178.14 245.39,398.01 265.48,638.77 12.39,148.44 -4.42,304.78 -56.21,464.1l-98.21 -31.93c47.31,-145.52 62.66,-288.24 51.36,-423.68 -18.26,-218.82 -106.3,-418.81 -241.63,-580.98 -135.88,-162.83 -319.3,-287.63 -527.69,-355.38 -142.61,-46.36 -297.07,-65.97 -456.14,-52.69l-8.48 -103.06z"/>
  <path class="fil2" d="M929.07 45.27c85.4,-7.12 169.73,-5.53 251.95,4 84.59,9.8 166.99,28 246.09,53.72 113.33,36.85 219.95,89.17 316.73,154.36 97.65,65.77 185.36,144.71 259.98,234.13 75.83,90.88 138.23,192.64 183.88,302.46 44.09,106.11 72.58,219.77 82.48,338.44 6.31,75.69 5.06,153.48 -4.53,232.66 -9.26,76.53 -26.33,154.39 -51.86,232.93l-1.17 3.61 -105.45 -34.28 1.17 -3.62c23.17,-71.27 38.67,-141.9 47.07,-211.28 8.69,-71.76 9.84,-142.28 4.11,-210.91 -8.93,-107.12 -34.66,-209.73 -74.5,-305.52 -41.25,-99.17 -97.66,-191.13 -166.25,-273.33 -68.01,-81.51 -147.98,-153.46 -237.02,-213.42 -88.27,-59.44 -185.53,-107.16 -288.93,-140.78 -72.09,-23.43 -147.24,-40.02 -224.44,-48.93 -75.01,-8.66 -152.06,-10.1 -230.21,-3.58l-3.79 0.31 -9.11 -110.66 3.8 -0.31zm251.09 11.56c-80.47,-9.32 -163.01,-11 -246.67,-4.27l7.86 95.46c77.3,-6.19 153.57,-4.66 227.89,3.93 77.74,8.98 153.39,25.67 225.94,49.25 104.04,33.83 201.93,81.86 290.79,141.7 89.67,60.39 170.19,132.82 238.64,214.86 69.07,82.77 125.87,175.38 167.43,275.29 40.15,96.55 66.08,199.92 75.08,307.82 5.76,69.09 4.61,140.12 -4.15,212.43 -8.32,68.69 -23.55,138.59 -46.22,209.11l90.97 29.58c24.73,-76.83 41.31,-153 50.37,-227.85 9.52,-78.62 10.77,-155.91 4.49,-231.14 -9.83,-117.91 -38.12,-230.79 -81.9,-336.14 -45.34,-109.09 -107.33,-210.18 -182.7,-300.5 -74.15,-88.85 -161.33,-167.3 -258.4,-232.69 -96.21,-64.81 -202.18,-116.82 -314.83,-153.44 -78.64,-25.57 -160.54,-43.67 -244.59,-53.4z"/>
  <polygon class="fil1" points="2090.64,2659.68 2191.36,2659.68 2191.36,2760.39 2090.64,2760.39 "/>
  <polygon class="fil1" points="2294.53,2659.68 2395.25,2659.68 2395.25,2760.39 2294.53,2760.39 "/>
  <polygon class="fil1" points="2498.42,2659.68 2599.14,2659.68 2599.14,2760.39 2498.42,2760.39 "/>
  <polygon class="fil1" points="2702.31,2659.68 2803.03,2659.68 2803.03,2760.39 2702.31,2760.39 "/>
 </g>
</svg>
