<?xml version="1.0" encoding="UTF-8"?>
<!DOCTYPE svg PUBLIC "-//W3C//DTD SVG 1.1//EN" "http://www.w3.org/Graphics/SVG/1.1/DTD/svg11.dtd">
<!-- Creator: CorelDRAW 2019 (64-Bit) -->
<svg xmlns="http://www.w3.org/2000/svg" xml:space="preserve" width="92mm" height="45mm" version="1.1" style="shape-rendering:geometricPrecision; text-rendering:geometricPrecision; image-rendering:optimizeQuality; fill-rule:evenodd; clip-rule:evenodd"
viewBox="0 0 9200 4500"
 xmlns:xlink="http://www.w3.org/1999/xlink">
 <defs>
  <style type="text/css">
   <![CDATA[
    .fil0 {fill:#EF7F1A;fill-rule:nonzero}
   ]]>
  </style>
 </defs>
 <g id="Слой_x0020_1">
  <metadata id="CorelCorpID_0Corel-Layer"/>
  <polygon class="fil0" points="20.08,909.45 1348.86,905.81 1337.32,4467.31 1088.3,4467.31 1099.03,1155.51 20.08,1158.47 "/>
  <polygon class="fil0" points="498.65,40.84 2165.91,36.38 2151.55,4467.31 1902.53,4467.31 1916.08,286.06 498.65,289.86 "/>
  <path class="fil0" d="M4850.51 3654.69c-388.86,0 -740.92,-157.63 -995.76,-412.47 -254.84,-254.84 -412.47,-606.9 -412.47,-995.76 0,-388.86 157.63,-740.92 412.47,-995.76 254.84,-254.84 606.9,-412.47 995.76,-412.47 388.86,0 740.92,157.63 995.76,412.47 254.84,254.84 412.47,606.9 412.47,995.76l-250 0c0,-319.85 -129.64,-609.41 -339.23,-819 -209.59,-209.59 -499.15,-339.23 -819,-339.23 -319.85,0 -609.41,129.64 -819,339.23 -209.59,209.59 -339.23,499.15 -339.23,819 0,319.85 129.64,609.41 339.23,819 209.59,209.59 499.15,339.23 819,339.23l0 250z"/>
  <path class="fil0" d="M4850.51 4474.9c-615.35,0 -1172.47,-249.43 -1575.74,-652.7 -403.27,-403.27 -652.7,-960.39 -652.7,-1575.74 0,-615.35 249.43,-1172.47 652.7,-1575.74 403.27,-403.27 960.39,-652.7 1575.74,-652.7 615.35,0 1172.47,249.43 1575.74,652.7 403.27,403.27 652.7,960.39 652.7,1575.74l-250 0c0,-546.34 -221.44,-1040.96 -579.46,-1398.98 -358.02,-358.02 -852.64,-579.46 -1398.98,-579.46 -546.34,0 -1040.96,221.44 -1398.98,579.46 -358.02,358.02 -579.46,852.64 -579.46,1398.98 0,546.34 221.44,1040.96 579.46,1398.98 358.02,358.02 852.64,579.46 1398.98,579.46l0 250z"/>
  <polygon class="fil0" points="4782.93,3405.18 9172.71,3411.81 9172.71,3660.83 4782.93,3654.2 "/>
  <polygon class="fil0" points="4790.28,4225.39 9176.59,4233.45 9176.59,4482.47 4790.28,4474.41 "/>
 </g>
</svg>
