<?xml version="1.0" encoding="UTF-8"?>
<!DOCTYPE svg PUBLIC "-//W3C//DTD SVG 1.1//EN" "http://www.w3.org/Graphics/SVG/1.1/DTD/svg11.dtd">
<!-- Creator: CorelDRAW 2019 (64-Bit) -->
<svg xmlns="http://www.w3.org/2000/svg" xml:space="preserve" width="84mm" height="61mm" version="1.1" style="shape-rendering:geometricPrecision; text-rendering:geometricPrecision; image-rendering:optimizeQuality; fill-rule:evenodd; clip-rule:evenodd"
viewBox="0 0 8400 6100"
 xmlns:xlink="http://www.w3.org/1999/xlink">
 <defs>
  <style type="text/css">
   <![CDATA[
    .fil0 {fill:#EF7F1A;fill-rule:nonzero}
   ]]>
  </style>
 </defs>
 <g id="Слой_x0020_1">
  <metadata id="CorelCorpID_0Corel-Layer"/>
  <path class="fil0" d="M3949.03 5344.24l-3163.75 0c-212.28,0 -405.18,-86.75 -544.93,-226.51 -139.75,-139.75 -226.51,-332.66 -226.51,-544.94l0 -3737.68c0,-212.28 86.76,-405.19 226.51,-544.94 139.75,-139.76 332.65,-226.51 544.93,-226.51l4505.29 0c212.28,0 405.18,86.75 544.93,226.51 139.75,139.75 226.51,332.66 226.51,544.94l0 949.07 -250 0 0 -949.07c0,-143.27 -58.71,-273.62 -153.27,-368.18 -94.56,-94.57 -224.9,-153.27 -368.17,-153.27l-4505.29 0c-143.27,0 -273.61,58.7 -368.17,153.27 -94.56,94.56 -153.27,224.91 -153.27,368.18l0 3737.68c0,143.27 58.71,273.62 153.27,368.18 94.56,94.57 224.9,153.27 368.17,153.27l3163.75 0 0 250z"/>
  <path class="fil0" d="M2663.65 5094.24l873.56 0 0 909.72 -998.56 0 0 -909.72 125 0zm623.56 250l-498.56 0 0 409.72 498.56 0 0 -409.72z"/>
  <polygon class="fil0" points="2207.8,5820.11 3868.06,5820.11 3868.06,6070.11 2207.8,6070.11 "/>
  <path class="fil0" d="M2126.83 5094.24l3163.75 0c143.27,0 273.61,-58.7 368.17,-153.27 94.56,-94.56 153.27,-224.91 153.27,-368.18l0 -3737.68c0,-143.27 -58.71,-273.62 -153.27,-368.18 -94.56,-94.57 -224.9,-153.27 -368.17,-153.27l-4505.29 0c-143.27,0 -273.61,58.7 -368.17,153.27 -94.56,94.56 -153.27,224.91 -153.27,368.18l0 949.07 -250 0 0 -949.07c0,-212.28 86.76,-405.19 226.51,-544.94 139.75,-139.76 332.65,-226.51 544.93,-226.51l4505.29 0c212.28,0 405.18,86.75 544.93,226.51 139.75,139.75 226.51,332.66 226.51,544.94l0 3737.68c0,212.28 -86.76,405.19 -226.51,544.94 -139.75,139.76 -332.65,226.51 -544.93,226.51l-3163.75 0 0 -250z"/>
  <path class="fil0" d="M2392.9 3360.43l-1289.15 -566.29 0 -131.39 1289.15 -642.74 0 200.05 -1049.27 497.63 1049.27 439.94 0 202.8zm1122.05 -1637.07l-730.64 1961.19 -222.49 0 730.18 -1961.19 222.95 0zm168.01 1434.27l1050.64 -437.2 -1050.64 -500.37 0 -200.05 1289.15 642.74 0 131.39 -1289.15 566.29 0 -202.8z"/>
  <polygon class="fil0" points="5779.25,392.8 6734.44,392.8 6739.99,994.03 6887.42,1099.37 7352.9,705.47 8067.52,1426.6 7680.19,1813.93 7772.93,2050.27 8399.93,2050.27 8399.93,3314.61 7772.93,3314.61 7680.19,3550.95 8067.52,3938.28 7352.9,4659.41 6887.42,4265.51 6739.99,4370.85 6734.44,4972.08 5779.27,4972.08 5779.27,4722.08 6487.71,4722.08 6492.14,4241.54 6900.47,3949.77 7338.15,4320.15 7715.29,3939.57 7388.04,3612.32 7602.97,3064.61 8149.93,3064.61 8149.93,2300.27 7602.97,2300.27 7388.04,1752.56 7715.29,1425.31 7338.15,1044.73 6900.47,1415.11 6492.14,1123.34 6487.71,642.8 5779.25,642.8 "/>
  <path class="fil0" d="M7373.15 2681.76l0 1.3c-0.36,358.15 -145.66,682.37 -380.41,917.14 -235.04,235.04 -559.75,380.43 -918.41,380.43l0 -250c289.65,0 551.86,-117.4 741.65,-307.19 189.63,-189.65 306.99,-451.63 307.17,-741.03 -0.18,-289.4 -117.54,-551.38 -307.17,-741.03 -189.79,-189.79 -452,-307.19 -741.65,-307.19l0 -250c358.66,0 683.37,145.39 918.41,380.43 234.75,234.77 380.05,558.99 380.41,917.14z"/>
 </g>
</svg>
