<?xml version="1.0" encoding="UTF-8"?>
<!DOCTYPE svg PUBLIC "-//W3C//DTD SVG 1.1//EN" "http://www.w3.org/Graphics/SVG/1.1/DTD/svg11.dtd">
<!-- Creator: CorelDRAW 2019 (64-Bit) -->
<svg xmlns="http://www.w3.org/2000/svg" xml:space="preserve" width="79mm" height="55mm" version="1.1" style="shape-rendering:geometricPrecision; text-rendering:geometricPrecision; image-rendering:optimizeQuality; fill-rule:evenodd; clip-rule:evenodd"
viewBox="0 0 7900 5500"
 xmlns:xlink="http://www.w3.org/1999/xlink">
 <defs>
  <style type="text/css">
   <![CDATA[
    .fil0 {fill:#EF7F1A;fill-rule:nonzero}
   ]]>
  </style>
 </defs>
 <g id="Слой_x0020_1">
  <metadata id="CorelCorpID_0Corel-Layer"/>
  <polygon class="fil0" points="4941.87,192.85 6003.81,192.85 6010,863.49 6193.09,994.31 6716.52,551.37 7501.19,1343.19 7068.01,1776.37 7180.49,2063.02 7882.81,2063.02 7882.81,3457.52 7180.49,3457.52 7068.01,3744.17 7501.19,4177.35 6716.52,4969.17 6193.09,4526.23 6010,4657.05 6003.81,5327.69 4941.89,5327.69 4941.89,5077.69 5757.08,5077.69 5762.15,4527.74 6206.14,4210.49 6701.77,4629.91 7148.96,4178.64 6775.86,3805.54 7010.53,3207.52 7632.81,3207.52 7632.81,2313.02 7010.53,2313.02 6775.86,1715 7148.96,1341.9 6701.77,890.63 6206.14,1310.05 5762.15,992.8 5757.08,442.85 4941.87,442.85 "/>
  <path class="fil0" d="M6848.38 2759.5l0 1.47c-0.41,399.69 -162.55,761.5 -424.53,1023.49 -262.28,262.29 -624.66,424.55 -1024.92,424.55l0 -250c331.25,0 631.12,-134.26 848.16,-351.31 216.88,-216.89 351.09,-516.5 351.29,-847.46 -0.2,-330.97 -134.41,-630.58 -351.29,-847.47 -217.04,-217.05 -516.91,-351.31 -848.16,-351.31l0 -250c400.26,0 762.64,162.26 1024.92,424.55 261.98,261.99 424.12,623.8 424.53,1023.49z"/>
  <polygon class="fil0" points="153.1,964.76 5485.99,964.76 5485.99,1164.76 153.1,1164.76 "/>
  <polygon class="fil0" points="2290.38,574.76 3348.7,574.76 3348.7,774.76 2290.38,774.76 "/>
  <path class="fil0" d="M2.63 3210.22l0 -2050.95c0,-310.9 127.1,-593.45 331.86,-798.21 204.76,-204.76 487.31,-331.86 798.21,-331.86l3261.16 0c310.9,0 593.45,127.1 798.21,331.86 204.76,204.76 331.86,487.31 331.86,798.21l0 3202.01c0,310.9 -127.1,593.45 -331.86,798.21 -204.76,204.76 -487.31,331.86 -798.21,331.86l-3261.16 0c-310.9,0 -593.45,-127.1 -798.21,-331.86 -204.76,-204.76 -331.86,-487.31 -331.86,-798.21l0 -1151.06zm250 -2050.95l0 3202.01c0,241.89 99.05,461.88 258.62,621.45 159.57,159.57 379.56,258.62 621.45,258.62l3261.16 0c241.89,0 461.88,-99.05 621.45,-258.62 159.57,-159.57 258.62,-379.56 258.62,-621.45l0 -3202.01c0,-241.89 -99.05,-461.88 -258.62,-621.45 -159.57,-159.57 -379.56,-258.62 -621.45,-258.62l-3261.16 0c-241.89,0 -461.88,99.05 -621.45,258.62 -159.57,159.57 -258.62,379.56 -258.62,621.45z"/>
  <polygon class="fil0" points="1060.01,2673.11 2184.59,2673.11 2184.59,2873.11 1060.01,2873.11 "/>
  <polygon class="fil0" points="2550.01,2673.11 4404.95,2673.11 4404.95,2873.11 2550.01,2873.11 "/>
  <polygon class="fil0" points="1060.01,4137.47 2103.56,4137.47 2103.56,4337.47 1060.01,4337.47 "/>
  <polygon class="fil0" points="1060.01,3427.56 4493,3427.56 4493,3627.56 1060.01,3627.56 "/>
 </g>
</svg>
