<?xml version="1.0" encoding="UTF-8"?>
<!DOCTYPE svg PUBLIC "-//W3C//DTD SVG 1.1//EN" "http://www.w3.org/Graphics/SVG/1.1/DTD/svg11.dtd">
<!-- Creator: CorelDRAW 2017 -->
<svg xmlns="http://www.w3.org/2000/svg" xml:space="preserve" width="85mm" height="70mm" version="1.1" style="shape-rendering:geometricPrecision; text-rendering:geometricPrecision; image-rendering:optimizeQuality; fill-rule:evenodd; clip-rule:evenodd"
viewBox="0 0 8500 7000"
 xmlns:xlink="http://www.w3.org/1999/xlink">
 <defs>
  <style type="text/css">
   <![CDATA[
    .str0 {stroke:#EF7F1A;stroke-width:250;stroke-miterlimit:22.9256}
    .fil0 {fill:none}
   ]]>
  </style>
 </defs>
 <g id="Слой_x0020_1">
  <metadata id="CorelCorpID_0Corel-Layer"/>
  <path class="fil0 str0" d="M6797.31 6577.5c-83.2,47.48 -179.35,74.66 -281.51,74.66l-1820.17 0c-314.23,0 -571.32,-257.09 -571.32,-571.32l0 -3037.66c0,-314.23 257.09,-571.32 571.32,-571.32l1820.17 0c314.23,0 571.32,257.09 571.32,571.32l0 1040.6"/>
  <rect class="fil0 str0" x="6694.01" y="4083.78" width="1580.63" height="2570.29" rx="304.8" ry="401.42"/>
  <path class="fil0 str0" d="M4124.31 5906.92l-3163.75 0c-355.56,0 -646.44,-290.9 -646.44,-646.45l0 -3737.68c0,-355.55 290.88,-646.45 646.44,-646.45l4505.29 0c355.56,0 646.44,290.9 646.44,646.45l0 949.07"/>
  <rect class="fil0 str0" x="2838.93" y="5906.92" width="748.55" height="659.72"/>
  <line class="fil0 str0" x1="2383.08" y1="6632.79" x2="4043.34" y2= "6632.79" />
 </g>
</svg>
